<?xml version="1.0" encoding="UTF-8" standalone="no"?>
<!DOCTYPE svg PUBLIC "-//W3C//DTD SVG 1.1//EN" "http://www.w3.org/Graphics/SVG/1.1/DTD/svg11.dtd">
<svg version="1.1" xmlns="http://www.w3.org/2000/svg" xmlns:xlink="http://www.w3.org/1999/xlink" preserveAspectRatio="xMidYMid meet" viewBox="0 0 640 640" width="640" height="640"><defs><path d="M603.92 69.74C603.92 51.08 588.79 35.95 570.13 35.95C541.78 35.95 315.02 35.95 286.68 35.95C268.02 35.95 252.89 51.08 252.89 69.74C252.89 119.79 252.89 520.21 252.89 570.26C252.89 588.92 268.02 604.05 286.68 604.05C315.02 604.05 541.78 604.05 570.13 604.05C588.79 604.05 603.92 588.92 603.92 570.26C603.92 559.51 603.92 505.72 603.92 408.91L603.92 153.73C603.92 103.33 603.92 75.34 603.92 69.74Z" id="fevR1CHLA"></path><path d="M603.91 109.85C603.91 109.85 603.91 109.85 603.91 109.85C603.91 355.05 603.91 491.27 603.91 518.51C603.91 518.51 603.91 518.51 603.91 518.51C393.3 518.51 276.29 518.51 252.89 518.51C252.89 518.51 252.89 518.51 252.89 518.51C252.89 273.31 252.89 137.09 252.89 109.85C252.89 109.85 252.89 109.85 252.89 109.85C463.5 109.85 580.51 109.85 603.91 109.85Z" id="clWKyLSfB"></path><path d="M450.34 363.88C450.34 363.88 450.34 363.88 450.34 363.88C243.3 363.88 128.28 363.88 105.28 363.88C72.12 363.88 45.23 390.76 45.23 423.92C45.23 423.92 45.23 423.92 45.23 423.92C45.23 457.08 72.12 483.96 105.28 483.96C128.28 483.96 243.3 483.96 450.34 483.96C428.24 426.01 428.24 385.99 450.34 363.88Z" id="f96EAncdX"></path><path d="M187.75 423.92C187.75 390.76 214.63 363.88 247.79 363.88C233.54 363.88 119.53 363.88 105.28 363.88C72.12 363.88 45.23 390.76 45.23 423.92C45.23 423.92 45.23 423.92 45.23 423.92C45.23 457.08 72.12 483.96 105.28 483.96C119.53 483.96 233.54 483.96 247.79 483.96C214.63 483.96 187.75 457.08 187.75 423.92C187.75 423.92 187.75 423.92 187.75 423.92Z" id="aEI3zHV0N"></path><path d="M200.29 137.62C188.26 113.09 157.08 103.7 153.38 105.52C149.68 107.33 138.01 137.73 150.05 162.26C162.08 186.8 195.75 194.96 196.96 194.37C198.58 193.57 212.32 162.16 200.29 137.62Z" id="aBfKbOIw5"></path><path d="M193.64 196.41C181.93 189.36 167.97 185.56 152.96 185.56C111.58 185.56 78.03 214.4 78.03 260.85C78.03 307.29 111.58 363.88 152.97 363.88C167.96 363.88 181.93 356.44 193.65 344.76C205.36 356.44 219.33 363.88 234.33 363.88C275.71 363.88 309.26 307.29 309.26 260.85C309.26 214.4 275.71 185.56 234.32 185.56C219.32 185.56 205.36 189.36 193.64 196.41Z" id="a5qXz5sbR"></path><path d="M36.08 604.05C36.08 604.05 36.08 604.05 36.08 604.05C279.67 604.05 415 604.05 442.06 604.05C475.23 604.05 502.11 577.17 502.11 544.01C502.11 544.01 502.11 544.01 502.11 544.01C502.11 510.85 475.23 483.96 442.06 483.96C415 483.96 279.67 483.96 36.08 483.96C58.19 541.91 58.19 581.94 36.08 604.05Z" id="a1ty5ndWkO"></path><path d="M337 483.96C370.16 483.96 397.04 510.85 397.04 544.01C397.04 544.01 397.04 544.01 397.04 544.01C397.04 577.17 370.16 604.05 337 604.05C347.51 604.05 431.57 604.05 442.08 604.05C475.24 604.05 502.12 577.17 502.12 544.01C502.12 544.01 502.12 544.01 502.12 544.01C502.12 510.85 475.24 483.96 442.08 483.96C421.06 483.96 347.51 483.96 337 483.96Z" id="bySRdmYxE"></path><path d="M386.84 61.35C380.46 61.35 375.29 66.52 375.29 72.9C375.29 79.28 380.46 84.45 386.84 84.45C395.15 84.45 461.66 84.45 469.97 84.45C476.35 84.45 481.52 79.28 481.52 72.9C481.52 66.52 476.35 61.35 469.97 61.35C453.35 61.35 395.15 61.35 386.84 61.35Z" id="j2kabFLw1D"></path><path d="M595.75 369.95C593.6 372.1 592.37 375.08 592.37 378.11C592.37 381.16 593.6 384.13 595.75 386.28C597.9 388.44 600.88 389.66 603.92 389.66C606.95 389.66 609.93 388.44 612.08 386.28C614.23 384.13 615.46 381.16 615.46 378.11C615.46 375.08 614.23 372.1 612.08 369.95C609.93 367.8 606.95 366.57 603.92 366.57C600.88 366.57 597.9 367.8 595.75 369.95Z" id="bctQeVGpc"></path><path d="M573.84 24.55L575.67 24.74L577.47 25L579.25 25.33L581.01 25.72L582.74 26.19L584.44 26.72L586.12 27.31L587.76 27.97L589.37 28.69L590.94 29.47L592.49 30.31L593.99 31.2L595.46 32.16L596.88 33.16L598.27 34.22L599.61 35.33L600.91 36.49L602.17 37.7L603.38 38.95L604.54 40.25L605.65 41.59L606.7 42.98L607.71 44.41L608.66 45.87L609.56 47.38L610.39 48.92L611.17 50.5L611.89 52.11L612.55 53.75L613.15 55.42L613.68 57.12L614.14 58.85L614.54 60.61L614.87 62.39L615.13 64.2L615.31 66.02L615.43 67.87L615.46 69.74L615.46 333.28L615.45 333.75L615.42 334.23L615.38 334.69L615.31 335.15L615.23 335.61L615.13 336.05L615.01 336.49L614.87 336.93L614.72 337.35L614.56 337.77L614.37 338.18L614.17 338.59L613.96 338.98L613.73 339.36L613.49 339.73L613.24 340.1L612.97 340.45L612.68 340.79L612.39 341.12L612.08 341.44L611.76 341.75L611.43 342.05L611.09 342.33L610.74 342.6L610.37 342.85L610 343.1L609.62 343.32L609.22 343.54L608.82 343.74L608.41 343.92L607.99 344.09L607.57 344.24L607.13 344.37L606.69 344.49L606.24 344.59L605.79 344.67L605.33 344.74L604.86 344.79L604.39 344.82L603.92 344.83L603.44 344.82L602.97 344.79L602.5 344.74L602.04 344.67L601.59 344.59L601.14 344.49L600.7 344.37L600.27 344.24L599.84 344.09L599.42 343.92L599.01 343.74L598.61 343.54L598.22 343.32L597.83 343.1L597.46 342.85L597.1 342.6L596.74 342.33L596.4 342.05L596.07 341.75L595.75 341.44L595.44 341.12L595.15 340.79L594.87 340.45L594.6 340.1L594.34 339.73L594.1 339.36L593.87 338.98L593.66 338.59L593.46 338.18L593.28 337.77L593.11 337.35L592.96 336.93L592.82 336.49L592.71 336.05L592.6 335.61L592.52 335.15L592.46 334.69L592.41 334.23L592.38 333.75L592.37 333.28L592.37 121.4L264.44 121.4L264.44 178.83L266.96 179.73L269.44 180.7L271.87 181.74L274.26 182.85L276.6 184.03L278.89 185.28L281.14 186.6L283.33 187.98L285.47 189.42L287.56 190.93L289.59 192.51L291.57 194.14L293.5 195.84L295.37 197.59L297.18 199.41L298.93 201.28L300.63 203.21L302.26 205.19L303.83 207.23L305.34 209.32L306.79 211.47L308.17 213.67L309.49 215.91L310.74 218.21L311.92 220.55L313.03 222.95L314.07 225.39L315.04 227.87L315.94 230.4L316.77 232.97L317.52 235.58L318.2 238.24L318.81 240.94L319.33 243.67L319.78 246.44L320.15 249.25L320.43 252.1L320.64 254.98L320.77 257.9L320.81 260.84L320.79 262.74L320.74 264.64L320.66 266.55L320.54 268.48L320.4 270.41L320.21 272.34L320 274.29L319.76 276.24L319.48 278.19L319.18 280.14L318.84 282.1L318.47 284.07L318.07 286.03L317.64 287.99L317.19 289.95L316.7 291.91L316.18 293.87L315.64 295.83L315.06 297.78L314.46 299.72L313.83 301.66L313.17 303.59L312.48 305.52L311.77 307.44L311.03 309.35L310.26 311.24L309.47 313.13L308.65 315L307.8 316.87L306.93 318.72L306.03 320.55L305.11 322.37L304.16 324.17L303.19 325.96L302.2 327.73L301.18 329.48L300.13 331.21L299.07 332.91L297.98 334.6L296.86 336.27L296.56 336.72L296.25 337.17L295.94 337.61L295.63 338.05L295.32 338.49L295.01 338.93L294.69 339.36L294.38 339.8L294.06 340.23L293.75 340.65L293.43 341.08L293.11 341.5L292.79 341.92L292.47 342.34L292.15 342.76L291.83 343.17L291.5 343.58L291.18 343.99L290.85 344.39L290.53 344.79L290.2 345.2L289.87 345.59L289.54 345.99L289.21 346.38L288.88 346.77L288.55 347.16L288.21 347.55L287.88 347.93L287.54 348.31L287.21 348.69L286.87 349.06L286.53 349.44L286.2 349.81L285.86 350.18L285.52 350.54L285.17 350.9L284.83 351.26L284.49 351.62L284.15 351.98L283.8 352.33L450.34 352.33L450.69 352.34L451.04 352.35L451.39 352.38L451.73 352.41L452.07 352.46L452.41 352.52L452.74 352.58L453.07 352.66L453.4 352.74L453.73 352.84L454.05 352.94L454.37 353.06L454.68 353.18L454.99 353.31L455.3 353.45L455.6 353.6L455.9 353.75L456.19 353.92L456.48 354.09L456.76 354.28L457.03 354.47L457.3 354.67L457.57 354.87L457.83 355.09L458.08 355.31L458.33 355.54L458.57 355.77L458.8 356.02L459.03 356.27L459.25 356.52L459.46 356.79L459.66 357.06L459.86 357.34L460.05 357.62L460.23 357.91L460.4 358.21L460.57 358.51L460.73 358.82L460.87 359.14L461.01 359.46L461.14 359.78L461.26 360.11L461.37 360.44L461.46 360.77L461.55 361.1L461.63 361.44L461.7 361.77L461.75 362.11L461.8 362.44L461.84 362.78L461.87 363.12L461.88 363.46L461.89 363.79L461.89 364.13L461.88 364.47L461.85 364.8L461.82 365.14L461.78 365.47L461.73 365.8L461.67 366.13L461.6 366.46L461.52 366.78L461.43 367.11L461.33 367.43L461.22 367.75L461.11 368.06L460.98 368.37L460.84 368.68L460.7 368.99L460.54 369.29L460.38 369.59L460.21 369.88L460.03 370.17L459.84 370.45L459.64 370.73L459.43 371L459.21 371.27L458.99 371.53L458.75 371.79L458.51 372.04L457.48 373.09L456.48 374.15L455.5 375.24L454.54 376.33L453.61 377.45L452.7 378.58L451.81 379.72L450.95 380.88L450.12 382.05L449.3 383.24L448.52 384.44L447.76 385.66L447.02 386.88L446.31 388.13L445.62 389.38L444.96 390.65L444.32 391.92L443.71 393.21L443.13 394.52L442.57 395.83L442.03 397.15L441.53 398.49L441.05 399.83L440.59 401.18L440.16 402.55L439.76 403.92L439.39 405.3L439.04 406.69L438.72 408.09L438.43 409.5L438.16 410.91L437.92 412.33L437.71 413.76L437.53 415.19L437.37 416.63L437.25 418.08L437.15 419.53L437.08 420.99L437.03 422.45L437.02 423.92L437.03 425.32L437.07 426.72L437.14 428.12L437.23 429.51L437.34 430.89L437.49 432.27L437.65 433.64L437.85 435.01L438.07 436.37L438.31 437.72L438.58 439.07L438.87 440.41L439.19 441.74L439.53 443.07L439.9 444.39L440.29 445.7L440.71 447L441.15 448.29L441.62 449.57L442.1 450.84L442.62 452.11L443.15 453.36L443.71 454.61L444.3 455.84L444.9 457.06L445.53 458.27L446.19 459.47L446.86 460.66L447.56 461.84L448.28 463.01L449.03 464.16L449.8 465.3L450.59 466.43L451.4 467.54L452.23 468.64L453.09 469.73L453.97 470.8L454.87 471.86L455.79 472.9L456.73 473.93L458.2 474.26L459.66 474.61L461.11 475L462.55 475.41L463.97 475.85L465.38 476.32L466.78 476.82L468.16 477.35L469.54 477.9L470.89 478.48L472.23 479.09L473.56 479.73L474.87 480.39L476.17 481.08L477.45 481.79L478.72 482.53L479.96 483.3L481.19 484.09L482.41 484.9L483.6 485.74L484.78 486.6L485.94 487.48L487.08 488.39L488.21 489.31L489.31 490.27L490.39 491.24L491.46 492.23L492.5 493.25L493.52 494.29L494.52 495.34L495.5 496.42L496.46 497.52L497.4 498.63L498.31 499.77L499.2 500.92L500.07 502.09L500.91 503.28L501.73 504.49L502.53 505.72L503.3 506.96L592.37 506.96L592.37 422L592.38 421.52L592.41 421.05L592.45 420.58L592.52 420.12L592.6 419.67L592.7 419.22L592.82 418.78L592.96 418.35L593.11 417.92L593.28 417.5L593.46 417.09L593.66 416.69L593.87 416.3L594.1 415.91L594.34 415.54L594.6 415.18L594.87 414.82L595.15 414.48L595.44 414.15L595.75 413.83L596.07 413.52L596.4 413.23L596.74 412.95L597.1 412.68L597.46 412.42L597.83 412.18L598.22 411.95L598.61 411.74L599.01 411.54L599.42 411.36L599.84 411.19L600.27 411.04L600.7 410.9L601.14 410.78L601.59 410.68L602.04 410.6L602.5 410.53L602.97 410.49L603.44 410.46L603.92 410.45L604.39 410.46L604.86 410.49L605.33 410.53L605.79 410.6L606.24 410.68L606.69 410.78L607.13 410.9L607.56 411.04L607.99 411.19L608.41 411.36L608.82 411.54L609.22 411.74L609.61 411.95L610 412.18L610.37 412.42L610.73 412.68L611.09 412.95L611.43 413.23L611.76 413.52L612.08 413.83L612.39 414.15L612.68 414.48L612.96 414.82L613.23 415.18L613.49 415.54L613.73 415.91L613.96 416.3L614.17 416.69L614.37 417.09L614.55 417.5L614.72 417.92L614.87 418.35L615.01 418.78L615.13 419.22L615.23 419.67L615.31 420.12L615.38 420.58L615.42 421.05L615.45 421.52L615.46 422L615.46 570.26L615.42 572.13L615.31 573.98L615.13 575.8L614.87 577.61L614.54 579.39L614.14 581.15L613.68 582.88L613.15 584.58L612.55 586.25L611.89 587.89L611.17 589.5L610.39 591.08L609.56 592.62L608.66 594.13L607.71 595.59L606.7 597.02L605.65 598.41L604.54 599.75L603.38 601.05L602.17 602.3L600.91 603.51L599.61 604.67L598.27 605.78L596.88 606.84L595.46 607.84L593.99 608.8L592.49 609.69L590.94 610.53L589.37 611.31L587.76 612.03L586.11 612.69L584.44 613.28L582.74 613.81L581.01 614.28L579.25 614.67L577.47 615L575.67 615.26L573.84 615.45L571.99 615.56L570.13 615.6L36.08 615.6L35.73 615.59L35.39 615.58L35.04 615.55L34.7 615.51L34.36 615.47L34.02 615.41L33.69 615.35L33.35 615.27L33.02 615.19L32.7 615.09L32.38 614.99L32.06 614.87L31.74 614.75L31.43 614.62L31.13 614.48L30.83 614.33L30.53 614.17L30.24 614.01L29.95 613.83L29.67 613.65L29.39 613.46L29.12 613.26L28.86 613.06L28.6 612.84L28.35 612.62L28.1 612.39L27.86 612.15L27.63 611.91L27.4 611.66L27.18 611.4L26.97 611.14L26.76 610.87L26.57 610.59L26.38 610.3L26.2 610.01L26.02 609.72L25.86 609.41L25.7 609.1L25.55 608.79L25.42 608.47L25.29 608.14L25.17 607.82L25.06 607.49L24.96 607.16L24.87 606.82L24.8 606.49L24.73 606.16L24.67 605.82L24.63 605.48L24.59 605.15L24.56 604.81L24.54 604.47L24.54 604.13L24.54 603.8L24.55 603.46L24.57 603.13L24.61 602.79L24.65 602.46L24.7 602.13L24.76 601.8L24.83 601.47L24.91 601.14L25 600.82L25.1 600.5L25.2 600.18L25.32 599.86L25.45 599.55L25.58 599.24L25.73 598.94L25.88 598.64L26.05 598.34L26.22 598.05L26.4 597.76L26.59 597.48L26.79 597.2L27 596.92L27.22 596.65L27.44 596.39L27.68 596.14L27.92 595.88L30.01 593.71L32 591.46L33.87 589.16L35.64 586.8L37.31 584.39L38.86 581.92L40.31 579.41L41.65 576.86L42.88 574.26L44.01 571.63L45.03 568.96L45.94 566.26L46.74 563.54L47.44 560.79L48.03 558.03L48.51 555.24L48.89 552.45L49.16 549.64L49.32 546.82L49.37 544.01L49.32 541.19L49.16 538.38L48.89 535.57L48.51 532.77L48.03 529.99L47.44 527.22L46.74 524.47L45.94 521.75L45.03 519.05L44.01 516.39L42.88 513.75L41.65 511.16L40.31 508.6L38.86 506.09L37.31 503.63L35.64 501.21L33.87 498.85L32 496.55L30.01 494.31L27.92 492.13L27.68 491.88L27.44 491.62L27.22 491.36L27 491.09L26.79 490.82L26.59 490.54L26.4 490.25L26.22 489.97L26.05 489.67L25.88 489.38L25.73 489.07L25.58 488.77L25.45 488.46L25.32 488.15L25.2 487.83L25.1 487.52L25 487.19L24.91 486.87L24.83 486.54L24.76 486.22L24.7 485.89L24.65 485.55L24.61 485.22L24.57 484.89L24.55 484.55L24.54 484.22L24.54 483.88L24.54 483.54L24.56 483.2L24.59 482.87L24.63 482.53L24.67 482.19L24.73 481.86L24.8 481.52L24.87 481.19L24.96 480.86L25.06 480.53L25.17 480.2L25.29 479.87L25.42 479.55L25.55 479.22L25.7 478.91L25.86 478.6L26.02 478.3L26.2 478L26.38 477.71L26.57 477.43L26.76 477.15L26.97 476.88L27.18 476.61L27.4 476.35L27.63 476.1L27.86 475.86L28.1 475.62L28.35 475.39L28.6 475.17L28.86 474.96L29.12 474.75L29.39 474.55L29.67 474.36L29.95 474.18L30.24 474.01L30.53 473.84L30.83 473.68L31.13 473.54L31.43 473.4L31.74 473.26L32.06 473.14L32.38 473.03L32.7 472.92L33.02 472.83L33.35 472.74L33.69 472.67L34.02 472.6L34.36 472.55L34.7 472.5L35.04 472.46L35.39 472.44L35.73 472.42L36.08 472.42L52.68 472.42L51.8 471.45L50.94 470.47L50.1 469.47L49.28 468.46L48.48 467.44L47.69 466.39L46.93 465.34L46.18 464.27L45.45 463.18L44.74 462.08L44.05 460.97L43.38 459.85L42.73 458.71L42.1 457.56L41.49 456.39L40.9 455.22L40.34 454.03L39.79 452.83L39.27 451.62L38.77 450.39L38.29 449.16L37.83 447.91L37.39 446.66L36.98 445.39L36.59 444.12L36.22 442.83L35.88 441.53L35.56 440.23L35.27 438.91L35 437.59L34.75 436.26L34.53 434.92L34.34 433.57L34.17 432.21L34.02 430.85L33.9 429.48L33.81 428.1L33.74 426.71L33.7 425.32L33.69 423.92L33.75 421.02L33.92 418.14L34.2 415.3L34.6 412.49L35.1 409.72L35.71 406.98L36.43 404.29L37.24 401.64L38.15 399.03L39.16 396.47L40.27 393.95L41.47 391.49L42.75 389.09L44.13 386.73L45.59 384.44L47.14 382.21L48.76 380.03L50.47 377.93L52.25 375.89L54.11 373.91L56.04 372.01L58.04 370.19L60.11 368.44L62.24 366.76L64.44 365.17L66.7 363.66L69.02 362.23L71.39 360.89L73.82 359.64L76.31 358.48L78.84 357.41L81.42 356.44L84.05 355.57L86.72 354.79L89.43 354.12L92.18 353.55L94.97 353.09L97.79 352.74L100.65 352.5L103.53 352.37L103.19 352.02L102.84 351.66L102.5 351.31L102.15 350.94L101.81 350.58L101.47 350.21L101.13 349.85L100.79 349.47L100.45 349.1L100.11 348.72L99.78 348.34L99.44 347.96L99.1 347.58L98.77 347.19L98.44 346.8L98.1 346.41L97.77 346.02L97.44 345.62L97.11 345.22L96.78 344.82L96.46 344.42L96.13 344.01L95.8 343.6L95.48 343.19L95.16 342.77L94.83 342.36L94.51 341.94L94.19 341.52L93.87 341.09L93.55 340.67L93.24 340.24L92.92 339.81L92.6 339.37L92.29 338.94L91.98 338.5L91.66 338.06L91.35 337.61L91.04 337.17L90.73 336.72L90.43 336.27L89.31 334.6L88.22 332.91L87.16 331.2L86.11 329.47L85.09 327.73L84.1 325.96L83.13 324.17L82.18 322.37L81.26 320.55L80.36 318.72L79.49 316.87L78.64 315L77.82 313.13L77.03 311.24L76.26 309.34L75.52 307.44L74.81 305.52L74.12 303.59L73.46 301.66L72.83 299.72L72.23 297.78L71.65 295.82L71.11 293.87L70.59 291.91L70.1 289.95L69.65 287.99L69.22 286.03L68.82 284.06L68.45 282.1L68.11 280.14L67.81 278.19L67.53 276.23L67.29 274.29L67.08 272.34L66.89 270.41L66.75 268.48L66.63 266.55L66.55 264.64L66.5 262.74L66.48 260.84L66.54 257.33L66.72 253.86L67.01 250.43L67.42 247.06L67.95 243.75L68.58 240.48L69.32 237.27L70.17 234.12L71.13 231.03L72.19 228L73.36 225.04L74.62 222.14L75.99 219.3L77.45 216.54L79.01 213.84L80.66 211.22L82.4 208.67L84.23 206.2L86.16 203.8L88.16 201.48L90.26 199.24L92.43 197.09L94.69 195.02L97.03 193.03L99.45 191.14L101.94 189.33L104.51 187.61L107.15 185.99L109.86 184.46L112.64 183.03L115.49 181.7L118.4 180.47L121.38 179.34L124.42 178.31L127.52 177.39L130.68 176.57L133.89 175.87L137.16 175.27L140.49 174.79L143.86 174.42L143.75 174.26L143.63 174.09L143.52 173.92L143.41 173.75L143.29 173.59L143.18 173.42L143.07 173.25L142.96 173.08L142.85 172.91L142.74 172.74L142.63 172.57L142.52 172.39L142.41 172.22L142.3 172.05L142.19 171.88L142.09 171.7L141.98 171.53L141.87 171.35L141.77 171.18L141.66 171L141.56 170.82L141.45 170.65L141.35 170.47L141.25 170.29L141.14 170.11L141.04 169.93L140.94 169.75L140.84 169.57L140.74 169.39L140.64 169.2L140.54 169.02L140.44 168.84L140.35 168.65L140.25 168.47L140.15 168.28L140.06 168.1L139.96 167.91L139.87 167.73L139.77 167.54L139.68 167.35L139.11 166.15L138.57 164.95L138.06 163.74L137.58 162.54L137.13 161.33L136.7 160.13L136.31 158.93L135.94 157.72L135.6 156.52L135.28 155.32L134.99 154.13L134.73 152.93L134.48 151.75L134.26 150.56L134.07 149.39L133.89 148.21L133.74 147.05L133.6 145.89L133.49 144.74L133.39 143.6L133.32 142.47L133.26 141.34L133.22 140.23L133.19 139.13L133.18 138.04L133.18 136.96L133.2 135.89L133.23 134.83L133.28 133.79L133.34 132.77L133.41 131.76L133.49 130.76L133.58 129.78L133.67 128.82L133.78 127.87L133.9 126.94L134.02 126.03L134.15 125.14L134.29 124.27L134.43 123.41L134.53 122.87L134.64 122.29L134.75 121.67L134.88 121.03L135.01 120.36L135.16 119.66L135.32 118.93L135.49 118.19L135.67 117.42L135.86 116.64L136.07 115.84L136.29 115.02L136.52 114.2L136.76 113.36L137.01 112.52L137.28 111.68L137.56 110.82L137.86 109.97L138.17 109.12L138.49 108.27L138.83 107.43L139.18 106.59L139.55 105.77L139.93 104.95L140.33 104.15L140.74 103.36L141.17 102.59L141.62 101.84L142.08 101.12L142.56 100.41L143.05 99.74L143.56 99.09L144.09 98.47L144.64 97.88L145.2 97.33L145.78 96.81L146.38 96.33L147 95.9L147.64 95.5L148.3 95.15L148.97 94.85L149.68 94.59L150.4 94.36L151.14 94.18L151.91 94.04L152.69 93.93L153.49 93.86L154.3 93.82L155.13 93.81L155.97 93.84L156.82 93.89L157.67 93.97L158.54 94.08L159.41 94.21L160.28 94.36L161.16 94.54L162.04 94.74L162.92 94.95L163.8 95.18L164.67 95.43L165.54 95.7L166.4 95.97L167.26 96.26L168.1 96.56L168.94 96.87L169.76 97.18L170.57 97.5L171.36 97.82L172.14 98.15L172.89 98.48L173.63 98.8L174.35 99.13L175.04 99.45L175.71 99.77L176.35 100.08L176.97 100.38L177.56 100.68L178.11 100.96L178.64 101.23L179.13 101.49L179.89 101.9L180.66 102.33L181.45 102.77L182.24 103.23L183.05 103.71L183.86 104.2L184.69 104.71L185.52 105.24L186.35 105.79L187.2 106.35L188.04 106.93L188.89 107.54L189.75 108.16L190.6 108.79L191.46 109.45L192.32 110.13L193.17 110.82L194.03 111.54L194.88 112.27L195.73 113.03L196.57 113.8L197.41 114.6L198.24 115.41L199.07 116.25L199.89 117.1L200.7 117.98L201.5 118.88L202.29 119.8L203.07 120.74L203.84 121.7L204.59 122.68L205.33 123.69L206.06 124.71L206.77 125.76L207.47 126.84L208.14 127.93L208.8 129.05L209.44 130.19L210.06 131.35L210.66 132.54L211.2 133.68L211.72 134.83L212.2 135.99L212.66 137.14L213.09 138.3L213.49 139.46L213.86 140.63L214.21 141.79L214.53 142.95L214.83 144.12L215.1 145.28L215.35 146.44L215.58 147.6L215.78 148.75L215.96 149.9L216.12 151.05L216.26 152.19L216.38 153.33L216.48 154.47L216.56 155.59L216.63 156.71L216.68 157.82L216.71 158.93L216.72 160.02L216.72 161.11L216.7 162.19L216.67 163.25L216.63 164.31L216.57 165.35L216.5 166.38L216.42 167.4L216.33 168.41L216.23 169.4L216.12 170.37L216 171.34L215.88 172.28L215.74 173.21L215.6 174.13L215.45 175.02L215.3 175.9L215.76 175.81L216.22 175.72L216.69 175.63L217.15 175.54L217.62 175.46L218.08 175.38L218.55 175.3L219.02 175.22L219.49 175.15L219.96 175.08L220.43 175.01L220.9 174.94L221.37 174.88L221.84 174.81L222.31 174.75L222.79 174.69L223.26 174.64L223.74 174.59L224.21 174.53L224.69 174.49L225.16 174.44L225.64 174.4L226.12 174.35L226.6 174.31L227.08 174.28L227.56 174.24L228.04 174.21L228.52 174.18L229 174.15L229.48 174.13L229.96 174.11L230.45 174.09L230.93 174.07L231.41 174.05L231.9 174.04L232.38 174.03L232.87 174.02L233.35 174.01L233.84 174.01L234.32 174.01L234.5 174.01L234.68 174.01L234.86 174.01L235.04 174.01L235.21 174.01L235.39 174.02L235.57 174.02L235.75 174.02L235.92 174.02L236.1 174.03L236.28 174.03L236.45 174.04L236.63 174.04L236.81 174.05L236.98 174.05L237.16 174.06L237.33 174.06L237.51 174.07L237.68 174.08L237.86 174.08L238.04 174.09L238.21 174.1L238.39 174.11L238.56 174.11L238.74 174.12L238.91 174.13L239.08 174.14L239.26 174.15L239.43 174.16L239.61 174.17L239.78 174.18L239.96 174.19L240.13 174.2L240.3 174.21L240.48 174.22L240.65 174.23L240.83 174.24L241 174.25L241.17 174.27L241.35 174.28L241.35 69.74L241.38 67.87L241.5 66.02L241.68 64.2L241.94 62.39L242.27 60.61L242.67 58.85L243.13 57.12L243.66 55.42L244.26 53.75L244.91 52.11L245.63 50.5L246.41 48.92L247.25 47.38L248.15 45.87L249.1 44.41L250.1 42.98L251.16 41.59L252.27 40.25L253.43 38.95L254.64 37.7L255.89 36.49L257.19 35.33L258.54 34.22L259.92 33.16L261.35 32.16L262.82 31.2L264.32 30.31L265.86 29.47L267.44 28.69L269.05 27.97L270.69 27.31L272.37 26.72L274.07 26.19L275.8 25.72L277.56 25.33L279.34 25L281.14 24.74L282.97 24.55L284.81 24.44L286.68 24.4L570.13 24.4L571.99 24.44L573.84 24.55ZM512.35 530.4L512.41 530.73L512.47 531.07L512.54 531.42L512.6 531.76L512.65 532.1L512.71 532.44L512.77 532.78L512.82 533.13L512.87 533.47L512.92 533.81L512.97 534.16L513.02 534.5L513.06 534.85L513.11 535.2L513.15 535.54L513.19 535.89L513.23 536.24L513.27 536.59L513.3 536.94L513.34 537.28L513.37 537.63L513.4 537.98L513.43 538.34L513.46 538.69L513.48 539.04L513.51 539.39L513.53 539.74L513.55 540.1L513.57 540.45L513.58 540.8L513.6 541.16L513.61 541.51L513.62 541.87L513.63 542.22L513.64 542.58L513.65 542.94L513.65 543.29L513.65 543.65L513.66 544.01L513.64 545.41L513.6 546.8L513.53 548.19L513.44 549.56L513.32 550.94L513.18 552.3L513.01 553.66L512.81 555.01L512.59 556.35L512.34 557.68L512.07 559L511.78 560.32L511.46 561.62L511.12 562.92L510.75 564.2L510.36 565.48L509.95 566.75L509.52 568L509.06 569.25L508.58 570.48L508.08 571.7L507.55 572.92L507.01 574.12L506.44 575.3L505.85 576.48L505.24 577.64L504.61 578.8L503.96 579.93L503.29 581.06L502.6 582.17L501.89 583.27L501.16 584.35L500.42 585.43L499.65 586.48L498.86 587.52L498.06 588.55L497.24 589.56L496.4 590.56L495.54 591.54L494.67 592.51L570.13 592.51L571.04 592.49L571.95 592.43L572.85 592.34L573.73 592.21L574.6 592.05L575.47 591.86L576.32 591.63L577.15 591.37L577.97 591.08L578.78 590.75L579.57 590.4L580.34 590.02L581.1 589.61L581.83 589.17L582.55 588.7L583.25 588.21L583.93 587.69L584.59 587.15L585.23 586.58L585.85 585.98L586.44 585.37L587.01 584.73L587.55 584.07L588.07 583.39L588.57 582.69L589.03 581.97L589.47 581.23L589.88 580.48L590.26 579.7L590.62 578.91L590.94 578.11L591.23 577.29L591.49 576.45L591.72 575.6L591.92 574.74L592.08 573.87L592.2 572.98L592.29 572.09L592.35 571.18L592.37 570.26L592.37 530.06L512.28 530.06L512.35 530.4ZM59.93 496.38L60.42 497.24L60.9 498.12L61.37 498.99L61.82 499.87L62.27 500.76L62.71 501.65L63.14 502.54L63.56 503.43L63.97 504.33L64.37 505.23L64.76 506.14L65.14 507.04L65.51 507.95L65.87 508.87L66.22 509.79L66.56 510.71L66.89 511.63L67.22 512.55L67.53 513.48L67.83 514.41L68.13 515.34L68.41 516.28L68.68 517.22L68.95 518.16L69.2 519.1L69.45 520.04L69.68 520.99L69.91 521.93L70.13 522.88L70.33 523.84L70.53 524.79L70.72 525.74L70.9 526.7L71.06 527.66L71.22 528.61L71.37 529.57L71.51 530.54L71.64 531.5L71.76 532.46L343.54 532.46L344.01 532.47L344.48 532.5L344.95 532.55L345.41 532.61L345.86 532.7L346.31 532.8L346.75 532.91L347.19 533.05L347.61 533.2L348.03 533.37L348.44 533.55L348.84 533.75L349.23 533.96L349.62 534.19L349.99 534.43L350.35 534.69L350.71 534.96L351.05 535.24L351.38 535.54L351.7 535.84L352.01 536.16L352.3 536.49L352.59 536.84L352.85 537.19L353.11 537.55L353.35 537.93L353.58 538.31L353.79 538.7L353.99 539.1L354.17 539.51L354.34 539.93L354.49 540.36L354.63 540.79L354.75 541.23L354.85 541.68L354.93 542.13L355 542.59L355.04 543.06L355.07 543.53L355.08 544.01L355.07 544.48L355.04 544.95L355 545.42L354.93 545.88L354.85 546.33L354.75 546.78L354.63 547.22L354.49 547.66L354.34 548.08L354.17 548.5L353.99 548.91L353.79 549.31L353.58 549.71L353.35 550.09L353.11 550.46L352.85 550.83L352.59 551.18L352.3 551.52L352.01 551.85L351.7 552.17L351.38 552.48L351.05 552.77L350.71 553.06L350.35 553.33L349.99 553.58L349.62 553.82L349.23 554.05L348.84 554.27L348.44 554.46L348.03 554.65L347.61 554.81L347.19 554.97L346.75 555.1L346.31 555.22L345.86 555.32L345.41 555.4L344.95 555.47L344.48 555.52L344.01 555.54L343.54 555.55L71.76 555.55L71.64 556.52L71.51 557.48L71.37 558.44L71.22 559.4L71.06 560.36L70.9 561.32L70.72 562.27L70.53 563.23L70.33 564.18L70.13 565.13L69.91 566.08L69.68 567.03L69.45 567.97L69.2 568.92L68.95 569.86L68.68 570.8L68.41 571.74L68.13 572.67L67.83 573.6L67.53 574.53L67.22 575.46L66.89 576.39L66.56 577.31L66.22 578.23L65.87 579.15L65.51 580.06L65.14 580.97L64.76 581.88L64.37 582.78L63.97 583.69L63.56 584.58L63.14 585.48L62.71 586.37L62.27 587.26L61.82 588.14L61.37 589.02L60.9 589.9L60.42 590.77L59.93 591.64L59.44 592.5L337 592.5L339 592.46L340.97 592.34L342.93 592.14L344.86 591.87L346.76 591.52L348.64 591.09L350.49 590.6L352.31 590.03L354.1 589.39L355.86 588.69L357.58 587.92L359.27 587.08L360.92 586.19L362.53 585.23L364.1 584.21L365.62 583.13L367.11 582L368.54 580.82L369.94 579.58L371.28 578.28L372.57 576.94L373.81 575.55L375 574.11L376.13 572.63L377.2 571.1L378.22 569.53L379.18 567.92L380.08 566.28L380.91 564.59L381.68 562.87L382.38 561.11L383.02 559.32L383.59 557.5L384.09 555.65L384.51 553.77L384.86 551.86L385.14 549.93L385.34 547.98L385.46 546L385.5 544.01L385.46 542.01L385.34 540.04L385.14 538.08L384.86 536.15L384.51 534.25L384.09 532.37L383.59 530.52L383.02 528.7L382.38 526.91L381.68 525.15L380.91 523.43L380.08 521.74L379.18 520.09L378.22 518.48L377.2 516.91L376.13 515.38L375 513.9L373.81 512.46L372.57 511.07L371.28 509.73L369.94 508.44L368.54 507.2L367.11 506.01L365.62 504.88L364.1 503.8L362.53 502.79L360.92 501.83L359.27 500.93L357.58 500.1L355.86 499.33L354.1 498.62L352.31 497.99L350.49 497.42L348.64 496.92L346.76 496.5L344.86 496.15L342.93 495.87L340.97 495.67L339 495.55L337 495.51L59.44 495.51L59.93 496.38ZM390.48 496.48L391.33 497.46L392.17 498.45L393 499.47L393.8 500.49L394.58 501.53L395.35 502.59L396.1 503.66L396.83 504.75L397.54 505.84L398.23 506.96L398.9 508.08L399.55 509.22L400.18 510.37L400.79 511.54L401.37 512.71L401.94 513.9L402.49 515.1L403.01 516.31L403.51 517.53L403.99 518.77L404.45 520.01L404.89 521.27L405.3 522.54L405.69 523.81L406.05 525.1L406.4 526.39L406.71 527.7L407.01 529.01L407.28 530.34L407.52 531.67L407.75 533.01L407.94 534.36L408.11 535.72L408.26 537.08L408.38 538.45L408.47 539.83L408.54 541.22L408.58 542.61L408.59 544.01L408.58 545.41L408.54 546.8L408.47 548.18L408.38 549.56L408.26 550.94L408.11 552.3L407.94 553.66L407.75 555L407.52 556.35L407.28 557.68L407.01 559L406.71 560.32L406.4 561.62L406.05 562.92L405.69 564.2L405.3 565.48L404.89 566.74L404.45 568L403.99 569.25L403.51 570.48L403.01 571.7L402.49 572.91L401.94 574.12L401.37 575.3L400.79 576.48L400.18 577.64L399.55 578.79L398.9 579.93L398.23 581.06L397.54 582.17L396.83 583.27L396.1 584.35L395.35 585.42L394.58 586.48L393.8 587.52L393 588.55L392.17 589.56L391.33 590.56L390.48 591.54L389.6 592.5L442.07 592.5L444.06 592.46L446.04 592.34L447.99 592.14L449.92 591.87L451.83 591.52L453.71 591.09L455.56 590.6L457.38 590.03L459.17 589.39L460.92 588.69L462.65 587.92L464.33 587.08L465.98 586.19L467.59 585.23L469.16 584.21L470.69 583.13L472.17 582L473.61 580.82L475 579.58L476.34 578.28L477.63 576.94L478.87 575.55L480.06 574.11L481.19 572.63L482.27 571.1L483.29 569.53L484.24 567.92L485.14 566.28L485.97 564.59L486.74 562.87L487.45 561.11L488.09 559.32L488.65 557.5L489.15 555.65L489.57 553.77L489.93 551.86L490.2 549.93L490.4 547.98L490.52 546L490.56 544.01L490.52 542.01L490.4 540.04L490.2 538.08L489.93 536.15L489.57 534.25L489.15 532.37L488.65 530.52L488.09 528.7L487.45 526.91L486.74 525.15L485.97 523.43L485.14 521.74L484.24 520.09L483.29 518.48L482.27 516.91L481.19 515.38L480.06 513.9L478.87 512.46L477.63 511.07L476.34 509.73L475 508.44L473.61 507.2L472.17 506.01L470.69 504.88L469.16 503.8L467.59 502.79L465.98 501.83L464.33 500.93L462.65 500.1L460.92 499.33L459.17 498.62L457.38 497.99L455.56 497.42L453.7 496.92L451.83 496.5L449.92 496.15L447.99 495.87L446.04 495.67L444.06 495.55L442.06 495.51L389.6 495.51L390.48 496.48ZM103.28 375.47L101.31 375.59L99.35 375.78L97.42 376.06L95.52 376.41L93.64 376.84L91.79 377.33L89.97 377.9L88.18 378.54L86.42 379.24L84.7 380.01L83.01 380.85L81.36 381.74L79.75 382.7L78.18 383.72L76.66 384.79L75.17 385.93L73.73 387.11L72.34 388.35L71 389.64L69.71 390.99L68.47 392.38L67.28 393.82L66.15 395.3L65.08 396.82L64.06 398.39L63.1 400L62.2 401.65L61.37 403.34L60.6 405.06L59.89 406.82L59.26 408.61L58.69 410.43L58.19 412.28L57.77 414.16L57.42 416.06L57.14 418L56.94 419.95L56.82 421.93L56.78 423.92L56.82 425.92L56.94 427.89L57.14 429.85L57.42 431.78L57.77 433.68L58.19 435.56L58.69 437.41L59.26 439.23L59.89 441.02L60.6 442.78L61.37 444.5L62.2 446.19L63.1 447.84L64.06 449.45L65.08 451.02L66.15 452.54L67.28 454.03L68.47 455.46L69.71 456.86L71 458.2L72.34 459.49L73.73 460.73L75.17 461.92L76.66 463.05L78.18 464.12L79.75 465.14L81.36 466.1L83.01 467L84.7 467.83L86.42 468.6L88.18 469.3L89.97 469.94L91.79 470.51L93.64 471.01L95.52 471.43L97.42 471.78L99.35 472.06L101.31 472.26L103.28 472.38L105.28 472.42L195.19 472.42L194.31 471.45L193.46 470.47L192.62 469.47L191.79 468.46L190.99 467.44L190.2 466.39L189.44 465.34L188.69 464.27L187.96 463.18L187.25 462.08L186.56 460.97L185.89 459.85L185.24 458.71L184.61 457.56L184 456.39L183.42 455.22L182.85 454.03L182.3 452.83L181.78 451.62L181.28 450.39L180.8 449.16L180.34 447.91L179.9 446.66L179.49 445.39L179.1 444.12L178.74 442.83L178.39 441.53L178.08 440.23L177.78 438.91L177.51 437.59L177.26 436.26L177.04 434.92L176.85 433.57L176.68 432.21L176.53 430.85L176.41 429.48L176.32 428.1L176.25 426.71L176.21 425.32L176.2 423.92L176.21 422.52L176.25 421.13L176.32 419.74L176.41 418.36L176.53 416.99L176.68 415.63L176.85 414.27L177.04 412.92L177.26 411.58L177.51 410.25L177.78 408.93L178.08 407.61L178.39 406.31L178.74 405.01L179.1 403.73L179.49 402.45L179.9 401.18L180.34 399.93L180.8 398.68L181.28 397.45L181.78 396.23L182.3 395.01L182.85 393.81L183.42 392.62L184 391.45L184.61 390.28L185.24 389.13L185.89 388L186.56 386.87L187.25 385.76L187.96 384.66L188.69 383.57L189.44 382.5L190.2 381.45L190.99 380.41L191.79 379.38L192.62 378.37L193.46 377.37L194.31 376.39L195.19 375.42L105.28 375.42L103.28 375.47ZM245.79 375.47L243.82 375.59L241.86 375.78L239.93 376.06L238.03 376.41L236.15 376.84L234.3 377.33L232.48 377.9L230.69 378.54L228.93 379.24L227.21 380.01L225.52 380.85L223.87 381.74L222.26 382.7L220.69 383.72L219.17 384.79L217.68 385.93L216.25 387.11L214.86 388.35L213.51 389.64L212.22 390.99L210.98 392.38L209.79 393.82L208.66 395.3L207.59 396.82L206.57 398.39L205.61 400L204.71 401.65L203.88 403.34L203.11 405.06L202.41 406.82L201.77 408.61L201.2 410.43L200.7 412.28L200.28 414.16L199.93 416.06L199.65 418L199.45 419.95L199.33 421.93L199.29 423.92L199.33 425.92L199.45 427.89L199.65 429.85L199.93 431.78L200.28 433.68L200.7 435.56L201.2 437.41L201.77 439.23L202.41 441.02L203.11 442.78L203.88 444.5L204.71 446.19L205.61 447.84L206.57 449.45L207.59 451.02L208.66 452.54L209.79 454.03L210.98 455.46L212.22 456.86L213.51 458.2L214.86 459.49L216.25 460.73L217.68 461.92L219.17 463.05L220.69 464.12L222.26 465.14L223.87 466.1L225.52 467L227.21 467.83L228.93 468.6L230.69 469.3L232.48 469.94L234.3 470.51L236.15 471.01L238.03 471.43L239.93 471.78L241.86 472.06L243.82 472.26L245.79 472.38L247.79 472.42L426.96 472.42L426.47 471.57L425.99 470.71L425.51 469.86L425.05 468.99L424.6 468.13L424.15 467.25L423.72 466.38L423.29 465.5L422.88 464.61L422.47 463.73L422.07 462.83L421.68 461.94L421.3 461.04L420.93 460.13L420.57 459.22L420.21 458.31L419.87 457.4L419.54 456.48L419.21 455.56L418.9 454.63L418.59 453.7L418.3 452.77L418.01 451.83L417.74 450.89L417.47 449.95L417.21 449L416.96 448.06L416.72 447.1L416.5 446.15L416.28 445.19L416.07 444.23L415.87 443.27L415.68 442.3L415.5 441.33L415.33 440.36L415.16 439.39L415.01 438.41L414.87 437.43L414.74 436.45L414.62 435.47L247.79 435.47L247.31 435.46L246.84 435.43L246.38 435.38L245.92 435.32L245.46 435.23L245.01 435.13L244.57 435.01L244.14 434.88L243.71 434.73L243.29 434.56L242.88 434.38L242.48 434.18L242.09 433.97L241.71 433.74L241.33 433.5L240.97 433.24L240.62 432.97L240.27 432.69L239.94 432.39L239.62 432.09L239.32 431.77L239.02 431.44L238.74 431.09L238.47 430.74L238.21 430.38L237.97 430L237.74 429.62L237.53 429.23L237.33 428.83L237.15 428.42L236.98 428L236.83 427.57L236.7 427.14L236.58 426.7L236.48 426.25L236.39 425.79L236.33 425.33L236.28 424.87L236.25 424.4L236.24 423.92L236.25 423.45L236.28 422.97L236.33 422.51L236.39 422.05L236.48 421.59L236.58 421.15L236.7 420.71L236.83 420.27L236.98 419.84L237.15 419.43L237.33 419.02L237.53 418.61L237.74 418.22L237.97 417.84L238.21 417.47L238.47 417.1L238.74 416.75L239.02 416.41L239.32 416.08L239.62 415.76L239.94 415.45L240.27 415.15L240.62 414.87L240.97 414.6L241.33 414.35L241.71 414.1L242.09 413.88L242.48 413.66L242.88 413.46L243.29 413.28L243.71 413.11L244.14 412.96L244.57 412.83L245.01 412.71L245.46 412.61L245.92 412.53L246.38 412.46L246.84 412.41L247.31 412.38L247.79 412.37L414.62 412.37L414.74 411.39L414.87 410.41L415.01 409.43L415.16 408.45L415.32 407.48L415.49 406.51L415.68 405.54L415.87 404.57L416.07 403.61L416.28 402.65L416.49 401.69L416.72 400.74L416.96 399.79L417.21 398.84L417.47 397.89L417.74 396.95L418.01 396.01L418.3 395.07L418.59 394.14L418.9 393.21L419.21 392.29L419.54 391.36L419.87 390.44L420.21 389.53L420.57 388.62L420.93 387.71L421.3 386.81L421.68 385.91L422.07 385.01L422.47 384.12L422.87 383.23L423.29 382.34L423.72 381.46L424.15 380.59L424.6 379.72L425.05 378.85L425.51 377.99L425.99 377.13L426.47 376.27L426.96 375.42L247.79 375.42L245.79 375.47ZM232.42 197.12L231.48 197.15L230.53 197.2L229.59 197.25L228.66 197.31L227.72 197.39L226.79 197.48L225.87 197.58L224.94 197.69L224.02 197.82L223.11 197.95L222.2 198.1L221.29 198.26L220.39 198.43L219.49 198.61L218.6 198.8L217.71 199L216.83 199.22L215.95 199.44L215.07 199.68L214.2 199.93L213.34 200.19L212.48 200.46L211.63 200.75L210.78 201.04L209.94 201.34L209.11 201.66L208.28 201.99L207.46 202.33L206.64 202.67L205.83 203.03L205.03 203.4L204.23 203.79L203.44 204.18L202.65 204.58L201.88 205L201.11 205.42L200.35 205.86L199.59 206.3L199.32 206.46L199.04 206.62L198.75 206.76L198.47 206.9L198.18 207.02L197.89 207.14L197.6 207.26L197.3 207.36L197 207.45L196.7 207.54L196.4 207.62L196.1 207.69L195.8 207.75L195.49 207.8L195.18 207.85L194.88 207.89L194.57 207.92L194.26 207.94L193.95 207.95L193.64 207.95L193.33 207.95L193.02 207.94L192.72 207.92L192.41 207.89L192.1 207.85L191.8 207.8L191.49 207.75L191.19 207.69L190.88 207.62L190.58 207.54L190.28 207.45L189.98 207.36L189.69 207.26L189.4 207.14L189.11 207.02L188.82 206.9L188.53 206.76L188.25 206.62L187.97 206.46L187.69 206.3L186.94 205.86L186.18 205.42L185.41 205L184.63 204.58L183.85 204.18L183.06 203.79L182.26 203.4L181.46 203.03L180.65 202.67L179.83 202.32L179.01 201.99L178.18 201.66L177.34 201.34L176.5 201.04L175.66 200.75L174.8 200.46L173.94 200.19L173.08 199.93L172.21 199.68L171.34 199.44L170.46 199.22L169.58 199L168.69 198.8L167.79 198.61L166.9 198.42L165.99 198.26L165.09 198.1L164.18 197.95L163.26 197.82L162.34 197.69L161.42 197.58L160.49 197.48L159.56 197.39L158.63 197.31L157.69 197.25L156.75 197.2L155.81 197.15L154.86 197.12L153.91 197.11L152.96 197.1L150.18 197.15L147.45 197.3L144.76 197.54L142.12 197.87L139.52 198.3L136.98 198.82L134.48 199.43L132.04 200.13L129.65 200.91L127.31 201.78L125.03 202.74L122.81 203.78L120.65 204.9L118.55 206.1L116.5 207.37L114.53 208.73L112.61 210.16L110.76 211.67L108.98 213.25L107.27 214.9L105.63 216.62L104.06 218.41L102.56 220.27L101.14 222.19L99.79 224.18L98.52 226.24L97.32 228.35L96.21 230.53L95.18 232.76L94.23 235.05L93.36 237.4L92.58 239.8L91.89 242.26L91.28 244.77L90.77 247.33L90.34 249.94L90.01 252.6L89.77 255.3L89.62 258.05L89.57 260.84L89.59 262.4L89.63 263.97L89.7 265.55L89.79 267.13L89.92 268.72L90.07 270.32L90.25 271.92L90.45 273.53L90.68 275.14L90.93 276.76L91.22 278.38L91.52 280L91.85 281.62L92.21 283.24L92.59 284.86L93 286.48L93.43 288.1L93.88 289.72L94.36 291.33L94.86 292.94L95.39 294.55L95.94 296.15L96.51 297.74L97.11 299.33L97.72 300.92L98.36 302.49L99.02 304.05L99.71 305.61L100.41 307.15L101.14 308.69L101.88 310.21L102.65 311.72L103.44 313.22L104.25 314.71L105.08 316.18L105.93 317.63L106.8 319.07L107.69 320.49L108.6 321.9L109.52 323.29L110.47 324.66L111.43 326L112.4 327.31L113.38 328.59L114.38 329.83L115.38 331.05L116.39 332.24L117.41 333.4L118.45 334.52L119.49 335.61L120.54 336.67L121.59 337.7L122.66 338.7L123.73 339.66L124.81 340.59L125.9 341.48L126.99 342.35L128.09 343.18L129.19 343.97L130.3 344.73L131.41 345.46L132.53 346.15L133.65 346.8L134.78 347.42L135.91 348.01L137.04 348.56L138.17 349.07L139.31 349.55L140.45 349.99L141.59 350.39L142.73 350.75L143.87 351.08L145.01 351.37L146.15 351.63L147.29 351.84L148.43 352.02L149.56 352.15L150.7 352.25L151.83 352.31L152.96 352.33L154 352.32L155.02 352.27L156.04 352.19L157.04 352.08L158.04 351.95L159.02 351.79L160 351.6L160.97 351.38L161.92 351.14L162.87 350.88L163.8 350.59L164.73 350.29L165.64 349.96L166.54 349.61L167.44 349.24L168.31 348.86L169.18 348.45L170.04 348.03L170.88 347.6L171.71 347.15L172.53 346.69L173.34 346.21L174.13 345.73L174.91 345.23L175.68 344.72L176.43 344.21L177.18 343.68L177.9 343.15L178.62 342.62L179.31 342.07L180 341.53L180.67 340.98L181.33 340.43L181.97 339.87L182.59 339.32L183.2 338.77L183.8 338.22L184.38 337.67L184.94 337.12L185.49 336.58L185.66 336.41L185.83 336.25L186.01 336.09L186.19 335.94L186.37 335.79L186.55 335.65L186.73 335.5L186.92 335.37L187.11 335.23L187.3 335.11L187.49 334.98L187.69 334.86L187.88 334.75L188.08 334.63L188.28 334.53L188.48 334.42L188.69 334.32L188.89 334.23L189.1 334.14L189.31 334.05L189.51 333.97L189.72 333.89L189.94 333.82L190.15 333.75L190.36 333.68L190.58 333.62L190.79 333.57L191.01 333.51L191.22 333.46L191.44 333.42L191.66 333.38L191.88 333.34L192.1 333.31L192.32 333.29L192.54 333.26L192.76 333.24L192.98 333.23L193.2 333.22L193.42 333.21L193.64 333.21L193.87 333.21L194.09 333.22L194.31 333.23L194.53 333.24L194.75 333.26L194.97 333.29L195.19 333.31L195.41 333.34L195.63 333.38L195.85 333.42L196.06 333.46L196.28 333.51L196.5 333.57L196.71 333.62L196.93 333.68L197.14 333.75L197.35 333.82L197.56 333.89L197.77 333.97L197.98 334.05L198.19 334.14L198.4 334.23L198.6 334.32L198.8 334.42L199.01 334.53L199.21 334.63L199.4 334.75L199.6 334.86L199.8 334.98L199.99 335.11L200.18 335.23L200.37 335.37L200.56 335.5L200.74 335.65L200.92 335.79L201.1 335.94L201.28 336.09L201.46 336.25L201.63 336.41L201.8 336.58L202.35 337.12L202.91 337.67L203.49 338.22L204.09 338.77L204.7 339.32L205.32 339.87L205.96 340.43L206.62 340.98L207.29 341.53L207.97 342.07L208.67 342.62L209.39 343.15L210.11 343.68L210.85 344.21L211.61 344.72L212.38 345.23L213.16 345.73L213.95 346.21L214.76 346.69L215.58 347.15L216.41 347.6L217.25 348.03L218.11 348.45L218.97 348.86L219.85 349.24L220.74 349.61L221.65 349.96L222.56 350.29L223.48 350.59L224.42 350.88L225.37 351.14L226.32 351.38L227.29 351.6L228.26 351.79L229.25 351.95L230.25 352.08L231.25 352.19L232.27 352.27L233.29 352.32L234.32 352.33L235.46 352.31L236.59 352.25L237.72 352.15L238.86 352.02L240 351.84L241.14 351.63L242.28 351.37L243.42 351.08L244.56 350.75L245.7 350.39L246.84 349.99L247.98 349.55L249.11 349.07L250.25 348.56L251.38 348.01L252.51 347.42L253.63 346.8L254.76 346.15L255.87 345.46L256.99 344.73L258.1 343.97L259.2 343.18L260.3 342.35L261.39 341.48L262.48 340.59L263.56 339.66L264.63 338.7L265.69 337.7L266.75 336.67L267.8 335.61L268.84 334.52L269.87 333.4L270.9 332.24L271.91 331.05L272.91 329.84L273.9 328.59L274.89 327.31L275.86 326L276.82 324.66L277.76 323.29L278.69 321.9L279.6 320.49L280.49 319.07L281.36 317.63L282.21 316.18L283.04 314.71L283.85 313.22L284.64 311.72L285.4 310.21L286.15 308.69L286.88 307.16L287.58 305.61L288.27 304.05L288.93 302.49L289.57 300.92L290.18 299.33L290.78 297.75L291.35 296.15L291.9 294.55L292.42 292.94L292.93 291.33L293.4 289.72L293.86 288.1L294.29 286.48L294.7 284.86L295.08 283.24L295.43 281.62L295.77 280L296.07 278.38L296.35 276.76L296.61 275.14L296.84 273.53L297.04 271.92L297.22 270.32L297.37 268.72L297.49 267.13L297.59 265.55L297.66 263.97L297.7 262.4L297.71 260.85L297.67 258.05L297.52 255.3L297.28 252.6L296.95 249.94L296.52 247.33L296 244.77L295.4 242.26L294.7 239.8L293.92 237.4L293.06 235.05L292.11 232.76L291.08 230.53L289.96 228.35L288.77 226.24L287.5 224.18L286.15 222.19L284.73 220.27L283.23 218.41L281.66 216.62L280.02 214.9L278.3 213.25L276.52 211.67L274.67 210.16L272.76 208.73L270.78 207.37L268.74 206.1L266.64 204.9L264.48 203.78L262.25 202.74L259.97 201.78L257.64 200.91L255.25 200.13L252.81 199.43L250.31 198.82L247.76 198.3L245.17 197.87L242.53 197.54L239.84 197.3L237.1 197.15L234.32 197.1L233.37 197.11L232.42 197.12ZM158.98 119.74L158.7 120.66L158.43 121.63L158.17 122.64L157.91 123.69L157.66 124.78L157.43 125.91L157.21 127.08L157.01 128.28L156.83 129.51L156.67 130.76L156.53 132.05L156.41 133.36L156.33 134.69L156.27 136.04L156.25 137.41L156.25 138.8L156.3 140.19L156.38 141.6L156.5 143.02L156.67 144.44L156.88 145.87L157.14 147.3L157.44 148.73L157.8 150.16L158.21 151.58L158.67 153L159.19 154.4L159.77 155.8L160.42 157.18L161.04 158.39L161.72 159.57L162.45 160.72L163.22 161.83L164.02 162.92L164.87 163.97L165.76 164.99L166.67 165.98L167.62 166.93L168.59 167.86L169.59 168.76L170.61 169.63L171.65 170.46L172.71 171.27L173.77 172.05L174.85 172.8L175.94 173.52L177.03 174.21L178.12 174.87L179.21 175.51L180.3 176.12L181.38 176.69L182.45 177.25L183.51 177.77L184.56 178.27L185.58 178.74L186.59 179.18L187.57 179.6L188.53 179.99L189.46 180.36L190.36 180.7L190.63 179.8L190.9 178.85L191.17 177.87L191.44 176.85L191.7 175.79L191.95 174.7L192.19 173.58L192.42 172.43L192.64 171.26L192.84 170.06L193.02 168.83L193.18 167.59L193.32 166.32L193.43 165.04L193.52 163.75L193.59 162.44L193.62 161.12L193.62 159.79L193.59 158.46L193.52 157.12L193.42 155.78L193.28 154.44L193.09 153.1L192.87 151.77L192.6 150.44L192.28 149.12L191.91 147.81L191.5 146.51L191.03 145.23L190.5 143.96L189.92 142.71L189.22 141.35L188.48 140.04L187.68 138.77L186.85 137.53L185.97 136.34L185.06 135.18L184.12 134.07L183.15 132.99L182.15 131.95L181.12 130.95L180.08 129.98L179.01 129.05L177.93 128.16L176.85 127.31L175.75 126.49L174.64 125.71L173.54 124.96L172.43 124.25L171.33 123.57L170.24 122.93L169.15 122.32L168.08 121.75L167.03 121.21L165.99 120.7L164.97 120.22L163.99 119.78L163.02 119.37L162.1 118.99L161.2 118.65L160.34 118.33L159.53 118.05L159.25 118.87L158.98 119.74ZM285.76 47.51L284.86 47.57L283.96 47.66L283.08 47.79L282.2 47.95L281.34 48.14L280.49 48.37L279.66 48.63L278.84 48.92L278.03 49.25L277.24 49.6L276.47 49.98L275.71 50.39L274.97 50.83L274.25 51.3L273.55 51.79L272.87 52.31L272.21 52.86L271.58 53.42L270.96 54.02L270.37 54.63L269.8 55.27L269.26 55.93L268.74 56.61L268.24 57.31L267.78 58.03L267.34 58.77L266.93 59.52L266.54 60.3L266.19 61.09L265.87 61.89L265.58 62.71L265.32 63.55L265.09 64.4L264.89 65.26L264.73 66.13L264.61 67.02L264.51 67.91L264.46 68.82L264.44 69.74L264.44 98.3L592.37 98.3L592.37 69.74L592.35 68.82L592.3 67.91L592.2 67.02L592.08 66.13L591.92 65.26L591.72 64.4L591.49 63.55L591.23 62.71L590.94 61.89L590.62 61.09L590.27 60.3L589.88 59.52L589.47 58.77L589.03 58.03L588.57 57.31L588.07 56.61L587.55 55.93L587.01 55.27L586.44 54.63L585.85 54.02L585.23 53.42L584.6 52.86L583.94 52.31L583.26 51.79L582.56 51.3L581.84 50.83L581.1 50.39L580.34 49.98L579.57 49.6L578.78 49.25L577.97 48.92L577.15 48.63L576.32 48.37L575.47 48.14L574.61 47.95L573.73 47.79L572.85 47.66L571.95 47.57L571.04 47.51L570.13 47.5L286.68 47.5L285.76 47.51Z" id="b5gvyqbIP1"></path><path d="M471.36 177.18L494.97 199.92L494.97 159.5L474.3 159.5L471.36 177.18Z" id="a53OXkTpC"></path><path d="M502.71 232.76L428.44 172.97L369.04 220.97L349.67 232.76L339.57 228.55L339.57 218.45L428.44 145.19L515.56 218.45L515.56 232.76L502.71 232.76Z" id="kj4qvkKmK"></path><path d="M399.81 272.22L455.39 272.22L453.7 329.48L494.97 326.11L494.97 235.17L428.06 175.38L361.92 230.12L361.92 326.11L399.81 326.11L399.81 272.22Z" id="a3WjhhnYa9"></path><path d="M414.55 215.93L442.34 215.93L442.34 244.56L414.55 244.56L414.55 215.93Z" id="akjtyyZwB"></path><path d="M398.55 269.13L458.34 269.13L458.34 325.94L398.55 325.94L398.55 269.13Z" id="brAK6iOvw"></path><path d="M429.93 141.61L430.5 141.66L431.08 141.73L431.65 141.82L432.22 141.93L432.78 142.06L433.34 142.21L433.9 142.38L434.46 142.57L435 142.79L435.54 143.02L436.08 143.27L436.61 143.54L437.13 143.83L437.64 144.15L438.15 144.48L438.64 144.83L439.13 145.21L439.6 145.6L467.67 169.52L467.67 158.16L467.67 157.93L467.69 157.7L467.71 157.48L467.74 157.26L467.78 157.04L467.83 156.82L467.88 156.61L467.94 156.4L468.01 156.2L468.09 156L468.18 155.8L468.27 155.61L468.37 155.42L468.48 155.24L468.59 155.06L468.71 154.88L468.84 154.71L468.97 154.55L469.11 154.39L469.26 154.24L469.41 154.09L469.56 153.95L469.72 153.81L469.89 153.68L470.06 153.56L470.24 153.44L470.42 153.33L470.61 153.23L470.8 153.13L470.99 153.05L471.19 152.97L471.4 152.89L471.6 152.83L471.81 152.77L472.03 152.72L472.24 152.68L472.46 152.65L472.69 152.63L472.91 152.62L473.14 152.61L495.32 152.61L495.55 152.62L495.78 152.63L496 152.65L496.22 152.68L496.44 152.72L496.66 152.77L496.87 152.83L497.08 152.89L497.28 152.97L497.48 153.05L497.68 153.13L497.87 153.23L498.06 153.33L498.24 153.44L498.42 153.56L498.6 153.68L498.77 153.81L498.93 153.95L499.09 154.09L499.24 154.24L499.39 154.39L499.53 154.55L499.67 154.71L499.8 154.88L499.92 155.06L500.04 155.24L500.15 155.42L500.25 155.61L500.34 155.8L500.43 156L500.51 156.2L500.59 156.4L500.65 156.61L500.71 156.82L500.76 157.04L500.8 157.26L500.83 157.48L500.85 157.7L500.86 157.93L500.87 158.16L500.87 198.04L517.24 212.07L517.49 212.29L517.74 212.51L517.98 212.74L518.21 212.97L518.44 213.21L518.67 213.45L518.89 213.69L519.1 213.94L519.31 214.19L519.52 214.44L519.72 214.7L519.91 214.96L520.1 215.23L520.28 215.5L520.46 215.77L520.63 216.04L520.79 216.32L520.96 216.6L521.11 216.88L521.26 217.17L521.4 217.46L521.54 217.75L521.67 218.05L521.8 218.35L521.92 218.65L522.03 218.95L522.14 219.26L522.25 219.57L522.34 219.88L522.43 220.19L522.52 220.51L522.6 220.82L522.67 221.14L522.73 221.46L522.8 221.79L522.85 222.11L522.9 222.44L522.94 222.77L522.97 223.1L523 223.43L523.02 223.76L523.04 224.09L523.05 224.42L523.05 224.75L523.05 225.08L523.04 225.41L523.02 225.74L523 226.06L522.97 226.39L522.93 226.71L522.89 227.04L522.84 227.36L522.79 227.68L522.73 228L522.66 228.31L522.59 228.63L522.51 228.94L522.42 229.26L522.33 229.57L522.24 229.87L522.13 230.18L522.02 230.49L521.91 230.79L521.79 231.09L521.66 231.39L521.52 231.68L521.38 231.97L521.24 232.27L521.09 232.55L520.93 232.84L520.77 233.12L520.6 233.4L520.43 233.68L520.25 233.95L520.06 234.22L519.87 234.49L519.67 234.76L519.47 235.02L519.26 235.28L519.05 235.53L518.7 235.92L518.35 236.29L517.99 236.65L517.62 237L517.24 237.33L516.86 237.66L516.46 237.97L516.06 238.26L515.64 238.55L515.23 238.82L514.8 239.07L514.37 239.32L513.93 239.55L513.48 239.76L513.03 239.97L512.58 240.16L512.12 240.33L511.65 240.49L511.18 240.64L510.71 240.78L510.23 240.9L509.75 241L509.26 241.09L508.78 241.17L508.29 241.23L507.79 241.28L507.3 241.32L506.81 241.33L506.31 241.34L505.81 241.33L505.31 241.3L504.82 241.26L504.32 241.21L503.82 241.14L503.33 241.05L502.83 240.95L502.34 240.83L501.85 240.7L501.36 240.55L500.87 240.39L500.87 325.27L500.86 325.49L500.85 325.72L500.83 325.94L500.8 326.16L500.75 326.38L500.71 326.6L500.65 326.81L500.58 327.02L500.51 327.22L500.43 327.42L500.34 327.62L500.25 327.81L500.15 328L500.04 328.19L499.92 328.37L499.8 328.54L499.67 328.71L499.53 328.87L499.39 329.03L499.24 329.19L499.09 329.33L498.93 329.48L498.77 329.61L498.6 329.74L498.42 329.86L498.24 329.98L498.06 330.09L497.87 330.19L497.68 330.29L497.48 330.37L497.28 330.46L497.08 330.53L496.87 330.59L496.65 330.65L496.44 330.7L496.22 330.74L496 330.77L495.78 330.79L495.55 330.81L495.32 330.81L361.49 330.81L361.26 330.81L361.03 330.79L360.81 330.77L360.59 330.74L360.37 330.7L360.16 330.65L359.95 330.59L359.74 330.53L359.54 330.46L359.34 330.38L359.15 330.29L358.96 330.19L358.77 330.09L358.59 329.98L358.41 329.86L358.24 329.74L358.07 329.61L357.91 329.48L357.76 329.33L357.61 329.19L357.46 329.03L357.32 328.87L357.19 328.71L357.06 328.54L356.94 328.37L356.83 328.19L356.72 328L356.62 327.81L356.53 327.62L356.44 327.42L356.36 327.22L356.29 327.02L356.23 326.81L356.17 326.6L356.13 326.38L356.09 326.16L356.06 325.94L356.04 325.72L356.02 325.49L356.02 325.27L356.02 240.38L355.54 240.54L355.07 240.69L354.59 240.81L354.1 240.93L353.62 241.03L353.13 241.11L352.64 241.18L352.15 241.24L351.66 241.28L351.16 241.31L350.67 241.32L350.18 241.32L349.68 241.31L349.19 241.28L348.7 241.23L348.21 241.17L347.72 241.1L347.23 241.01L346.75 240.91L346.26 240.79L345.79 240.66L345.31 240.52L344.84 240.36L344.37 240.19L343.91 240L343.45 239.8L343 239.59L342.55 239.36L342.11 239.12L341.68 238.86L341.25 238.59L340.83 238.31L340.42 238.01L340.02 237.7L339.62 237.37L339.23 237.03L338.85 236.68L338.48 236.31L338.12 235.93L337.77 235.54L337.33 235L336.92 234.46L336.53 233.9L336.17 233.33L335.83 232.75L335.52 232.16L335.24 231.57L334.98 230.96L334.74 230.35L334.53 229.74L334.35 229.11L334.19 228.49L334.06 227.85L333.95 227.22L333.86 226.58L333.8 225.95L333.77 225.31L333.76 224.67L333.77 224.03L333.81 223.39L333.87 222.76L333.96 222.12L334.07 221.49L334.2 220.87L334.36 220.25L334.55 219.64L334.75 219.03L334.98 218.43L335.24 217.84L335.52 217.25L335.82 216.68L336.14 216.12L336.49 215.56L336.86 215.02L337.26 214.5L337.67 213.98L338.11 213.48L338.58 213L339.06 212.52L339.57 212.07L417.97 145.58L418.44 145.19L418.93 144.82L419.42 144.47L419.92 144.14L420.44 143.82L420.96 143.53L421.48 143.26L422.02 143.01L422.56 142.78L423.1 142.57L423.66 142.38L424.21 142.21L424.77 142.06L425.34 141.93L425.91 141.82L426.48 141.73L427.05 141.65L427.63 141.6L428.2 141.57L428.78 141.57L429.35 141.58L429.93 141.61ZM405.85 319.72L451.03 319.72L451.03 275.28L405.85 275.28L405.85 319.72ZM367.03 319.72L394.84 319.72L394.84 269.81L394.84 269.58L394.85 269.36L394.88 269.13L394.91 268.91L394.95 268.69L394.99 268.48L395.05 268.27L395.11 268.06L395.18 267.85L395.26 267.65L395.35 267.45L395.44 267.26L395.54 267.07L395.65 266.89L395.76 266.71L395.88 266.53L396.01 266.37L396.14 266.2L396.28 266.04L396.42 265.89L396.57 265.74L396.73 265.6L396.89 265.46L397.06 265.33L397.23 265.21L397.41 265.1L397.59 264.99L397.78 264.88L397.97 264.79L398.16 264.7L398.36 264.62L398.56 264.55L398.77 264.48L398.98 264.43L399.19 264.38L399.41 264.34L399.63 264.31L399.85 264.28L400.08 264.27L400.31 264.26L456.5 264.26L456.73 264.27L456.96 264.28L457.18 264.31L457.4 264.34L457.62 264.38L457.84 264.43L458.05 264.48L458.26 264.55L458.46 264.62L458.66 264.7L458.86 264.79L459.05 264.88L459.24 264.99L459.42 265.1L459.6 265.21L459.78 265.33L459.95 265.46L460.11 265.6L460.27 265.74L460.42 265.89L460.57 266.04L460.71 266.2L460.85 266.37L460.98 266.53L461.1 266.71L461.22 266.89L461.33 267.07L461.43 267.26L461.53 267.45L461.61 267.65L461.69 267.85L461.77 268.06L461.83 268.27L461.89 268.48L461.94 268.69L461.98 268.91L462.01 269.13L462.03 269.35L462.04 269.58L462.05 269.81L462.05 319.72L489.85 319.72L489.85 232.36L428.76 180.05L367.03 232.41L367.03 319.72ZM428.39 152.69L428.2 152.71L428.01 152.73L427.82 152.76L427.63 152.8L427.44 152.84L427.25 152.89L427.07 152.95L426.88 153.01L426.7 153.08L426.52 153.16L426.34 153.24L426.16 153.33L425.99 153.43L425.82 153.54L425.65 153.65L425.49 153.76L425.32 153.89L425.16 154.02L346.77 220.51L346.6 220.66L346.44 220.82L346.28 220.98L346.14 221.14L346 221.32L345.87 221.49L345.75 221.67L345.63 221.86L345.53 222.04L345.43 222.23L345.33 222.43L345.25 222.63L345.18 222.83L345.11 223.03L345.05 223.23L345 223.44L344.95 223.65L344.92 223.86L344.89 224.07L344.87 224.28L344.86 224.49L344.85 224.7L344.86 224.92L344.87 225.13L344.89 225.34L344.92 225.56L344.96 225.77L345 225.98L345.05 226.18L345.12 226.39L345.18 226.6L345.26 226.8L345.35 227L345.44 227.2L345.55 227.39L345.66 227.58L345.78 227.77L345.91 227.96L346.04 228.14L346.19 228.31L346.34 228.48L346.5 228.65L346.66 228.8L346.83 228.95L347 229.09L347.18 229.22L347.36 229.34L347.54 229.45L347.73 229.56L347.92 229.66L348.12 229.75L348.32 229.84L348.52 229.91L348.72 229.98L348.93 230.04L349.13 230.1L349.34 230.14L349.55 230.18L349.76 230.2L349.97 230.22L350.19 230.24L350.4 230.24L350.61 230.24L350.83 230.23L351.04 230.21L351.25 230.18L351.46 230.14L351.67 230.1L351.88 230.04L352.09 229.98L352.29 229.91L352.5 229.83L352.7 229.75L352.9 229.65L353.09 229.55L353.28 229.44L353.47 229.32L353.65 229.19L353.84 229.06L354.01 228.91L354.16 228.78L354.56 228.45L355.19 227.91L356.04 227.19L357.09 226.3L358.34 225.23L359.78 224.02L361.38 222.66L363.14 221.17L365.05 219.55L367.08 217.83L369.23 216L371.49 214.09L373.84 212.09L376.27 210.03L378.76 207.92L381.31 205.76L383.9 203.56L386.51 201.34L389.15 199.11L391.78 196.87L394.41 194.65L397.01 192.44L399.57 190.26L402.09 188.13L404.54 186.05L406.92 184.03L409.21 182.09L411.4 180.23L413.47 178.47L415.43 176.81L417.24 175.28L418.9 173.87L420.39 172.6L421.71 171.48L422.84 170.53L423.76 169.74L424.47 169.14L424.95 168.74L425.19 168.53L425.35 168.4L425.51 168.28L425.67 168.17L425.84 168.06L426.01 167.96L426.18 167.86L426.36 167.77L426.54 167.69L426.72 167.61L426.9 167.54L427.08 167.48L427.27 167.43L427.45 167.38L427.64 167.33L427.83 167.3L428.02 167.27L428.21 167.25L428.41 167.23L428.6 167.22L428.79 167.22L428.98 167.22L429.17 167.23L429.36 167.25L429.56 167.27L429.75 167.3L429.94 167.34L430.12 167.38L430.31 167.43L430.5 167.49L430.68 167.55L430.86 167.62L431.04 167.7L431.22 167.78L431.39 167.87L431.57 167.97L431.74 168.07L431.9 168.18L432.07 168.3L432.23 168.42L432.38 168.55L502.8 228.91L502.98 229.06L503.17 229.2L503.35 229.33L503.54 229.45L503.74 229.56L503.93 229.67L504.13 229.76L504.33 229.85L504.54 229.93L504.74 230L504.95 230.06L505.16 230.11L505.37 230.15L505.58 230.19L505.8 230.22L506.01 230.24L506.22 230.25L506.44 230.25L506.65 230.24L506.86 230.23L507.07 230.21L507.29 230.18L507.49 230.14L507.7 230.1L507.91 230.04L508.11 229.98L508.32 229.91L508.52 229.83L508.71 229.75L508.91 229.66L509.1 229.56L509.28 229.45L509.47 229.33L509.65 229.21L509.82 229.08L509.99 228.94L510.16 228.79L510.32 228.64L510.48 228.48L510.63 228.31L510.77 228.13L510.91 227.95L511.03 227.77L511.15 227.58L511.27 227.39L511.37 227.2L511.46 227L511.55 226.8L511.63 226.6L511.7 226.39L511.76 226.18L511.81 225.97L511.86 225.77L511.89 225.55L511.92 225.34L511.94 225.13L511.95 224.92L511.96 224.7L511.95 224.49L511.94 224.28L511.92 224.07L511.89 223.85L511.86 223.64L511.81 223.44L511.76 223.23L511.7 223.02L511.63 222.82L511.55 222.62L511.47 222.42L511.38 222.23L511.28 222.04L511.17 221.85L511.05 221.66L510.93 221.48L510.8 221.3L510.66 221.13L510.51 220.97L510.36 220.8L510.19 220.65L510.02 220.49L432.39 154.02L432.23 153.89L432.06 153.76L431.9 153.65L431.73 153.54L431.56 153.43L431.39 153.33L431.21 153.24L431.03 153.16L430.85 153.08L430.67 153.01L430.48 152.95L430.3 152.89L430.11 152.84L429.92 152.8L429.73 152.76L429.54 152.73L429.35 152.71L429.16 152.69L428.97 152.68L428.78 152.68L428.58 152.68L428.39 152.69ZM478.69 179.02L489.85 188.53L489.85 163.7L478.69 163.7L478.69 179.02Z" id="alOuhlhyb"></path><path d="M445.96 208.09L446.23 208.13L446.5 208.17L446.76 208.23L447.01 208.3L447.26 208.38L447.51 208.48L447.75 208.58L447.98 208.7L448.21 208.82L448.43 208.96L448.65 209.11L448.85 209.26L449.05 209.43L449.24 209.6L449.42 209.78L449.6 209.97L449.76 210.17L449.92 210.38L450.06 210.59L450.2 210.81L450.33 211.04L450.44 211.27L450.55 211.51L450.64 211.76L450.72 212.01L450.79 212.27L450.85 212.53L450.9 212.79L450.93 213.06L450.95 213.34L450.96 213.61L450.96 246.89L450.95 247.16L450.93 247.44L450.9 247.7L450.85 247.97L450.79 248.23L450.72 248.49L450.64 248.74L450.55 248.98L450.44 249.22L450.33 249.46L450.2 249.68L450.06 249.9L449.92 250.12L449.76 250.32L449.6 250.52L449.42 250.71L449.24 250.9L449.05 251.07L448.85 251.24L448.65 251.39L448.43 251.54L448.21 251.67L447.98 251.8L447.75 251.91L447.51 252.02L447.26 252.11L447.01 252.2L446.76 252.27L446.5 252.32L446.23 252.37L445.96 252.4L445.69 252.42L445.41 252.43L411.4 252.43L411.12 252.42L410.85 252.4L410.58 252.37L410.32 252.32L410.06 252.27L409.8 252.2L409.56 252.11L409.31 252.02L409.08 251.92L408.84 251.8L408.62 251.67L408.4 251.54L408.19 251.39L407.99 251.24L407.79 251.07L407.61 250.9L407.43 250.71L407.26 250.52L407.09 250.32L406.94 250.12L406.8 249.9L406.67 249.68L406.54 249.46L406.43 249.22L406.33 248.98L406.24 248.74L406.16 248.49L406.09 248.23L406.03 247.97L405.99 247.7L405.95 247.44L405.93 247.16L405.93 246.89L405.93 213.61L405.93 213.34L405.95 213.06L405.99 212.79L406.03 212.53L406.09 212.27L406.16 212.01L406.24 211.76L406.33 211.51L406.43 211.27L406.54 211.04L406.67 210.81L406.8 210.59L406.94 210.38L407.09 210.17L407.26 209.97L407.43 209.78L407.61 209.6L407.79 209.43L407.99 209.26L408.19 209.11L408.4 208.96L408.62 208.82L408.84 208.7L409.08 208.58L409.31 208.48L409.56 208.38L409.8 208.3L410.06 208.23L410.32 208.17L410.58 208.13L410.85 208.09L411.12 208.07L411.4 208.07L445.41 208.07L445.69 208.07L445.96 208.09ZM416.94 241.34L439.94 241.34L439.94 219.16L416.94 219.16L416.94 241.34Z" id="b1MTDMxxRK"></path><path d="M434.32 286.45C431.26 286.45 428.77 288.93 428.77 291.99C428.77 295.05 431.26 297.54 434.32 297.54C437.38 297.54 439.86 295.05 439.86 291.99C439.86 288.93 437.38 286.45 434.32 286.45Z" id="dqCMBdbs6"></path></defs><g><g><use xlink:href="#fevR1CHLA" opacity="1" fill="#72d8ff" fill-opacity="1"></use><g><use xlink:href="#fevR1CHLA" opacity="1" fill-opacity="0" stroke="#000000" stroke-width="1" stroke-opacity="0"></use></g></g><g><use xlink:href="#clWKyLSfB" opacity="1" fill="#ffffff" fill-opacity="1"></use><g><use xlink:href="#clWKyLSfB" opacity="1" fill-opacity="0" stroke="#000000" stroke-width="1" stroke-opacity="0"></use></g></g><g><use xlink:href="#f96EAncdX" opacity="1" fill="#edf2fa" fill-opacity="1"></use><g><use xlink:href="#f96EAncdX" opacity="1" fill-opacity="0" stroke="#000000" stroke-width="1" stroke-opacity="0"></use></g></g><g><use xlink:href="#aEI3zHV0N" opacity="1" fill="#5a54e0" fill-opacity="1"></use><g><use xlink:href="#aEI3zHV0N" opacity="1" fill-opacity="0" stroke="#000000" stroke-width="1" stroke-opacity="0"></use></g></g><g><use xlink:href="#aBfKbOIw5" opacity="1" fill="#d8fb93" fill-opacity="1"></use><g><use xlink:href="#aBfKbOIw5" opacity="1" fill-opacity="0" stroke="#000000" stroke-width="1" stroke-opacity="0"></use></g></g><g><use xlink:href="#a5qXz5sbR" opacity="1" fill="#a0e557" fill-opacity="1"></use><g><use xlink:href="#a5qXz5sbR" opacity="1" fill-opacity="0" stroke="#000000" stroke-width="1" stroke-opacity="0"></use></g></g><g><use xlink:href="#a1ty5ndWkO" opacity="1" fill="#edf2fa" fill-opacity="1"></use><g><use xlink:href="#a1ty5ndWkO" opacity="1" fill-opacity="0" stroke="#000000" stroke-width="1" stroke-opacity="0"></use></g></g><g><use xlink:href="#bySRdmYxE" opacity="1" fill="#ff5d5d" fill-opacity="1"></use><g><use xlink:href="#bySRdmYxE" opacity="1" fill-opacity="0" stroke="#000000" stroke-width="1" stroke-opacity="0"></use></g></g><g><use xlink:href="#j2kabFLw1D" opacity="1" fill="#000000" fill-opacity="1"></use><g><use xlink:href="#j2kabFLw1D" opacity="1" fill-opacity="0" stroke="#000000" stroke-width="1" stroke-opacity="0"></use></g></g><g><use xlink:href="#bctQeVGpc" opacity="1" fill="#000000" fill-opacity="1"></use><g><use xlink:href="#bctQeVGpc" opacity="1" fill-opacity="0" stroke="#000000" stroke-width="1" stroke-opacity="0"></use></g></g><g><use xlink:href="#b5gvyqbIP1" opacity="1" fill="#000000" fill-opacity="1"></use><g><use xlink:href="#b5gvyqbIP1" opacity="1" fill-opacity="0" stroke="#000000" stroke-width="1" stroke-opacity="0"></use></g></g><g><g><use xlink:href="#a53OXkTpC" opacity="1" fill="#db3e5b" fill-opacity="1"></use><g><use xlink:href="#a53OXkTpC" opacity="1" fill-opacity="0" stroke="#000000" stroke-width="1" stroke-opacity="1"></use></g></g><g><use xlink:href="#kj4qvkKmK" opacity="1" fill="#db3e5b" fill-opacity="1"></use><g><use xlink:href="#kj4qvkKmK" opacity="1" fill-opacity="0" stroke="#000000" stroke-width="1" stroke-opacity="1"></use></g></g><g><use xlink:href="#a3WjhhnYa9" opacity="1" fill="#fef0a9" fill-opacity="1"></use></g><g><g><use xlink:href="#akjtyyZwB" opacity="1" fill="#34acea" fill-opacity="1"></use></g><g><use xlink:href="#brAK6iOvw" opacity="1" fill="#cc6218" fill-opacity="1"></use></g><g><use xlink:href="#alOuhlhyb" opacity="1" fill="#000000" fill-opacity="1"></use><g><use xlink:href="#alOuhlhyb" opacity="1" fill-opacity="0" stroke="#000000" stroke-width="1" stroke-opacity="0"></use></g></g><g><use xlink:href="#b1MTDMxxRK" opacity="1" fill="#000000" fill-opacity="1"></use><g><use xlink:href="#b1MTDMxxRK" opacity="1" fill-opacity="0" stroke="#000000" stroke-width="1" stroke-opacity="0"></use></g></g><g><use xlink:href="#dqCMBdbs6" opacity="1" fill="#000000" fill-opacity="1"></use><g><use xlink:href="#dqCMBdbs6" opacity="1" fill-opacity="0" stroke="#000000" stroke-width="1" stroke-opacity="0"></use></g></g></g></g></g></svg>