<?xml version="1.0" encoding="UTF-8" standalone="no"?>
<!DOCTYPE svg PUBLIC "-//W3C//DTD SVG 1.1//EN" "http://www.w3.org/Graphics/SVG/1.1/DTD/svg11.dtd">
<svg version="1.1" xmlns="http://www.w3.org/2000/svg" xmlns:xlink="http://www.w3.org/1999/xlink" preserveAspectRatio="xMidYMid meet" viewBox="0 0 640 640" width="640" height="640"><defs><path d="M15.51 432.36L628.99 432.36L628.99 463.82L15.51 463.82L15.51 432.36Z" id="b13S2rOPYO"></path><path d="M146.97 151.46L214.38 151.46L214.38 377.3L146.97 377.3L146.97 151.46Z" id="b1rGebf9Xd"></path><path d="M106.52 141.35L139.1 141.35L139.1 418.88L106.52 418.88L106.52 141.35Z" id="d3tXmUCwa"></path><path d="M146.97 108.76L216.63 108.76L216.63 141.35L146.97 141.35L146.97 108.76Z" id="b18eDi41GM"></path><path d="M146.97 390.79L214.38 390.79L214.38 422.25L146.97 422.25L146.97 390.79Z" id="eMG8DQIgO"></path><path d="M225.62 131.24L282.92 131.24L282.92 422.25L225.62 422.25L225.62 131.24Z" id="b8v7Woso8N"></path><path d="M282.92 108.76L320 108.76L320 422.25L282.92 422.25L282.92 108.76Z" id="a2Qx8j4BD7"></path><path d="M328.99 145.84L355.96 145.84L355.96 184.04L328.99 184.04L328.99 145.84Z" id="gTziw7hN"></path><path d="M328.99 387.42L355.96 387.42L355.96 425.62L328.99 425.62L328.99 387.42Z" id="a5qIRxCRjE"></path><path d="M325.62 191.91L359.33 191.91L359.33 387.42L325.62 387.42L325.62 191.91Z" id="b2ggkyKbzc"></path><path d="M366.07 81.8L428.99 81.8L428.99 422.25L366.07 422.25L366.07 81.8Z" id="b2D5Uqaao2"></path><path d="M435.73 112.13L464.94 112.13L464.94 425.62L435.73 425.62L435.73 112.13Z" id="b7PXkZ0Mh"></path><path d="M476.18 151.46L537.98 151.46L537.98 184.04L476.18 184.04L476.18 151.46Z" id="fseEPNNaW"></path><path d="M476.18 389.66L537.98 389.66L537.98 422.25L476.18 422.25L476.18 389.66Z" id="d3DkyAIZL7"></path><path d="M476.18 191.91L537.98 191.91L537.98 380.67L476.18 380.67L476.18 191.91Z" id="bGV4MC58Y"></path><path d="M545.84 131.24L588.54 131.24L588.54 422.25L545.84 422.25L545.84 131.24Z" id="cAaXpRe0n"></path><path d="M57.08 172.81L96.4 172.81L96.4 418.88L57.08 418.88L57.08 172.81Z" id="aaGhiW4twm"></path><path d="M421.79 65.19L422.57 65.27L423.34 65.38L424.1 65.52L424.86 65.69L425.6 65.89L426.33 66.12L427.04 66.37L427.74 66.66L428.43 66.96L429.11 67.3L429.77 67.66L430.41 68.04L431.04 68.45L431.65 68.88L432.25 69.33L432.82 69.81L433.38 70.3L433.92 70.82L434.43 71.36L434.93 71.91L435.41 72.49L435.86 73.08L436.29 73.69L436.7 74.32L437.08 74.97L437.44 75.63L437.77 76.3L438.08 76.99L438.36 77.69L438.62 78.41L438.84 79.14L439.04 79.88L439.21 80.63L439.35 81.4L439.46 82.17L439.54 82.95L439.59 83.74L439.61 84.54L439.61 95.22L439.62 95.22L439.64 95.22L439.66 95.22L439.67 95.21L439.69 95.21L439.7 95.21L439.73 95.21L439.76 95.21L439.8 95.21L439.83 95.21L439.92 95.2L439.95 95.2L439.97 95.2L440 95.19L440.01 95.19L440.05 95.19L440.06 95.19L440.09 95.19L440.11 95.19L440.12 95.19L440.14 95.19L440.16 95.19L440.17 95.19L440.19 95.19L440.2 95.19L440.22 95.19L440.23 95.19L460.27 95.19L461.07 95.2L461.86 95.25L462.65 95.33L463.42 95.44L464.18 95.58L464.93 95.75L465.67 95.95L466.4 96.18L467.12 96.43L467.82 96.71L468.51 97.02L469.19 97.36L469.85 97.71L470.49 98.1L471.12 98.51L471.73 98.94L472.33 99.39L472.9 99.86L473.46 100.36L473.99 100.88L474.51 101.42L475.01 101.97L475.48 102.55L475.94 103.14L476.37 103.75L476.77 104.38L477.16 105.02L477.52 105.68L477.85 106.36L478.16 107.05L478.44 107.75L478.7 108.47L478.92 109.2L479.12 109.94L479.29 110.69L479.43 111.45L479.54 112.23L479.62 113.01L479.67 113.8L479.69 114.6L479.69 135.3L479.7 135.29L479.72 135.29L479.73 135.29L479.75 135.29L479.77 135.29L479.78 135.29L479.81 135.29L479.84 135.29L479.87 135.29L479.91 135.28L480 135.28L480.03 135.28L480.05 135.27L480.08 135.27L480.09 135.27L480.12 135.27L480.14 135.27L480.17 135.27L480.19 135.27L480.2 135.27L480.22 135.27L480.23 135.27L480.25 135.26L480.27 135.26L480.28 135.26L480.3 135.26L480.31 135.26L530.41 135.26L530.43 135.26L530.44 135.26L530.46 135.26L530.47 135.26L530.49 135.27L530.51 135.27L530.52 135.27L530.54 135.27L530.55 135.27L530.58 135.27L530.6 135.27L530.63 135.27L530.65 135.27L530.66 135.27L530.69 135.28L530.73 135.28L530.82 135.28L530.85 135.29L530.88 135.29L530.91 135.29L530.94 135.29L530.96 135.29L530.97 135.29L530.99 135.29L531.01 135.29L531.02 135.29L531.04 135.3L531.04 134.64L531.05 133.84L531.1 133.05L531.18 132.27L531.29 131.49L531.43 130.73L531.6 129.98L531.8 129.24L532.03 128.51L532.28 127.79L532.57 127.09L532.87 126.4L533.21 125.72L533.57 125.06L533.95 124.42L534.36 123.79L534.79 123.18L535.24 122.59L535.72 122.01L536.21 121.45L536.73 120.92L537.27 120.4L537.82 119.9L538.4 119.43L538.99 118.98L539.6 118.54L540.23 118.14L540.88 117.75L541.54 117.4L542.21 117.06L542.9 116.75L543.6 116.47L544.32 116.22L545.05 115.99L545.79 115.79L546.54 115.62L547.31 115.48L548.08 115.37L548.86 115.29L549.65 115.24L550.45 115.23L580.51 115.23L581.31 115.24L582.1 115.29L582.88 115.37L583.65 115.48L584.42 115.62L585.17 115.79L585.91 115.99L586.64 116.22L587.35 116.47L588.06 116.75L588.75 117.06L589.42 117.4L590.08 117.75L590.73 118.14L591.36 118.54L591.97 118.98L592.56 119.43L593.14 119.9L593.69 120.4L594.23 120.92L594.75 121.45L595.24 122.01L595.72 122.59L596.17 123.18L596.6 123.79L597.01 124.42L597.39 125.06L597.75 125.72L598.09 126.4L598.39 127.09L598.68 127.79L598.93 128.51L599.16 129.24L599.36 129.98L599.53 130.73L599.67 131.49L599.78 132.27L599.86 133.05L599.91 133.84L599.92 134.64L599.92 415.19L599.92 415.2L599.92 415.22L599.92 415.23L599.92 415.25L599.92 415.27L599.92 415.28L599.92 415.3L599.92 415.31L599.92 415.33L599.92 415.36L599.92 415.37L599.91 415.41L599.91 415.42L599.91 415.44L599.91 415.47L599.91 415.5L599.9 415.59L599.9 415.62L599.9 415.66L599.9 415.69L599.89 415.72L599.89 415.73L599.89 415.75L599.89 415.77L599.89 415.78L599.89 415.8L599.89 415.81L620.59 415.81L621.39 415.83L622.18 415.88L622.96 415.96L623.73 416.07L624.49 416.21L625.25 416.38L625.99 416.58L626.72 416.8L627.43 417.06L628.14 417.34L628.83 417.65L629.5 417.98L630.16 418.34L630.81 418.72L631.43 419.13L632.04 419.56L632.64 420.02L633.21 420.49L633.77 420.99L634.31 421.5L634.82 422.04L635.32 422.6L635.8 423.17L636.25 423.77L636.68 424.38L637.09 425.01L637.47 425.65L637.83 426.31L638.16 426.99L638.47 427.68L638.75 428.38L639.01 429.1L639.24 429.82L639.43 430.57L639.6 431.32L639.75 432.08L639.86 432.85L639.94 433.64L639.98 434.43L640 435.23L640 455.26L639.98 456.06L639.94 456.85L639.86 457.64L639.75 458.41L639.6 459.17L639.43 459.92L639.24 460.66L639.01 461.39L638.75 462.11L638.47 462.81L638.16 463.5L637.83 464.18L637.47 464.84L637.09 465.48L636.68 466.11L636.25 466.72L635.8 467.32L635.32 467.89L634.82 468.45L634.31 468.98L633.77 469.5L633.21 470L632.64 470.47L632.04 470.93L631.43 471.36L630.81 471.76L630.16 472.15L629.5 472.51L628.83 472.84L628.14 473.15L627.43 473.43L626.72 473.69L625.99 473.91L625.25 474.11L624.49 474.28L623.73 474.42L622.96 474.53L622.18 474.61L621.39 474.66L620.59 474.68L596.33 474.68L548.83 569.68L548.71 569.92L548.58 570.15L548.44 570.38L548.3 570.61L548.15 570.83L548 571.05L547.84 571.26L547.67 571.46L547.5 571.66L547.33 571.86L547.15 572.04L546.97 572.23L546.78 572.41L546.58 572.58L546.39 572.74L546.18 572.9L545.98 573.06L545.77 573.21L545.55 573.35L545.34 573.49L545.12 573.62L544.89 573.75L544.66 573.86L544.43 573.98L544.2 574.08L543.96 574.18L543.72 574.28L543.48 574.36L543.24 574.44L542.99 574.52L542.74 574.58L542.49 574.64L542.24 574.7L541.99 574.74L541.73 574.78L541.47 574.81L541.22 574.84L540.96 574.86L540.69 574.87L540.43 574.87L540.38 574.87L540.33 574.87L540.27 574.87L540.22 574.87L540.16 574.87L540.11 574.87L540.06 574.87L540 574.86L539.95 574.86L539.89 574.86L539.84 574.85L539.79 574.85L539.73 574.85L539.68 574.84L539.62 574.84L539.57 574.83L539.52 574.83L539.46 574.82L539.41 574.82L539.35 574.81L539.3 574.8L539.25 574.8L539.19 574.79L539.14 574.78L539.08 574.78L539.03 574.77L538.98 574.76L538.92 574.75L538.87 574.74L538.81 574.73L538.76 574.72L538.71 574.71L538.65 574.7L538.6 574.69L538.54 574.68L538.49 574.67L538.43 574.66L538.38 574.65L538.33 574.63L538.27 574.62L537.96 574.54L537.65 574.45L537.34 574.35L537.04 574.24L536.74 574.12L536.45 573.99L536.17 573.85L535.89 573.7L535.62 573.55L535.35 573.38L535.09 573.21L534.84 573.03L534.59 572.84L534.35 572.64L534.12 572.44L533.89 572.23L533.68 572.01L533.46 571.78L533.26 571.55L533.07 571.31L532.88 571.06L532.7 570.81L532.53 570.55L532.36 570.29L532.21 570.02L532.06 569.75L531.93 569.47L531.8 569.19L531.68 568.9L531.57 568.6L531.47 568.31L531.38 568.01L531.3 567.7L531.23 567.39L531.17 567.08L531.13 566.77L531.09 566.45L531.06 566.13L531.04 565.81L531.04 565.48L531.04 474.68L108.96 474.68L108.96 565.48L108.96 565.81L108.94 566.13L108.91 566.45L108.87 566.77L108.83 567.08L108.77 567.39L108.7 567.7L108.62 568.01L108.53 568.31L108.43 568.6L108.32 568.9L108.2 569.19L108.07 569.47L107.94 569.75L107.79 570.02L107.64 570.29L107.47 570.55L107.3 570.81L107.12 571.06L106.93 571.31L106.74 571.55L106.54 571.78L106.32 572.01L106.11 572.23L105.88 572.44L105.65 572.64L105.41 572.84L105.16 573.03L104.91 573.21L104.65 573.38L104.38 573.55L104.11 573.7L103.83 573.85L103.55 573.99L103.26 574.12L102.96 574.24L102.66 574.35L102.35 574.45L102.04 574.54L101.73 574.62L101.67 574.63L101.62 574.65L101.57 574.66L101.51 574.67L101.46 574.68L101.4 574.69L101.35 574.7L101.29 574.71L101.24 574.72L101.19 574.73L101.13 574.74L101.08 574.75L101.02 574.76L100.97 574.77L100.92 574.78L100.86 574.78L100.81 574.79L100.75 574.8L100.7 574.81L100.65 574.81L100.59 574.82L100.54 574.82L100.48 574.83L100.43 574.83L100.37 574.84L100.32 574.84L100.27 574.85L100.21 574.85L100.16 574.86L100.1 574.86L100.05 574.86L100 574.86L99.94 574.87L99.89 574.87L99.84 574.87L99.78 574.87L99.73 574.87L99.67 574.87L99.62 574.87L99.57 574.87L99.31 574.87L99.04 574.86L98.78 574.84L98.53 574.82L98.27 574.78L98.01 574.74L97.76 574.7L97.51 574.64L97.26 574.58L97.01 574.52L96.76 574.44L96.52 574.36L96.28 574.28L96.04 574.18L95.8 574.08L95.57 573.98L95.34 573.87L95.11 573.75L94.88 573.62L94.66 573.49L94.45 573.35L94.23 573.21L94.02 573.06L93.82 572.91L93.61 572.75L93.42 572.58L93.22 572.41L93.03 572.23L92.85 572.05L92.67 571.86L92.5 571.66L92.33 571.46L92.16 571.26L92 571.05L91.85 570.83L91.7 570.61L91.56 570.39L91.42 570.16L91.29 569.92L91.17 569.68L43.67 474.68L19.41 474.68L18.61 474.66L17.82 474.61L17.04 474.53L16.27 474.42L15.51 474.28L14.75 474.11L14.01 473.91L13.28 473.69L12.57 473.43L11.86 473.15L11.17 472.84L10.5 472.51L9.84 472.15L9.19 471.76L8.57 471.36L7.96 470.93L7.36 470.47L6.79 470L6.23 469.5L5.69 468.98L5.18 468.45L4.68 467.89L4.2 467.32L3.75 466.72L3.32 466.11L2.91 465.48L2.53 464.84L2.17 464.18L1.84 463.5L1.53 462.81L1.25 462.11L0.99 461.39L0.76 460.66L0.57 459.92L0.4 459.17L0.25 458.41L0.14 457.64L0.06 456.85L0.02 456.06L0 455.26L0 435.23L0.02 434.43L0.06 433.64L0.14 432.85L0.25 432.08L0.4 431.32L0.57 430.57L0.76 429.82L0.99 429.1L1.25 428.38L1.53 427.68L1.84 426.99L2.17 426.31L2.53 425.65L2.91 425.01L3.32 424.38L3.75 423.77L4.2 423.17L4.68 422.6L5.18 422.04L5.69 421.5L6.23 420.99L6.79 420.49L7.36 420.02L7.96 419.56L8.57 419.13L9.19 418.72L9.84 418.34L10.5 417.98L11.17 417.65L11.86 417.34L12.57 417.06L13.28 416.8L14.01 416.58L14.75 416.38L15.51 416.21L16.27 416.07L17.04 415.96L17.82 415.88L18.61 415.83L19.41 415.81L40.11 415.81L40.11 415.8L40.11 415.78L40.11 415.77L40.11 415.75L40.11 415.73L40.11 415.72L40.1 415.69L40.1 415.66L40.1 415.62L40.1 415.59L40.09 415.5L40.09 415.47L40.09 415.45L40.09 415.42L40.09 415.41L40.08 415.37L40.08 415.36L40.08 415.33L40.08 415.31L40.08 415.3L40.08 415.28L40.08 415.27L40.08 415.25L40.08 415.23L40.08 415.22L40.08 415.2L40.08 415.19L40.08 174.72L40.09 173.92L40.14 173.13L40.22 172.34L40.33 171.57L40.47 170.81L40.64 170.06L40.84 169.32L41.07 168.59L41.32 167.87L41.61 167.17L41.91 166.48L42.25 165.8L42.61 165.14L42.99 164.5L43.4 163.87L43.83 163.26L44.28 162.66L44.76 162.09L45.25 161.53L45.77 161L46.31 160.48L46.86 159.98L47.44 159.51L48.03 159.05L48.64 158.62L49.27 158.22L49.92 157.83L50.58 157.47L51.25 157.14L51.94 156.83L52.65 156.55L53.36 156.29L54.09 156.07L54.83 155.87L55.58 155.7L56.35 155.56L57.12 155.45L57.9 155.37L58.69 155.32L59.49 155.3L89.55 155.3L89.57 155.3L89.58 155.3L89.6 155.3L89.61 155.3L89.63 155.3L89.64 155.3L89.66 155.31L89.68 155.31L89.69 155.31L89.72 155.31L89.74 155.31L89.77 155.31L89.79 155.31L89.8 155.31L89.83 155.31L89.86 155.32L89.96 155.32L89.99 155.33L90.02 155.33L90.05 155.33L90.08 155.33L90.1 155.33L90.11 155.33L90.13 155.33L90.14 155.33L90.16 155.33L90.18 155.33L90.18 144.66L90.19 143.86L90.24 143.07L90.32 142.29L90.43 141.51L90.57 140.75L90.74 140L90.94 139.26L91.17 138.53L91.42 137.81L91.7 137.11L92.01 136.42L92.35 135.74L92.71 135.08L93.09 134.44L93.5 133.81L93.93 133.2L94.38 132.61L94.85 132.03L95.35 131.47L95.87 130.94L96.41 130.42L96.96 129.92L97.54 129.45L98.13 129L98.74 128.56L99.37 128.16L100.02 127.77L100.68 127.41L101.35 127.08L102.04 126.77L102.74 126.49L103.46 126.24L104.19 126.01L104.93 125.81L105.68 125.64L106.44 125.5L107.22 125.39L108 125.31L108.79 125.26L109.59 125.24L129.63 125.24L129.64 125.24L129.66 125.24L129.68 125.25L129.69 125.25L129.71 125.25L129.72 125.25L129.74 125.25L129.75 125.25L129.77 125.25L129.8 125.25L129.82 125.25L129.85 125.25L129.86 125.25L129.88 125.25L129.91 125.26L129.94 125.26L130.04 125.26L130.07 125.27L130.1 125.27L130.13 125.27L130.16 125.27L130.18 125.27L130.19 125.27L130.21 125.27L130.22 125.27L130.24 125.28L130.25 125.28L130.25 114.6L130.27 113.8L130.32 113.01L130.4 112.23L130.51 111.45L130.65 110.69L130.82 109.94L131.02 109.2L131.25 108.47L131.5 107.75L131.78 107.05L132.09 106.36L132.42 105.68L132.78 105.02L133.17 104.38L133.57 103.75L134 103.14L134.46 102.55L134.93 101.97L135.43 101.42L135.95 100.88L136.48 100.36L137.04 99.86L137.62 99.39L138.21 98.94L138.82 98.51L139.45 98.1L140.09 97.71L140.75 97.36L141.43 97.02L142.12 96.71L142.82 96.43L143.54 96.18L144.27 95.95L145.01 95.75L145.76 95.58L146.52 95.44L147.3 95.33L148.08 95.25L148.87 95.2L149.67 95.19L209.78 95.19L210.58 95.2L211.37 95.25L212.16 95.33L212.93 95.44L213.69 95.58L214.44 95.75L215.19 95.95L215.91 96.18L216.63 96.43L217.33 96.71L218.02 97.02L218.7 97.36L219.36 97.71L220 98.1L220.63 98.51L221.24 98.94L221.84 99.39L222.41 99.86L222.97 100.36L223.51 100.88L224.02 101.42L224.52 101.97L224.99 102.55L225.45 103.14L225.88 103.75L226.29 104.38L226.67 105.02L227.03 105.68L227.36 106.36L227.67 107.05L227.95 107.75L228.21 108.47L228.43 109.2L228.63 109.94L228.8 110.69L228.94 111.45L229.05 112.23L229.13 113.01L229.18 113.8L229.2 114.6L229.2 115.26L229.21 115.26L229.23 115.26L229.24 115.25L229.26 115.25L229.28 115.25L229.29 115.25L229.32 115.25L229.35 115.25L229.39 115.25L229.42 115.24L229.51 115.24L229.54 115.24L229.56 115.24L229.59 115.23L229.6 115.23L229.63 115.23L229.65 115.23L229.68 115.23L229.7 115.23L229.71 115.23L229.73 115.23L229.74 115.23L229.76 115.23L229.78 115.23L229.79 115.23L229.81 115.23L229.82 115.23L269.9 115.23L269.92 115.23L269.93 115.23L269.95 115.23L269.97 115.23L269.98 115.23L270 115.23L270.01 115.23L270.03 115.23L270.04 115.23L270.08 115.23L270.09 115.23L270.12 115.23L270.14 115.23L270.15 115.23L270.19 115.24L270.22 115.24L270.31 115.24L270.34 115.25L270.37 115.25L270.4 115.25L270.43 115.25L270.45 115.25L270.47 115.25L270.48 115.25L270.5 115.26L270.51 115.26L270.53 115.26L270.53 114.6L270.54 113.8L270.59 113.01L270.67 112.23L270.78 111.45L270.92 110.69L271.09 109.94L271.29 109.2L271.52 108.47L271.77 107.75L272.06 107.05L272.36 106.36L272.7 105.68L273.06 105.02L273.44 104.38L273.85 103.75L274.28 103.14L274.73 102.55L275.21 101.97L275.7 101.42L276.22 100.88L276.76 100.36L277.31 99.86L277.89 99.39L278.48 98.94L279.09 98.51L279.72 98.1L280.37 97.71L281.03 97.36L281.7 97.02L282.39 96.71L283.1 96.43L283.81 96.18L284.54 95.95L285.28 95.75L286.03 95.58L286.8 95.44L287.57 95.33L288.35 95.25L289.14 95.2L289.94 95.19L309.98 95.19L310.78 95.2L311.57 95.25L312.35 95.33L313.13 95.44L313.89 95.58L314.64 95.75L315.38 95.95L316.11 96.18L316.83 96.43L317.53 96.71L318.22 97.02L318.89 97.36L319.55 97.71L320.2 98.1L320.83 98.51L321.44 98.94L322.03 99.39L322.61 99.86L323.16 100.36L323.7 100.88L324.22 101.42L324.71 101.97L325.19 102.55L325.64 103.14L326.07 103.75L326.48 104.38L326.86 105.02L327.22 105.68L327.56 106.36L327.87 107.05L328.15 107.75L328.4 108.47L328.63 109.2L328.83 109.94L329 110.69L329.14 111.45L329.25 112.23L329.33 113.01L329.38 113.8L329.39 114.6L329.39 135.3L329.41 135.29L329.42 135.29L329.44 135.29L329.46 135.29L329.47 135.29L329.49 135.29L329.52 135.29L329.55 135.29L329.58 135.29L329.61 135.28L329.71 135.28L329.74 135.28L329.75 135.27L329.78 135.27L329.8 135.27L329.83 135.27L329.85 135.27L329.88 135.27L329.89 135.27L329.91 135.27L329.92 135.27L329.94 135.27L329.96 135.26L329.97 135.26L329.99 135.26L330 135.26L330.02 135.26L350.06 135.26L350.07 135.26L350.09 135.26L350.11 135.26L350.12 135.26L350.14 135.27L350.15 135.27L350.17 135.27L350.19 135.27L350.2 135.27L350.23 135.27L350.25 135.27L350.28 135.27L350.29 135.27L350.31 135.27L350.34 135.28L350.37 135.28L350.47 135.28L350.5 135.29L350.53 135.29L350.56 135.29L350.59 135.29L350.61 135.29L350.62 135.29L350.64 135.29L350.65 135.29L350.67 135.29L350.68 135.3L350.68 84.54L350.7 83.74L350.75 82.95L350.83 82.17L350.94 81.4L351.08 80.63L351.25 79.88L351.45 79.14L351.68 78.41L351.93 77.69L352.21 76.99L352.52 76.3L352.85 75.63L353.21 74.97L353.6 74.32L354 73.69L354.44 73.08L354.89 72.49L355.36 71.91L355.86 71.36L356.38 70.82L356.91 70.3L357.47 69.81L358.05 69.33L358.64 68.88L359.25 68.45L359.88 68.04L360.52 67.66L361.18 67.3L361.86 66.96L362.55 66.66L363.25 66.37L363.97 66.12L364.7 65.89L365.44 65.69L366.19 65.52L366.95 65.38L367.73 65.27L368.51 65.19L369.3 65.14L370.1 65.13L420.2 65.13L420.99 65.14L421.79 65.19ZM90.18 525.69L90.18 474.68L64.67 474.68L90.18 525.69ZM549.82 525.69L575.33 474.68L549.82 474.68L549.82 525.69ZM19.39 434.6L19.36 434.6L19.34 434.6L19.31 434.61L19.29 434.61L19.26 434.62L19.24 434.62L19.22 434.63L19.19 434.64L19.17 434.65L19.15 434.66L19.13 434.67L19.1 434.68L19.08 434.69L19.06 434.71L19.04 434.72L19.02 434.73L19.01 434.75L18.99 434.77L18.97 434.78L18.95 434.8L18.94 434.82L18.92 434.84L18.91 434.86L18.89 434.88L18.88 434.9L18.87 434.92L18.86 434.94L18.85 434.96L18.84 434.98L18.83 435L18.82 435.03L18.81 435.05L18.8 435.08L18.8 435.1L18.79 435.12L18.79 435.15L18.79 435.17L18.79 435.2L18.79 435.23L18.79 455.26L18.79 455.29L18.79 455.32L18.79 455.34L18.79 455.37L18.8 455.39L18.8 455.41L18.81 455.44L18.82 455.46L18.83 455.48L18.84 455.51L18.85 455.53L18.86 455.55L18.87 455.57L18.88 455.59L18.89 455.61L18.91 455.63L18.92 455.65L18.94 455.67L18.95 455.69L18.97 455.71L18.99 455.72L19.01 455.74L19.02 455.75L19.04 455.77L19.06 455.78L19.08 455.8L19.1 455.81L19.13 455.82L19.15 455.83L19.17 455.84L19.19 455.85L19.22 455.86L19.24 455.87L19.26 455.87L19.29 455.88L19.31 455.88L19.34 455.89L19.36 455.89L19.39 455.89L19.41 455.89L620.59 455.89L620.6 455.89L620.62 455.89L620.64 455.89L620.66 455.88L620.67 455.88L620.69 455.88L620.71 455.87L620.72 455.87L620.74 455.86L620.76 455.85L620.77 455.84L620.79 455.83L620.8 455.82L620.82 455.81L620.84 455.8L620.85 455.79L620.87 455.78L620.89 455.76L620.9 455.75L620.92 455.73L620.93 455.72L620.95 455.7L620.96 455.68L620.98 455.66L620.99 455.65L621.01 455.63L621.02 455.61L621.04 455.58L621.05 455.56L621.07 455.54L621.08 455.51L621.1 455.49L621.11 455.46L621.13 455.44L621.14 455.41L621.16 455.38L621.17 455.35L621.19 455.33L621.2 455.3L621.21 455.26L621.21 435.23L621.21 435.2L621.21 435.17L621.21 435.15L621.21 435.12L621.2 435.1L621.2 435.08L621.19 435.05L621.18 435.03L621.17 435L621.16 434.98L621.15 434.96L621.14 434.94L621.13 434.92L621.12 434.9L621.11 434.88L621.09 434.86L621.08 434.84L621.06 434.82L621.05 434.8L621.03 434.78L621.01 434.77L620.99 434.75L620.98 434.73L620.96 434.72L620.94 434.71L620.92 434.69L620.9 434.68L620.87 434.67L620.85 434.66L620.83 434.65L620.81 434.64L620.78 434.63L620.76 434.62L620.74 434.62L620.71 434.61L620.69 434.61L620.66 434.6L620.64 434.6L620.61 434.6L620.59 434.6L19.41 434.6L19.39 434.6ZM109.56 144.03L109.54 144.03L109.51 144.04L109.49 144.04L109.46 144.04L109.44 144.05L109.41 144.06L109.39 144.06L109.37 144.07L109.35 144.08L109.32 144.09L109.3 144.1L109.28 144.11L109.26 144.13L109.24 144.14L109.22 144.15L109.2 144.17L109.18 144.18L109.16 144.2L109.15 144.22L109.13 144.23L109.11 144.25L109.1 144.27L109.08 144.29L109.07 144.31L109.06 144.33L109.04 144.35L109.03 144.37L109.02 144.39L109.01 144.41L109 144.44L108.99 144.46L108.99 144.48L108.98 144.51L108.98 144.53L108.97 144.56L108.97 144.58L108.96 144.61L108.96 144.63L108.96 144.66L108.96 415.19L108.96 415.21L108.96 415.24L108.97 415.26L108.97 415.29L108.98 415.31L108.98 415.34L108.99 415.36L108.99 415.38L109 415.41L109.01 415.43L109.02 415.45L109.03 415.47L109.04 415.49L109.06 415.52L109.07 415.54L109.08 415.56L109.1 415.57L109.11 415.59L109.13 415.61L109.15 415.63L109.16 415.64L109.18 415.66L109.2 415.68L109.22 415.69L109.24 415.7L109.26 415.72L109.28 415.73L109.3 415.74L109.32 415.75L109.35 415.76L109.37 415.77L109.39 415.78L109.41 415.79L109.44 415.79L109.46 415.8L109.49 415.8L109.51 415.81L109.54 415.81L109.56 415.81L109.59 415.81L129.63 415.81L129.65 415.81L129.68 415.81L129.7 415.81L129.73 415.8L129.75 415.8L129.78 415.79L129.8 415.79L129.83 415.78L129.85 415.77L129.87 415.76L129.89 415.75L129.92 415.74L129.94 415.73L129.96 415.72L129.98 415.7L130 415.69L130.02 415.68L130.04 415.66L130.05 415.64L130.07 415.63L130.09 415.61L130.1 415.59L130.12 415.57L130.13 415.56L130.15 415.54L130.16 415.52L130.17 415.49L130.18 415.47L130.2 415.45L130.21 415.43L130.21 415.41L130.22 415.38L130.23 415.36L130.24 415.34L130.24 415.31L130.25 415.29L130.25 415.26L130.25 415.24L130.25 415.21L130.25 415.19L130.25 144.66L130.25 144.63L130.25 144.61L130.25 144.58L130.25 144.56L130.24 144.53L130.24 144.51L130.23 144.48L130.22 144.46L130.21 144.44L130.21 144.41L130.2 144.39L130.18 144.37L130.17 144.35L130.16 144.33L130.15 144.31L130.13 144.29L130.12 144.27L130.1 144.25L130.09 144.23L130.07 144.22L130.05 144.2L130.04 144.18L130.02 144.17L130 144.15L129.98 144.14L129.96 144.13L129.94 144.11L129.92 144.1L129.89 144.09L129.87 144.08L129.85 144.07L129.83 144.06L129.8 144.06L129.78 144.05L129.75 144.04L129.73 144.04L129.7 144.04L129.68 144.03L129.65 144.03L129.63 144.03L109.59 144.03L109.56 144.03ZM229.81 134.01L229.79 134.01L229.77 134.02L229.76 134.02L229.74 134.02L229.72 134.03L229.7 134.03L229.69 134.04L229.67 134.04L229.66 134.05L229.64 134.06L229.62 134.07L229.61 134.08L229.59 134.09L229.57 134.1L229.56 134.11L229.54 134.12L229.53 134.14L229.51 134.15L229.49 134.17L229.48 134.18L229.46 134.2L229.45 134.22L229.43 134.24L229.42 134.26L229.4 134.28L229.39 134.3L229.37 134.32L229.36 134.34L229.34 134.36L229.33 134.39L229.31 134.41L229.3 134.44L229.28 134.46L229.27 134.49L229.25 134.52L229.24 134.55L229.23 134.58L229.21 134.61L229.2 134.64L229.2 415.19L229.2 415.21L229.2 415.24L229.2 415.26L229.21 415.29L229.21 415.31L229.22 415.34L229.22 415.36L229.23 415.38L229.24 415.41L229.25 415.43L229.26 415.45L229.27 415.47L229.28 415.49L229.29 415.52L229.3 415.54L229.32 415.56L229.33 415.57L229.35 415.59L229.36 415.61L229.38 415.63L229.4 415.64L229.42 415.66L229.43 415.68L229.45 415.69L229.47 415.7L229.49 415.72L229.51 415.73L229.54 415.74L229.56 415.75L229.58 415.76L229.6 415.77L229.63 415.78L229.65 415.79L229.67 415.79L229.7 415.8L229.72 415.8L229.75 415.81L229.77 415.81L229.8 415.81L229.82 415.81L269.9 415.81L269.93 415.81L269.95 415.81L269.98 415.81L270 415.8L270.03 415.8L270.05 415.79L270.08 415.79L270.1 415.78L270.12 415.77L270.15 415.76L270.17 415.75L270.19 415.74L270.21 415.73L270.23 415.72L270.25 415.7L270.27 415.69L270.29 415.68L270.31 415.66L270.33 415.64L270.34 415.63L270.36 415.61L270.38 415.59L270.39 415.57L270.41 415.56L270.42 415.54L270.43 415.52L270.45 415.49L270.46 415.47L270.47 415.45L270.48 415.43L270.49 415.41L270.5 415.38L270.5 415.36L270.51 415.34L270.52 415.31L270.52 415.29L270.52 415.26L270.53 415.24L270.53 415.21L270.53 415.19L270.53 134.64L270.53 134.61L270.53 134.59L270.52 134.56L270.52 134.54L270.52 134.51L270.51 134.49L270.5 134.46L270.5 134.44L270.49 134.42L270.48 134.39L270.47 134.37L270.46 134.35L270.45 134.33L270.43 134.31L270.42 134.29L270.41 134.27L270.39 134.25L270.38 134.23L270.36 134.21L270.34 134.2L270.33 134.18L270.31 134.16L270.29 134.15L270.27 134.13L270.25 134.12L270.23 134.11L270.21 134.09L270.19 134.08L270.17 134.07L270.15 134.06L270.12 134.05L270.1 134.04L270.08 134.04L270.05 134.03L270.03 134.02L270 134.02L269.98 134.02L269.95 134.01L269.93 134.01L269.9 134.01L229.82 134.01L229.81 134.01ZM329.39 415.19L329.4 415.25L329.41 415.31L329.42 415.37L329.44 415.43L329.47 415.48L329.5 415.54L329.54 415.58L329.58 415.63L329.62 415.67L329.67 415.7L329.72 415.74L329.78 415.76L329.83 415.78L329.89 415.8L329.96 415.81L330.02 415.81L350.06 415.81L350.12 415.81L350.18 415.8L350.24 415.78L350.3 415.76L350.36 415.74L350.41 415.7L350.46 415.67L350.5 415.63L350.54 415.58L350.58 415.54L350.61 415.48L350.64 415.43L350.66 415.37L350.67 415.31L350.68 415.25L350.68 415.19L350.68 394.52L329.39 394.52L329.39 415.19ZM440.22 113.97L440.2 113.97L440.18 113.98L440.17 113.98L440.15 113.98L440.13 113.99L440.12 113.99L440.1 114L440.08 114L440.07 114.01L440.05 114.02L440.03 114.03L440.02 114.04L440 114.05L439.98 114.06L439.97 114.07L439.95 114.09L439.94 114.1L439.92 114.11L439.91 114.13L439.89 114.15L439.87 114.16L439.86 114.18L439.84 114.2L439.83 114.22L439.81 114.24L439.8 114.26L439.78 114.28L439.77 114.3L439.75 114.32L439.74 114.35L439.72 114.37L439.71 114.4L439.69 114.43L439.68 114.45L439.67 114.48L439.65 114.51L439.64 114.54L439.62 114.57L439.61 114.6L439.61 415.19L439.61 415.21L439.61 415.24L439.61 415.26L439.62 415.29L439.62 415.31L439.63 415.34L439.63 415.36L439.64 415.38L439.65 415.41L439.66 415.43L439.67 415.45L439.68 415.47L439.69 415.49L439.7 415.52L439.72 415.54L439.73 415.56L439.74 415.57L439.76 415.59L439.78 415.61L439.79 415.63L439.81 415.64L439.83 415.66L439.85 415.68L439.87 415.69L439.88 415.7L439.91 415.72L439.93 415.73L439.95 415.74L439.97 415.75L439.99 415.76L440.01 415.77L440.04 415.78L440.06 415.79L440.08 415.79L440.11 415.8L440.13 415.8L440.16 415.81L440.18 415.81L440.21 415.81L440.23 415.81L460.27 415.81L460.3 415.81L460.33 415.81L460.35 415.81L460.38 415.8L460.4 415.8L460.42 415.79L460.45 415.79L460.47 415.78L460.49 415.77L460.52 415.76L460.54 415.75L460.56 415.74L460.58 415.73L460.6 415.72L460.62 415.7L460.64 415.69L460.66 415.68L460.68 415.66L460.7 415.64L460.72 415.63L460.73 415.61L460.75 415.59L460.76 415.57L460.78 415.56L460.79 415.54L460.81 415.52L460.82 415.49L460.83 415.47L460.84 415.45L460.85 415.43L460.86 415.41L460.87 415.38L460.88 415.36L460.88 415.34L460.89 415.31L460.89 415.29L460.9 415.26L460.9 415.24L460.9 415.21L460.9 415.19L460.9 114.6L460.9 114.57L460.9 114.55L460.9 114.52L460.89 114.5L460.89 114.47L460.88 114.45L460.88 114.42L460.87 114.4L460.86 114.38L460.85 114.36L460.84 114.33L460.83 114.31L460.82 114.29L460.81 114.27L460.79 114.25L460.78 114.23L460.76 114.21L460.75 114.19L460.73 114.17L460.72 114.16L460.7 114.14L460.68 114.12L460.66 114.11L460.64 114.09L460.62 114.08L460.6 114.07L460.58 114.05L460.56 114.04L460.54 114.03L460.52 114.02L460.49 114.01L460.47 114L460.45 114L460.42 113.99L460.4 113.99L460.38 113.98L460.35 113.98L460.33 113.97L460.3 113.97L460.27 113.97L440.23 113.97L440.22 113.97ZM550.42 134.01L550.4 134.01L550.37 134.02L550.35 134.02L550.32 134.02L550.3 134.03L550.28 134.04L550.25 134.04L550.23 134.05L550.21 134.06L550.18 134.07L550.16 134.08L550.14 134.09L550.12 134.11L550.1 134.12L550.08 134.13L550.06 134.15L550.04 134.16L550.02 134.18L550.01 134.2L549.99 134.21L549.97 134.23L549.96 134.25L549.94 134.27L549.93 134.29L549.92 134.31L549.91 134.33L549.89 134.35L549.88 134.37L549.87 134.39L549.86 134.42L549.86 134.44L549.85 134.46L549.84 134.49L549.84 134.51L549.83 134.54L549.83 134.56L549.83 134.59L549.82 134.61L549.82 134.64L549.82 415.19L549.82 415.21L549.83 415.24L549.83 415.26L549.83 415.29L549.84 415.31L549.84 415.34L549.85 415.36L549.86 415.38L549.86 415.41L549.87 415.43L549.88 415.45L549.89 415.47L549.91 415.49L549.92 415.52L549.93 415.54L549.94 415.56L549.96 415.57L549.97 415.59L549.99 415.61L550.01 415.63L550.02 415.64L550.04 415.66L550.06 415.68L550.08 415.69L550.1 415.7L550.12 415.72L550.14 415.73L550.16 415.74L550.18 415.75L550.21 415.76L550.23 415.77L550.25 415.78L550.28 415.79L550.3 415.79L550.32 415.8L550.35 415.8L550.37 415.81L550.4 415.81L550.42 415.81L550.45 415.81L580.51 415.81L580.53 415.81L580.56 415.81L580.59 415.81L580.61 415.8L580.63 415.8L580.66 415.79L580.68 415.79L580.71 415.78L580.73 415.77L580.75 415.76L580.77 415.75L580.8 415.74L580.82 415.73L580.84 415.72L580.86 415.7L580.88 415.69L580.9 415.68L580.92 415.66L580.93 415.64L580.95 415.63L580.97 415.61L580.98 415.59L581 415.57L581.01 415.56L581.03 415.54L581.04 415.52L581.05 415.49L581.07 415.47L581.08 415.45L581.09 415.43L581.09 415.41L581.1 415.38L581.11 415.36L581.12 415.34L581.12 415.31L581.13 415.29L581.13 415.26L581.13 415.24L581.13 415.21L581.14 415.19L581.14 134.64L581.13 134.61L581.13 134.59L581.13 134.56L581.13 134.54L581.12 134.51L581.12 134.49L581.11 134.46L581.1 134.44L581.09 134.42L581.09 134.39L581.08 134.37L581.07 134.35L581.05 134.33L581.04 134.31L581.03 134.29L581.01 134.27L581 134.25L580.98 134.23L580.97 134.21L580.95 134.2L580.93 134.18L580.92 134.16L580.9 134.15L580.88 134.13L580.86 134.12L580.84 134.11L580.82 134.09L580.8 134.08L580.77 134.07L580.75 134.06L580.73 134.05L580.71 134.04L580.68 134.04L580.66 134.03L580.63 134.02L580.61 134.02L580.59 134.02L580.56 134.01L580.53 134.01L580.51 134.01L550.45 134.01L550.42 134.01ZM479.69 415.19L479.69 415.22L479.69 415.26L479.7 415.29L479.7 415.33L479.71 415.36L479.72 415.4L479.74 415.43L479.75 415.46L479.77 415.49L479.78 415.52L479.8 415.55L479.82 415.58L479.85 415.6L479.87 415.63L479.9 415.65L479.92 415.67L479.95 415.69L479.98 415.71L480.01 415.73L480.04 415.75L480.07 415.76L480.1 415.78L480.14 415.79L480.17 415.8L480.2 415.8L480.24 415.81L480.28 415.81L480.31 415.81L530.41 415.81L530.45 415.81L530.48 415.81L530.52 415.8L530.55 415.8L530.59 415.79L530.62 415.78L530.65 415.76L530.69 415.75L530.72 415.73L530.75 415.71L530.78 415.69L530.8 415.67L530.83 415.65L530.85 415.63L530.88 415.6L530.9 415.58L530.92 415.55L530.94 415.52L530.96 415.49L530.97 415.46L530.99 415.43L531 415.4L531.01 415.36L531.02 415.33L531.03 415.29L531.03 415.26L531.04 415.22L531.04 415.19L531.04 394.52L479.69 394.52L479.69 415.19ZM370.07 83.91L370.05 83.92L370.02 83.92L370 83.92L369.97 83.93L369.95 83.93L369.92 83.94L369.9 83.95L369.88 83.95L369.85 83.96L369.83 83.97L369.81 83.98L369.79 84L369.77 84.01L369.75 84.02L369.73 84.04L369.71 84.05L369.69 84.07L369.67 84.08L369.66 84.1L369.64 84.12L369.62 84.13L369.61 84.15L369.59 84.17L369.58 84.19L369.57 84.21L369.55 84.23L369.54 84.25L369.53 84.27L369.52 84.3L369.51 84.32L369.5 84.34L369.5 84.37L369.49 84.39L369.48 84.41L369.48 84.44L369.48 84.46L369.47 84.49L369.47 84.51L369.47 84.54L369.47 415.19L369.47 415.21L369.47 415.24L369.48 415.26L369.48 415.29L369.48 415.31L369.49 415.34L369.5 415.36L369.5 415.38L369.51 415.41L369.52 415.43L369.53 415.45L369.54 415.47L369.55 415.49L369.57 415.52L369.58 415.54L369.59 415.56L369.61 415.57L369.62 415.59L369.64 415.61L369.66 415.63L369.67 415.64L369.69 415.66L369.71 415.68L369.73 415.69L369.75 415.7L369.77 415.72L369.79 415.73L369.81 415.74L369.83 415.75L369.85 415.76L369.88 415.77L369.9 415.78L369.92 415.79L369.95 415.79L369.97 415.8L370 415.8L370.02 415.81L370.05 415.81L370.07 415.81L370.1 415.81L420.2 415.81L420.22 415.81L420.25 415.81L420.27 415.81L420.3 415.8L420.32 415.8L420.35 415.79L420.37 415.79L420.39 415.78L420.42 415.77L420.44 415.76L420.46 415.75L420.48 415.74L420.5 415.73L420.53 415.72L420.55 415.7L420.57 415.69L420.58 415.68L420.6 415.66L420.62 415.64L420.64 415.63L420.66 415.61L420.67 415.59L420.69 415.57L420.7 415.56L420.71 415.54L420.73 415.52L420.74 415.49L420.75 415.47L420.76 415.45L420.77 415.43L420.78 415.41L420.79 415.38L420.8 415.36L420.8 415.34L420.81 415.31L420.81 415.29L420.82 415.26L420.82 415.24L420.82 415.21L420.82 415.19L420.82 84.54L420.82 84.51L420.82 84.49L420.82 84.46L420.81 84.44L420.81 84.41L420.8 84.39L420.8 84.37L420.79 84.34L420.78 84.32L420.77 84.3L420.76 84.27L420.75 84.25L420.74 84.23L420.73 84.21L420.71 84.19L420.7 84.17L420.69 84.15L420.67 84.13L420.66 84.12L420.64 84.1L420.62 84.08L420.6 84.07L420.58 84.05L420.57 84.04L420.55 84.02L420.53 84.01L420.5 84L420.48 83.98L420.46 83.97L420.44 83.96L420.42 83.95L420.39 83.95L420.37 83.94L420.35 83.93L420.32 83.93L420.3 83.92L420.27 83.92L420.25 83.92L420.22 83.91L420.2 83.91L370.1 83.91L370.07 83.91ZM289.92 113.97L289.89 113.97L289.86 113.98L289.84 113.98L289.82 113.99L289.79 113.99L289.77 114L289.74 114L289.72 114.01L289.7 114.02L289.68 114.03L289.65 114.04L289.63 114.05L289.61 114.07L289.59 114.08L289.57 114.09L289.55 114.11L289.53 114.12L289.52 114.14L289.5 114.16L289.48 114.17L289.47 114.19L289.45 114.21L289.44 114.23L289.42 114.25L289.41 114.27L289.4 114.29L289.39 114.31L289.37 114.33L289.36 114.36L289.36 114.38L289.35 114.4L289.34 114.42L289.33 114.45L289.33 114.47L289.32 114.5L289.32 114.52L289.32 114.55L289.32 114.57L289.32 114.6L289.32 415.19L289.32 415.21L289.32 415.24L289.32 415.26L289.32 415.29L289.33 415.31L289.33 415.34L289.34 415.36L289.35 415.38L289.36 415.41L289.36 415.43L289.37 415.45L289.39 415.47L289.4 415.49L289.41 415.52L289.42 415.54L289.44 415.56L289.45 415.57L289.47 415.59L289.48 415.61L289.5 415.63L289.52 415.64L289.53 415.66L289.55 415.68L289.57 415.69L289.59 415.7L289.61 415.72L289.63 415.73L289.65 415.74L289.68 415.75L289.7 415.76L289.72 415.77L289.74 415.78L289.77 415.79L289.79 415.79L289.82 415.8L289.84 415.8L289.86 415.81L289.89 415.81L289.92 415.81L289.94 415.81L309.98 415.81L310.01 415.81L310.03 415.81L310.06 415.81L310.08 415.8L310.11 415.8L310.13 415.79L310.15 415.79L310.18 415.78L310.2 415.77L310.22 415.76L310.25 415.75L310.27 415.74L310.29 415.73L310.31 415.72L310.33 415.7L310.35 415.69L310.37 415.68L310.39 415.66L310.41 415.64L310.42 415.63L310.44 415.61L310.46 415.59L310.47 415.57L310.49 415.56L310.5 415.54L310.51 415.52L310.53 415.49L310.54 415.47L310.55 415.45L310.56 415.43L310.57 415.41L310.57 415.38L310.58 415.36L310.59 415.34L310.59 415.31L310.6 415.29L310.6 415.26L310.6 415.24L310.61 415.21L310.61 415.19L310.61 114.6L310.61 114.57L310.6 114.55L310.6 114.52L310.6 114.5L310.59 114.47L310.59 114.45L310.58 114.42L310.57 114.4L310.57 114.38L310.56 114.36L310.55 114.33L310.54 114.31L310.53 114.29L310.51 114.27L310.5 114.25L310.49 114.23L310.47 114.21L310.46 114.19L310.44 114.17L310.42 114.16L310.41 114.14L310.39 114.12L310.37 114.11L310.35 114.09L310.33 114.08L310.31 114.07L310.29 114.05L310.27 114.04L310.25 114.03L310.22 114.02L310.2 114.01L310.18 114L310.15 114L310.13 113.99L310.11 113.99L310.08 113.98L310.06 113.98L310.03 113.97L310.01 113.97L309.98 113.97L289.94 113.97L289.92 113.97ZM149.04 415.19L149.04 415.22L149.04 415.25L149.05 415.28L149.05 415.31L149.06 415.34L149.07 415.37L149.08 415.4L149.09 415.43L149.1 415.46L149.12 415.48L149.13 415.51L149.15 415.54L149.17 415.56L149.18 415.58L149.2 415.61L149.22 415.63L149.25 415.65L149.27 415.67L149.29 415.69L149.32 415.7L149.34 415.72L149.37 415.74L149.4 415.75L149.42 415.76L149.45 415.77L149.48 415.78L149.51 415.79L149.54 415.8L149.57 415.8L149.6 415.81L149.64 415.81L149.67 415.81L209.78 415.81L209.82 415.81L209.85 415.81L209.88 415.8L209.91 415.8L209.94 415.79L209.97 415.78L210 415.77L210.03 415.76L210.06 415.75L210.08 415.74L210.11 415.72L210.13 415.7L210.16 415.69L210.18 415.67L210.21 415.65L210.23 415.63L210.25 415.61L210.27 415.58L210.29 415.56L210.3 415.54L210.32 415.51L210.34 415.48L210.35 415.46L210.36 415.43L210.37 415.4L210.38 415.37L210.39 415.34L210.4 415.31L210.4 415.28L210.41 415.25L210.41 415.22L210.41 415.19L210.41 394.52L149.04 394.52L149.04 415.19ZM59.47 174.09L59.46 174.09L59.44 174.09L59.42 174.1L59.41 174.1L59.39 174.1L59.37 174.11L59.36 174.12L59.34 174.12L59.32 174.13L59.31 174.14L59.29 174.15L59.27 174.16L59.26 174.17L59.24 174.18L59.23 174.19L59.21 174.2L59.19 174.22L59.18 174.23L59.16 174.25L59.15 174.26L59.13 174.28L59.12 174.3L59.1 174.32L59.08 174.33L59.07 174.35L59.05 174.38L59.04 174.4L59.02 174.42L59.01 174.44L58.99 174.47L58.98 174.49L58.97 174.52L58.95 174.54L58.94 174.57L58.92 174.6L58.91 174.63L58.89 174.66L58.88 174.69L58.86 174.72L58.86 415.19L58.87 415.21L58.87 415.24L58.87 415.26L58.87 415.29L58.88 415.31L58.88 415.34L58.89 415.36L58.9 415.38L58.91 415.41L58.91 415.43L58.92 415.45L58.93 415.47L58.95 415.49L58.96 415.52L58.97 415.54L58.99 415.56L59 415.57L59.02 415.59L59.03 415.61L59.05 415.63L59.07 415.64L59.08 415.66L59.1 415.68L59.12 415.69L59.14 415.7L59.16 415.72L59.18 415.73L59.2 415.74L59.23 415.75L59.25 415.76L59.27 415.77L59.29 415.78L59.32 415.79L59.34 415.79L59.37 415.8L59.39 415.8L59.41 415.81L59.44 415.81L59.47 415.81L59.49 415.81L89.55 415.81L89.58 415.81L89.6 415.81L89.63 415.81L89.65 415.8L89.68 415.8L89.7 415.79L89.72 415.79L89.75 415.78L89.77 415.77L89.79 415.76L89.82 415.75L89.84 415.74L89.86 415.73L89.88 415.72L89.9 415.7L89.92 415.69L89.94 415.68L89.96 415.66L89.98 415.64L89.99 415.63L90.01 415.61L90.03 415.59L90.04 415.57L90.06 415.56L90.07 415.54L90.08 415.52L90.09 415.49L90.11 415.47L90.12 415.45L90.13 415.43L90.14 415.41L90.14 415.38L90.15 415.36L90.16 415.34L90.16 415.31L90.17 415.29L90.17 415.26L90.17 415.24L90.18 415.21L90.18 415.19L90.18 174.72L90.18 174.69L90.17 174.67L90.17 174.64L90.17 174.62L90.16 174.59L90.16 174.57L90.15 174.54L90.14 174.52L90.14 174.5L90.13 174.47L90.12 174.45L90.11 174.43L90.09 174.41L90.08 174.39L90.07 174.37L90.06 174.35L90.04 174.33L90.03 174.31L90.01 174.29L89.99 174.27L89.98 174.26L89.96 174.24L89.94 174.23L89.92 174.21L89.9 174.2L89.88 174.18L89.86 174.17L89.84 174.16L89.82 174.15L89.79 174.14L89.77 174.13L89.75 174.12L89.72 174.11L89.7 174.11L89.68 174.1L89.65 174.1L89.63 174.09L89.6 174.09L89.58 174.09L89.55 174.09L59.49 174.09L59.47 174.09ZM149.04 375.73L210.41 375.73L210.41 154.05L149.04 154.05L149.04 375.73ZM479.69 375.73L531.04 375.73L531.04 194.13L479.69 194.13L479.69 375.73ZM329.39 375.73L350.68 375.73L350.68 194.13L329.39 194.13L329.39 375.73ZM329.98 154.05L329.93 154.06L329.89 154.07L329.85 154.09L329.81 154.11L329.77 154.14L329.73 154.17L329.69 154.21L329.65 154.25L329.61 154.3L329.58 154.35L329.54 154.4L329.5 154.46L329.46 154.53L329.43 154.6L329.39 154.68L329.39 175.34L350.68 175.34L350.68 154.68L350.68 154.61L350.67 154.55L350.66 154.49L350.64 154.43L350.61 154.38L350.58 154.33L350.54 154.28L350.5 154.23L350.46 154.19L350.41 154.16L350.36 154.13L350.3 154.1L350.24 154.08L350.18 154.06L350.12 154.05L350.06 154.05L330.02 154.05L329.98 154.05ZM480.29 154.05L480.26 154.05L480.24 154.06L480.22 154.06L480.19 154.07L480.17 154.08L480.14 154.09L480.12 154.1L480.1 154.12L480.07 154.13L480.05 154.15L480.03 154.17L480.01 154.19L479.98 154.21L479.96 154.23L479.94 154.26L479.92 154.28L479.9 154.31L479.87 154.34L479.85 154.37L479.83 154.4L479.81 154.44L479.79 154.47L479.77 154.51L479.75 154.55L479.73 154.59L479.71 154.63L479.69 154.68L479.69 175.34L531.04 175.34L531.04 154.68L531.04 154.64L531.03 154.6L531.03 154.57L531.02 154.53L531.01 154.5L531 154.47L530.99 154.43L530.97 154.4L530.96 154.37L530.94 154.34L530.92 154.31L530.9 154.29L530.88 154.26L530.85 154.23L530.83 154.21L530.8 154.19L530.78 154.17L530.75 154.15L530.72 154.13L530.69 154.11L530.65 154.1L530.62 154.09L530.59 154.08L530.55 154.07L530.52 154.06L530.48 154.06L530.45 154.05L530.41 154.05L480.31 154.05L480.29 154.05ZM149.65 113.97L149.62 113.98L149.6 113.98L149.58 113.98L149.56 113.99L149.54 113.99L149.52 114L149.5 114.01L149.48 114.02L149.46 114.03L149.44 114.05L149.42 114.06L149.4 114.08L149.38 114.09L149.36 114.11L149.34 114.13L149.32 114.15L149.3 114.17L149.28 114.19L149.26 114.22L149.24 114.24L149.22 114.27L149.2 114.3L149.19 114.32L149.17 114.35L149.15 114.39L149.13 114.42L149.11 114.45L149.09 114.49L149.08 114.52L149.06 114.56L149.04 114.6L149.04 135.26L210.41 135.26L210.41 114.6L210.41 114.57L210.41 114.54L210.4 114.5L210.4 114.47L210.39 114.44L210.38 114.41L210.37 114.38L210.36 114.36L210.35 114.33L210.34 114.3L210.32 114.27L210.3 114.25L210.29 114.22L210.27 114.2L210.25 114.18L210.23 114.16L210.21 114.14L210.18 114.12L210.16 114.1L210.13 114.08L210.11 114.06L210.08 114.05L210.06 114.03L210.03 114.02L210 114.01L209.97 114L209.94 113.99L209.91 113.99L209.88 113.98L209.85 113.98L209.82 113.97L209.78 113.97L149.67 113.97L149.65 113.97Z" id="a3P8pHFHT3"></path></defs><g><g><g><use xlink:href="#b13S2rOPYO" opacity="1" fill="#ab6f2d" fill-opacity="1"></use></g><g><use xlink:href="#b1rGebf9Xd" opacity="1" fill="#b140c3" fill-opacity="1"></use></g><g><use xlink:href="#d3tXmUCwa" opacity="1" fill="#edbf71" fill-opacity="1"></use></g><g><use xlink:href="#b18eDi41GM" opacity="1" fill="#333232" fill-opacity="1"></use></g><g><use xlink:href="#eMG8DQIgO" opacity="1" fill="#333232" fill-opacity="1"></use></g><g><use xlink:href="#b8v7Woso8N" opacity="1" fill="#24d47d" fill-opacity="1"></use></g><g><use xlink:href="#a2Qx8j4BD7" opacity="1" fill="#f0d8f5" fill-opacity="1"></use></g><g><use xlink:href="#gTziw7hN" opacity="1" fill="#fca513" fill-opacity="1"></use></g><g><use xlink:href="#a5qIRxCRjE" opacity="1" fill="#fca513" fill-opacity="1"></use></g><g><use xlink:href="#b2ggkyKbzc" opacity="1" fill="#1577db" fill-opacity="1"></use></g><g><use xlink:href="#b2D5Uqaao2" opacity="1" fill="#c43b46" fill-opacity="1"></use></g><g><use xlink:href="#b7PXkZ0Mh" opacity="1" fill="#24d47d" fill-opacity="1"></use></g><g><use xlink:href="#fseEPNNaW" opacity="1" fill="#058fcc" fill-opacity="1"></use></g><g><use xlink:href="#d3DkyAIZL7" opacity="1" fill="#058fcc" fill-opacity="1"></use></g><g><use xlink:href="#bGV4MC58Y" opacity="1" fill="#dbdbdb" fill-opacity="1"></use></g><g><use xlink:href="#cAaXpRe0n" opacity="1" fill="#7d2649" fill-opacity="1"></use></g><g><use xlink:href="#aaGhiW4twm" opacity="1" fill="#1577db" fill-opacity="1"></use></g><g><use xlink:href="#a3P8pHFHT3" opacity="1" fill="#000000" fill-opacity="1"></use><g><use xlink:href="#a3P8pHFHT3" opacity="1" fill-opacity="0" stroke="#000000" stroke-width="1" stroke-opacity="0"></use></g></g></g></g></svg>