<?xml version="1.0" encoding="iso-8859-1"?>
<!-- Generator: Adobe Illustrator 19.0.0, SVG Export Plug-In . SVG Version: 6.00 Build 0)  -->
<svg version="1.1" id="Capa_1" xmlns="http://www.w3.org/2000/svg" xmlns:xlink="http://www.w3.org/1999/xlink" x="0px" y="0px"
	 viewBox="0 0 480 480" style="enable-background:new 0 0 480 480;" xml:space="preserve">
<polygon style="fill:#E9ECCF;" points="336,184 336,8 8,8 8,472 248,472 248,184 "/>
<rect x="8" y="64" style="fill:#B7A209;" width="328" height="16"/>
<rect x="40" y="104" style="fill:#FCEE21;" width="48" height="48"/>
<g>
	<rect x="112" y="96" style="fill:#DADDA4;" width="200" height="16"/>
	<rect x="112" y="128" style="fill:#DADDA4;" width="200" height="16"/>
</g>
<rect x="40" y="184" style="fill:#FCEE21;" width="48" height="48"/>
<g>
	<rect x="112" y="176" style="fill:#DADDA4;" width="112" height="16"/>
	<rect x="112" y="208" style="fill:#DADDA4;" width="112" height="16"/>
</g>
<rect x="40" y="264" style="fill:#FCEE21;" width="48" height="48"/>
<g>
	<rect x="136" y="256" style="fill:#DADDA4;" width="88" height="16"/>
	<rect x="112" y="288" style="fill:#DADDA4;" width="112" height="16"/>
</g>
<rect x="40" y="344" style="fill:#FCEE21;" width="48" height="48"/>
<g>
	<rect x="112" y="336" style="fill:#DADDA4;" width="112" height="16"/>
	<rect x="112" y="368" style="fill:#DADDA4;" width="112" height="16"/>
</g>
<rect x="32" y="424" style="fill:#B7A209;" width="192" height="16"/>
<path style="fill:#EF6518;" d="M72,304c-2.047,0-4.094-0.781-5.656-2.344l-16-16l11.313-11.313L72,284.688l50.344-50.344
	l11.313,11.313l-56,56C76.094,303.219,74.047,304,72,304z"/>
<g>
	<rect x="32" y="32" style="fill:#DADDA4;" width="184" height="16"/>
	<rect x="232" y="32" style="fill:#DADDA4;" width="80" height="16"/>
</g>
<rect x="424" y="184" style="fill:#4C7464;" width="48" height="288"/>
<rect x="248" y="184" style="fill:#76B82B;" width="176" height="288"/>
<path style="fill:#B5D676;" d="M376,440h-80c0-8.837-7.163-16-16-16V232c8.837,0,16-7.163,16-16h80c0,8.837,7.163,16,16,16v192
	C383.163,424,376,431.163,376,440z"/>
<g>
	<path style="fill:#FBF7ED;" d="M320,448h-24c-4.422,0-8-3.582-8-8c0-4.41-3.586-8-8-8c-4.422,0-8-3.582-8-8v-24h16v17.371
		c6.813,2.414,12.219,7.82,14.633,14.629H320V448z"/>
	<path style="fill:#FBF7ED;" d="M376,448h-24v-16h17.367c2.414-6.809,7.82-12.215,14.633-14.629V400h16v24c0,4.418-3.578,8-8,8
		c-4.414,0-8,3.59-8,8C384,444.418,380.422,448,376,448z"/>
	<rect x="328" y="408" style="fill:#FBF7ED;" width="16" height="16"/>
	<path style="fill:#FBF7ED;" d="M320,208h-24c-4.422,0-8,3.582-8,8c0,4.41-3.586,8-8,8c-4.422,0-8,3.582-8,8v24h16v-17.371
		c6.813-2.414,12.219-7.82,14.633-14.629H320V208z"/>
	<path style="fill:#FBF7ED;" d="M376,208h-24v16h17.367c2.414,6.809,7.82,12.215,14.633,14.629V256h16v-24c0-4.418-3.578-8-8-8
		c-4.414,0-8-3.59-8-8C384,211.582,380.422,208,376,208z"/>
	<rect x="328" y="232" style="fill:#FBF7ED;" width="16" height="16"/>
	<circle style="fill:#FBF7ED;" cx="336" cy="328" r="56"/>
</g>
<rect x="248" y="288" style="fill:#ED7B15;" width="176" height="80"/>
<rect x="424" y="288" style="fill:#D35211;" width="48" height="80"/>
<path style="fill:#4C7464;" d="M352,336v16h16c4.422,0,8-3.582,8-8v-8h8v-16h-8v-8c0-4.418-3.578-8-8-8h-32c-4.422,0-8,3.582-8,8v24
	h-16v-16h8v-16h-16c-4.422,0-8,3.582-8,8v8h-8v16h8v8c0,4.418,3.578,8,8,8h32c4.422,0,8-3.582,8-8v-24h16v16H352z"/>
<path d="M384,417.371c-6.809,2.414-12.215,7.82-14.629,14.629H352v16h24c4.418,0,8-3.582,8-8c0-4.41,3.59-8,8-8c4.418,0,8-3.582,8-8
	v-24h-16V417.371z"/>
<path d="M288,417.371V400h-16v24c0,4.418,3.582,8,8,8c4.41,0,8,3.59,8,8c0,4.418,3.582,8,8,8h24v-16h-17.371
	C300.215,425.191,294.809,419.785,288,417.371z"/>
<path d="M384,238.629V256h16v-24c0-4.418-3.582-8-8-8c-4.41,0-8-3.59-8-8c0-4.418-3.582-8-8-8h-24v16h17.371
	C371.785,230.809,377.191,236.215,384,238.629z"/>
<path d="M288,238.629c6.809-2.414,12.215-7.82,14.629-14.629H320v-16h-24c-4.418,0-8,3.582-8,8c0,4.41-3.59,8-8,8
	c-4.418,0-8,3.582-8,8v24h16V238.629z"/>
<path d="M336,264c-26.777,0-50.348,14.078-63.043,37.656l14.086,7.586C296.902,290.934,315.203,280,336,280
	s39.098,10.934,48.957,29.242l14.086-7.586C386.348,278.078,362.777,264,336,264z"/>
<path d="M272.957,354.344C285.652,377.922,309.223,392,336,392s50.348-14.078,63.043-37.656l-14.086-7.586
	C375.098,365.066,356.797,376,336,376s-39.098-10.934-48.957-29.242L272.957,354.344z"/>
<rect x="328" y="408" width="16" height="16"/>
<rect x="328" y="232" width="16" height="16"/>
<path d="M424,176h-80V8c0-4.418-3.582-8-8-8H8C3.582,0,0,3.582,0,8v464c0,4.418,3.582,8,8,8h240h176c4.418,0,8-3.582,8-8V184
	C432,179.582,428.418,176,424,176z M328,16v48H16V16H328z M240,184v280H16V80h312v96h-80C243.582,176,240,179.582,240,184z M416,464
	H256V192h80h80V464z"/>
<path d="M320,320v-16h-16c-4.418,0-8,3.582-8,8v8h-8v16h8v8c0,4.418,3.582,8,8,8h32c4.418,0,8-3.582,8-8v-24h16v16h-8v16h16
	c4.418,0,8-3.582,8-8v-8h8v-16h-8v-8c0-4.418-3.582-8-8-8h-32c-4.418,0-8,3.582-8,8v24h-16v-16H320z"/>
<rect x="440" y="176" width="16" height="304"/>
<rect x="464" y="176" width="16" height="304"/>
<path d="M40,160h48c4.418,0,8-3.582,8-8v-48c0-4.418-3.582-8-8-8H40c-4.418,0-8,3.582-8,8v48C32,156.418,35.582,160,40,160z M48,112
	h32v32H48V112z"/>
<rect x="112" y="96" width="200" height="16"/>
<rect x="112" y="128" width="200" height="16"/>
<path d="M40,240h48c4.418,0,8-3.582,8-8v-48c0-4.418-3.582-8-8-8H40c-4.418,0-8,3.582-8,8v48C32,236.418,35.582,240,40,240z M48,192
	h32v32H48V192z"/>
<rect x="112" y="176" width="112" height="16"/>
<rect x="112" y="208" width="112" height="16"/>
<path d="M40,320h48c4.418,0,8-3.582,8-8v-28.688l37.656-37.656l-11.313-11.313l-26.9,26.9C94.313,258.196,91.44,256,88,256H40
	c-4.418,0-8,3.582-8,8v48C32,316.418,35.582,320,40,320z M48,272h32v4.688l-8,8l-10.344-10.344l-11.313,11.313l16,16
	C67.906,303.219,69.953,304,72,304s4.094-0.781,5.656-2.344L80,299.313V304h-8H48V272z"/>
<rect x="136" y="256" width="88" height="16"/>
<rect x="112" y="288" width="112" height="16"/>
<path d="M40,400h48c4.418,0,8-3.582,8-8v-48c0-4.418-3.582-8-8-8H40c-4.418,0-8,3.582-8,8v48C32,396.418,35.582,400,40,400z M48,352
	h32v32H48V352z"/>
<rect x="112" y="336" width="112" height="16"/>
<rect x="112" y="368" width="112" height="16"/>
<rect x="32" y="424" width="192" height="16"/>
<rect x="32" y="32" width="184" height="16"/>
<rect x="232" y="32" width="80" height="16"/>
<g>
</g>
<g>
</g>
<g>
</g>
<g>
</g>
<g>
</g>
<g>
</g>
<g>
</g>
<g>
</g>
<g>
</g>
<g>
</g>
<g>
</g>
<g>
</g>
<g>
</g>
<g>
</g>
<g>
</g>
</svg>
