<?xml version="1.0" encoding="UTF-8" standalone="no"?>
<!DOCTYPE svg PUBLIC "-//W3C//DTD SVG 1.1//EN" "http://www.w3.org/Graphics/SVG/1.1/DTD/svg11.dtd">
<svg version="1.1" xmlns="http://www.w3.org/2000/svg" xmlns:xlink="http://www.w3.org/1999/xlink" preserveAspectRatio="xMidYMid meet" viewBox="0 0 640 640" width="640" height="640"><defs><path d="M505.2 97.27L506.61 97.46L508 97.71L509.37 98.01L510.72 98.37L512.04 98.79L513.35 99.26L514.63 99.78L515.88 100.35L517.11 100.97L518.3 101.64L519.47 102.36L520.6 103.12L521.71 103.93L522.77 104.78L523.81 105.67L524.8 106.61L525.76 107.58L526.68 108.59L527.55 109.64L528.39 110.73L529.18 111.85L529.92 113L530.62 114.19L531.27 115.41L531.87 116.66L532.42 117.94L532.92 119.24L533.36 120.57L533.75 121.93L534.09 123.31L534.36 124.71L534.58 126.13L534.73 127.57L534.83 129.04L534.86 130.52L534.86 375.36L534.84 376.66L534.76 377.94L534.64 379.22L534.46 380.47L534.24 381.71L533.97 382.94L533.66 384.15L533.3 385.34L532.9 386.51L532.46 387.66L531.97 388.79L531.45 389.89L530.88 390.98L530.27 392.04L529.63 393.07L528.95 394.08L528.23 395.06L527.48 396.01L526.69 396.94L525.87 397.83L525.02 398.69L524.13 399.53L523.22 400.32L522.27 401.09L521.3 401.82L520.3 402.51L519.27 403.17L518.21 403.78L517.14 404.36L516.03 404.9L514.9 405.4L513.75 405.86L512.58 406.28L511.39 406.65L510.18 406.97L508.95 407.25L507.7 407.49L506.44 407.67L505.16 407.81L503.87 407.9L381.74 413.83L440.11 513.98L440.17 514.08L440.23 514.19L440.28 514.3L440.34 514.41L440.39 514.52L440.44 514.63L440.48 514.74L440.52 514.86L440.56 514.97L440.6 515.08L440.63 515.2L440.67 515.32L440.7 515.43L440.72 515.55L440.75 515.67L440.77 515.79L440.79 515.9L440.8 516.02L440.82 516.14L440.83 516.26L440.84 516.38L440.84 516.5L440.84 516.62L440.84 516.74L440.84 516.86L440.84 516.98L440.83 517.1L440.82 517.22L440.8 517.34L440.79 517.46L440.77 517.58L440.75 517.7L440.73 517.82L440.7 517.93L440.67 518.05L440.64 518.17L440.6 518.29L440.56 518.4L440.52 518.52L440.48 518.63L418.15 576.39L418.09 576.55L418.02 576.71L417.95 576.86L417.87 577.01L417.79 577.15L417.7 577.3L417.61 577.43L417.52 577.57L417.42 577.7L417.32 577.83L417.22 577.96L417.11 578.08L417 578.2L416.89 578.31L416.77 578.42L416.65 578.53L416.53 578.63L416.4 578.73L416.27 578.83L416.14 578.92L416.01 579L415.87 579.09L415.73 579.17L415.59 579.24L415.45 579.31L415.3 579.38L415.16 579.44L415.01 579.5L414.86 579.55L414.71 579.6L414.55 579.65L414.4 579.69L414.24 579.72L414.09 579.75L413.93 579.78L413.77 579.8L413.61 579.82L413.45 579.83L413.29 579.84L413.13 579.84L413.08 579.84L413.03 579.84L412.98 579.84L412.93 579.84L412.88 579.83L412.83 579.83L412.79 579.83L412.74 579.82L412.69 579.82L412.64 579.82L412.59 579.81L412.54 579.81L412.49 579.8L412.44 579.8L412.4 579.79L412.35 579.78L412.3 579.77L412.25 579.77L412.2 579.76L412.15 579.75L412.1 579.74L412.05 579.73L412.01 579.72L411.96 579.71L411.91 579.7L411.86 579.69L411.81 579.67L411.76 579.66L411.71 579.65L411.67 579.64L411.62 579.62L411.57 579.61L411.52 579.59L411.47 579.58L411.42 579.56L411.38 579.54L411.33 579.53L411.28 579.51L411.23 579.49L411.18 579.47L410.98 579.39L410.78 579.3L410.58 579.2L410.39 579.09L410.21 578.98L410.03 578.86L409.86 578.74L409.69 578.6L409.53 578.47L409.38 578.32L409.23 578.17L409.09 578.02L408.95 577.86L408.83 577.7L408.7 577.53L408.59 577.36L408.48 577.18L408.38 577L408.29 576.82L408.2 576.63L408.12 576.44L408.04 576.24L407.98 576.05L407.92 575.85L407.87 575.65L407.83 575.44L407.79 575.24L407.77 575.03L407.75 574.82L407.74 574.61L407.74 574.4L407.74 574.19L407.76 573.98L407.78 573.77L407.81 573.56L407.85 573.35L407.9 573.13L407.96 572.92L408.02 572.71L408.1 572.5L408.45 571.61L401.32 567.28L401.28 567.34L401.21 567.46L401.13 567.57L401.05 567.68L400.97 567.78L400.89 567.89L400.8 567.99L400.71 568.09L400.62 568.19L400.52 568.29L343.86 624.96L343.78 625.04L343.71 625.11L343.63 625.18L343.55 625.25L343.47 625.32L343.38 625.39L343.3 625.45L343.21 625.52L343.13 625.58L343.04 625.64L342.95 625.69L342.86 625.75L342.77 625.8L342.68 625.86L342.59 625.91L342.49 625.96L342.4 626L342.31 626.05L342.21 626.09L342.11 626.13L342.01 626.17L341.92 626.21L341.82 626.24L341.72 626.28L341.62 626.31L341.52 626.34L341.41 626.37L341.31 626.39L341.21 626.42L341.11 626.44L341 626.46L340.9 626.48L340.79 626.49L340.69 626.5L340.58 626.52L340.48 626.53L340.37 626.53L340.26 626.54L340.16 626.54L340.05 626.54L339.94 626.54L339.84 626.54L339.73 626.53L339.62 626.53L339.52 626.52L339.41 626.5L339.31 626.49L339.2 626.48L339.1 626.46L338.99 626.44L338.89 626.42L338.79 626.39L338.68 626.37L338.58 626.34L338.48 626.31L338.38 626.28L338.28 626.24L338.18 626.21L338.08 626.17L337.99 626.13L337.89 626.09L337.79 626.05L337.7 626L337.6 625.96L337.51 625.91L337.42 625.86L337.33 625.8L337.24 625.75L337.15 625.69L337.06 625.64L336.97 625.58L336.89 625.52L336.8 625.45L336.72 625.39L336.63 625.32L336.55 625.25L336.47 625.18L336.39 625.11L336.32 625.04L336.24 624.96L279.58 568.29L279.48 568.19L279.39 568.09L279.3 567.99L279.21 567.89L279.13 567.78L279.05 567.68L278.97 567.57L278.89 567.46L278.82 567.34L278.75 567.23L278.69 567.12L278.62 567L278.56 566.88L278.51 566.76L278.45 566.64L278.4 566.52L278.35 566.4L278.3 566.27L278.26 566.15L278.22 566.02L278.19 565.9L278.15 565.77L278.12 565.64L278.1 565.51L278.07 565.38L278.05 565.25L278.04 565.12L278.02 564.99L278.01 564.85L278 564.72L278 564.59L278 564.46L278 564.32L278 564.19L278.01 564.06L278.03 563.92L278.04 563.79L278.06 563.65L278.08 563.52L278.11 563.39L308.29 417.4L251.99 420.13L242.22 448.86L241.84 449.9L241.44 450.93L241.01 451.94L240.55 452.94L240.06 453.91L239.55 454.87L239.01 455.81L238.44 456.73L237.84 457.63L237.23 458.51L236.58 459.37L235.92 460.21L235.23 461.03L234.51 461.83L233.78 462.6L233.02 463.36L232.24 464.09L231.44 464.79L230.63 465.48L229.79 466.13L228.93 466.77L228.06 467.38L227.17 467.96L226.26 468.52L225.33 469.05L224.39 469.55L223.43 470.03L222.46 470.47L221.47 470.9L220.47 471.29L219.46 471.65L218.43 471.98L217.39 472.29L216.34 472.56L215.28 472.8L214.21 473.02L213.13 473.2L212.04 473.34L210.94 473.46L209.84 473.54L161.67 476.43L161.46 476.43L161.25 476.43L161.06 476.4L160.87 476.37L160.68 476.32L160.51 476.26L160.34 476.18L160.18 476.1L160.03 476.01L159.88 475.9L159.75 475.79L159.62 475.67L159.5 475.54L159.4 475.41L159.3 475.26L159.21 475.12L159.13 474.96L159.05 474.81L158.99 474.64L158.94 474.48L158.9 474.31L158.87 474.14L158.85 473.97L158.84 473.8L158.84 473.62L158.85 473.45L158.88 473.28L158.91 473.11L158.96 472.94L159.02 472.77L159.09 472.61L159.17 472.45L159.26 472.3L159.37 472.15L159.49 472.01L159.62 471.87L159.77 471.74L159.92 471.62L160.09 471.51L160.28 471.4L183.02 459.55L183.41 459.34L183.8 459.13L184.17 458.9L184.55 458.67L184.92 458.43L185.28 458.18L185.63 457.93L185.99 457.67L186.33 457.4L186.67 457.13L187 456.85L187.33 456.56L187.64 456.26L187.96 455.96L188.26 455.65L188.56 455.34L188.86 455.02L189.14 454.7L189.42 454.36L189.69 454.03L189.96 453.68L190.22 453.34L190.47 452.98L190.71 452.62L190.95 452.26L191.17 451.89L191.39 451.52L191.61 451.14L191.81 450.75L192.01 450.37L192.2 449.97L192.38 449.58L192.55 449.17L192.71 448.77L192.87 448.36L193.02 447.95L193.16 447.53L193.29 447.11L193.41 446.68L193.52 446.26L199.45 422.68L157.2 424.73L155.94 424.77L154.69 424.75L153.45 424.68L152.23 424.56L151.02 424.39L149.82 424.17L148.65 423.91L147.49 423.6L146.35 423.24L145.23 422.84L144.13 422.39L143.05 421.9L142 421.38L140.97 420.81L139.96 420.2L138.99 419.55L138.03 418.87L137.11 418.15L136.22 417.39L135.36 416.6L134.53 415.78L133.73 414.92L132.96 414.04L132.24 413.12L131.54 412.18L130.89 411.2L130.27 410.2L129.69 409.17L129.15 408.12L128.65 407.05L128.2 405.95L127.78 404.83L127.42 403.68L127.09 402.52L126.82 401.34L126.59 400.14L126.41 398.92L126.28 397.69L126.21 396.44L126.18 395.18L126.18 181.99L126.22 180.04L126.33 178.1L126.51 176.18L126.76 174.28L127.08 172.4L127.47 170.55L127.92 168.72L128.44 166.91L129.03 165.14L129.68 163.39L130.39 161.67L131.15 159.98L131.98 158.32L132.87 156.7L133.81 155.12L134.81 153.57L135.86 152.06L136.96 150.59L138.12 149.16L139.32 147.77L140.58 146.43L141.88 145.14L143.23 143.89L144.62 142.68L146.06 141.53L147.54 140.43L149.06 139.38L150.62 138.39L152.22 137.45L153.85 136.56L155.53 135.74L157.23 134.97L158.98 134.27L160.75 133.63L162.55 133.05L164.39 132.53L166.25 132.09L168.14 131.71L170.06 131.4L172 131.16L497.95 97.25L499.43 97.13L500.89 97.07L502.34 97.07L503.78 97.14L503.78 97.14L505.2 97.27Z" id="cx71Lvdtr"></path><path d="M482.83 82.46L484.25 82.59L485.66 82.77L487.05 83.02L488.42 83.33L489.77 83.69L491.09 84.1L492.4 84.57L493.68 85.09L494.93 85.66L496.15 86.28L497.35 86.95L498.52 87.67L499.65 88.43L500.76 89.24L501.82 90.09L502.86 90.98L503.85 91.92L504.81 92.89L505.73 93.9L506.6 94.95L507.44 96.04L508.22 97.16L508.97 98.32L509.67 99.5L510.32 100.72L510.92 101.97L511.47 103.25L511.97 104.55L512.41 105.88L512.8 107.24L513.13 108.62L513.41 110.02L513.63 111.44L513.78 112.89L513.88 114.35L513.91 115.83L513.91 360.67L513.88 361.97L513.81 363.26L513.68 364.53L513.51 365.79L513.29 367.03L513.02 368.25L512.71 369.46L512.35 370.65L511.95 371.82L511.51 372.97L511.02 374.1L510.5 375.21L509.93 376.29L509.32 377.35L508.68 378.38L508 379.39L507.28 380.37L506.53 381.33L505.74 382.25L504.92 383.14L504.07 384.01L503.18 384.84L502.27 385.64L501.32 386.4L500.35 387.13L499.35 387.82L498.32 388.48L497.26 389.1L496.18 389.68L495.08 390.22L493.95 390.72L492.8 391.17L491.63 391.59L490.44 391.96L489.23 392.28L488 392.57L486.75 392.8L485.49 392.99L484.21 393.12L482.91 393.21L231.03 405.44L221.27 434.17L220.89 435.21L220.49 436.24L220.06 437.25L219.6 438.25L219.11 439.22L218.6 440.18L218.05 441.12L217.49 442.04L216.89 442.94L216.27 443.83L215.63 444.69L214.96 445.53L214.27 446.34L213.56 447.14L212.83 447.92L212.07 448.67L211.29 449.4L210.49 450.11L209.67 450.79L208.84 451.45L207.98 452.08L207.11 452.69L206.21 453.27L205.3 453.83L204.38 454.36L203.44 454.86L202.48 455.34L201.51 455.79L200.52 456.21L199.52 456.6L198.51 456.96L197.48 457.3L196.44 457.6L195.39 457.87L194.33 458.12L193.26 458.33L192.18 458.51L191.09 458.66L189.99 458.77L188.88 458.86L140.72 461.74L140.51 461.75L140.3 461.74L140.1 461.71L139.91 461.68L139.73 461.63L139.55 461.57L139.39 461.5L139.23 461.41L139.08 461.32L138.93 461.22L138.8 461.1L138.67 460.98L138.55 460.85L138.44 460.72L138.34 460.58L138.25 460.43L138.17 460.28L138.1 460.12L138.04 459.96L137.99 459.79L137.95 459.62L137.92 459.45L137.9 459.28L137.89 459.11L137.89 458.94L137.9 458.76L137.93 458.59L137.96 458.42L138.01 458.25L138.07 458.09L138.14 457.92L138.22 457.77L138.31 457.61L138.42 457.46L138.54 457.32L138.67 457.18L138.81 457.06L138.97 456.93L139.14 456.82L139.33 456.72L162.07 444.86L162.46 444.65L162.84 444.44L163.22 444.21L163.6 443.98L163.96 443.74L164.33 443.5L164.68 443.24L165.03 442.98L165.38 442.71L165.72 442.44L166.05 442.16L166.37 441.87L166.69 441.58L167.01 441.27L167.31 440.97L167.61 440.65L167.9 440.33L168.19 440.01L168.47 439.68L168.74 439.34L169.01 439L169.26 438.65L169.52 438.3L169.76 437.94L169.99 437.57L170.22 437.2L170.44 436.83L170.65 436.45L170.86 436.07L171.06 435.68L171.24 435.29L171.43 434.89L171.6 434.49L171.76 434.08L171.92 433.67L172.07 433.26L172.2 432.84L172.33 432.42L172.46 432L172.57 431.57L178.5 407.99L136.25 410.04L134.98 410.08L133.73 410.06L132.5 409.99L131.27 409.87L130.07 409.7L128.87 409.48L127.7 409.22L126.54 408.91L125.4 408.55L124.28 408.15L123.18 407.7L122.1 407.22L121.05 406.69L120.02 406.12L119.01 405.51L118.03 404.86L117.08 404.18L116.16 403.46L115.27 402.7L114.41 401.92L113.58 401.09L112.78 400.24L112.01 399.35L111.28 398.43L110.59 397.49L109.93 396.51L109.32 395.51L108.74 394.49L108.2 393.43L107.7 392.36L107.24 391.26L106.83 390.14L106.47 389L106.14 387.83L105.87 386.65L105.64 385.45L105.46 384.24L105.33 383L105.25 381.76L105.23 380.5L105.23 167.3L105.26 165.35L105.37 163.41L105.56 161.49L105.81 159.59L106.13 157.72L106.52 155.86L106.97 154.03L107.49 152.23L108.08 150.45L108.73 148.7L109.43 146.98L110.2 145.29L111.03 143.64L111.92 142.02L112.86 140.43L113.86 138.88L114.91 137.37L116.01 135.9L117.17 134.47L118.37 133.09L119.63 131.74L120.93 130.45L122.28 129.2L123.67 128L125.11 126.84L126.59 125.74L128.11 124.69L129.67 123.7L131.27 122.76L132.9 121.88L134.58 121.05L136.28 120.29L138.02 119.58L139.8 118.94L141.6 118.36L143.44 117.85L145.3 117.4L147.19 117.02L149.11 116.71L151.05 116.47L477 82.56L478.47 82.44L479.94 82.38L481.39 82.39L482.83 82.46Z" id="aFqEC710o"></path><path d="M404.26 191.61C404.26 207.24 391.57 219.93 375.95 219.93C360.32 219.93 347.64 207.24 347.64 191.61C347.64 175.99 360.32 163.3 375.95 163.3C391.57 163.3 404.26 175.99 404.26 191.61Z" id="b63aaP7xZu"></path><path d="M349.57 289.65C349.57 306.41 332.24 320.02 310.9 320.02C289.56 320.02 272.23 306.41 272.23 289.65C272.23 272.88 349.57 272.88 349.57 289.65Z" id="a57hMekD"></path><path d="M274.17 191.61C274.17 207.24 261.48 219.93 245.86 219.93C230.23 219.93 217.55 207.24 217.55 191.61C217.55 175.99 230.23 163.3 245.86 163.3C261.48 163.3 274.17 175.99 274.17 191.61Z" id="c1tMQQYzn"></path><path d="M284.13 350.28C280.45 350.28 277.86 353.88 279.02 357.37C279.72 359.49 283.23 370.06 289.56 389.09L332.74 389.09C339.07 370.06 342.58 359.49 343.28 357.37C344.44 353.88 341.85 350.28 338.17 350.28C327.36 350.28 289.53 350.28 284.13 350.28Z" id="a4XXq1lVp0"></path><path d="M367.81 558.75L311.15 615.43L254.49 558.75L289.56 389.09L332.74 389.09L367.81 558.75Z" id="f8QEfAnol"></path><path d="M406.55 510.96L384.23 568.72L367.81 558.75L335.11 388.38L406.55 510.96Z" id="a53mZH7WqH"></path><path d="M338.69 344.91L338.94 344.92L339.2 344.94L339.45 344.97L339.71 345.01L339.96 345.05L340.21 345.09L340.46 345.14L340.71 345.2L340.95 345.26L341.2 345.33L341.44 345.41L341.68 345.49L341.92 345.57L342.16 345.66L342.39 345.76L342.62 345.86L342.85 345.97L343.08 346.08L343.3 346.2L343.52 346.32L343.74 346.45L343.96 346.58L344.17 346.72L344.38 346.86L344.58 347.01L344.78 347.17L344.98 347.32L345.18 347.49L345.37 347.65L345.56 347.83L345.74 348L345.92 348.19L346.1 348.37L346.27 348.56L346.44 348.76L346.6 348.96L346.76 349.16L346.91 349.37L347.06 349.58L347.2 349.79L347.34 350.01L347.47 350.23L347.6 350.45L347.72 350.68L347.84 350.91L347.95 351.14L348.05 351.37L348.15 351.6L348.24 351.84L348.33 352.08L348.41 352.32L348.49 352.56L348.56 352.81L348.62 353.05L348.68 353.3L348.73 353.54L348.78 353.79L348.82 354.04L348.85 354.29L348.88 354.54L348.91 354.8L348.93 355.05L348.94 355.3L348.94 355.55L348.94 355.81L348.94 356.06L348.93 356.31L348.91 356.57L348.88 356.82L348.85 357.07L348.82 357.33L348.78 357.58L348.73 357.83L348.67 358.08L348.61 358.33L348.55 358.58L348.48 358.83L348.4 359.07L339.63 385.46L339.63 385.47L339.64 385.49L339.65 385.5L339.66 385.52L339.68 385.55L339.7 385.56L339.71 385.58L339.72 385.6L339.73 385.61L339.74 385.63L339.75 385.64L339.75 385.65L339.75 385.65L339.76 385.66L339.76 385.66L339.76 385.67L411.21 508.25L411.27 508.35L411.33 508.46L411.38 508.57L411.44 508.68L411.49 508.79L411.54 508.9L411.58 509.02L411.62 509.13L411.66 509.24L411.7 509.36L411.73 509.47L411.77 509.59L411.8 509.71L411.82 509.82L411.85 509.94L411.87 510.06L411.89 510.18L411.9 510.3L411.92 510.42L411.93 510.53L411.94 510.65L411.94 510.77L411.94 510.89L411.94 511.01L411.94 511.13L411.94 511.25L411.93 511.37L411.92 511.49L411.9 511.61L411.89 511.73L411.87 511.85L411.85 511.97L411.83 512.09L411.8 512.21L411.77 512.32L411.74 512.44L411.7 512.56L411.66 512.67L411.62 512.79L411.58 512.91L389.25 570.66L389.19 570.82L389.12 570.98L389.05 571.13L388.97 571.28L388.89 571.43L388.8 571.57L388.71 571.71L388.62 571.84L388.52 571.98L388.42 572.1L388.32 572.23L388.21 572.35L388.1 572.47L387.99 572.58L387.87 572.69L387.75 572.8L387.63 572.9L387.5 573L387.37 573.1L387.24 573.19L387.11 573.28L386.97 573.36L386.83 573.44L386.69 573.51L386.55 573.58L386.4 573.65L386.26 573.71L386.11 573.77L385.96 573.82L385.81 573.87L385.65 573.92L385.5 573.96L385.34 573.99L385.19 574.03L385.03 574.05L384.87 574.07L384.71 574.09L384.55 574.1L384.39 574.11L384.22 574.11L384.18 574.11L384.13 574.11L384.08 574.11L384.03 574.11L383.98 574.11L383.93 574.1L383.88 574.1L383.84 574.1L383.79 574.09L383.74 574.09L383.69 574.08L383.64 574.08L383.59 574.07L383.54 574.07L383.5 574.06L383.45 574.05L383.4 574.05L383.35 574.04L383.3 574.03L383.25 574.02L383.2 574.01L383.15 574L383.11 573.99L383.06 573.98L383.01 573.97L382.96 573.96L382.91 573.95L382.86 573.94L382.81 573.92L382.77 573.91L382.72 573.89L382.67 573.88L382.62 573.87L382.57 573.85L382.52 573.83L382.48 573.82L382.43 573.8L382.38 573.78L382.33 573.77L382.28 573.75L382.08 573.66L381.88 573.57L381.68 573.47L381.49 573.37L381.31 573.25L381.13 573.13L380.96 573.01L380.79 572.88L380.63 572.74L380.48 572.6L380.33 572.45L380.19 572.29L380.05 572.13L379.93 571.97L379.8 571.8L379.69 571.63L379.58 571.45L379.48 571.27L379.39 571.09L379.3 570.9L379.22 570.71L379.14 570.52L379.08 570.32L379.02 570.12L378.97 569.92L378.93 569.72L378.89 569.51L378.87 569.3L378.85 569.1L378.84 568.89L378.84 568.68L378.84 568.47L378.86 568.25L378.88 568.04L378.91 567.83L378.95 567.62L379 567.41L379.06 567.2L379.12 566.99L379.2 566.78L400.59 511.44L343.17 412.92L373.09 557.66L373.12 557.79L373.14 557.93L373.16 558.06L373.17 558.19L373.19 558.33L373.2 558.46L373.2 558.6L373.2 558.73L373.2 558.86L373.2 559L373.19 559.13L373.18 559.26L373.16 559.39L373.15 559.52L373.13 559.65L373.1 559.78L373.08 559.91L373.05 560.04L373.01 560.17L372.98 560.3L372.94 560.42L372.89 560.55L372.85 560.67L372.8 560.79L372.75 560.92L372.69 561.04L372.64 561.16L372.58 561.27L372.51 561.39L372.45 561.5L372.38 561.62L372.31 561.73L372.23 561.84L372.15 561.95L372.07 562.06L371.99 562.16L371.9 562.26L371.81 562.36L371.72 562.46L371.62 562.56L314.96 619.24L314.88 619.31L314.81 619.39L314.73 619.46L314.65 619.53L314.57 619.59L314.48 619.66L314.4 619.73L314.31 619.79L314.23 619.85L314.14 619.91L314.05 619.97L313.96 620.02L313.87 620.08L313.78 620.13L313.69 620.18L313.59 620.23L313.5 620.28L313.4 620.32L313.31 620.36L313.21 620.41L313.11 620.44L313.02 620.48L312.92 620.52L312.82 620.55L312.72 620.58L312.62 620.61L312.51 620.64L312.41 620.67L312.31 620.69L312.21 620.71L312.1 620.73L312 620.75L311.89 620.76L311.79 620.78L311.68 620.79L311.58 620.8L311.47 620.81L311.36 620.81L311.26 620.81L311.15 620.82L311.04 620.81L310.94 620.81L310.83 620.81L310.72 620.8L310.62 620.79L310.51 620.78L310.41 620.76L310.3 620.75L310.2 620.73L310.09 620.71L309.99 620.69L309.89 620.67L309.78 620.64L309.68 620.61L309.58 620.58L309.48 620.55L309.38 620.52L309.28 620.48L309.18 620.44L309.09 620.41L308.99 620.36L308.89 620.32L308.8 620.28L308.7 620.23L308.61 620.18L308.52 620.13L308.43 620.08L308.34 620.02L308.25 619.97L308.16 619.91L308.07 619.85L307.99 619.79L307.9 619.73L307.82 619.66L307.73 619.59L307.65 619.53L307.57 619.46L307.49 619.39L307.41 619.31L307.34 619.24L250.68 562.56L250.58 562.46L250.49 562.36L250.4 562.26L250.31 562.16L250.23 562.06L250.15 561.95L250.07 561.84L249.99 561.73L249.92 561.62L249.85 561.5L249.79 561.39L249.72 561.27L249.66 561.15L249.61 561.04L249.55 560.92L249.5 560.79L249.45 560.67L249.4 560.55L249.36 560.42L249.32 560.3L249.29 560.17L249.25 560.04L249.22 559.91L249.2 559.78L249.17 559.65L249.15 559.52L249.14 559.39L249.12 559.26L249.11 559.13L249.1 558.99L249.1 558.86L249.1 558.73L249.1 558.6L249.1 558.46L249.11 558.33L249.13 558.19L249.14 558.06L249.16 557.93L249.18 557.79L249.21 557.66L283.99 389.41L273.9 359.07L273.82 358.83L273.75 358.58L273.69 358.33L273.62 358.08L273.57 357.83L273.52 357.58L273.48 357.33L273.44 357.07L273.41 356.82L273.39 356.57L273.37 356.31L273.36 356.06L273.36 355.81L273.36 355.55L273.36 355.3L273.37 355.05L273.39 354.8L273.41 354.54L273.44 354.29L273.48 354.04L273.52 353.79L273.57 353.54L273.62 353.3L273.68 353.05L273.74 352.81L273.81 352.56L273.89 352.32L273.97 352.08L274.06 351.84L274.15 351.6L274.25 351.37L274.35 351.14L274.46 350.91L274.58 350.68L274.7 350.45L274.83 350.23L274.96 350.01L275.1 349.79L275.24 349.58L275.39 349.37L275.54 349.16L275.7 348.96L275.86 348.76L276.03 348.56L276.2 348.37L276.38 348.19L276.56 348L276.74 347.83L276.93 347.65L277.12 347.49L277.32 347.32L277.51 347.17L277.72 347.01L277.92 346.87L278.13 346.72L278.34 346.58L278.56 346.45L278.78 346.32L279 346.2L279.22 346.08L279.45 345.97L279.68 345.86L279.91 345.76L280.14 345.66L280.38 345.57L280.62 345.49L280.86 345.41L281.1 345.33L281.35 345.26L281.59 345.2L281.84 345.14L282.09 345.09L282.34 345.05L282.59 345.01L282.85 344.97L283.1 344.94L283.36 344.92L283.61 344.91L283.87 344.9L284.13 344.9L338.17 344.9L338.43 344.9L338.69 344.91ZM311.15 607.8L361.95 557L357.77 536.79L298.96 595.61L311.15 607.8ZM271.44 504.24L271.43 504.25L271.42 504.26L271.42 504.27L271.41 504.27L271.4 504.28L271.39 504.29L271.38 504.3L271.36 504.32L271.35 504.33L271.33 504.35L271.3 504.37L271.26 504.41L271.23 504.43L271.21 504.45L264.85 535.21L309.21 490.86L309.37 490.71L309.53 490.56L309.7 490.42L309.87 490.29L310.05 490.17L310.23 490.06L310.42 489.95L310.61 489.85L310.8 489.76L310.99 489.68L311.19 489.6L311.38 489.54L311.58 489.48L311.78 489.43L311.99 489.38L312.19 489.35L312.4 489.32L312.6 489.3L312.81 489.29L313.02 489.28L313.22 489.29L313.43 489.3L313.64 489.32L313.84 489.35L314.05 489.38L314.25 489.43L314.45 489.48L314.65 489.54L314.85 489.6L315.05 489.68L315.24 489.76L315.43 489.85L315.62 489.95L315.8 490.06L315.98 490.17L316.16 490.29L316.33 490.42L316.5 490.56L316.67 490.71L316.83 490.86L316.98 491.02L317.13 491.19L317.27 491.36L317.4 491.53L317.52 491.71L317.63 491.89L317.74 492.07L317.84 492.26L317.93 492.45L318.01 492.64L318.09 492.84L318.15 493.04L318.21 493.24L318.26 493.44L318.31 493.64L318.34 493.85L318.37 494.05L318.39 494.26L318.4 494.47L318.41 494.67L318.4 494.88L318.39 495.09L318.37 495.29L318.34 495.5L318.31 495.7L318.26 495.91L318.21 496.11L318.15 496.31L318.09 496.51L318.01 496.7L317.93 496.89L317.84 497.09L317.74 497.27L317.63 497.46L317.52 497.64L317.4 497.82L317.27 497.99L317.13 498.16L316.98 498.32L316.83 498.48L260.88 554.43L260.35 557L291.34 587.99L355.16 524.16L350.98 503.96L307.76 547.18L307.68 547.26L307.59 547.34L307.51 547.41L307.43 547.48L307.35 547.55L307.26 547.62L307.17 547.69L307.09 547.75L307 547.81L306.91 547.87L306.82 547.93L306.73 547.99L306.64 548.04L306.54 548.1L306.45 548.15L306.36 548.19L306.26 548.24L306.17 548.28L306.07 548.33L305.97 548.37L305.87 548.41L305.78 548.44L305.68 548.48L305.58 548.51L305.48 548.54L305.38 548.57L305.28 548.6L305.18 548.62L305.08 548.64L304.97 548.66L304.87 548.68L304.77 548.7L304.67 548.71L304.56 548.73L304.46 548.74L304.36 548.75L304.25 548.75L304.15 548.76L304.05 548.76L303.94 548.76L303.84 548.76L303.74 548.76L303.63 548.75L303.53 548.75L303.43 548.74L303.32 548.73L303.22 548.71L303.12 548.7L303.02 548.68L302.92 548.66L302.81 548.64L302.71 548.62L302.61 548.6L302.51 548.57L302.41 548.54L302.31 548.51L302.21 548.48L302.11 548.44L302.01 548.41L301.92 548.37L301.82 548.33L301.72 548.28L301.63 548.24L301.53 548.19L301.44 548.15L301.34 548.1L301.25 548.04L301.16 547.99L301.07 547.93L300.98 547.87L300.89 547.81L300.8 547.75L300.71 547.69L300.63 547.62L300.54 547.55L300.46 547.48L300.38 547.41L300.29 547.34L300.21 547.26L300.13 547.18L299.98 547.02L299.83 546.86L299.7 546.69L299.57 546.52L299.44 546.34L299.33 546.16L299.22 545.97L299.12 545.78L299.03 545.59L298.95 545.4L298.88 545.2L298.81 545.01L298.75 544.81L298.7 544.61L298.65 544.4L298.62 544.2L298.59 543.99L298.57 543.79L298.56 543.58L298.56 543.37L298.56 543.17L298.57 542.96L298.59 542.75L298.62 542.55L298.65 542.34L298.7 542.14L298.75 541.94L298.81 541.74L298.88 541.54L298.95 541.34L299.03 541.15L299.12 540.96L299.22 540.77L299.33 540.59L299.44 540.41L299.57 540.23L299.7 540.06L299.83 539.89L299.98 539.72L300.13 539.56L347.83 491.87L347.84 491.86L347.85 491.84L347.87 491.83L347.88 491.82L347.89 491.8L347.91 491.79L347.92 491.78L347.93 491.77L347.95 491.75L347.96 491.74L347.98 491.73L347.99 491.72L348 491.7L348.02 491.69L348.03 491.68L348.04 491.67L348.06 491.65L348.07 491.64L348.09 491.63L348.1 491.62L348.11 491.61L348.13 491.59L348.14 491.58L348.16 491.57L348.17 491.56L348.18 491.55L348.2 491.54L348.21 491.52L348.23 491.51L348.24 491.5L348.26 491.49L348.27 491.48L348.28 491.47L348.3 491.46L348.31 491.44L348.33 491.43L348.34 491.42L348.36 491.41L348.39 491.39L337.41 438.28L271.45 504.23L271.44 504.24ZM282.16 453.89L282.15 453.9L282.14 453.91L282.13 453.92L282.12 453.93L282.11 453.94L282.1 453.95L282.09 453.96L282.08 453.97L282.06 453.99L282.05 454L282.04 454.01L282.02 454.02L282.01 454.03L282 454.04L281.98 454.06L281.97 454.07L281.95 454.08L281.94 454.09L281.92 454.11L281.91 454.12L281.89 454.13L281.88 454.15L281.86 454.16L281.84 454.18L281.83 454.19L281.81 454.2L281.79 454.22L281.77 454.23L281.76 454.25L281.74 454.26L281.72 454.28L281.7 454.29L281.68 454.31L281.66 454.32L281.64 454.34L281.62 454.35L281.6 454.37L281.58 454.39L281.56 454.4L275.18 485.26L334.8 425.64L330.62 405.44L282.17 453.88L282.16 453.89ZM285.51 435.31L326.34 394.47L293.95 394.47L285.51 435.31ZM293.45 383.7L328.85 383.7L338.17 355.67L284.13 355.67L293.45 383.7Z" id="j2DgRIoyNm"></path><path d="M296.1 556.6C296.1 555.19 295.53 553.8 294.52 552.79C293.52 551.79 292.13 551.22 290.71 551.22C289.3 551.22 287.91 551.79 286.9 552.79C285.9 553.8 285.33 555.19 285.33 556.6C285.33 558.02 285.9 559.41 286.9 560.41C287.91 561.42 289.3 561.99 290.71 561.99C292.13 561.99 293.52 561.42 294.52 560.41C295.53 559.41 296.1 558.02 296.1 556.6Z" id="c1Q6QFnLjr"></path><path d="M331.23 484.08C332.24 483.08 332.81 481.69 332.81 480.27C332.81 478.85 332.24 477.46 331.23 476.46C330.23 475.45 328.84 474.88 327.42 474.88C326 474.88 324.62 475.45 323.61 476.46C322.61 477.46 322.04 478.85 322.04 480.27C322.04 481.69 322.61 483.08 323.61 484.08C324.62 485.08 326 485.66 327.42 485.66C328.84 485.66 330.23 485.08 331.23 484.08Z" id="eIWkKC9pX"></path><path d="M253.51 191.61C253.51 195.84 250.08 199.26 245.86 199.26C241.63 199.26 238.21 195.84 238.21 191.61C238.21 187.39 241.63 183.97 245.86 183.97C250.08 183.97 253.51 187.39 253.51 191.61Z" id="b4UaWwqR9u"></path><path d="M384.97 191.61C384.97 195.84 381.55 199.26 377.32 199.26C373.1 199.26 369.67 195.84 369.67 191.61C369.67 187.39 373.1 183.97 377.32 183.97C381.55 183.97 384.97 187.39 384.97 191.61Z" id="bpqg18avb"></path><path d="M347.64 194.16C337.26 191.4 330.77 189.67 328.18 188.98C315.84 185.7 302.84 185.75 290.52 189.13C288.08 189.8 281.99 191.48 272.23 194.16" id="gyGOg5dt4"></path><path d="M448.59 149.3L404.85 192.24" id="b1CoxFudZ4"></path><path d="M173.81 148.67L217.55 191.61" id="e3nBwrOoO"></path><path d="M318.27 247.31C318.27 247.31 318.27 247.31 318.27 247.31C321.12 245.71 320.27 241.39 317.02 241C317.02 241 317.02 241 317.02 241L302.79 244.17L307.6 219.89C307.58 219.75 307.57 219.66 307.56 219.62C307.13 216.43 303.01 215.43 301.16 218.06C301.16 218.06 301.16 218.06 301.16 218.06C298.07 232.56 296.14 241.62 295.37 245.24C294.6 248.85 297.84 252.03 301.43 251.2C303.68 250.68 309.29 249.38 318.27 247.31Z" id="b526sE5GIx"></path></defs><g><g><g><use xlink:href="#cx71Lvdtr" opacity="1" fill="#000000" fill-opacity="0.09"></use></g><g><use xlink:href="#aFqEC710o" opacity="1" fill="#ffffff" fill-opacity="1"></use><g><use xlink:href="#aFqEC710o" opacity="1" fill-opacity="0" stroke="#000000" stroke-width="8" stroke-opacity="1"></use></g></g><g><g><use xlink:href="#b63aaP7xZu" opacity="1" fill-opacity="0" stroke="#000000" stroke-width="8" stroke-opacity="1"></use></g></g><g><use xlink:href="#a57hMekD" opacity="1" fill="#ec6b91" fill-opacity="1"></use><g><use xlink:href="#a57hMekD" opacity="1" fill-opacity="0" stroke="#000000" stroke-width="8" stroke-opacity="1"></use></g></g><g><g><use xlink:href="#c1tMQQYzn" opacity="1" fill-opacity="0" stroke="#000000" stroke-width="8" stroke-opacity="1"></use></g></g><g><g><use xlink:href="#a4XXq1lVp0" opacity="1" fill="#7826a2" fill-opacity="1"></use><g><use xlink:href="#a4XXq1lVp0" opacity="1" fill-opacity="0" stroke="#000000" stroke-width="1" stroke-opacity="0"></use></g></g><g><use xlink:href="#f8QEfAnol" opacity="1" fill="#a35bc9" fill-opacity="1"></use><g><use xlink:href="#f8QEfAnol" opacity="1" fill-opacity="0" stroke="#000000" stroke-width="1" stroke-opacity="0"></use></g></g><g><use xlink:href="#a53mZH7WqH" opacity="1" fill="#7826a2" fill-opacity="1"></use><g><use xlink:href="#a53mZH7WqH" opacity="1" fill-opacity="0" stroke="#000000" stroke-width="1" stroke-opacity="0"></use></g></g><g><use xlink:href="#j2DgRIoyNm" opacity="1" fill="#000000" fill-opacity="1"></use><g><use xlink:href="#j2DgRIoyNm" opacity="1" fill-opacity="0" stroke="#000000" stroke-width="1" stroke-opacity="0"></use></g></g><g><use xlink:href="#c1Q6QFnLjr" opacity="1" fill="#000000" fill-opacity="1"></use><g><use xlink:href="#c1Q6QFnLjr" opacity="1" fill-opacity="0" stroke="#000000" stroke-width="1" stroke-opacity="0"></use></g></g><g><use xlink:href="#eIWkKC9pX" opacity="1" fill="#000000" fill-opacity="1"></use><g><use xlink:href="#eIWkKC9pX" opacity="1" fill-opacity="0" stroke="#000000" stroke-width="1" stroke-opacity="0"></use></g></g></g><g><use xlink:href="#b4UaWwqR9u" opacity="1" fill="#000000" fill-opacity="1"></use></g><g><use xlink:href="#bpqg18avb" opacity="1" fill="#000000" fill-opacity="1"></use></g><g><g><use xlink:href="#gyGOg5dt4" opacity="1" fill-opacity="0" stroke="#000000" stroke-width="8" stroke-opacity="1"></use></g></g><g><g><use xlink:href="#b1CoxFudZ4" opacity="1" fill-opacity="0" stroke="#000000" stroke-width="8" stroke-opacity="1"></use></g></g><g><g><use xlink:href="#e3nBwrOoO" opacity="1" fill-opacity="0" stroke="#000000" stroke-width="8" stroke-opacity="1"></use></g></g><g><use xlink:href="#b526sE5GIx" opacity="1" fill="#000000" fill-opacity="1"></use><g><use xlink:href="#b526sE5GIx" opacity="1" fill-opacity="0" stroke="#000000" stroke-width="1" stroke-opacity="1"></use></g></g></g></g></svg>