<?xml version="1.0" encoding="UTF-8" standalone="no"?>
<!DOCTYPE svg PUBLIC "-//W3C//DTD SVG 1.1//EN" "http://www.w3.org/Graphics/SVG/1.1/DTD/svg11.dtd">
<svg version="1.1" xmlns="http://www.w3.org/2000/svg" xmlns:xlink="http://www.w3.org/1999/xlink" preserveAspectRatio="xMidYMid meet" viewBox="0 0 625 175" width="625" height="175"><defs><path d="" id="a219cyP3CS"></path><path d="M625 22.32L620.26 22.32C616.91 25.67 614.81 27.77 613.98 28.61C613.75 28.83 613.62 29.14 613.62 29.46C613.62 31.01 613.62 34.88 613.62 41.06L601.9 41.06L601.9 55.38L596.66 55.38L596.66 30.09L584.06 30.09L566.96 32.17L566.96 63.33L561.09 63.33L561.09 38.25L551.42 38.25L551.42 26.14L544.57 22.32L540.54 22.32L533.93 25.44L533.93 35.96L529.77 35.96L529.77 34.25L523.04 34.25L523.04 37.06L518.66 38.91L518.66 36.34L508.39 36.34L508.39 22.32L495.78 19.65L495.78 17.08L487.22 17.08L487.22 19.65L478.66 20.63L478.66 26.14L474.01 26.14L467.65 28.96L467.65 65.85L464.96 65.85L464.96 41.88L446.85 41.88L446.85 46.53L437.73 46.53L437.73 10.55L433.33 9.23L431.62 6.27L415.13 6.27L413.17 8.63L412.07 6.76L389.44 6.27L389.44 57.38L387.48 58.68L387.48 60.07L383.81 60.07L383.81 58.15L374.63 58.15L374.63 60.47L371.82 60.47L371.82 39.68L351.03 39.68L351.03 48.12L345.65 48.12L345.65 46.29L337.94 46.53L337.94 52.4L336.6 52.4L336.6 55.71L332.56 55.71L332.56 76.14L325.34 76.14L325.34 62.31L318.99 61.59L318.99 10.55L317.35 10.55C316.94 9.22 316.69 8.39 316.59 8.05C315.84 5.57 314.22 3.43 312.02 2.05C311.36 1.64 312.7 2.48 312.02 2.05C310.01 0.79 307.47 0.76 305.44 1.97C304.69 2.42 306.1 1.58 305.44 1.97C303.04 3.4 301.26 5.68 300.45 8.35C300.36 8.64 300.14 9.38 299.79 10.55L297.78 10.55L297.78 38.91L292.28 58.15L289.58 60.47L278.94 60.47L278.94 77.94L273.86 76.47L273.86 65.48L268.73 63.04L265.79 65.11L265.79 13.98L263.34 11.53L259.43 10.55L259.43 8.1L255.76 7.62L252.7 8.1L252.7 10.55L250.01 11.53L248.54 13.98L248.54 57.77L242.79 57.77L242.79 7.62L239.36 6.76L239.36 4.56L227.74 4.56L227.74 6.76L223.95 7.62L223.95 60.47L221.23 63.33L211.2 63.33L213.04 67.14L213.04 74.3L208.27 74.3L208.27 44.45L205.82 44.45L205.82 41.88L202.27 41.88L202.27 45.31L189.18 45.31L189.18 58.15L185.14 58.15L185.14 54.85L180.13 54.85L180.13 53.02L177.56 50.2L177.56 46.29L174.75 46.29L174.75 50.2L171.93 50.2L171.93 46.53L168.75 46.53L168.75 51.67L161.53 51.67L160 58.68L155.97 58.68L155.97 63.33L154.13 63.33L154.13 95.38L147.89 95.38L147.89 87.06L140.8 87.06L140.8 41.06L135.29 41.06L135.29 38.25L128.93 38.25L128.93 40.21L121.47 41.06L121.09 91.52L116.44 91.52L114.11 94.2L108.36 94.2L106.59 91.52L104.65 94.2L93.7 94.2L93.7 82.92L82.1 82.92L82.1 67.14L70.83 65.85L61.48 65.85L61.48 81.96L48.6 81.96L48.6 87.43L34.74 87.43L34.74 91.52L23.06 91.52L23.06 85.98L13.1 85.98L13.1 31.18L5.9 22.32L0 22.32L0 174.68L625 174.68L625 22.32Z" id="cp0iNOtcN"></path></defs><g><g><g><g><use xlink:href="#a219cyP3CS" opacity="1" fill-opacity="0" stroke="#000000" stroke-width="1" stroke-opacity="1"></use></g></g><g><use xlink:href="#cp0iNOtcN" opacity="1" fill="#ffffff" fill-opacity="1"></use></g></g></g></svg>