<?xml version="1.0" encoding="UTF-8" standalone="no"?>
<!DOCTYPE svg PUBLIC "-//W3C//DTD SVG 1.1//EN" "http://www.w3.org/Graphics/SVG/1.1/DTD/svg11.dtd">
<svg version="1.1" xmlns="http://www.w3.org/2000/svg" xmlns:xlink="http://www.w3.org/1999/xlink" preserveAspectRatio="xMidYMid meet" viewBox="0 0 640 640" width="640" height="640"><defs><path d="M138.67 478.14L138.67 499.47L21.33 499.47L21.33 478.14L138.67 478.14Z" id="b90jItqcaO"></path><path d="M266.67 627.47C369.07 627.47 425.96 627.47 437.33 627.47C466.79 627.47 490.67 603.59 490.67 574.14C477.87 573.43 413.87 569.87 298.67 563.47L128 392.81L64 435.47L266.67 627.47Z" id="axoTEHsFc"></path><path d="M128 392.81L64 435.47L89.12 459.27L109.79 438.6L124.87 453.68L104.61 473.95L121.98 490.41L141.79 470.6L156.87 485.68L137.47 505.08L154.85 521.54L173.79 502.6L188.87 517.68L170.34 536.22L187.73 552.68L205.87 534.54L220.95 549.63L203.2 567.35L220.58 583.81L237.79 566.6L252.87 581.68L236.07 598.49L266.67 627.47C369.07 627.47 425.96 627.47 437.33 627.47C466.79 627.47 490.67 603.59 490.67 574.14C477.87 573.43 413.87 569.87 298.67 563.47L128 392.81Z" id="gKCKryESM"></path><path d="M89.12 459.27L104.61 473.95L124.87 453.68L109.79 438.6L89.12 459.27Z" id="a9taovmpQ"></path><path d="M121.98 490.41L137.47 505.08L156.87 485.68L141.79 470.6L121.98 490.41Z" id="a1tCjYPpxA"></path><path d="M154.85 521.54L170.34 536.22L188.87 517.68L173.79 502.6L154.85 521.54Z" id="m6eEa8ZAc7"></path><path d="M187.71 552.68L203.2 567.35L220.87 549.68L205.79 534.6L187.71 552.68Z" id="f9xtqsTye"></path><path d="M220.58 583.81L236.07 598.49L252.87 581.68L237.79 566.6L220.58 583.81Z" id="g46QAnw0cE"></path><path d="M352 115.47L352 136.81L192 136.81L192 115.47L352 115.47Z" id="bbuDuqQXX"></path><path d="M170.67 115.47L170.67 136.81L149.33 136.81L149.33 115.47L170.67 115.47Z" id="b32esHbqiK"></path><path d="M224 158.14L224 179.47L117.33 179.47L117.33 158.14L224 158.14Z" id="a8d7zeUjPy"></path><path d="M96 158.14L96 179.47L74.67 179.47L74.67 158.14L96 158.14Z" id="csjQYrPR1"></path><path d="M106.67 286.14L106.67 307.47L64 307.47L64 286.14L106.67 286.14Z" id="hSqjL6B4c"></path><path d="M42.67 286.14L42.67 307.47L21.33 307.47L21.33 286.14L42.67 286.14Z" id="fIJYJt04g"></path><path d="M138.67 542.14L138.67 563.47L96 563.47L96 542.14L138.67 542.14Z" id="a1vYE5BazY"></path><path d="M74.67 542.14L74.67 563.47L53.33 563.47L53.33 542.14L74.67 542.14Z" id="a17KLVtD1T"></path><path d="M640 616.81L640 638.14L0 638.14L0 616.81L640 616.81Z" id="d3FkiJt9kE"></path><path d="M370.86 484.91L309.33 371.47L309.09 371.47L618.67 8.81L426.67 8.81C300.4 166.64 230.25 254.32 216.22 271.86C213.13 266.01 209.17 260.65 204.49 255.97C203.66 255.14 199.49 250.97 192 243.47L166.14 302.87C143.3 325.71 130.61 338.4 128.07 340.93C113.75 355.25 113.75 378.47 128.07 392.8C128.07 392.8 128.07 392.8 128.07 392.81C139.45 404.18 196.31 461.07 298.67 563.47L490.67 574.14C490.67 561.9 490.67 555.1 490.67 553.74C490.67 534.2 477.84 516.96 459.11 511.35C447.35 507.83 417.93 499.01 370.86 484.91Z" id="k2jAYAhLlh"></path><path d="M370.86 484.91L309.33 371.47L309.09 371.47L338.67 336.81L241.78 239.92C226.42 259.08 217.89 269.73 216.18 271.86C213.08 266.01 209.13 260.65 204.45 255.97C203.62 255.14 199.47 250.97 192 243.47L166.14 302.87C143.3 325.71 130.61 338.4 128.07 340.93C113.75 355.25 113.75 378.47 128.07 392.8C128.07 392.8 128.07 392.8 128.07 392.81C139.45 404.18 196.31 461.07 298.67 563.47L490.67 574.14C490.67 561.9 490.67 555.1 490.67 553.74C490.67 534.2 477.84 516.96 459.11 511.35C459.11 511.35 459.11 511.35 459.11 511.35L370.86 484.91Z" id="f1Dx3FH911"></path><path d="M309.33 371.47C292.44 369.97 283.05 369.14 281.17 368.98C248.37 364.29 224 336.19 224 303.06C224 285.4 216.99 268.46 204.5 255.97C203.67 255.14 199.5 250.97 192 243.47L166.14 302.87C143.3 325.71 130.61 338.4 128.07 340.93C113.75 355.25 113.75 378.47 128.07 392.8C128.07 392.8 128.07 392.8 128.07 392.81C139.45 404.18 196.31 461.07 298.67 563.47L490.67 574.14C490.67 561.9 490.67 555.1 490.67 553.74C490.67 534.2 477.84 516.96 459.11 511.35C453.23 509.59 423.81 500.78 370.86 484.91L309.33 371.47Z" id="b22xFiJtbm"></path><path d="M325.89 402L315.29 382.44L269.79 427.93L284.87 443.01L325.89 402Z" id="b17MR1jqtB"></path><path d="M348.39 443.49L337.78 423.93L301.79 459.93L316.87 475.01L348.39 443.49Z" id="gvZm8gZn"></path><path d="M370.94 484.94L370.86 484.91L360.29 465.43L333.79 491.93L348.87 507.01L370.94 484.94Z" id="b8rL2NKJTX"></path><path d="M269.79 267.93L284.88 283.02L263.55 304.35L248.46 289.26L269.79 267.93Z" id="czIZYb6LU"></path><path d="M301.79 299.93L316.87 315.02L295.54 336.35L280.46 321.26L301.79 299.93Z" id="b17R3RJMNh"></path><path d="M322.23 372.87L378.17 476.01L462.18 501.14L463.91 501.68L465.62 502.27L467.29 502.92L468.94 503.62L470.55 504.37L472.14 505.17L473.69 506.01L475.21 506.91L476.69 507.85L478.14 508.83L479.56 509.86L480.93 510.93L482.27 512.04L483.57 513.2L484.84 514.39L486.06 515.62L487.24 516.88L488.38 518.19L489.48 519.53L490.54 520.9L491.55 522.3L492.51 523.74L493.43 525.2L494.31 526.7L495.14 528.22L495.92 529.78L496.65 531.35L497.33 532.96L497.96 534.58L498.54 536.23L499.07 537.9L499.54 539.59L499.96 541.3L500.33 543.03L500.64 544.78L500.89 546.54L501.09 548.32L501.23 550.11L501.31 551.92L501.33 553.73L501.33 574.14L501.32 575.32L501.29 576.5L501.24 577.67L501.16 578.85L501.06 580.02L500.94 581.18L500.8 582.35L500.64 583.51L500.46 584.66L500.26 585.81L500.03 586.96L499.79 588.1L499.52 589.23L499.24 590.36L498.93 591.48L498.6 592.6L498.26 593.71L497.89 594.81L497.5 595.91L497.09 597L496.67 598.08L496.22 599.15L495.75 600.22L495.27 601.27L494.76 602.32L494.24 603.36L493.69 604.39L493.13 605.41L492.55 606.42L491.95 607.42L491.33 608.41L490.69 609.39L490.04 610.36L489.36 611.31L488.67 612.26L487.95 613.19L487.23 614.12L486.48 615.02L485.71 615.92L484.93 616.81L640 616.81L640 638.14L0 638.14L0 616.81L239.93 616.81L116.04 499.47L21.33 499.47L21.33 478.14L93.56 478.14L56.69 443.22L56.65 443.17L56.61 443.13L56.56 443.09L56.52 443.05L56.48 443.01L56.44 442.96L56.4 442.92L56.35 442.88L56.31 442.84L56.27 442.79L56.23 442.75L56.19 442.7L56.15 442.66L56.11 442.62L56.07 442.57L56.03 442.53L55.99 442.48L55.95 442.44L55.91 442.39L55.87 442.35L55.83 442.3L55.8 442.25L55.76 442.21L55.72 442.16L55.68 442.11L55.65 442.07L55.61 442.02L55.57 441.97L55.54 441.93L55.5 441.88L55.46 441.83L55.43 441.78L55.39 441.73L55.36 441.68L55.32 441.64L55.29 441.59L55.26 441.54L55.22 441.49L55.19 441.44L55.15 441.39L54.92 441.02L54.7 440.64L54.5 440.26L54.31 439.87L54.14 439.48L53.99 439.08L53.86 438.69L53.74 438.28L53.63 437.88L53.55 437.47L53.48 437.06L53.43 436.65L53.39 436.24L53.37 435.83L53.36 435.42L53.37 435.01L53.4 434.6L53.44 434.19L53.5 433.78L53.57 433.38L53.66 432.98L53.76 432.58L53.88 432.19L54.01 431.8L54.16 431.42L54.32 431.04L54.5 430.67L54.69 430.31L54.9 429.95L55.12 429.6L55.36 429.25L55.61 428.92L55.87 428.59L56.15 428.28L56.44 427.97L56.75 427.67L57.07 427.39L57.4 427.11L57.75 426.85L58.11 426.6L112.94 390.03L112.17 388.64L111.45 387.24L110.78 385.81L110.16 384.38L109.59 382.93L109.07 381.46L108.61 379.99L108.19 378.51L107.83 377.02L107.51 375.52L107.25 374.01L107.03 372.51L106.87 370.99L106.75 369.48L106.68 367.96L106.66 366.45L106.7 364.94L106.77 363.42L106.9 361.92L107.08 360.42L107.31 358.92L107.58 357.43L107.9 355.96L108.27 354.49L108.68 353.03L109.15 351.59L109.66 350.16L110.22 348.74L110.82 347.34L111.48 345.96L112.17 344.6L112.92 343.26L113.71 341.94L114.55 340.64L115.43 339.37L116.36 338.12L117.34 336.89L118.36 335.7L119.42 334.53L120.53 333.39L157.21 296.81L182.25 239.22L182.29 239.12L182.33 239.03L182.37 238.94L182.42 238.85L182.46 238.76L182.51 238.67L182.55 238.58L182.6 238.49L182.64 238.41L182.69 238.32L182.74 238.23L182.79 238.14L182.84 238.06L182.89 237.97L182.94 237.89L183 237.8L183.05 237.72L183.1 237.63L183.16 237.55L183.21 237.47L183.27 237.39L183.33 237.3L183.39 237.22L183.45 237.14L183.51 237.06L183.57 236.98L183.63 236.9L183.69 236.83L183.75 236.75L183.81 236.67L183.88 236.59L183.94 236.52L184.01 236.44L184.08 236.37L184.14 236.29L184.21 236.22L184.28 236.15L184.35 236.07L184.42 236L184.49 235.93L184.81 235.63L185.13 235.34L185.47 235.06L185.81 234.81L186.16 234.56L186.52 234.34L186.88 234.13L187.26 233.93L187.63 233.75L188.02 233.59L188.4 233.44L188.8 233.31L189.19 233.19L189.59 233.09L189.99 233L190.4 232.93L190.8 232.88L191.21 232.84L191.62 232.81L192.03 232.81L192.44 232.81L192.85 232.84L193.26 232.88L193.66 232.93L194.07 233L194.47 233.09L194.87 233.19L195.27 233.31L195.66 233.44L196.04 233.59L196.43 233.75L196.8 233.93L197.18 234.13L197.54 234.34L197.9 234.56L198.25 234.81L198.59 235.06L198.93 235.34L199.26 235.63L199.57 235.93L212.07 248.42L212.2 248.55L212.33 248.68L212.46 248.81L212.59 248.95L212.72 249.08L212.85 249.21L212.97 249.34L213.1 249.47L213.23 249.61L213.35 249.74L213.48 249.87L213.61 250.01L213.73 250.14L213.86 250.28L213.98 250.41L214.11 250.55L214.23 250.68L214.36 250.82L214.48 250.95L214.6 251.09L214.73 251.22L214.85 251.36L214.97 251.5L215.09 251.63L215.21 251.77L215.34 251.91L215.46 252.05L215.58 252.18L215.7 252.32L215.82 252.46L215.94 252.6L216.06 252.74L216.18 252.87L216.3 253.01L216.41 253.15L216.53 253.29L216.65 253.43L216.77 253.57L216.89 253.71L217 253.85L310.63 136.81L192 136.81L192 115.47L327.7 115.47L418.37 2.14L435.03 15.47L256.06 239.09L338.2 321.22L610.58 1.86L626.82 15.73L322.23 372.87ZM96.74 451.73L109.87 438.6L124.91 453.68L112.18 466.41L129.6 482.86L141.87 470.6L156.92 485.68L145.07 497.53L162.46 514L173.87 502.6L188.91 517.68L177.92 528.67L195.33 545.13L205.87 534.6L220.95 549.68L210.83 559.8L228.2 576.26L237.87 566.6L252.9 581.68L243.64 590.94L270.93 616.81L437.33 616.81L438.81 616.78L440.27 616.71L441.72 616.58L443.16 616.41L444.59 616.19L446 615.92L447.4 615.61L448.78 615.25L450.15 614.85L451.49 614.4L452.82 613.91L454.13 613.38L455.41 612.81L456.68 612.19L457.92 611.53L459.14 610.84L460.33 610.1L461.5 609.33L462.64 608.52L463.76 607.67L464.85 606.79L465.9 605.87L466.93 604.92L467.93 603.94L468.89 602.92L469.82 601.87L470.72 600.78L471.58 599.67L472.41 598.52L473.2 597.35L473.96 596.15L474.67 594.92L475.35 593.66L475.98 592.38L476.57 591.07L477.13 589.74L477.63 588.38L478.1 587L478.52 585.59L478.89 584.17L298.14 574.13L297.95 574.12L297.75 574.1L297.56 574.08L297.36 574.05L297.17 574.03L296.98 574L296.79 573.96L296.59 573.93L296.4 573.88L296.21 573.84L296.03 573.79L295.84 573.74L295.65 573.69L295.47 573.63L295.28 573.57L295.1 573.5L294.92 573.43L294.74 573.36L294.56 573.29L294.39 573.21L294.21 573.13L294.03 573.05L293.86 572.96L293.69 572.87L293.52 572.78L293.35 572.68L293.19 572.58L293.02 572.48L292.86 572.37L292.7 572.26L292.54 572.15L292.38 572.04L292.23 571.92L292.07 571.8L291.92 571.67L291.77 571.55L291.63 571.42L291.48 571.29L291.34 571.15L291.2 571.01L126.67 406.53L81.07 436.92L96.74 451.73ZM175.92 307.22L175.88 307.31L175.83 307.41L175.79 307.5L175.75 307.59L175.7 307.68L175.66 307.76L175.61 307.85L175.56 307.94L175.52 308.03L175.47 308.12L175.42 308.2L175.37 308.29L175.32 308.38L175.27 308.46L175.21 308.55L175.16 308.63L175.11 308.71L175.05 308.8L174.99 308.88L174.94 308.96L174.88 309.04L174.82 309.13L174.76 309.21L174.7 309.29L174.64 309.37L174.58 309.44L174.52 309.52L174.46 309.6L174.39 309.68L174.33 309.75L174.26 309.83L174.2 309.91L174.13 309.98L174.06 310.05L174 310.13L173.93 310.2L173.86 310.27L173.79 310.34L173.72 310.42L135.65 348.47L134.91 349.25L134.2 350.04L133.54 350.86L132.91 351.7L132.32 352.56L131.77 353.43L131.25 354.32L130.78 355.23L130.34 356.15L129.94 357.08L129.58 358.03L129.26 358.98L128.97 359.95L128.72 360.92L128.51 361.9L128.34 362.89L128.21 363.88L128.11 364.87L128.06 365.87L128.04 366.87L128.06 367.87L128.11 368.86L128.21 369.86L128.34 370.85L128.51 371.84L128.72 372.82L128.97 373.79L129.26 374.76L129.58 375.71L129.94 376.66L130.34 377.59L130.78 378.51L131.25 379.42L131.77 380.31L132.32 381.18L132.91 382.04L133.54 382.88L134.2 383.69L134.91 384.49L135.65 385.26L303.36 553.05L411.01 559.03L480 562.86L480 553.73L479.98 552.63L479.92 551.53L479.82 550.44L479.7 549.35L479.53 548.28L479.34 547.22L479.11 546.16L478.85 545.12L478.55 544.09L478.23 543.07L477.87 542.07L477.48 541.08L477.06 540.1L476.61 539.14L476.14 538.19L475.63 537.27L475.09 536.35L474.53 535.46L473.94 534.58L473.33 533.73L472.68 532.89L472.01 532.07L471.32 531.28L470.6 530.5L469.85 529.75L469.09 529.02L468.29 528.31L467.48 527.63L466.64 526.97L465.78 526.34L464.9 525.74L464 525.16L463.08 524.61L462.14 524.08L461.17 523.59L460.19 523.13L459.19 522.69L458.17 522.29L457.14 521.91L456.09 521.57L367.82 495.13L367.7 495.09L367.58 495.05L367.46 495L367.34 494.96L367.22 494.91L367.1 494.86L366.98 494.81L366.87 494.76L366.75 494.7L366.63 494.65L366.52 494.59L366.4 494.54L366.29 494.48L366.18 494.42L366.07 494.36L365.96 494.29L365.85 494.23L365.74 494.17L365.63 494.1L365.52 494.03L365.41 493.96L365.31 493.89L365.2 493.82L365.1 493.75L364.99 493.67L364.89 493.6L364.79 493.52L364.69 493.44L364.59 493.36L364.49 493.28L364.39 493.2L364.29 493.12L364.2 493.03L364.1 492.95L364.01 492.86L363.91 492.77L363.82 492.68L363.73 492.59L363.64 492.5L363.55 492.41L348.95 507.01L333.87 491.93L352.5 473.3L340.6 451.37L316.95 475.01L301.87 459.93L329.95 431.81L318.06 409.87L284.95 443.01L269.87 427.93L307.41 390.31L302.69 381.59L280.21 379.6L277.37 379.14L274.56 378.59L271.79 377.94L269.07 377.19L266.38 376.34L263.74 375.41L261.15 374.38L258.61 373.27L256.12 372.07L253.68 370.79L251.29 369.42L248.96 367.98L246.69 366.46L244.48 364.86L242.32 363.18L240.23 361.44L238.21 359.62L236.25 357.74L234.36 355.79L232.53 353.77L230.78 351.69L229.1 349.56L227.5 347.36L225.97 345.11L224.52 342.8L223.15 340.45L221.86 338.04L220.66 335.58L219.54 333.08L218.5 330.53L217.56 327.94L216.71 325.31L215.94 322.64L215.28 319.94L214.7 317.2L214.23 314.43L213.85 311.62L213.58 308.79L213.4 305.94L213.33 303.06L213.33 301.94L213.3 300.84L213.24 299.73L213.17 298.63L213.08 297.53L212.96 296.43L212.82 295.34L212.66 294.25L212.48 293.17L212.28 292.09L212.06 291.02L211.81 289.95L211.55 288.89L211.26 287.83L210.96 286.78L210.63 285.74L210.28 284.71L209.92 283.68L209.53 282.66L209.12 281.64L208.7 280.64L208.25 279.64L207.78 278.66L207.3 277.68L206.79 276.71L206.27 275.75L205.73 274.8L205.17 273.86L204.58 272.93L203.99 272.02L203.37 271.11L202.73 270.22L202.08 269.33L201.4 268.46L200.71 267.6L200 266.76L199.28 265.92L198.53 265.1L197.77 264.3L196.99 263.5L195.56 262.09L175.96 307.13L175.92 307.22ZM229.03 273.99L229.31 274.71L229.59 275.42L229.86 276.14L230.12 276.85L230.37 277.57L230.62 278.3L230.86 279.02L231.1 279.75L231.32 280.48L231.54 281.21L231.75 281.94L231.96 282.68L232.15 283.42L232.34 284.16L232.52 284.9L232.7 285.64L232.87 286.38L233.03 287.13L233.18 287.88L233.32 288.62L233.46 289.37L233.59 290.13L233.72 290.88L233.83 291.63L233.94 292.39L234.04 293.14L234.13 293.9L234.22 294.66L234.3 295.42L234.37 296.18L234.43 296.94L234.49 297.7L234.54 298.47L234.58 299.23L234.61 299.99L234.64 300.76L234.65 301.52L234.66 302.29L234.67 303.06L234.71 305.13L234.83 307.19L235.03 309.23L235.3 311.25L235.64 313.24L236.04 315.22L236.52 317.17L237.07 319.09L237.68 320.99L238.35 322.86L239.09 324.69L239.89 326.5L240.76 328.27L241.68 330.01L242.66 331.71L243.7 333.38L244.79 335L245.94 336.59L247.15 338.13L248.41 339.63L249.71 341.09L251.07 342.5L252.48 343.86L253.93 345.18L255.43 346.44L256.98 347.66L258.57 348.82L260.2 349.92L261.88 350.97L263.59 351.96L265.34 352.9L267.13 353.77L268.96 354.58L270.82 355.33L272.72 356.01L274.65 356.63L276.61 357.18L278.6 357.66L280.62 358.08L282.67 358.42L304.77 360.35L324.27 337.49L309.33 322.55L295.62 336.35L280.53 321.26L294.28 307.47L277.33 290.55L263.62 304.35L248.53 289.26L262.28 275.47L242.7 255.89L228.74 273.29L229.03 273.99Z" id="b4Gg4BXrfC"></path><path d="M170.7 115.47L170.7 136.81L149.37 136.81L149.37 115.47L170.7 115.47Z" id="a8ifJguKwr"></path><path d="M224.03 158.14L224.03 179.47L117.37 179.47L117.37 158.14L224.03 158.14Z" id="aFFjShPx8"></path><path d="M96.03 158.14L96.03 179.47L74.7 179.47L74.7 158.14L96.03 158.14Z" id="aiuDSGQVu"></path><path d="M106.7 286.14L106.7 307.47L64.03 307.47L64.03 286.14L106.7 286.14Z" id="c49wo6xrFT"></path><path d="M42.7 286.14L42.7 307.47L21.37 307.47L21.37 286.14L42.7 286.14Z" id="jjVASjw5"></path><path d="M138.7 542.14L138.7 563.47L96.03 563.47L96.03 542.14L138.7 542.14Z" id="b8XiWZGGs"></path><path d="M74.7 542.14L74.7 563.47L53.37 563.47L53.37 542.14L74.7 542.14Z" id="c1OqzkP10"></path></defs><g><g><g><use xlink:href="#b90jItqcaO" opacity="1" fill="#7d8f9f" fill-opacity="1"></use><g><use xlink:href="#b90jItqcaO" opacity="1" fill-opacity="0" stroke="#000000" stroke-width="1" stroke-opacity="0"></use></g></g><g><use xlink:href="#axoTEHsFc" opacity="1" fill="#88d0ef" fill-opacity="1"></use><g><use xlink:href="#axoTEHsFc" opacity="1" fill-opacity="0" stroke="#000000" stroke-width="1" stroke-opacity="0"></use></g></g><g><use xlink:href="#gKCKryESM" opacity="1" fill="#98adb9" fill-opacity="1"></use><g><use xlink:href="#gKCKryESM" opacity="1" fill-opacity="0" stroke="#000000" stroke-width="1" stroke-opacity="0"></use></g></g><g><use xlink:href="#a9taovmpQ" opacity="1" fill="#a9bfd1" fill-opacity="1"></use><g><use xlink:href="#a9taovmpQ" opacity="1" fill-opacity="0" stroke="#000000" stroke-width="1" stroke-opacity="0"></use></g></g><g><use xlink:href="#a1tCjYPpxA" opacity="1" fill="#a9bfd1" fill-opacity="1"></use><g><use xlink:href="#a1tCjYPpxA" opacity="1" fill-opacity="0" stroke="#000000" stroke-width="1" stroke-opacity="0"></use></g></g><g><use xlink:href="#m6eEa8ZAc7" opacity="1" fill="#a9bfd1" fill-opacity="1"></use><g><use xlink:href="#m6eEa8ZAc7" opacity="1" fill-opacity="0" stroke="#000000" stroke-width="1" stroke-opacity="0"></use></g></g><g><use xlink:href="#f9xtqsTye" opacity="1" fill="#a9bfd1" fill-opacity="1"></use><g><use xlink:href="#f9xtqsTye" opacity="1" fill-opacity="0" stroke="#000000" stroke-width="1" stroke-opacity="0"></use></g></g><g><use xlink:href="#g46QAnw0cE" opacity="1" fill="#a9bfd1" fill-opacity="1"></use><g><use xlink:href="#g46QAnw0cE" opacity="1" fill-opacity="0" stroke="#000000" stroke-width="1" stroke-opacity="0"></use></g></g><g><use xlink:href="#bbuDuqQXX" opacity="1" fill="#7d8f9f" fill-opacity="1"></use><g><use xlink:href="#bbuDuqQXX" opacity="1" fill-opacity="0" stroke="#000000" stroke-width="1" stroke-opacity="0"></use></g></g><g><use xlink:href="#b32esHbqiK" opacity="1" fill="#7d8f9f" fill-opacity="1"></use><g><use xlink:href="#b32esHbqiK" opacity="1" fill-opacity="0" stroke="#000000" stroke-width="1" stroke-opacity="0"></use></g></g><g><use xlink:href="#a8d7zeUjPy" opacity="1" fill="#7d8f9f" fill-opacity="1"></use><g><use xlink:href="#a8d7zeUjPy" opacity="1" fill-opacity="0" stroke="#000000" stroke-width="1" stroke-opacity="0"></use></g></g><g><use xlink:href="#csjQYrPR1" opacity="1" fill="#7d8f9f" fill-opacity="1"></use><g><use xlink:href="#csjQYrPR1" opacity="1" fill-opacity="0" stroke="#000000" stroke-width="1" stroke-opacity="0"></use></g></g><g><use xlink:href="#hSqjL6B4c" opacity="1" fill="#7d8f9f" fill-opacity="1"></use><g><use xlink:href="#hSqjL6B4c" opacity="1" fill-opacity="0" stroke="#000000" stroke-width="1" stroke-opacity="0"></use></g></g><g><use xlink:href="#fIJYJt04g" opacity="1" fill="#7d8f9f" fill-opacity="1"></use><g><use xlink:href="#fIJYJt04g" opacity="1" fill-opacity="0" stroke="#000000" stroke-width="1" stroke-opacity="0"></use></g></g><g><use xlink:href="#a1vYE5BazY" opacity="1" fill="#7d8f9f" fill-opacity="1"></use><g><use xlink:href="#a1vYE5BazY" opacity="1" fill-opacity="0" stroke="#000000" stroke-width="1" stroke-opacity="0"></use></g></g><g><use xlink:href="#a17KLVtD1T" opacity="1" fill="#7d8f9f" fill-opacity="1"></use><g><use xlink:href="#a17KLVtD1T" opacity="1" fill-opacity="0" stroke="#000000" stroke-width="1" stroke-opacity="0"></use></g></g><g><use xlink:href="#d3FkiJt9kE" opacity="1" fill="#ea676b" fill-opacity="1"></use><g><use xlink:href="#d3FkiJt9kE" opacity="1" fill-opacity="0" stroke="#000000" stroke-width="1" stroke-opacity="0"></use></g></g><g><use xlink:href="#k2jAYAhLlh" opacity="1" fill="#d49c78" fill-opacity="1"></use><g><use xlink:href="#k2jAYAhLlh" opacity="1" fill-opacity="0" stroke="#000000" stroke-width="1" stroke-opacity="0"></use></g></g><g><use xlink:href="#f1Dx3FH911" opacity="1" fill="#ededed" fill-opacity="1"></use><g><use xlink:href="#f1Dx3FH911" opacity="1" fill-opacity="0" stroke="#000000" stroke-width="1" stroke-opacity="0"></use></g></g><g><use xlink:href="#b22xFiJtbm" opacity="1" fill="#a956bf" fill-opacity="1"></use><g><use xlink:href="#b22xFiJtbm" opacity="1" fill-opacity="0" stroke="#000000" stroke-width="1" stroke-opacity="0"></use></g></g><g><use xlink:href="#b17MR1jqtB" opacity="1" fill="#7fcccb" fill-opacity="1"></use><g><use xlink:href="#b17MR1jqtB" opacity="1" fill-opacity="0" stroke="#000000" stroke-width="1" stroke-opacity="0"></use></g></g><g><use xlink:href="#gvZm8gZn" opacity="1" fill="#7fcccb" fill-opacity="1"></use><g><use xlink:href="#gvZm8gZn" opacity="1" fill-opacity="0" stroke="#000000" stroke-width="1" stroke-opacity="0"></use></g></g><g><use xlink:href="#b8rL2NKJTX" opacity="1" fill="#7fcccb" fill-opacity="1"></use><g><use xlink:href="#b8rL2NKJTX" opacity="1" fill-opacity="0" stroke="#000000" stroke-width="1" stroke-opacity="0"></use></g></g><g><use xlink:href="#czIZYb6LU" opacity="1" fill="#a9bfd1" fill-opacity="1"></use><g><use xlink:href="#czIZYb6LU" opacity="1" fill-opacity="0" stroke="#000000" stroke-width="1" stroke-opacity="0"></use></g></g><g><use xlink:href="#b17R3RJMNh" opacity="1" fill="#a9bfd1" fill-opacity="1"></use><g><use xlink:href="#b17R3RJMNh" opacity="1" fill-opacity="0" stroke="#000000" stroke-width="1" stroke-opacity="0"></use></g></g><g><use xlink:href="#b4Gg4BXrfC" opacity="1" fill="#000000" fill-opacity="1"></use><g><use xlink:href="#b4Gg4BXrfC" opacity="1" fill-opacity="0" stroke="#000000" stroke-width="1" stroke-opacity="0"></use></g></g><g><use xlink:href="#a8ifJguKwr" opacity="1" fill="#000000" fill-opacity="1"></use><g><use xlink:href="#a8ifJguKwr" opacity="1" fill-opacity="0" stroke="#000000" stroke-width="1" stroke-opacity="0"></use></g></g><g><use xlink:href="#aFFjShPx8" opacity="1" fill="#000000" fill-opacity="1"></use><g><use xlink:href="#aFFjShPx8" opacity="1" fill-opacity="0" stroke="#000000" stroke-width="1" stroke-opacity="0"></use></g></g><g><use xlink:href="#aiuDSGQVu" opacity="1" fill="#000000" fill-opacity="1"></use><g><use xlink:href="#aiuDSGQVu" opacity="1" fill-opacity="0" stroke="#000000" stroke-width="1" stroke-opacity="0"></use></g></g><g><use xlink:href="#c49wo6xrFT" opacity="1" fill="#000000" fill-opacity="1"></use><g><use xlink:href="#c49wo6xrFT" opacity="1" fill-opacity="0" stroke="#000000" stroke-width="1" stroke-opacity="0"></use></g></g><g><use xlink:href="#jjVASjw5" opacity="1" fill="#000000" fill-opacity="1"></use><g><use xlink:href="#jjVASjw5" opacity="1" fill-opacity="0" stroke="#000000" stroke-width="1" stroke-opacity="0"></use></g></g><g><use xlink:href="#b8XiWZGGs" opacity="1" fill="#000000" fill-opacity="1"></use><g><use xlink:href="#b8XiWZGGs" opacity="1" fill-opacity="0" stroke="#000000" stroke-width="1" stroke-opacity="0"></use></g></g><g><use xlink:href="#c1OqzkP10" opacity="1" fill="#000000" fill-opacity="1"></use><g><use xlink:href="#c1OqzkP10" opacity="1" fill-opacity="0" stroke="#000000" stroke-width="1" stroke-opacity="0"></use></g></g></g></g></svg>