<?xml version="1.0" encoding="UTF-8" standalone="no"?>
<!DOCTYPE svg PUBLIC "-//W3C//DTD SVG 1.1//EN" "http://www.w3.org/Graphics/SVG/1.1/DTD/svg11.dtd">
<svg version="1.1" xmlns="http://www.w3.org/2000/svg" xmlns:xlink="http://www.w3.org/1999/xlink" preserveAspectRatio="xMidYMid meet" viewBox="0 0 37.6 100" width="38" height="100"><defs><path d="M6.48 12.93C6.48 14.35 5.33 15.49 3.92 15.49C2.5 15.49 1.36 14.35 1.36 12.93C1.36 11.52 2.5 10.37 3.92 10.37C5.33 10.37 6.48 11.52 6.48 12.93Z" id="k2uWU9fCch"></path><path d="M25.23 12.93C25.23 14.35 24.09 15.49 22.67 15.49C21.26 15.49 20.11 14.35 20.11 12.93C20.11 11.52 21.26 10.37 22.67 10.37C24.09 10.37 25.23 11.52 25.23 12.93Z" id="axiPTriJi"></path><path d="M44.08 12.93C44.08 14.35 42.94 15.49 41.52 15.49C40.11 15.49 38.96 14.35 38.96 12.93C38.96 11.52 40.11 10.37 41.52 10.37C42.94 10.37 44.08 11.52 44.08 12.93Z" id="mUvTMAM3i"></path><path d="M15.84 22.33C15.84 23.74 14.69 24.89 13.28 24.89C11.86 24.89 10.72 23.74 10.72 22.33C10.72 20.91 11.86 19.76 13.28 19.76C14.69 19.76 15.84 20.91 15.84 22.33Z" id="eB49A63Hm"></path><path d="M34.72 22.42C34.72 23.84 33.58 24.98 32.16 24.98C30.75 24.98 29.6 23.84 29.6 22.42C29.6 21.01 30.75 19.86 32.16 19.86C33.58 19.86 34.72 21.01 34.72 22.42Z" id="f1shvE0sFA"></path><path d="M6.48 31.78C6.48 33.2 5.33 34.34 3.92 34.34C2.5 34.34 1.36 33.2 1.36 31.78C1.36 30.37 2.5 29.22 3.92 29.22C5.33 29.22 6.48 30.37 6.48 31.78Z" id="a1fZIXF7O1"></path><path d="M44.08 31.78C44.08 33.2 42.94 34.34 41.52 34.34C40.11 34.34 38.96 33.2 38.96 31.78C38.96 30.37 40.11 29.22 41.52 29.22C42.94 29.22 44.08 30.37 44.08 31.78Z" id="a1HKnHJxXB"></path><path d="M25.23 31.78C25.23 33.2 24.09 34.34 22.67 34.34C21.26 34.34 20.11 33.2 20.11 31.78C20.11 30.37 21.26 29.22 22.67 29.22C24.09 29.22 25.23 30.37 25.23 31.78Z" id="b7nqdkupCi"></path><path d="M15.84 41.18C15.84 42.59 14.69 43.74 13.28 43.74C11.86 43.74 10.72 42.59 10.72 41.18C10.72 39.76 11.86 38.61 13.28 38.61C14.69 38.61 15.84 39.76 15.84 41.18Z" id="a1FB7j2sFC"></path><path d="M34.72 41.27C34.72 42.69 33.58 43.83 32.16 43.83C30.75 43.83 29.6 42.69 29.6 41.27C29.6 39.86 30.75 38.71 32.16 38.71C33.58 38.71 34.72 39.86 34.72 41.27Z" id="e7a9KI85ht"></path><path d="M44.08 50.15C44.08 51.56 42.94 52.71 41.52 52.71C40.11 52.71 38.96 51.56 38.96 50.15C38.96 48.73 40.11 47.58 41.52 47.58C42.94 47.58 44.08 48.73 44.08 50.15Z" id="b1NvygZwOk"></path><path d="M6.48 50.15C6.48 51.56 5.33 52.71 3.92 52.71C2.5 52.71 1.36 51.56 1.36 50.15C1.36 48.73 2.5 47.58 3.92 47.58C5.33 47.58 6.48 48.73 6.48 50.15Z" id="a6m5My7xs5"></path><path d="M25.23 50.15C25.23 51.56 24.09 52.71 22.67 52.71C21.26 52.71 20.11 51.56 20.11 50.15C20.11 48.73 21.26 47.58 22.67 47.58C24.09 47.58 25.23 48.73 25.23 50.15Z" id="a2LuaX9NWj"></path><path d="M44.08 69C44.08 70.41 42.94 71.56 41.52 71.56C40.11 71.56 38.96 70.41 38.96 69C38.96 67.58 40.11 66.43 41.52 66.43C42.94 66.43 44.08 67.58 44.08 69Z" id="e1pSnEKa2x"></path><path d="M15.84 59.54C15.84 60.95 14.69 62.1 13.28 62.1C11.86 62.1 10.72 60.95 10.72 59.54C10.72 58.13 11.86 56.98 13.28 56.98C14.69 56.98 15.84 58.13 15.84 59.54Z" id="b4C46q6gPg"></path><path d="M34.72 59.64C34.72 61.05 33.58 62.2 32.16 62.2C30.75 62.2 29.6 61.05 29.6 59.64C29.6 58.22 30.75 57.07 32.16 57.07C33.58 57.07 34.72 58.22 34.72 59.64Z" id="aPIxa5SXR"></path><path d="M6.48 69C6.48 70.41 5.33 71.56 3.92 71.56C2.5 71.56 1.36 70.41 1.36 69C1.36 67.58 2.5 66.43 3.92 66.43C5.33 66.43 6.48 67.58 6.48 69Z" id="aGa6dBhad"></path><path d="M44.08 87.07C44.08 88.48 42.94 89.63 41.52 89.63C40.11 89.63 38.96 88.48 38.96 87.07C38.96 85.65 40.11 84.51 41.52 84.51C42.94 84.51 44.08 85.65 44.08 87.07Z" id="a3BDkALabw"></path><path d="M25.23 69C25.23 70.41 24.09 71.56 22.67 71.56C21.26 71.56 20.11 70.41 20.11 69C20.11 67.58 21.26 66.43 22.67 66.43C24.09 66.43 25.23 67.58 25.23 69Z" id="a6At6Oqca"></path><path d="M15.84 78.39C15.84 79.8 14.69 80.95 13.28 80.95C11.86 80.95 10.72 79.8 10.72 78.39C10.72 76.98 11.86 75.83 13.28 75.83C14.69 75.83 15.84 76.98 15.84 78.39Z" id="h7jd8tVi0m"></path><path d="M34.72 78.49C34.72 79.9 33.58 81.05 32.16 81.05C30.75 81.05 29.6 79.9 29.6 78.49C29.6 77.07 30.75 75.92 32.16 75.92C33.58 75.92 34.72 77.07 34.72 78.49Z" id="f8BcXioGz"></path><path d="M6.48 87.07C6.48 88.48 5.33 89.63 3.92 89.63C2.5 89.63 1.36 88.48 1.36 87.07C1.36 85.65 2.5 84.51 3.92 84.51C5.33 84.51 6.48 85.65 6.48 87.07Z" id="iqaLUKoww"></path><path d="M25.23 87.07C25.23 88.48 24.09 89.63 22.67 89.63C21.26 89.63 20.11 88.48 20.11 87.07C20.11 85.65 21.26 84.51 22.67 84.51C24.09 84.51 25.23 85.65 25.23 87.07Z" id="b8FT257gId"></path></defs><g><g><g><use xlink:href="#k2uWU9fCch" opacity="1" fill-opacity="0" stroke="#000000" stroke-width="1" stroke-opacity="1"></use></g></g><g><g><use xlink:href="#axiPTriJi" opacity="1" fill-opacity="0" stroke="#000000" stroke-width="1" stroke-opacity="1"></use></g></g><g><g><use xlink:href="#mUvTMAM3i" opacity="1" fill-opacity="0" stroke="#000000" stroke-width="1" stroke-opacity="1"></use></g></g><g><g><g><use xlink:href="#eB49A63Hm" opacity="1" fill-opacity="0" stroke="#000000" stroke-width="1" stroke-opacity="1"></use></g></g><g><g><use xlink:href="#f1shvE0sFA" opacity="1" fill-opacity="0" stroke="#000000" stroke-width="1" stroke-opacity="1"></use></g></g></g><g><g><use xlink:href="#a1fZIXF7O1" opacity="1" fill-opacity="0" stroke="#000000" stroke-width="1" stroke-opacity="1"></use></g></g><g><g><use xlink:href="#a1HKnHJxXB" opacity="1" fill-opacity="0" stroke="#000000" stroke-width="1" stroke-opacity="1"></use></g></g><g><g><use xlink:href="#b7nqdkupCi" opacity="1" fill-opacity="0" stroke="#000000" stroke-width="1" stroke-opacity="1"></use></g></g><g><g><g><use xlink:href="#a1FB7j2sFC" opacity="1" fill-opacity="0" stroke="#000000" stroke-width="1" stroke-opacity="1"></use></g></g><g><g><use xlink:href="#e7a9KI85ht" opacity="1" fill-opacity="0" stroke="#000000" stroke-width="1" stroke-opacity="1"></use></g></g></g><g><g><use xlink:href="#b1NvygZwOk" opacity="1" fill-opacity="0" stroke="#000000" stroke-width="1" stroke-opacity="1"></use></g></g><g><g><use xlink:href="#a6m5My7xs5" opacity="1" fill-opacity="0" stroke="#000000" stroke-width="1" stroke-opacity="1"></use></g></g><g><g><use xlink:href="#a2LuaX9NWj" opacity="1" fill-opacity="0" stroke="#000000" stroke-width="1" stroke-opacity="1"></use></g></g><g><g><use xlink:href="#e1pSnEKa2x" opacity="1" fill-opacity="0" stroke="#000000" stroke-width="1" stroke-opacity="1"></use></g></g><g><g><g><use xlink:href="#b4C46q6gPg" opacity="1" fill-opacity="0" stroke="#000000" stroke-width="1" stroke-opacity="1"></use></g></g><g><g><use xlink:href="#aPIxa5SXR" opacity="1" fill-opacity="0" stroke="#000000" stroke-width="1" stroke-opacity="1"></use></g></g></g><g><g><use xlink:href="#aGa6dBhad" opacity="1" fill-opacity="0" stroke="#000000" stroke-width="1" stroke-opacity="1"></use></g></g><g><g><use xlink:href="#a3BDkALabw" opacity="1" fill-opacity="0" stroke="#000000" stroke-width="1" stroke-opacity="1"></use></g></g><g><g><use xlink:href="#a6At6Oqca" opacity="1" fill-opacity="0" stroke="#000000" stroke-width="1" stroke-opacity="1"></use></g></g><g><g><g><use xlink:href="#h7jd8tVi0m" opacity="1" fill-opacity="0" stroke="#000000" stroke-width="1" stroke-opacity="1"></use></g></g><g><g><use xlink:href="#f8BcXioGz" opacity="1" fill-opacity="0" stroke="#000000" stroke-width="1" stroke-opacity="1"></use></g></g></g><g><g><use xlink:href="#iqaLUKoww" opacity="1" fill-opacity="0" stroke="#000000" stroke-width="1" stroke-opacity="1"></use></g></g><g><g><use xlink:href="#b8FT257gId" opacity="1" fill-opacity="0" stroke="#000000" stroke-width="1" stroke-opacity="1"></use></g></g></g></svg>