<?xml version="1.0" encoding="UTF-8" standalone="no"?>
<!DOCTYPE svg PUBLIC "-//W3C//DTD SVG 1.1//EN" "http://www.w3.org/Graphics/SVG/1.1/DTD/svg11.dtd">
<svg version="1.1" xmlns="http://www.w3.org/2000/svg" xmlns:xlink="http://www.w3.org/1999/xlink" preserveAspectRatio="xMidYMid meet" viewBox="0 0 640 640" width="640" height="640"><defs><path d="M290.51 627.5C287.47 627.5 285 625.03 285 621.99C285 611.86 285 561.2 285 470L355 470C355 561.2 355 611.86 355 621.99C355 625.03 352.53 627.5 349.49 627.5C337.7 627.5 296.41 627.5 290.51 627.5Z" id="i11CxR38L8"></path><path d="M231.59 624.75C230.61 626.45 228.79 627.5 226.82 627.5C221.09 627.5 175.27 627.5 169.54 627.5C165.3 627.5 162.65 622.91 164.77 619.24C170.51 609.29 199.23 559.54 250.93 470L285 470L285 532.24C252.95 587.74 235.15 618.58 231.59 624.75Z" id="d1vEaC2qiH"></path><path d="M408.41 624.75C409.39 626.45 411.21 627.5 413.18 627.5C418.91 627.5 464.73 627.5 470.46 627.5C474.7 627.5 477.35 622.91 475.23 619.24C469.49 609.29 440.77 559.54 389.07 470L355 470L355 532.24C387.05 587.74 404.85 618.58 408.41 624.75Z" id="b239Ug0dp0"></path><path d="M25 80C18.1 80 12.5 74.4 12.5 67.5C12.5 63.25 12.5 29.25 12.5 25C12.5 18.1 18.1 12.5 25 12.5C84 12.5 556 12.5 615 12.5C621.9 12.5 627.5 18.1 627.5 25C627.5 29.25 627.5 63.25 627.5 67.5C627.5 74.4 621.9 80 615 80C497 80 84 80 25 80Z" id="bkI0miH4A"></path><path d="M602.5 445C602.5 458.81 591.31 470 577.5 470C526 470 114 470 62.5 470C48.69 470 37.5 458.81 37.5 445C37.5 420.67 37.5 299 37.5 80L602.5 80L602.5 397.22C602.5 425.89 602.5 441.81 602.5 445Z" id="ckT2NtIOO"></path><path d="M143.74 126.19C124.41 126.19 108.74 141.86 108.74 161.19C108.74 180.52 124.41 196.19 143.74 196.19C163.07 196.19 178.74 180.52 178.74 161.19C178.74 141.86 163.07 126.19 143.74 126.19Z" id="d1tU8VgzK"></path><path d="M150.79 328.81C131.46 328.81 115.79 344.48 115.79 363.81C115.79 383.14 131.46 398.81 150.79 398.81C170.12 398.81 185.79 383.14 185.79 363.81C185.79 344.48 170.12 328.81 150.79 328.81Z" id="l2n2rTl5D4"></path><path d="M617.05 0.08L618.05 0.19L619.05 0.33L620.03 0.51L621 0.73L621.95 0.98L622.89 1.28L623.82 1.6L624.72 1.97L625.61 2.36L626.48 2.79L627.33 3.26L628.16 3.75L628.97 4.28L629.76 4.83L630.52 5.41L631.26 6.03L631.98 6.66L632.67 7.33L633.34 8.02L633.97 8.74L634.59 9.48L635.17 10.24L635.72 11.03L636.25 11.84L636.74 12.67L637.21 13.52L637.64 14.39L638.03 15.28L638.4 16.18L638.72 17.11L639.02 18.05L639.27 19L639.49 19.97L639.67 20.95L639.81 21.95L639.92 22.95L639.98 23.97L640 25L640 67.5L639.98 68.53L639.92 69.55L639.81 70.55L639.67 71.55L639.49 72.53L639.27 73.5L639.02 74.45L638.72 75.39L638.4 76.32L638.03 77.22L637.64 78.11L637.21 78.98L636.74 79.83L636.25 80.66L635.72 81.47L635.17 82.26L634.59 83.02L633.97 83.76L633.34 84.48L632.67 85.17L631.98 85.84L631.26 86.47L630.52 87.09L629.76 87.67L628.97 88.22L628.16 88.75L627.33 89.24L626.48 89.71L625.61 90.14L624.72 90.53L623.82 90.9L622.89 91.22L621.95 91.52L621 91.77L620.03 91.99L619.05 92.17L618.05 92.31L617.05 92.42L616.03 92.48L615 92.5L370 92.5L369.48 92.49L368.97 92.46L368.47 92.41L367.97 92.34L367.48 92.25L367 92.14L366.52 92.01L366.05 91.86L365.59 91.7L365.13 91.52L364.69 91.32L364.26 91.1L363.83 90.87L363.42 90.63L363.01 90.37L362.62 90.09L362.24 89.8L361.87 89.49L361.51 89.17L361.16 88.84L360.83 88.49L360.51 88.13L360.2 87.76L359.91 87.38L359.64 86.99L359.37 86.58L359.13 86.17L358.9 85.74L358.68 85.31L358.48 84.87L358.3 84.41L358.14 83.95L357.99 83.48L357.86 83L357.75 82.52L357.66 82.03L357.59 81.53L357.54 81.03L357.51 80.52L357.5 80L357.51 79.48L357.54 78.97L357.59 78.47L357.66 77.97L357.75 77.48L357.86 77L357.99 76.52L358.14 76.05L358.3 75.59L358.48 75.13L358.68 74.69L358.9 74.26L359.13 73.83L359.37 73.42L359.64 73.01L359.91 72.62L360.2 72.24L360.51 71.87L360.83 71.51L361.16 71.16L361.51 70.83L361.87 70.51L362.24 70.2L362.62 69.91L363.01 69.63L363.42 69.37L363.83 69.13L364.26 68.9L364.69 68.68L365.13 68.48L365.59 68.3L366.05 68.14L366.52 67.99L367 67.86L367.48 67.75L367.97 67.66L368.47 67.59L368.97 67.54L369.48 67.51L370 67.5L615 67.5L615 25L25 25L25 67.5L258.75 67.5L259.27 67.51L259.78 67.54L260.28 67.59L260.78 67.66L261.27 67.75L261.75 67.86L262.23 67.99L262.7 68.14L263.16 68.3L263.62 68.48L264.06 68.68L264.49 68.9L264.92 69.13L265.33 69.37L265.74 69.63L266.13 69.91L266.51 70.2L266.88 70.51L267.24 70.83L267.59 71.16L267.92 71.51L268.24 71.87L268.55 72.24L268.84 72.62L269.11 73.01L269.38 73.42L269.62 73.83L269.85 74.26L270.07 74.69L270.27 75.13L270.45 75.59L270.61 76.05L270.76 76.52L270.89 77L271 77.48L271.09 77.97L271.16 78.47L271.21 78.97L271.24 79.48L271.25 80L271.24 80.52L271.21 81.03L271.16 81.53L271.09 82.03L271 82.52L270.89 83L270.76 83.48L270.61 83.95L270.45 84.41L270.27 84.87L270.07 85.31L269.85 85.74L269.62 86.17L269.38 86.58L269.11 86.99L268.84 87.38L268.55 87.76L268.24 88.13L267.92 88.49L267.59 88.84L267.24 89.17L266.88 89.49L266.51 89.8L266.13 90.09L265.74 90.37L265.33 90.63L264.92 90.87L264.49 91.1L264.06 91.32L263.62 91.52L263.16 91.7L262.7 91.86L262.23 92.01L261.75 92.14L261.27 92.25L260.78 92.34L260.28 92.41L259.78 92.46L259.27 92.49L258.75 92.5L50 92.5L50 445L50.01 445.51L50.04 446.02L50.09 446.53L50.16 447.02L50.25 447.52L50.36 448L50.49 448.48L50.64 448.95L50.8 449.41L50.98 449.86L51.18 450.3L51.4 450.74L51.63 451.16L51.88 451.58L52.14 451.98L52.41 452.38L52.71 452.76L53.01 453.13L53.33 453.49L53.67 453.83L54.01 454.17L54.37 454.49L54.74 454.79L55.12 455.09L55.52 455.36L55.92 455.62L56.34 455.87L56.76 456.1L57.2 456.32L57.64 456.52L58.09 456.7L58.55 456.86L59.02 457.01L59.5 457.14L59.98 457.25L60.48 457.34L60.97 457.41L61.48 457.46L61.99 457.49L62.5 457.5L577.5 457.5L578.01 457.49L578.52 457.46L579.03 457.41L579.52 457.34L580.02 457.25L580.5 457.14L580.98 457.01L581.45 456.86L581.91 456.7L582.36 456.52L582.8 456.32L583.24 456.1L583.66 455.87L584.08 455.62L584.48 455.36L584.88 455.09L585.26 454.79L585.63 454.49L585.99 454.17L586.33 453.83L586.67 453.49L586.99 453.13L587.29 452.76L587.59 452.38L587.86 451.98L588.12 451.58L588.37 451.16L588.6 450.74L588.82 450.3L589.02 449.86L589.2 449.41L589.36 448.95L589.51 448.48L589.64 448L589.75 447.52L589.84 447.02L589.91 446.53L589.96 446.02L589.99 445.51L590 445L590 185L590.01 184.48L590.04 183.97L590.09 183.47L590.16 182.97L590.25 182.48L590.36 182L590.49 181.52L590.64 181.05L590.8 180.59L590.98 180.13L591.18 179.69L591.4 179.26L591.63 178.83L591.87 178.42L592.14 178.01L592.41 177.62L592.7 177.24L593.01 176.87L593.33 176.51L593.66 176.16L594.01 175.83L594.37 175.51L594.74 175.2L595.12 174.91L595.51 174.63L595.92 174.37L596.33 174.13L596.76 173.9L597.19 173.68L597.63 173.48L598.09 173.3L598.55 173.14L599.02 172.99L599.5 172.86L599.98 172.75L600.47 172.66L600.97 172.59L601.47 172.54L601.98 172.51L602.5 172.5L603.02 172.51L603.53 172.54L604.03 172.59L604.53 172.66L605.02 172.75L605.5 172.86L605.98 172.99L606.45 173.14L606.91 173.3L607.37 173.48L607.81 173.68L608.24 173.9L608.67 174.13L609.08 174.37L609.49 174.63L609.88 174.91L610.26 175.2L610.63 175.51L610.99 175.83L611.34 176.16L611.67 176.51L611.99 176.87L612.3 177.24L612.59 177.62L612.86 178.01L613.13 178.42L613.37 178.83L613.6 179.26L613.82 179.69L614.02 180.13L614.2 180.59L614.36 181.05L614.51 181.52L614.64 182L614.75 182.48L614.84 182.97L614.91 183.47L614.96 183.97L614.99 184.48L615 185L615 445L614.97 446.54L614.88 448.07L614.72 449.58L614.51 451.07L614.24 452.55L613.91 454L613.52 455.43L613.09 456.84L612.59 458.22L612.05 459.58L611.45 460.91L610.81 462.22L610.11 463.49L609.37 464.74L608.59 465.95L607.76 467.13L606.88 468.28L605.96 469.39L605 470.47L604 471.5L602.97 472.5L601.89 473.46L600.78 474.38L599.63 475.26L598.45 476.09L597.24 476.87L595.99 477.61L594.72 478.31L593.41 478.95L592.08 479.55L590.72 480.09L589.34 480.59L587.93 481.02L586.5 481.41L585.05 481.74L583.57 482.01L582.08 482.22L580.57 482.38L579.04 482.47L577.5 482.5L410.72 482.5L486.06 612.99L486.29 613.41L486.51 613.83L486.72 614.26L486.92 614.69L487.11 615.13L487.28 615.57L487.44 616.01L487.6 616.46L487.73 616.91L487.86 617.37L487.97 617.82L488.08 618.28L488.17 618.74L488.24 619.2L488.31 619.66L488.36 620.13L488.41 620.59L488.44 621.06L488.45 621.53L488.46 621.99L488.45 622.46L488.44 622.93L488.41 623.39L488.36 623.86L488.31 624.32L488.24 624.79L488.17 625.25L488.08 625.71L487.97 626.17L487.86 626.62L487.73 627.07L487.59 627.53L487.44 627.97L487.28 628.42L487.11 628.86L486.92 629.29L486.72 629.73L486.51 630.15L486.29 630.58L486.06 631L485.81 631.41L485.55 631.81L485.29 632.21L485.01 632.6L484.73 632.98L484.43 633.35L484.13 633.71L483.82 634.07L483.5 634.41L483.17 634.75L482.83 635.07L482.48 635.39L482.13 635.7L481.77 636L481.4 636.29L481.03 636.57L480.64 636.83L480.26 637.09L479.86 637.34L479.46 637.58L479.05 637.81L478.64 638.03L478.22 638.23L477.8 638.43L477.37 638.62L476.93 638.79L476.49 638.95L476.05 639.1L475.6 639.25L475.15 639.37L474.7 639.49L474.24 639.6L473.77 639.69L473.31 639.77L472.84 639.84L472.37 639.9L471.89 639.94L471.42 639.97L470.94 639.99L470.46 640L413.18 640L412.7 639.99L412.22 639.97L411.75 639.94L411.27 639.9L410.8 639.84L410.33 639.77L409.87 639.69L409.4 639.6L408.94 639.49L408.49 639.37L408.04 639.25L407.59 639.1L407.15 638.95L406.71 638.79L406.27 638.62L405.84 638.43L405.42 638.23L405 638.03L404.59 637.81L404.18 637.58L403.78 637.34L403.38 637.09L402.99 636.83L402.61 636.56L402.24 636.29L401.87 636L401.51 635.7L401.16 635.39L400.81 635.07L400.47 634.75L400.14 634.41L399.82 634.07L399.51 633.71L399.21 633.35L398.91 632.98L398.63 632.6L398.35 632.21L398.09 631.81L397.83 631.41L397.59 631L367.5 578.89L367.5 621.99L367.48 622.73L367.44 623.47L367.37 624.19L367.26 624.91L367.13 625.62L366.98 626.31L366.79 627L366.58 627.68L366.34 628.34L366.08 629L365.8 629.64L365.49 630.26L365.15 630.87L364.8 631.47L364.42 632.05L364.02 632.62L363.6 633.17L363.16 633.71L362.7 634.22L362.22 634.72L361.72 635.2L361.2 635.66L360.67 636.1L360.12 636.52L359.55 636.92L358.97 637.3L358.37 637.65L357.76 637.99L357.13 638.3L356.49 638.58L355.84 638.84L355.18 639.08L354.5 639.29L353.81 639.48L353.12 639.63L352.41 639.76L351.69 639.87L350.97 639.94L350.23 639.98L349.49 640L290.51 640L289.77 639.98L289.03 639.94L288.31 639.87L287.59 639.76L286.88 639.63L286.19 639.48L285.5 639.29L284.82 639.08L284.16 638.84L283.51 638.58L282.87 638.3L282.24 637.99L281.63 637.65L281.03 637.3L280.45 636.92L279.88 636.52L279.33 636.1L278.8 635.66L278.28 635.2L277.78 634.72L277.3 634.22L276.84 633.71L276.4 633.17L275.98 632.62L275.58 632.05L275.2 631.47L274.85 630.87L274.51 630.26L274.2 629.64L273.92 629L273.66 628.34L273.42 627.68L273.21 627L273.02 626.31L272.87 625.62L272.74 624.91L272.63 624.19L272.56 623.47L272.52 622.73L272.5 621.99L272.5 578.89L242.42 631L242.17 631.41L241.91 631.81L241.65 632.21L241.37 632.6L241.09 632.98L240.79 633.35L240.49 633.71L240.18 634.07L239.86 634.41L239.53 634.75L239.19 635.07L238.85 635.39L238.49 635.7L238.13 636L237.76 636.29L237.39 636.56L237.01 636.83L236.62 637.09L236.22 637.34L235.82 637.58L235.41 637.81L235 638.03L234.58 638.23L234.16 638.43L233.73 638.62L233.29 638.79L232.85 638.95L232.41 639.1L231.96 639.25L231.51 639.37L231.06 639.49L230.6 639.6L230.14 639.69L229.67 639.77L229.2 639.84L228.73 639.9L228.26 639.94L227.78 639.97L227.3 639.99L226.82 640L169.54 640L169.06 639.99L168.58 639.97L168.11 639.94L167.63 639.9L167.16 639.84L166.69 639.77L166.23 639.69L165.76 639.6L165.31 639.49L164.85 639.37L164.4 639.25L163.95 639.1L163.51 638.95L163.07 638.79L162.63 638.62L162.21 638.43L161.78 638.23L161.36 638.03L160.95 637.81L160.54 637.58L160.14 637.34L159.74 637.09L159.36 636.83L158.97 636.57L158.6 636.29L158.23 636L157.87 635.7L157.52 635.39L157.17 635.07L156.83 634.75L156.5 634.41L156.18 634.07L155.87 633.71L155.57 633.35L155.27 632.98L154.99 632.6L154.71 632.21L154.45 631.81L154.19 631.41L153.95 631L153.71 630.58L153.49 630.15L153.28 629.73L153.08 629.29L152.89 628.86L152.72 628.42L152.56 627.97L152.41 627.53L152.27 627.07L152.14 626.62L152.03 626.17L151.93 625.71L151.84 625.25L151.76 624.79L151.69 624.32L151.64 623.86L151.6 623.39L151.56 622.93L151.55 622.46L151.54 621.99L151.55 621.53L151.56 621.06L151.59 620.59L151.64 620.13L151.69 619.66L151.76 619.2L151.83 618.74L151.92 618.28L152.03 617.82L152.14 617.37L152.27 616.91L152.41 616.46L152.56 616.01L152.72 615.57L152.89 615.13L153.08 614.69L153.28 614.26L153.49 613.83L153.71 613.41L153.94 612.99L229.28 482.5L62.5 482.5L60.96 482.47L59.43 482.38L57.92 482.22L56.43 482.01L54.95 481.74L53.5 481.41L52.07 481.02L50.66 480.59L49.28 480.09L47.92 479.55L46.59 478.95L45.28 478.31L44.01 477.61L42.76 476.87L41.55 476.09L40.37 475.26L39.22 474.38L38.11 473.46L37.03 472.5L36 471.5L35 470.47L34.04 469.39L33.12 468.28L32.24 467.13L31.41 465.95L30.63 464.74L29.89 463.49L29.19 462.22L28.55 460.91L27.95 459.58L27.41 458.22L26.91 456.84L26.48 455.43L26.09 454L25.76 452.55L25.49 451.07L25.28 449.58L25.12 448.07L25.03 446.54L25 445L25 92.5L23.97 92.48L22.95 92.42L21.95 92.31L20.95 92.17L19.97 91.99L19 91.77L18.05 91.52L17.11 91.22L16.18 90.9L15.28 90.53L14.39 90.14L13.52 89.71L12.67 89.24L11.84 88.75L11.03 88.22L10.24 87.67L9.48 87.09L8.74 86.47L8.02 85.84L7.33 85.17L6.66 84.48L6.03 83.76L5.41 83.02L4.83 82.26L4.28 81.47L3.75 80.66L3.26 79.83L2.79 78.98L2.36 78.11L1.97 77.22L1.6 76.32L1.28 75.39L0.98 74.45L0.73 73.5L0.51 72.53L0.33 71.55L0.19 70.55L0.08 69.55L0.02 68.53L0 67.5L0 25L0.02 23.97L0.08 22.95L0.19 21.95L0.33 20.95L0.51 19.97L0.73 19L0.98 18.05L1.28 17.11L1.6 16.18L1.97 15.28L2.36 14.39L2.79 13.52L3.26 12.67L3.75 11.84L4.28 11.03L4.83 10.24L5.41 9.48L6.03 8.74L6.66 8.02L7.33 7.33L8.02 6.66L8.74 6.03L9.48 5.41L10.24 4.83L11.03 4.28L11.84 3.75L12.67 3.26L13.52 2.79L14.39 2.36L15.28 1.97L16.18 1.6L17.11 1.28L18.05 0.98L19 0.73L19.97 0.51L20.95 0.33L21.95 0.19L22.95 0.08L23.97 0.02L25 0L615 0L616.03 0.02L617.05 0.08ZM297.5 615L342.5 615L342.5 482.5L297.5 482.5L297.5 615ZM181.65 615L222.78 615L272.5 528.89L272.5 482.5L258.15 482.5L181.65 615ZM367.5 528.89L417.22 615L458.35 615L381.85 482.5L367.5 482.5L367.5 528.89Z" id="d1cfCObu4X"></path><path d="M332.5 80C332.5 76.71 331.16 73.49 328.84 71.16C326.51 68.84 323.29 67.5 320 67.5C316.71 67.5 313.49 68.84 311.16 71.16C308.84 73.49 307.5 76.71 307.5 80C307.5 83.29 308.84 86.51 311.16 88.84C313.49 91.16 316.71 92.5 320 92.5C323.29 92.5 326.51 91.16 328.84 88.84C331.16 86.51 332.5 83.29 332.5 80Z" id="c3ENcEyend"></path><path d="M590 133.75C590 137.04 591.34 140.26 593.66 142.59C595.99 144.91 599.21 146.25 602.5 146.25C605.79 146.25 609.01 144.91 611.34 142.59C613.66 140.26 615 137.04 615 133.75C615 130.46 613.66 127.24 611.34 124.91C609.01 122.59 605.79 121.25 602.5 121.25C599.21 121.25 595.99 122.59 593.66 124.91C591.34 127.24 590 130.46 590 133.75Z" id="b1k2PC6Oi"></path><path d="M482.86 163.58L483.34 163.63L483.82 163.69L484.29 163.77L484.76 163.87L485.23 163.99L485.69 164.13L486.15 164.29L486.61 164.46L487.06 164.65L487.5 164.86L487.93 165.09L488.36 165.34L488.78 165.6L489.19 165.89L489.6 166.19L489.99 166.51L490.37 166.85L490.74 167.21L513.84 190.3L514.2 190.67L514.53 191.06L514.85 191.45L515.16 191.85L515.44 192.26L515.71 192.68L515.95 193.11L516.18 193.55L516.39 193.99L516.58 194.44L516.76 194.89L516.91 195.35L517.05 195.82L517.17 196.28L517.27 196.75L517.35 197.23L517.42 197.71L517.46 198.18L517.49 198.66L517.5 199.14L517.49 199.62L517.46 200.1L517.42 200.58L517.35 201.06L517.27 201.53L517.17 202L517.05 202.47L516.91 202.93L516.76 203.39L516.58 203.85L516.39 204.29L516.18 204.74L515.95 205.17L515.71 205.6L515.44 206.02L515.16 206.43L514.85 206.83L514.53 207.23L514.2 207.61L513.84 207.98L490.74 231.08L490.56 231.26L490.37 231.43L490.18 231.61L489.99 231.77L489.79 231.94L489.6 232.09L489.4 232.25L489.19 232.4L488.99 232.54L488.78 232.68L488.57 232.81L488.36 232.94L488.15 233.07L487.93 233.19L487.72 233.31L487.5 233.42L487.28 233.53L487.06 233.63L486.83 233.73L486.61 233.82L486.38 233.91L486.15 234L485.92 234.08L485.69 234.15L485.46 234.22L485.23 234.29L485 234.35L484.76 234.41L484.53 234.46L484.29 234.51L484.05 234.55L483.82 234.59L483.58 234.63L483.34 234.66L483.1 234.68L482.86 234.7L482.62 234.72L482.38 234.73L482.14 234.74L481.9 234.74L481.66 234.74L481.42 234.73L481.18 234.72L480.94 234.7L480.71 234.68L480.47 234.66L480.23 234.63L479.99 234.59L479.75 234.55L479.52 234.51L479.28 234.46L479.05 234.41L478.81 234.35L478.58 234.29L478.35 234.22L478.11 234.15L477.88 234.08L477.65 234L477.43 233.91L477.2 233.82L476.98 233.73L476.75 233.63L476.53 233.53L476.31 233.42L476.09 233.31L475.87 233.19L475.66 233.07L475.45 232.94L475.24 232.81L475.03 232.68L474.82 232.54L474.61 232.4L474.41 232.25L474.21 232.09L474.01 231.94L473.82 231.77L473.63 231.61L473.44 231.43L473.25 231.26L473.07 231.08L472.71 230.71L472.37 230.32L472.05 229.93L471.75 229.53L471.46 229.12L471.2 228.7L470.95 228.27L470.72 227.83L470.51 227.39L470.32 226.94L470.15 226.49L469.99 226.03L469.85 225.56L469.73 225.1L469.63 224.63L469.55 224.15L469.49 223.67L469.44 223.2L469.41 222.72L469.4 222.24L469.41 221.76L469.44 221.28L469.49 220.8L469.55 220.32L469.63 219.85L469.73 219.38L469.85 218.91L469.99 218.45L470.15 217.99L470.32 217.53L470.51 217.09L470.72 216.64L470.95 216.21L471.2 215.78L471.46 215.36L471.75 214.95L472.05 214.55L472.37 214.15L472.71 213.77L473.07 213.4L474.82 211.64L366.1 211.64L360.2 211.73L354.34 211.97L348.5 212.39L342.69 212.96L336.93 213.69L331.19 214.58L325.5 215.63L319.86 216.83L314.26 218.18L308.71 219.69L303.21 221.34L297.77 223.14L292.38 225.09L287.06 227.18L281.8 229.41L276.61 231.77L271.48 234.28L266.43 236.93L261.45 239.7L256.56 242.61L251.74 245.65L247 248.82L242.35 252.12L237.79 255.54L233.33 259.09L228.95 262.75L224.68 266.54L220.5 270.44L216.43 274.46L212.47 278.6L208.61 282.84L204.86 287.2L201.23 291.67L197.72 296.24L194.33 300.92L191.06 305.7L187.92 310.58L184.9 315.56L182.02 320.64L179.27 325.82L180.13 326.48L180.97 327.16L181.8 327.86L182.61 328.57L183.4 329.31L184.18 330.06L184.94 330.83L185.68 331.61L186.41 332.41L187.11 333.23L187.8 334.07L188.47 334.92L189.12 335.78L189.75 336.67L190.36 337.56L190.95 338.47L191.52 339.39L192.07 340.33L192.6 341.28L193.11 342.25L193.6 343.23L194.06 344.22L194.5 345.22L194.92 346.23L195.32 347.26L195.69 348.29L196.04 349.34L196.36 350.4L196.67 351.47L196.94 352.55L197.19 353.64L197.42 354.73L197.62 355.84L197.8 356.95L197.95 358.08L198.07 359.21L198.17 360.35L198.24 361.49L198.28 362.65L198.29 363.81L198.25 365.76L198.13 367.7L197.94 369.61L197.67 371.5L197.32 373.37L196.91 375.21L196.42 377.02L195.87 378.81L195.24 380.56L194.55 382.28L193.8 383.97L192.98 385.62L192.1 387.23L191.16 388.81L190.17 390.35L189.11 391.84L188.01 393.3L186.84 394.7L185.63 396.07L184.36 397.38L183.05 398.65L181.69 399.86L180.28 401.02L178.83 402.13L177.33 403.19L175.79 404.18L174.22 405.12L172.6 406L170.95 406.82L169.26 407.57L167.54 408.26L165.79 408.88L164.01 409.44L162.19 409.93L160.35 410.34L158.49 410.69L156.59 410.96L154.68 411.15L152.75 411.27L150.79 411.31L148.84 411.27L146.9 411.15L144.99 410.96L143.1 410.69L141.23 410.34L139.39 409.93L137.58 409.44L135.79 408.88L134.04 408.26L132.32 407.57L130.63 406.82L128.98 406L127.37 405.12L125.79 404.18L124.25 403.19L122.76 402.13L121.3 401.02L119.9 399.86L118.53 398.65L117.22 397.38L115.95 396.07L114.74 394.7L113.58 393.3L112.47 391.84L111.41 390.35L110.42 388.81L109.48 387.23L108.6 385.62L107.78 383.97L107.03 382.28L106.34 380.56L105.72 378.81L105.16 377.02L104.67 375.21L104.26 373.37L103.91 371.5L103.64 369.61L103.45 367.7L103.33 365.76L103.29 363.81L103.33 361.85L103.45 359.92L103.64 358.01L103.91 356.11L104.26 354.25L104.67 352.41L105.16 350.59L105.72 348.81L106.34 347.06L107.03 345.34L107.78 343.65L108.6 342L109.48 340.38L110.42 338.81L111.41 337.27L112.47 335.77L113.58 334.32L114.74 332.91L115.95 331.55L117.22 330.24L118.53 328.97L119.9 327.76L121.3 326.59L122.76 325.49L124.25 324.43L125.79 323.44L127.37 322.5L128.98 321.62L130.63 320.8L132.32 320.05L134.04 319.36L135.79 318.73L137.58 318.18L139.39 317.69L141.23 317.28L143.1 316.93L144.99 316.66L146.9 316.47L148.84 316.35L150.79 316.31L150.92 316.31L151.05 316.31L151.18 316.31L151.31 316.31L151.44 316.31L151.57 316.32L151.7 316.32L151.83 316.32L151.95 316.32L152.08 316.33L152.21 316.33L152.34 316.33L152.47 316.34L152.6 316.34L152.73 316.35L152.85 316.36L152.98 316.36L153.11 316.37L153.24 316.37L153.37 316.38L153.5 316.39L153.62 316.4L153.75 316.4L153.88 316.41L154.01 316.42L154.13 316.43L154.26 316.44L154.39 316.45L154.51 316.46L154.64 316.47L154.77 316.48L154.9 316.49L155.02 316.5L155.15 316.51L155.28 316.52L155.4 316.54L155.53 316.55L155.66 316.56L155.78 316.58L155.91 316.59L158.95 310.7L162.16 304.93L165.51 299.26L169.01 293.71L172.66 288.27L176.44 282.95L180.37 277.74L184.43 272.66L188.62 267.71L192.94 262.87L197.39 258.17L201.96 253.6L206.64 249.15L211.44 244.84L216.36 240.67L221.38 236.64L226.51 232.74L231.74 228.99L237.07 225.38L242.49 221.92L248.01 218.6L253.62 215.44L259.31 212.43L265.09 209.57L270.94 206.88L276.87 204.34L282.88 201.96L288.95 199.74L295.09 197.69L301.3 195.81L307.56 194.1L313.88 192.55L320.26 191.18L326.68 189.99L333.15 188.98L339.67 188.14L346.22 187.49L352.81 187.02L359.44 186.74L366.1 186.64L474.82 186.64L473.06 184.89L472.71 184.51L472.37 184.13L472.05 183.74L471.75 183.34L471.46 182.92L471.2 182.5L470.95 182.08L470.72 181.64L470.51 181.2L470.32 180.75L470.14 180.3L469.99 179.84L469.85 179.37L469.73 178.9L469.63 178.43L469.55 177.96L469.49 177.48L469.44 177L469.41 176.52L469.4 176.05L469.41 175.57L469.44 175.09L469.49 174.61L469.55 174.13L469.63 173.66L469.73 173.19L469.85 172.72L469.99 172.25L470.14 171.8L470.32 171.34L470.51 170.89L470.72 170.45L470.95 170.02L471.2 169.59L471.46 169.17L471.75 168.76L472.05 168.35L472.37 167.96L472.71 167.58L473.06 167.21L473.44 166.85L473.82 166.51L474.21 166.19L474.61 165.89L475.03 165.6L475.45 165.34L475.87 165.09L476.31 164.86L476.75 164.65L477.2 164.46L477.65 164.29L478.11 164.13L478.58 163.99L479.04 163.87L479.52 163.77L479.99 163.69L480.47 163.63L480.94 163.58L481.42 163.55L481.9 163.55L482.38 163.55L482.86 163.58ZM148.17 341.46L146.89 341.65L145.64 341.91L144.41 342.23L143.21 342.62L142.04 343.08L140.91 343.6L139.8 344.18L138.74 344.82L137.71 345.51L136.73 346.26L135.79 347.06L134.89 347.91L134.04 348.8L133.24 349.75L132.49 350.73L131.8 351.76L131.16 352.82L130.58 353.92L130.06 355.06L129.61 356.23L129.21 357.43L128.89 358.66L128.63 359.91L128.44 361.19L128.33 362.49L128.29 363.81L128.33 365.13L128.44 366.43L128.63 367.71L128.89 368.96L129.21 370.19L129.61 371.39L130.06 372.56L130.58 373.7L131.16 374.8L131.8 375.86L132.49 376.89L133.24 377.87L134.04 378.82L134.89 379.71L135.79 380.56L136.73 381.36L137.71 382.11L138.74 382.8L139.8 383.44L140.91 384.02L142.04 384.54L143.21 385L144.41 385.39L145.64 385.71L146.89 385.97L148.17 386.16L149.47 386.27L150.79 386.31L152.11 386.27L153.41 386.16L154.69 385.97L155.95 385.71L157.17 385.39L158.37 385L159.54 384.54L160.68 384.02L161.78 383.44L162.85 382.8L163.87 382.11L164.86 381.36L165.8 380.56L166.69 379.71L167.54 378.82L168.34 377.87L169.09 376.89L169.78 375.86L170.42 374.8L171 373.7L171.52 372.56L171.98 371.39L172.37 370.19L172.7 368.96L172.95 367.71L173.14 366.43L173.25 365.13L173.29 363.81L173.25 362.49L173.14 361.19L172.95 359.91L172.7 358.66L172.37 357.43L171.98 356.23L171.52 355.06L171 353.92L170.42 352.82L169.78 351.76L169.09 350.73L168.34 349.75L167.54 348.8L166.69 347.91L165.8 347.06L164.86 346.26L163.87 345.51L162.85 344.82L161.78 344.18L160.68 343.6L159.54 343.08L158.37 342.62L157.17 342.23L155.95 341.91L154.69 341.65L153.41 341.46L152.11 341.35L150.79 341.31L149.47 341.35L148.17 341.46Z" id="b3p2fgpErH"></path><path d="M147.63 113.85L149.54 114.04L151.43 114.31L153.3 114.66L155.14 115.07L156.95 115.56L158.73 116.11L160.49 116.74L162.21 117.43L163.89 118.18L165.55 119L167.16 119.88L168.74 120.82L170.28 121.81L171.77 122.87L173.22 123.97L174.63 125.14L175.99 126.35L177.31 127.62L178.57 128.93L179.79 130.29L180.95 131.7L182.06 133.15L183.11 134.65L184.11 136.19L185.05 137.76L185.93 139.38L186.74 141.03L187.5 142.72L188.19 144.44L188.81 146.19L189.37 147.97L189.85 149.79L190.27 151.63L190.61 153.49L190.88 155.39L191.08 157.3L191.2 159.23L191.24 161.19L191.2 163.14L191.08 165.08L190.88 166.99L190.61 168.88L190.27 170.75L189.85 172.59L189.37 174.4L188.81 176.19L188.19 177.94L187.5 179.66L186.74 181.35L185.93 183L185.05 184.61L184.11 186.19L183.11 187.73L182.06 189.22L180.95 190.68L179.79 192.08L178.57 193.45L177.31 194.76L175.99 196.03L174.63 197.24L173.22 198.4L171.77 199.51L170.28 200.57L168.74 201.56L167.16 202.5L165.55 203.38L163.89 204.2L162.21 204.95L160.49 205.64L158.73 206.26L156.95 206.82L155.14 207.31L153.3 207.72L151.43 208.07L149.54 208.34L147.63 208.53L145.69 208.65L143.74 208.69L141.78 208.65L139.85 208.53L137.93 208.34L136.04 208.07L134.18 207.72L132.34 207.31L130.52 206.82L128.74 206.26L126.99 205.64L125.26 204.95L123.58 204.2L121.93 203.38L120.31 202.5L118.73 201.56L117.2 200.57L115.7 199.51L114.25 198.4L112.84 197.24L111.48 196.03L110.16 194.76L108.9 193.45L107.68 192.08L106.52 190.68L105.41 189.22L104.36 187.73L103.36 186.19L102.42 184.61L101.55 183L100.73 181.35L99.97 179.66L99.29 177.94L98.66 176.19L98.11 174.4L97.62 172.59L97.2 170.75L96.86 168.88L96.59 166.99L96.39 165.08L96.28 163.14L96.24 161.19L96.28 159.23L96.39 157.3L96.59 155.39L96.86 153.49L97.2 151.63L97.62 149.79L98.11 147.97L98.66 146.19L99.29 144.44L99.97 142.72L100.73 141.03L101.55 139.38L102.42 137.76L103.36 136.19L104.36 134.65L105.41 133.15L106.52 131.7L107.68 130.29L108.9 128.93L110.16 127.62L111.48 126.35L112.84 125.14L114.25 123.97L115.7 122.87L117.2 121.81L118.73 120.82L120.31 119.88L121.93 119L123.58 118.18L125.26 117.43L126.99 116.74L128.74 116.11L130.52 115.56L132.34 115.07L134.18 114.66L136.04 114.31L137.93 114.04L139.85 113.85L141.78 113.73L143.74 113.69L145.69 113.73L147.63 113.85ZM141.12 138.84L139.84 139.03L138.58 139.28L137.36 139.61L136.16 140L134.99 140.46L133.85 140.98L132.75 141.56L131.68 142.2L130.66 142.89L129.67 143.64L128.73 144.44L127.83 145.29L126.98 146.18L126.19 147.12L125.44 148.11L124.74 149.14L124.11 150.2L123.53 151.3L123.01 152.44L122.55 153.61L122.16 154.81L121.83 156.04L121.57 157.29L121.39 158.57L121.27 159.87L121.24 161.19L121.27 162.51L121.39 163.81L121.57 165.09L121.83 166.34L122.16 167.57L122.55 168.77L123.01 169.94L123.53 171.07L124.11 172.18L124.74 173.24L125.44 174.27L126.19 175.25L126.98 176.19L127.83 177.09L128.73 177.94L129.67 178.74L130.66 179.49L131.68 180.18L132.75 180.82L133.85 181.4L134.99 181.92L136.16 182.37L137.36 182.77L138.58 183.09L139.84 183.35L141.12 183.54L142.42 183.65L143.74 183.69L145.06 183.65L146.36 183.54L147.63 183.35L148.89 183.09L150.12 182.77L151.32 182.37L152.49 181.92L153.62 181.4L154.72 180.82L155.79 180.18L156.82 179.49L157.8 178.74L158.74 177.94L159.64 177.09L160.49 176.19L161.29 175.25L162.03 174.27L162.73 173.24L163.37 172.18L163.95 171.07L164.47 169.94L164.92 168.77L165.31 167.57L165.64 166.34L165.9 165.09L166.08 163.81L166.2 162.51L166.24 161.19L166.2 159.87L166.08 158.57L165.9 157.29L165.64 156.04L165.31 154.81L164.92 153.61L164.47 152.44L163.95 151.3L163.37 150.2L162.73 149.14L162.03 148.11L161.29 147.12L160.49 146.18L159.64 145.29L158.74 144.44L157.8 143.64L156.82 142.89L155.79 142.2L154.72 141.56L153.62 140.98L152.49 140.46L151.32 140L150.12 139.61L148.89 139.28L147.63 139.03L146.36 138.84L145.06 138.73L143.74 138.69L142.42 138.73L141.12 138.84Z" id="b1uAmAkbfk"></path><path d="M511.63 310.18C510.48 311.32 504.77 317.03 494.48 327.32C484.19 317.03 478.48 311.32 477.34 310.18C472.45 305.29 464.54 305.29 459.66 310.18C454.78 315.06 454.78 322.97 459.66 327.86C460.8 329 466.52 334.71 476.8 345C466.52 355.29 460.8 361 459.66 362.15C454.78 367.03 454.78 374.94 459.66 379.82C462.1 382.27 465.3 383.49 468.5 383.49C471.7 383.49 474.9 382.27 477.34 379.82C478.48 378.68 484.19 372.97 494.48 362.68C504.77 372.97 510.48 378.68 511.63 379.82C514.07 382.27 517.27 383.49 520.47 383.49C523.66 383.49 526.86 382.27 529.3 379.82C534.19 374.94 534.19 367.03 529.3 362.15C528.16 361 522.45 355.29 512.16 345C522.45 334.71 528.16 329 529.31 327.86C534.19 322.97 534.19 315.06 529.31 310.18C524.42 305.29 516.51 305.29 511.63 310.18Z" id="gz18wBK"></path></defs><g><g><use xlink:href="#i11CxR38L8" opacity="1" fill="#fec96b" fill-opacity="1"></use><g><use xlink:href="#i11CxR38L8" opacity="1" fill-opacity="0" stroke="#000000" stroke-width="1" stroke-opacity="0"></use></g></g><g><use xlink:href="#d1vEaC2qiH" opacity="1" fill="#fed284" fill-opacity="1"></use><g><use xlink:href="#d1vEaC2qiH" opacity="1" fill-opacity="0" stroke="#000000" stroke-width="1" stroke-opacity="0"></use></g></g><g><use xlink:href="#b239Ug0dp0" opacity="1" fill="#fed284" fill-opacity="1"></use><g><use xlink:href="#b239Ug0dp0" opacity="1" fill-opacity="0" stroke="#000000" stroke-width="1" stroke-opacity="0"></use></g></g><g><use xlink:href="#bkI0miH4A" opacity="1" fill="#6f6f6f" fill-opacity="1"></use><g><use xlink:href="#bkI0miH4A" opacity="1" fill-opacity="0" stroke="#000000" stroke-width="1" stroke-opacity="0"></use></g></g><g><use xlink:href="#ckT2NtIOO" opacity="1" fill="#e4e4e4" fill-opacity="1"></use><g><use xlink:href="#ckT2NtIOO" opacity="1" fill-opacity="0" stroke="#000000" stroke-width="1" stroke-opacity="0"></use></g></g><g><use xlink:href="#d1tU8VgzK" opacity="1" fill="#a956bf" fill-opacity="1"></use><g><use xlink:href="#d1tU8VgzK" opacity="1" fill-opacity="0" stroke="#000000" stroke-width="1" stroke-opacity="0"></use></g></g><g><use xlink:href="#l2n2rTl5D4" opacity="1" fill="#a956bf" fill-opacity="1"></use><g><use xlink:href="#l2n2rTl5D4" opacity="1" fill-opacity="0" stroke="#000000" stroke-width="1" stroke-opacity="0"></use></g></g><g><use xlink:href="#d1cfCObu4X" opacity="1" fill="#000000" fill-opacity="1"></use><g><use xlink:href="#d1cfCObu4X" opacity="1" fill-opacity="0" stroke="#000000" stroke-width="1" stroke-opacity="0"></use></g></g><g><use xlink:href="#c3ENcEyend" opacity="1" fill="#000000" fill-opacity="1"></use><g><use xlink:href="#c3ENcEyend" opacity="1" fill-opacity="0" stroke="#000000" stroke-width="1" stroke-opacity="0"></use></g></g><g><use xlink:href="#b1k2PC6Oi" opacity="1" fill="#000000" fill-opacity="1"></use><g><use xlink:href="#b1k2PC6Oi" opacity="1" fill-opacity="0" stroke="#000000" stroke-width="1" stroke-opacity="0"></use></g></g><g><use xlink:href="#b3p2fgpErH" opacity="1" fill="#000000" fill-opacity="1"></use><g><use xlink:href="#b3p2fgpErH" opacity="1" fill-opacity="0" stroke="#000000" stroke-width="1" stroke-opacity="0"></use></g></g><g><use xlink:href="#b1uAmAkbfk" opacity="1" fill="#000000" fill-opacity="1"></use><g><use xlink:href="#b1uAmAkbfk" opacity="1" fill-opacity="0" stroke="#000000" stroke-width="1" stroke-opacity="0"></use></g></g><g><use xlink:href="#gz18wBK" opacity="1" fill="#000000" fill-opacity="1"></use><g><use xlink:href="#gz18wBK" opacity="1" fill-opacity="0" stroke="#000000" stroke-width="1" stroke-opacity="0"></use></g></g></g></svg>