<?xml version="1.0" encoding="UTF-8" standalone="no"?>
<!DOCTYPE svg PUBLIC "-//W3C//DTD SVG 1.1//EN" "http://www.w3.org/Graphics/SVG/1.1/DTD/svg11.dtd">
<svg version="1.1" xmlns="http://www.w3.org/2000/svg" xmlns:xlink="http://www.w3.org/1999/xlink" preserveAspectRatio="xMidYMid meet" viewBox="0 0 640 640" width="640" height="640"><defs><path d="M394.67 245.33C465.36 245.33 522.67 302.65 522.67 373.33C522.67 380.44 522.67 416 522.67 480L522.67 480L117.33 480L117.33 480C117.33 416 117.33 380.44 117.33 373.33C117.33 302.65 174.65 245.33 245.33 245.33C275.2 245.33 379.73 245.33 394.67 245.33Z" id="b2SBC7ki7A"></path><path d="M446.11 256.17C408.86 350.11 341.27 428.91 254.08 480C271.99 480 361.51 480 522.67 480L522.67 373.33C502.63 308.83 477.11 269.77 446.11 256.17Z" id="bMHBc2Ks"></path><path d="M320 10.67C378.91 10.67 426.67 58.42 426.67 117.33C426.67 123.73 426.67 174.93 426.67 181.33C426.67 240.25 378.91 288 320 288C320 288 320 288 320 288C261.09 288 213.33 240.24 213.33 181.33C213.33 174.93 213.33 123.73 213.33 117.33C213.33 58.42 261.09 10.67 320 10.67C320 10.67 320 10.67 320 10.67Z" id="a36vaYSfgv"></path><path d="M379.93 77.95C379.93 85.83 379.93 148.84 379.93 156.71C379.91 214.71 341.85 265.83 286.28 282.46C342.06 301.17 402.43 271.11 421.14 215.34C424.81 204.38 426.68 192.9 426.67 181.33C426.67 174.93 426.67 123.73 426.67 117.33C426.66 76.73 403.56 39.67 367.13 21.75C375.53 39.3 379.9 58.5 379.93 77.95Z" id="c7nyhKumt"></path><path d="M85.33 320L85.33 576C157.9 576 198.21 576 206.27 576C243.75 576 278.46 595.66 297.74 627.79C297.8 627.89 298.11 628.4 298.67 629.33C298.67 469.33 298.67 380.44 298.67 362.67C278.52 335.81 246.91 320 213.33 320C196.27 320 153.6 320 85.33 320Z" id="bgcAI6N29"></path><path d="M341.33 362.67C341.33 380.44 341.33 469.33 341.33 629.33C341.89 628.4 342.2 627.89 342.26 627.79C361.54 595.66 396.26 576 433.73 576C441.79 576 482.1 576 554.67 576L554.67 320L426.67 320C383.21 330.54 354.77 344.76 341.33 362.67Z" id="b4ovpRmWWZ"></path><path d="M96 362.67C107.79 362.67 117.33 372.21 117.33 384C117.33 396.8 117.33 499.2 117.33 512C117.33 523.79 107.79 533.33 96 533.33C89.6 533.33 38.4 533.33 32 533.33C20.21 533.33 10.67 523.79 10.67 512C10.67 499.2 10.67 396.8 10.67 384C10.67 372.21 20.21 362.67 32 362.67C44.8 362.67 89.6 362.67 96 362.67Z" id="a1ZbgSOXEn"></path><path d="M117.33 394.67C117.33 394.67 117.33 394.67 117.33 394.67C117.33 407.47 117.33 414.58 117.33 416C117.33 416 117.33 416 117.33 416C78.93 416 57.6 416 53.33 416C53.33 416 53.33 416 53.33 416C53.33 403.2 53.33 396.09 53.33 394.67C53.33 394.67 53.33 394.67 53.33 394.67C91.73 394.67 113.07 394.67 117.33 394.67Z" id="a4t2LpPHEM"></path><path d="M117.33 437.33C117.33 437.33 117.33 437.33 117.33 437.33C117.33 450.13 117.33 457.25 117.33 458.67C117.33 458.67 117.33 458.67 117.33 458.67C78.93 458.67 57.6 458.67 53.33 458.67C53.33 458.67 53.33 458.67 53.33 458.67C53.33 445.87 53.33 438.76 53.33 437.33C53.33 437.33 53.33 437.33 53.33 437.33C91.73 437.33 113.07 437.33 117.33 437.33Z" id="a1413HeheN"></path><path d="M117.33 480C117.33 480 117.33 480 117.33 480C117.33 492.8 117.33 499.91 117.33 501.33C117.33 501.33 117.33 501.33 117.33 501.33C78.93 501.33 57.6 501.33 53.33 501.33C53.33 501.33 53.33 501.33 53.33 501.33C53.33 488.53 53.33 481.42 53.33 480C53.33 480 53.33 480 53.33 480C91.73 480 113.07 480 117.33 480Z" id="d3TQxL7dC"></path><path d="M341.33 362.67C341.33 362.67 341.33 362.67 341.33 362.67C341.33 522.67 341.33 611.55 341.33 629.33C341.33 629.33 341.33 629.33 341.33 629.33C315.73 629.33 301.51 629.33 298.67 629.33C298.67 629.33 298.67 629.33 298.67 629.33C298.67 469.33 298.67 380.44 298.67 362.67C298.67 362.67 298.67 362.67 298.67 362.67C324.27 362.67 338.49 362.67 341.33 362.67Z" id="a3BM8Bc93t"></path><path d="M608 362.67C619.79 362.67 629.33 372.21 629.33 384C629.33 396.8 629.33 499.2 629.33 512C629.33 523.79 619.79 533.33 608 533.33C601.6 533.33 550.4 533.33 544 533.33C532.21 533.33 522.67 523.79 522.67 512C522.67 499.2 522.67 396.8 522.67 384C522.67 372.21 532.21 362.67 544 362.67C556.8 362.67 601.6 362.67 608 362.67Z" id="bfyXYYJWG"></path><path d="M586.67 480C586.67 480 586.67 480 586.67 480C586.67 492.8 586.67 499.91 586.67 501.33C586.67 501.33 586.67 501.33 586.67 501.33C548.27 501.33 526.93 501.33 522.67 501.33C522.67 501.33 522.67 501.33 522.67 501.33C522.67 488.53 522.67 481.42 522.67 480C522.67 480 522.67 480 522.67 480C561.07 480 582.4 480 586.67 480Z" id="b3gAvnX06"></path><path d="M586.67 437.33C586.67 437.33 586.67 437.33 586.67 437.33C586.67 450.13 586.67 457.25 586.67 458.67C586.67 458.67 586.67 458.67 586.67 458.67C548.27 458.67 526.93 458.67 522.67 458.67C522.67 458.67 522.67 458.67 522.67 458.67C522.67 445.87 522.67 438.76 522.67 437.33C522.67 437.33 522.67 437.33 522.67 437.33C561.07 437.33 582.4 437.33 586.67 437.33Z" id="b2OxUCPvlr"></path><path d="M586.67 394.67C586.67 394.67 586.67 394.67 586.67 394.67C586.67 407.47 586.67 414.58 586.67 416C586.67 416 586.67 416 586.67 416C548.27 416 526.93 416 522.67 416C522.67 416 522.67 416 522.67 416C522.67 403.2 522.67 396.09 522.67 394.67C522.67 394.67 522.67 394.67 522.67 394.67C561.07 394.67 582.4 394.67 586.67 394.67Z" id="a1DNrmRCV"></path><path d="M458.67 160C458.67 160 458.67 160 458.67 160C458.67 172.8 458.67 179.91 458.67 181.33C458.67 181.33 458.67 181.33 458.67 181.33C292.27 181.33 199.82 181.33 181.33 181.33C181.33 181.33 181.33 181.33 181.33 181.33C181.33 168.53 181.33 161.42 181.33 160C181.33 160 181.33 160 181.33 160C347.73 160 440.18 160 458.67 160Z" id="e9hbF9ndR"></path><path d="M256 128C232.44 128 213.33 147.1 213.33 170.67C213.33 194.23 232.44 213.33 256 213.33C279.56 213.33 298.67 194.23 298.67 170.67C298.67 147.1 279.56 128 256 128Z" id="a37bqpbLMp"></path><path d="M384 128C360.44 128 341.33 147.1 341.33 170.67C341.33 194.23 360.44 213.33 384 213.33C407.56 213.33 426.67 194.23 426.67 170.67C426.67 147.1 407.56 128 384 128Z" id="csjws904I"></path><path d="M309.27 11.11C262.78 15.82 224.77 50.22 215.47 96C228.48 95.78 304.32 93.19 362.67 64C378.39 84.95 400.77 99.95 426.12 106.51C420.19 47.89 367.87 5.18 309.27 11.11Z" id="j2BIfSWPS4"></path><path d="M218.56 309.47L221.16 309.62L223.74 309.84L226.32 310.1L228.89 310.43L231.45 310.81L233.99 311.24L236.52 311.73L239.04 312.28L241.54 312.87L244.02 313.53L246.49 314.23L248.93 314.99L251.36 315.8L253.77 316.66L256.16 317.58L258.53 318.55L260.88 319.56L263.2 320.63L265.5 321.75L267.78 322.92L270.03 324.13L272.25 325.4L274.45 326.71L276.62 328.08L278.76 329.49L280.87 330.95L282.95 332.45L285 334L287.01 335.6L289 337.25L290.95 338.94L292.86 340.67L294.74 342.45L296.59 344.27L298.39 346.14L300.16 348.05L301.89 350L303.58 352L336.42 352L338.11 350L339.84 348.05L341.61 346.14L343.41 344.27L345.26 342.45L347.14 340.67L349.05 338.94L351 337.25L352.99 335.6L355 334L357.05 332.45L359.13 330.95L361.24 329.49L363.38 328.08L365.55 326.71L367.75 325.4L369.97 324.13L372.22 322.92L374.5 321.75L376.8 320.63L379.12 319.56L381.47 318.55L383.84 317.58L386.23 316.66L388.64 315.8L391.07 314.99L393.52 314.23L395.98 313.53L398.47 312.87L400.96 312.28L403.48 311.73L406.01 311.24L408.55 310.81L411.11 310.43L413.68 310.1L416.26 309.84L418.85 309.62L421.44 309.47L424.05 309.37L426.67 309.33L554.67 309.33L555.11 309.34L555.54 309.37L555.97 309.41L556.4 309.47L556.82 309.55L557.23 309.64L557.64 309.75L558.04 309.88L558.43 310.02L558.82 310.17L559.2 310.34L559.57 310.52L559.93 310.72L560.28 310.93L560.63 311.16L560.97 311.39L561.29 311.64L561.61 311.9L561.91 312.18L562.21 312.46L562.49 312.75L562.77 313.06L563.03 313.38L563.27 313.7L563.51 314.04L563.73 314.38L563.95 314.74L564.14 315.1L564.33 315.47L564.5 315.85L564.65 316.24L564.79 316.63L564.91 317.03L565.02 317.44L565.12 317.85L565.19 318.27L565.25 318.7L565.3 319.13L565.32 319.56L565.33 320L565.33 352L608 352L609.32 352.03L610.62 352.11L611.92 352.24L613.19 352.42L614.45 352.65L615.69 352.93L616.91 353.26L618.12 353.63L619.3 354.05L620.46 354.51L621.59 355.02L622.71 355.57L623.79 356.16L624.86 356.79L625.89 357.46L626.9 358.17L627.88 358.92L628.83 359.7L629.74 360.52L630.63 361.37L631.48 362.26L632.3 363.17L633.08 364.12L633.83 365.1L634.54 366.11L635.21 367.14L635.84 368.21L636.43 369.29L636.98 370.41L637.49 371.54L637.95 372.7L638.37 373.88L638.74 375.09L639.07 376.31L639.35 377.55L639.58 378.81L639.76 380.08L639.89 381.38L639.97 382.68L640 384L640 512L639.97 513.32L639.89 514.62L639.76 515.91L639.58 517.19L639.35 518.45L639.07 519.69L638.74 520.91L638.37 522.11L637.95 523.3L637.49 524.46L636.98 525.59L636.43 526.71L635.84 527.79L635.21 528.86L634.54 529.89L633.83 530.9L633.08 531.88L632.3 532.82L631.48 533.74L630.63 534.63L629.74 535.48L628.83 536.3L627.88 537.08L626.9 537.83L625.89 538.53L624.86 539.2L623.79 539.84L622.71 540.43L621.59 540.98L620.46 541.48L619.3 541.95L618.12 542.37L616.91 542.74L615.69 543.07L614.45 543.35L613.19 543.58L611.92 543.76L610.62 543.89L609.32 543.97L608 544L565.33 544L565.33 576L565.32 576.44L565.29 576.87L565.25 577.3L565.19 577.73L565.11 578.15L565.02 578.56L564.91 578.97L564.79 579.37L564.65 579.76L564.49 580.15L564.32 580.53L564.14 580.9L563.94 581.26L563.73 581.62L563.51 581.96L563.27 582.3L563.02 582.62L562.76 582.94L562.49 583.24L562.2 583.54L561.91 583.82L561.6 584.1L561.29 584.36L560.96 584.61L560.63 584.84L560.28 585.07L559.93 585.28L559.56 585.47L559.19 585.66L558.81 585.83L558.43 585.98L558.03 586.12L557.63 586.25L557.23 586.35L556.81 586.45L556.39 586.53L555.97 586.59L555.54 586.63L555.1 586.66L554.66 586.67L433.73 586.67L431.2 586.71L428.69 586.81L426.19 586.98L423.7 587.21L421.23 587.51L418.77 587.87L416.32 588.3L413.9 588.78L411.49 589.33L409.1 589.93L406.72 590.6L404.37 591.32L402.05 592.11L399.74 592.95L397.46 593.85L395.21 594.81L392.98 595.82L390.78 596.89L388.6 598.01L386.46 599.19L384.35 600.42L382.26 601.71L380.21 603.05L378.2 604.44L376.22 605.88L374.27 607.37L372.37 608.92L370.5 610.51L368.66 612.15L366.87 613.84L365.12 615.58L363.42 617.36L361.75 619.2L360.13 621.08L358.56 623L357.03 624.97L355.55 626.98L354.11 629.04L352.73 631.14L351.4 633.28L350.48 634.82L350.45 634.86L350.42 634.91L350.39 634.96L350.36 635.01L350.32 635.06L350.29 635.11L350.26 635.16L350.22 635.21L350.19 635.25L350.16 635.3L350.12 635.35L350.09 635.4L350.05 635.45L350.02 635.49L349.98 635.54L349.95 635.59L349.91 635.63L349.88 635.68L349.84 635.73L349.8 635.77L349.77 635.82L349.73 635.86L349.69 635.91L349.66 635.95L349.62 636L349.58 636.04L349.54 636.09L349.5 636.13L349.46 636.18L349.43 636.22L349.39 636.27L349.35 636.31L349.31 636.35L349.27 636.4L349.23 636.44L349.19 636.48L349.15 636.52L349.1 636.57L349.06 636.61L349.02 636.65L349.01 636.66L349 636.67L349 636.68L348.99 636.69L348.98 636.7L348.98 636.7L348.97 636.72L348.96 636.73L348.95 636.74L348.94 636.75L348.93 636.77L348.91 636.8L348.9 636.81L348.89 636.83L348.88 636.84L348.87 636.85L348.86 636.86L348.86 636.87L348.85 636.88L348.84 636.89L348.84 636.9L348.83 636.9L348.82 636.92L348.75 636.98L348.69 637.04L348.62 637.1L348.55 637.16L348.48 637.22L348.42 637.28L348.35 637.34L348.28 637.4L348.21 637.45L348.14 637.51L348.07 637.57L348 637.62L347.92 637.68L347.85 637.73L347.78 637.79L347.71 637.84L347.63 637.89L347.56 637.94L347.48 638L347.41 638.05L347.33 638.1L347.26 638.15L347.18 638.19L347.11 638.24L347.03 638.29L346.95 638.34L346.87 638.38L346.8 638.43L346.72 638.47L346.64 638.52L346.56 638.56L346.48 638.6L346.4 638.65L346.32 638.69L346.24 638.73L346.16 638.77L346.08 638.81L346 638.85L345.91 638.88L345.83 638.92L345.81 638.93L345.79 638.94L345.77 638.95L345.75 638.96L345.73 638.97L345.71 638.98L345.69 638.99L345.67 638.99L345.65 639L345.63 639.01L345.61 639.02L345.59 639.03L345.57 639.04L345.55 639.05L345.53 639.05L345.51 639.06L345.49 639.07L345.47 639.08L345.45 639.09L345.43 639.1L345.41 639.1L345.39 639.11L345.37 639.12L345.35 639.13L345.33 639.13L345.31 639.14L345.29 639.15L345.27 639.16L345.22 639.17L345.18 639.19L345.12 639.21L345.05 639.24L345.01 639.25L344.92 639.29L344.83 639.32L344.75 639.35L344.66 639.39L344.57 639.42L344.48 639.45L344.39 639.48L344.3 639.51L344.21 639.54L344.12 639.56L344.03 639.59L343.94 639.62L343.85 639.64L343.75 639.67L343.66 639.69L343.57 639.71L343.48 639.73L343.39 639.75L343.3 639.77L343.2 639.79L343.11 639.81L343.02 639.83L342.93 639.85L342.83 639.86L342.74 639.88L342.65 639.89L342.55 639.9L342.46 639.92L342.37 639.93L342.27 639.94L342.18 639.95L342.08 639.96L341.99 639.97L341.9 639.97L341.8 639.98L341.71 639.99L341.61 639.99L341.52 639.99L341.43 640L341.33 640L298.67 640L298.57 640L298.48 639.99L298.38 639.99L298.29 639.99L298.19 639.98L298.1 639.97L298.01 639.97L297.91 639.96L297.82 639.95L297.72 639.94L297.63 639.93L297.54 639.92L297.44 639.9L297.35 639.89L297.26 639.88L297.16 639.86L297.07 639.85L296.98 639.83L296.89 639.81L296.79 639.79L296.7 639.77L296.61 639.75L296.52 639.73L296.42 639.71L296.33 639.69L296.24 639.67L296.15 639.64L296.06 639.62L295.97 639.59L295.88 639.56L295.79 639.54L295.7 639.51L295.61 639.48L295.52 639.45L295.43 639.42L295.34 639.39L295.25 639.35L295.16 639.32L295.07 639.29L294.99 639.25L294.94 639.24L294.86 639.2L294.81 639.19L294.77 639.17L294.73 639.16L294.71 639.15L294.69 639.14L294.65 639.13L294.63 639.12L294.61 639.11L294.59 639.1L294.57 639.09L294.55 639.09L294.53 639.08L294.51 639.07L294.49 639.06L294.46 639.05L294.44 639.05L294.42 639.04L294.4 639.03L294.38 639.02L294.36 639.01L294.34 639L294.32 638.99L294.3 638.99L294.28 638.98L294.26 638.97L294.24 638.96L294.22 638.95L294.2 638.94L294.18 638.93L294.16 638.92L294.08 638.88L294 638.85L293.92 638.81L293.84 638.77L293.76 638.73L293.68 638.69L293.6 638.65L293.52 638.6L293.44 638.56L293.36 638.52L293.28 638.47L293.2 638.43L293.12 638.38L293.04 638.34L292.97 638.29L292.89 638.24L292.81 638.2L292.74 638.15L292.66 638.1L292.59 638.05L292.51 638L292.44 637.95L292.36 637.89L292.29 637.84L292.22 637.79L292.14 637.73L292.07 637.68L292 637.62L291.93 637.57L291.86 637.51L291.79 637.45L291.72 637.4L291.65 637.34L291.58 637.28L291.51 637.22L291.44 637.16L291.38 637.1L291.31 637.04L291.24 636.98L291.18 636.92L291.17 636.9L291.16 636.9L291.16 636.89L291.15 636.88L291.14 636.87L291.13 636.86L291.12 636.85L291.11 636.84L291.11 636.83L291.1 636.82L291.09 636.8L291.07 636.77L291.06 636.76L291.04 636.74L291.04 636.73L291.03 636.72L291.02 636.7L291.01 636.7L291.01 636.69L291 636.68L290.99 636.67L290.99 636.66L290.98 636.65L290.93 636.61L290.89 636.57L290.85 636.52L290.81 636.48L290.77 636.44L290.73 636.4L290.69 636.35L290.65 636.31L290.61 636.27L290.57 636.22L290.53 636.18L290.49 636.13L290.45 636.09L290.42 636.04L290.38 636L290.34 635.95L290.3 635.91L290.27 635.86L290.23 635.82L290.19 635.77L290.16 635.73L290.12 635.68L290.08 635.63L290.05 635.59L290.01 635.54L289.98 635.49L289.94 635.45L289.91 635.4L289.87 635.35L289.84 635.3L289.81 635.25L289.77 635.21L289.74 635.16L289.71 635.11L289.67 635.06L289.64 635.01L289.61 634.96L289.58 634.91L289.55 634.86L289.51 634.82L288.59 633.27L287.25 631.13L285.87 629.03L284.44 626.97L282.96 624.96L281.43 622.99L279.86 621.07L278.24 619.19L276.57 617.36L274.86 615.57L273.11 613.83L271.32 612.14L269.49 610.5L267.62 608.91L265.72 607.37L263.77 605.87L261.79 604.43L259.78 603.04L257.73 601.7L255.65 600.42L253.53 599.19L251.39 598.01L249.22 596.89L247.02 595.82L244.79 594.81L242.53 593.85L240.25 592.95L237.95 592.11L235.62 591.32L233.27 590.6L230.9 589.93L228.51 589.33L226.1 588.78L223.67 588.3L221.23 587.87L218.77 587.51L216.29 587.22L213.81 586.98L211.31 586.81L208.79 586.71L206.27 586.67L85.33 586.67L84.89 586.66L84.46 586.63L84.03 586.59L83.6 586.53L83.18 586.45L82.77 586.36L82.36 586.25L81.96 586.12L81.57 585.98L81.18 585.83L80.8 585.66L80.43 585.48L80.07 585.28L79.72 585.07L79.37 584.84L79.03 584.61L78.71 584.36L78.39 584.1L78.09 583.82L77.79 583.54L77.51 583.25L77.23 582.94L76.97 582.62L76.73 582.3L76.49 581.96L76.27 581.62L76.05 581.26L75.86 580.9L75.67 580.53L75.5 580.15L75.35 579.76L75.21 579.37L75.09 578.97L74.98 578.56L74.88 578.15L74.81 577.73L74.75 577.3L74.7 576.87L74.68 576.44L74.67 576L74.67 544L32 544L30.68 543.97L29.38 543.89L28.08 543.76L26.81 543.58L25.55 543.35L24.31 543.07L23.09 542.74L21.88 542.37L20.7 541.95L19.54 541.49L18.41 540.98L17.29 540.43L16.21 539.84L15.14 539.21L14.11 538.54L13.1 537.83L12.12 537.08L11.17 536.3L10.26 535.48L9.37 534.63L8.52 533.74L7.7 532.83L6.92 531.88L6.17 530.9L5.46 529.89L4.79 528.86L4.16 527.79L3.57 526.71L3.02 525.59L2.51 524.46L2.05 523.3L1.63 522.12L1.26 520.91L0.93 519.69L0.65 518.45L0.42 517.19L0.24 515.92L0.11 514.62L0.03 513.32L0 512L0 384L0.03 382.68L0.11 381.38L0.24 380.08L0.42 378.81L0.65 377.55L0.93 376.31L1.26 375.09L1.63 373.88L2.05 372.7L2.51 371.54L3.02 370.41L3.57 369.29L4.16 368.21L4.79 367.14L5.46 366.11L6.17 365.1L6.92 364.12L7.7 363.17L8.52 362.26L9.37 361.37L10.26 360.52L11.17 359.7L12.12 358.92L13.1 358.17L14.11 357.46L15.14 356.79L16.21 356.16L17.29 355.57L18.41 355.02L19.54 354.51L20.7 354.05L21.88 353.63L23.09 353.26L24.31 352.93L25.55 352.65L26.81 352.42L28.08 352.24L29.38 352.11L30.68 352.03L32 352L74.67 352L74.67 320L74.68 319.56L74.7 319.13L74.75 318.7L74.81 318.27L74.88 317.85L74.98 317.44L75.09 317.03L75.21 316.63L75.35 316.24L75.5 315.85L75.67 315.47L75.86 315.1L76.05 314.74L76.27 314.38L76.49 314.04L76.73 313.7L76.97 313.38L77.23 313.06L77.51 312.75L77.79 312.46L78.09 312.18L78.39 311.9L78.71 311.64L79.03 311.39L79.37 311.16L79.72 310.93L80.07 310.72L80.43 310.52L80.8 310.34L81.18 310.17L81.57 310.02L81.96 309.88L82.36 309.75L82.77 309.64L83.18 309.55L83.6 309.47L84.03 309.41L84.46 309.37L84.89 309.34L85.33 309.33L213.33 309.33L215.95 309.37L218.56 309.47ZM309.33 618.67L330.67 618.67L330.67 373.33L309.33 373.33L309.33 618.67ZM424.5 330.7L422.33 330.77L420.18 330.9L418.03 331.08L415.89 331.3L413.76 331.57L411.64 331.88L409.53 332.24L407.43 332.65L405.34 333.11L403.27 333.61L401.21 334.15L399.17 334.74L397.14 335.37L395.12 336.05L393.13 336.77L391.15 337.54L389.18 338.34L387.24 339.19L385.32 340.09L383.41 341.02L381.53 342L379.67 343.02L377.83 344.08L376.01 345.18L374.22 346.32L372.45 347.5L370.71 348.72L368.99 349.98L367.3 351.27L365.64 352.61L364 353.99L362.39 355.4L360.81 356.85L359.27 358.34L357.75 359.86L356.26 361.42L354.81 363.02L353.39 364.66L352 366.33L352 598.54L353.66 596.97L355.34 595.43L357.05 593.92L358.79 592.46L360.55 591.02L362.34 589.63L364.15 588.27L365.99 586.95L367.85 585.66L369.73 584.41L371.63 583.2L373.55 582.03L375.5 580.89L377.46 579.79L379.45 578.73L381.45 577.71L383.47 576.73L385.51 575.78L387.57 574.88L389.64 574.01L391.73 573.19L393.84 572.4L395.96 571.65L398.09 570.95L400.24 570.28L402.4 569.66L404.58 569.08L406.76 568.53L408.96 568.03L411.17 567.57L413.39 567.16L415.62 566.78L417.86 566.45L420.1 566.16L422.36 565.91L424.62 565.71L426.89 565.55L429.16 565.43L431.44 565.36L433.73 565.33L544 565.33L544 544L542.68 543.97L541.38 543.89L540.08 543.76L538.81 543.58L537.55 543.35L536.31 543.07L535.09 542.74L533.88 542.37L532.7 541.95L531.54 541.49L530.41 540.98L529.29 540.43L528.21 539.84L527.14 539.21L526.11 538.54L525.1 537.83L524.12 537.08L523.17 536.3L522.26 535.48L521.37 534.63L520.52 533.74L519.7 532.83L518.92 531.88L518.17 530.9L517.46 529.89L516.79 528.86L516.16 527.79L515.57 526.71L515.02 525.59L514.51 524.46L514.05 523.3L513.63 522.12L513.26 520.91L512.93 519.69L512.65 518.45L512.42 517.19L512.24 515.92L512.11 514.62L512.03 513.32L512 512L512 384L512.03 382.68L512.11 381.38L512.24 380.08L512.42 378.81L512.65 377.55L512.93 376.31L513.26 375.09L513.63 373.88L514.05 372.7L514.51 371.54L515.02 370.41L515.57 369.29L516.16 368.21L516.79 367.14L517.46 366.11L518.17 365.1L518.92 364.12L519.7 363.17L520.52 362.26L521.37 361.37L522.26 360.52L523.17 359.7L524.12 358.92L525.1 358.17L526.11 357.46L527.14 356.79L528.21 356.16L529.29 355.57L530.41 355.02L531.54 354.51L532.7 354.05L533.88 353.63L535.09 353.26L536.31 352.93L537.55 352.65L538.81 352.42L540.08 352.24L541.38 352.11L542.68 352.03L544 352L544 330.67L426.67 330.67L424.5 330.7ZM96 352L97.32 352.03L98.62 352.11L99.92 352.24L101.19 352.42L102.45 352.65L103.69 352.93L104.91 353.26L106.12 353.63L107.3 354.05L108.46 354.51L109.59 355.02L110.71 355.57L111.79 356.16L112.86 356.79L113.89 357.46L114.9 358.17L115.88 358.92L116.83 359.7L117.74 360.52L118.63 361.37L119.48 362.26L120.3 363.17L121.08 364.12L121.83 365.1L122.54 366.11L123.21 367.14L123.84 368.21L124.43 369.29L124.98 370.41L125.49 371.54L125.95 372.7L126.37 373.88L126.74 375.09L127.07 376.31L127.35 377.55L127.58 378.81L127.76 380.08L127.89 381.38L127.97 382.68L128 384L128 512L127.97 513.32L127.89 514.62L127.76 515.92L127.58 517.19L127.35 518.45L127.07 519.69L126.74 520.91L126.37 522.12L125.95 523.3L125.49 524.46L124.98 525.59L124.43 526.71L123.84 527.79L123.21 528.86L122.54 529.89L121.83 530.9L121.08 531.88L120.3 532.83L119.48 533.74L118.63 534.63L117.74 535.48L116.83 536.3L115.88 537.08L114.9 537.83L113.89 538.54L112.86 539.21L111.79 539.84L110.71 540.43L109.59 540.98L108.46 541.49L107.3 541.95L106.12 542.37L104.91 542.74L103.69 543.07L102.45 543.35L101.19 543.58L99.92 543.76L98.62 543.89L97.32 543.97L96 544L96 565.33L206.27 565.33L208.56 565.36L210.84 565.43L213.11 565.55L215.38 565.71L217.64 565.91L219.9 566.16L222.14 566.45L224.38 566.78L226.61 567.16L228.83 567.57L231.04 568.03L233.24 568.53L235.42 569.08L237.6 569.66L239.76 570.28L241.91 570.95L244.04 571.65L246.16 572.4L248.27 573.19L250.36 574.01L252.43 574.88L254.49 575.78L256.53 576.73L258.55 577.71L260.55 578.73L262.54 579.79L264.5 580.89L266.45 582.03L268.37 583.2L270.27 584.41L272.15 585.66L274.01 586.95L275.85 588.27L277.66 589.63L279.45 591.02L281.21 592.46L282.95 593.92L284.66 595.43L286.34 596.97L288 598.54L288 366.32L286.61 364.66L285.19 363.02L283.74 361.42L282.25 359.86L280.73 358.34L279.19 356.85L277.61 355.4L276 353.99L274.36 352.61L272.7 351.27L271.01 349.98L269.29 348.72L267.55 347.5L265.78 346.32L263.99 345.18L262.17 344.08L260.33 343.02L258.47 342L256.59 341.02L254.68 340.09L252.76 339.19L250.82 338.34L248.85 337.54L246.87 336.77L244.88 336.05L242.86 335.37L240.83 334.74L238.79 334.15L236.73 333.61L234.66 333.11L232.57 332.65L230.47 332.24L228.36 331.88L226.24 331.57L224.11 331.3L221.97 331.08L219.82 330.9L217.67 330.77L215.5 330.7L213.33 330.67L96 330.67L96 352ZM543.56 373.34L543.13 373.37L542.7 373.41L542.27 373.47L541.85 373.55L541.44 373.64L541.03 373.75L540.63 373.88L540.24 374.02L539.85 374.17L539.47 374.34L539.1 374.52L538.74 374.72L538.38 374.93L538.04 375.16L537.7 375.39L537.38 375.64L537.06 375.9L536.75 376.18L536.46 376.46L536.18 376.75L535.9 377.06L535.64 377.38L535.39 377.7L535.16 378.04L534.93 378.38L534.72 378.74L534.52 379.1L534.34 379.47L534.17 379.85L534.02 380.24L533.88 380.63L533.75 381.03L533.64 381.44L533.55 381.85L533.47 382.27L533.41 382.7L533.37 383.13L533.34 383.56L533.33 384L533.33 394.67L586.67 394.67L586.67 416L533.33 416L533.33 437.33L586.67 437.33L586.67 458.67L533.33 458.67L533.33 480L586.67 480L586.67 501.33L533.33 501.33L533.33 512L533.34 512.44L533.37 512.87L533.41 513.3L533.47 513.73L533.55 514.15L533.64 514.56L533.75 514.97L533.88 515.37L534.02 515.76L534.17 516.15L534.34 516.53L534.52 516.9L534.72 517.26L534.93 517.62L535.16 517.96L535.39 518.3L535.64 518.62L535.9 518.94L536.18 519.25L536.46 519.54L536.75 519.82L537.06 520.1L537.38 520.36L537.7 520.61L538.04 520.84L538.38 521.07L538.74 521.28L539.1 521.48L539.47 521.66L539.85 521.83L540.24 521.98L540.63 522.12L541.03 522.25L541.44 522.36L541.85 522.45L542.27 522.53L542.7 522.59L543.13 522.63L543.56 522.66L544 522.67L608 522.67L608.29 522.66L608.59 522.64L608.88 522.61L609.17 522.56L609.45 522.5L609.74 522.43L610.03 522.34L610.31 522.24L610.59 522.13L610.87 522L611.15 521.86L611.43 521.71L611.71 521.54L611.99 521.36L612.26 521.17L612.53 520.96L612.8 520.74L613.07 520.51L613.34 520.26L613.61 520L613.88 519.73L614.14 519.44L614.4 519.14L614.67 518.83L614.93 518.5L615.19 518.16L615.44 517.81L615.7 517.44L615.95 517.06L616.21 516.67L616.46 516.26L616.71 515.84L616.96 515.41L617.21 514.96L617.45 514.5L617.7 514.03L617.94 513.54L618.19 513.04L618.43 512.53L618.67 512L618.67 384L618.66 383.56L618.63 383.13L618.59 382.7L618.53 382.27L618.45 381.85L618.36 381.44L618.25 381.03L618.12 380.63L617.98 380.24L617.83 379.85L617.66 379.47L617.48 379.1L617.28 378.74L617.07 378.38L616.84 378.04L616.61 377.7L616.36 377.38L616.1 377.06L615.82 376.75L615.54 376.46L615.25 376.18L614.94 375.9L614.62 375.64L614.3 375.39L613.96 375.16L613.62 374.93L613.26 374.72L612.9 374.52L612.53 374.34L612.15 374.17L611.76 374.02L611.37 373.88L610.97 373.75L610.56 373.64L610.15 373.55L609.73 373.47L609.3 373.41L608.87 373.37L608.44 373.34L608 373.33L544 373.33L543.56 373.34ZM31.56 373.34L31.13 373.37L30.7 373.41L30.27 373.47L29.85 373.55L29.44 373.64L29.03 373.75L28.63 373.88L28.24 374.02L27.85 374.17L27.47 374.34L27.1 374.52L26.74 374.72L26.38 374.93L26.04 375.16L25.7 375.39L25.38 375.64L25.06 375.9L24.75 376.18L24.46 376.46L24.18 376.75L23.9 377.06L23.64 377.38L23.39 377.7L23.16 378.04L22.93 378.38L22.72 378.74L22.52 379.1L22.34 379.47L22.17 379.85L22.02 380.24L21.88 380.63L21.75 381.03L21.64 381.44L21.55 381.85L21.47 382.27L21.41 382.7L21.37 383.13L21.34 383.56L21.33 384L21.33 512L21.34 512.44L21.37 512.87L21.41 513.3L21.47 513.73L21.55 514.15L21.64 514.56L21.75 514.97L21.88 515.37L22.02 515.76L22.17 516.15L22.34 516.53L22.52 516.9L22.72 517.26L22.93 517.62L23.16 517.96L23.39 518.3L23.64 518.62L23.9 518.94L24.18 519.25L24.46 519.54L24.75 519.82L25.06 520.1L25.38 520.36L25.7 520.61L26.04 520.84L26.38 521.07L26.74 521.28L27.1 521.48L27.47 521.66L27.85 521.83L28.24 521.98L28.63 522.12L29.03 522.25L29.44 522.36L29.85 522.45L30.27 522.53L30.7 522.59L31.13 522.63L31.56 522.66L32 522.67L96 522.67L96.44 522.66L96.88 522.63L97.31 522.59L97.73 522.53L98.15 522.45L98.56 522.36L98.97 522.25L99.37 522.12L99.77 521.98L100.15 521.83L100.53 521.66L100.9 521.48L101.26 521.28L101.62 521.07L101.96 520.84L102.3 520.61L102.63 520.36L102.94 520.1L103.25 519.82L103.54 519.54L103.83 519.25L104.1 518.94L104.36 518.62L104.61 518.3L104.85 517.96L105.07 517.62L105.28 517.26L105.48 516.9L105.66 516.53L105.83 516.15L105.98 515.76L106.12 515.37L106.25 514.97L106.36 514.56L106.45 514.15L106.53 513.73L106.59 513.3L106.63 512.87L106.66 512.44L106.67 512L106.67 501.33L53.33 501.33L53.33 480L106.67 480L106.67 458.67L53.33 458.67L53.33 437.33L106.67 437.33L106.67 416L53.33 416L53.33 394.67L106.67 394.67L106.67 384L106.66 383.56L106.63 383.13L106.59 382.7L106.53 382.27L106.45 381.85L106.36 381.44L106.25 381.03L106.12 380.63L105.98 380.24L105.83 379.85L105.66 379.47L105.48 379.1L105.28 378.74L105.07 378.38L104.84 378.04L104.61 377.7L104.36 377.38L104.1 377.06L103.82 376.75L103.54 376.46L103.25 376.18L102.94 375.9L102.62 375.64L102.3 375.39L101.96 375.16L101.62 374.93L101.26 374.72L100.9 374.52L100.53 374.34L100.15 374.17L99.76 374.02L99.37 373.88L98.97 373.75L98.56 373.64L98.15 373.55L97.73 373.47L97.3 373.41L96.87 373.37L96.44 373.34L96 373.33L32 373.33L31.56 373.34Z" id="g3fAYPmTo"></path><path d="M329.62 0.39L334.36 0.87L339.03 1.54L343.65 2.38L348.2 3.41L352.68 4.61L357.09 5.98L361.42 7.52L365.67 9.22L369.84 11.08L373.92 13.1L377.91 15.26L381.81 17.58L385.6 20.04L389.3 22.64L392.88 25.38L396.36 28.24L399.72 31.24L402.97 34.37L406.09 37.61L409.09 40.97L411.96 44.45L414.69 48.04L417.29 51.73L419.75 55.53L422.07 59.42L424.24 63.41L426.25 67.49L428.11 71.66L429.81 75.92L431.35 80.25L432.72 84.66L433.92 89.14L434.95 93.69L435.8 98.3L436.46 102.98L436.94 107.71L437.23 112.5L437.33 117.33L437.33 160L458.67 160L458.67 181.33L437.33 181.33L437.32 182.81L437.3 184.29L437.25 185.76L437.19 187.23L437.11 188.7L437.01 190.17L436.89 191.64L436.75 193.1L436.59 194.56L436.42 196.02L436.23 197.48L436.02 198.93L435.79 200.38L435.54 201.83L435.27 203.27L434.99 204.71L434.69 206.14L434.37 207.57L434.03 209L433.68 210.42L433.3 211.84L432.91 213.25L432.5 214.66L432.08 216.06L431.63 217.46L431.17 218.85L430.69 220.24L430.2 221.62L429.68 222.99L429.15 224.36L428.6 225.72L428.03 227.08L427.45 228.43L426.85 229.77L426.23 231.11L425.59 232.44L424.94 233.76L424.27 235.07L423.58 236.38L422.88 237.68L425.05 238.14L427.21 238.64L429.36 239.17L431.5 239.74L433.63 240.34L435.75 240.97L437.85 241.64L439.95 242.34L442.02 243.07L444.09 243.83L446.14 244.63L448.18 245.46L450.2 246.32L452.21 247.22L454.2 248.14L456.18 249.1L458.14 250.08L460.09 251.1L462.02 252.15L463.93 253.23L465.82 254.34L467.7 255.48L469.56 256.65L471.39 257.85L473.22 259.08L475.02 260.33L476.8 261.62L478.56 262.94L480.3 264.28L482.02 265.65L483.72 267.05L485.4 268.48L487.06 269.94L488.69 271.42L490.31 272.93L491.89 274.47L493.46 276.04L495 277.63L496.52 279.25L498.02 280.9L482.12 295.13L480.7 293.56L479.25 292.02L477.77 290.52L476.27 289.04L474.75 287.59L473.2 286.17L471.63 284.78L470.04 283.42L468.42 282.08L466.78 280.78L465.12 279.51L463.43 278.28L461.73 277.07L460.01 275.89L458.26 274.75L456.5 273.63L454.72 272.55L452.91 271.5L451.09 270.49L449.26 269.5L447.4 268.55L445.53 267.64L443.64 266.75L441.74 265.9L439.82 265.08L437.89 264.3L435.94 263.55L433.97 262.84L432 262.16L430.01 261.52L428.01 260.91L425.99 260.34L423.96 259.8L421.93 259.3L419.88 258.84L417.82 258.41L415.75 258.02L413.67 257.66L411.58 257.35L409.48 257.07L409.16 257.45L408.84 257.82L408.51 258.2L408.19 258.58L407.86 258.95L407.53 259.33L407.2 259.7L406.86 260.07L406.53 260.44L406.19 260.8L405.86 261.17L405.52 261.54L405.18 261.9L404.83 262.26L404.49 262.62L404.14 262.98L403.8 263.34L403.45 263.69L403.1 264.05L402.75 264.4L402.39 264.75L402.04 265.1L401.68 265.45L401.33 265.8L400.97 266.14L400.61 266.49L400.25 266.83L399.88 267.17L399.52 267.51L399.15 267.85L398.78 268.18L398.41 268.52L398.04 268.85L397.67 269.18L397.3 269.51L396.92 269.84L396.55 270.17L396.17 270.49L395.79 270.81L395.41 271.14L391.66 274.17L387.82 277.02L383.91 279.7L379.91 282.19L375.85 284.51L371.72 286.66L367.53 288.62L363.29 290.41L358.99 292.02L354.66 293.45L350.28 294.72L345.87 295.8L341.44 296.71L336.98 297.45L332.5 298.01L328.02 298.41L323.52 298.62L319.03 298.67L314.54 298.55L310.05 298.25L305.59 297.78L301.14 297.14L296.72 296.34L292.32 295.36L287.97 294.22L283.65 292.9L279.38 291.42L275.17 289.77L271.01 287.95L266.91 285.97L262.88 283.82L258.92 281.5L255.04 279.02L251.25 276.38L247.54 273.57L243.93 270.59L240.42 267.46L237.01 264.16L233.71 260.69L230.53 257.07L228.41 257.35L226.3 257.67L224.2 258.03L222.11 258.43L220.04 258.86L217.97 259.33L215.91 259.84L213.87 260.39L211.83 260.97L209.81 261.58L207.81 262.24L205.81 262.93L203.84 263.65L201.87 264.41L199.92 265.21L197.99 266.03L196.07 266.9L194.17 267.8L192.28 268.73L190.41 269.69L188.56 270.69L186.73 271.73L184.92 272.79L183.12 273.89L181.35 275.02L179.59 276.18L177.86 277.38L176.15 278.61L174.45 279.87L172.78 281.16L171.14 282.48L169.51 283.83L167.91 285.21L166.33 286.62L164.78 288.07L163.25 289.54L161.74 291.04L160.27 292.57L158.81 294.13L157.39 295.72L141.39 281.61L142.88 279.94L144.41 278.29L145.95 276.67L147.53 275.08L149.12 273.51L150.74 271.97L152.38 270.46L154.05 268.98L155.73 267.53L157.44 266.1L159.17 264.71L160.93 263.34L162.7 262L164.49 260.69L166.31 259.41L168.14 258.16L170 256.94L171.87 255.75L173.76 254.59L175.67 253.46L177.6 252.36L179.54 251.3L181.5 250.26L183.48 249.26L185.48 248.29L187.49 247.35L189.52 246.44L191.56 245.56L193.61 244.72L195.69 243.91L197.77 243.13L199.87 242.39L201.98 241.68L204.11 241L206.25 240.36L208.4 239.75L210.56 239.18L212.74 238.64L214.92 238.13L217.12 237.67L216.42 236.37L215.73 235.06L215.06 233.75L214.41 232.43L213.77 231.1L213.15 229.76L212.55 228.42L211.97 227.07L211.4 225.71L210.85 224.35L210.32 222.98L209.81 221.61L209.31 220.23L208.83 218.84L208.37 217.45L207.92 216.05L207.5 214.65L207.09 213.24L206.7 211.83L206.33 210.42L205.97 208.99L205.63 207.57L205.31 206.14L205.01 204.7L204.73 203.26L204.46 201.82L204.21 200.38L203.98 198.93L203.77 197.48L203.58 196.02L203.41 194.56L203.25 193.1L203.11 191.64L202.99 190.17L202.89 188.7L202.81 187.23L202.75 185.76L202.7 184.29L202.67 182.81L202.67 181.33L181.33 181.33L181.33 160L202.67 160L202.67 117.33L202.76 112.5L203.06 107.71L203.54 102.98L204.2 98.3L205.05 93.69L206.08 89.14L207.28 84.66L208.65 80.25L210.19 75.92L211.89 71.66L213.75 67.49L215.76 63.41L217.93 59.42L220.25 55.53L222.71 51.73L225.31 48.04L228.04 44.45L230.91 40.97L233.91 37.61L237.03 34.37L240.28 31.24L243.64 28.24L247.12 25.38L250.7 22.64L254.4 20.04L258.19 17.58L262.09 15.26L266.08 13.1L270.16 11.08L274.33 9.22L278.58 7.52L282.91 5.98L287.32 4.61L291.8 3.41L296.35 2.38L300.97 1.54L305.64 0.87L310.38 0.39L315.16 0.1L320 0L324.84 0.1L329.62 0.39ZM307.85 183.18L307.38 185L306.84 186.79L306.25 188.56L305.6 190.29L304.89 191.99L304.12 193.66L303.3 195.29L302.43 196.9L301.51 198.46L300.54 199.99L299.52 201.48L298.45 202.94L297.33 204.35L296.17 205.73L294.96 207.06L293.71 208.35L292.42 209.6L291.09 210.8L289.72 211.96L288.31 213.07L286.87 214.13L285.39 215.15L283.87 216.11L282.33 217.03L280.75 217.89L279.14 218.7L277.5 219.46L275.83 220.16L274.14 220.81L272.42 221.4L270.67 221.93L268.91 222.41L267.12 222.82L265.31 223.17L263.48 223.47L261.64 223.7L259.77 223.86L257.89 223.96L256 224L255.35 223.99L254.7 223.98L254.05 223.95L253.4 223.92L252.75 223.88L252.11 223.83L251.46 223.78L250.81 223.71L250.17 223.64L249.53 223.56L248.89 223.47L248.25 223.38L247.61 223.27L246.97 223.16L246.33 223.05L245.7 222.92L245.07 222.78L244.44 222.64L243.81 222.49L243.18 222.34L242.56 222.17L241.94 222L241.31 221.82L240.7 221.63L240.08 221.43L239.47 221.23L238.85 221.02L238.25 220.8L237.64 220.58L237.04 220.34L236.43 220.1L235.84 219.85L235.24 219.6L234.65 219.33L234.06 219.06L233.47 218.79L232.89 218.5L232.31 218.21L231.73 217.91L231.16 217.6L232.3 220.28L233.52 222.92L234.81 225.5L236.18 228.04L237.61 230.53L239.11 232.96L240.68 235.34L242.32 237.67L244.02 239.94L245.78 242.15L247.6 244.31L249.48 246.41L251.42 248.45L253.42 250.43L255.47 252.35L257.57 254.2L259.73 256L261.94 257.72L264.19 259.39L266.49 260.98L268.84 262.51L271.23 263.97L273.66 265.36L276.13 266.68L278.65 267.93L281.2 269.11L283.78 270.21L286.41 271.23L289.06 272.18L291.75 273.06L294.46 273.85L297.21 274.57L299.98 275.21L302.77 275.76L305.59 276.23L308.44 276.63L311.3 276.93L314.18 277.15L317.08 277.29L320 277.33L322.92 277.29L325.82 277.15L328.7 276.93L331.56 276.63L334.41 276.23L337.23 275.76L340.02 275.21L342.79 274.57L345.54 273.85L348.25 273.06L350.94 272.18L353.59 271.23L356.22 270.21L358.8 269.1L361.35 267.93L363.87 266.68L366.34 265.36L368.77 263.97L371.16 262.51L373.51 260.98L375.81 259.39L378.06 257.72L380.27 256L382.43 254.2L384.53 252.35L386.58 250.43L388.58 248.45L390.52 246.41L392.4 244.31L394.22 242.15L395.98 239.94L397.68 237.66L399.32 235.34L400.89 232.96L402.39 230.53L403.82 228.04L405.19 225.5L406.48 222.92L407.7 220.28L408.84 217.6L408.27 217.91L407.69 218.21L407.11 218.5L406.53 218.79L405.94 219.06L405.35 219.33L404.76 219.6L404.16 219.85L403.56 220.1L402.96 220.34L402.36 220.58L401.75 220.8L401.14 221.02L400.53 221.23L399.92 221.43L399.3 221.63L398.68 221.82L398.06 222L397.44 222.17L396.82 222.34L396.19 222.49L395.56 222.64L394.93 222.78L394.3 222.92L393.66 223.05L393.03 223.16L392.39 223.27L391.75 223.38L391.11 223.47L390.47 223.56L389.83 223.64L389.18 223.71L388.54 223.78L387.89 223.83L387.25 223.88L386.6 223.92L385.95 223.95L385.3 223.98L384.65 223.99L384 224L382.11 223.96L380.23 223.86L378.36 223.7L376.52 223.47L374.69 223.18L372.88 222.82L371.09 222.41L369.32 221.93L367.58 221.4L365.86 220.81L364.17 220.16L362.5 219.46L360.86 218.7L359.25 217.89L357.67 217.03L356.13 216.11L354.61 215.15L353.13 214.13L351.69 213.07L350.28 211.96L348.91 210.8L347.58 209.6L346.29 208.35L345.04 207.06L343.83 205.73L342.67 204.35L341.55 202.94L340.48 201.49L339.46 199.99L338.49 198.46L337.57 196.9L336.69 195.3L335.88 193.66L335.11 191.99L334.4 190.29L333.75 188.56L333.16 186.79L332.62 185L332.15 183.18L331.73 181.33L308.27 181.33L307.85 183.18ZM381.38 138.77L380.08 138.9L378.81 139.09L377.55 139.32L376.31 139.6L375.09 139.92L373.88 140.3L372.7 140.72L371.54 141.18L370.41 141.69L369.29 142.24L368.21 142.83L367.14 143.46L366.11 144.13L365.1 144.84L364.12 145.59L363.17 146.37L362.26 147.19L361.37 148.04L360.52 148.92L359.7 149.84L358.92 150.79L358.17 151.77L357.46 152.77L356.79 153.81L356.16 154.87L355.57 155.96L355.02 157.07L354.51 158.21L354.05 159.37L353.63 160.55L353.26 161.75L352.93 162.98L352.65 164.22L352.42 165.48L352.24 166.75L352.11 168.04L352.03 169.35L352 170.67L352.03 171.99L352.11 173.29L352.24 174.58L352.42 175.86L352.65 177.12L352.93 178.36L353.26 179.58L353.63 180.78L354.05 181.96L354.51 183.12L355.02 184.26L355.57 185.37L356.16 186.46L356.79 187.52L357.46 188.56L358.17 189.57L358.92 190.54L359.7 191.49L360.52 192.41L361.37 193.29L362.26 194.15L363.17 194.96L364.12 195.75L365.1 196.49L366.11 197.2L367.14 197.87L368.21 198.5L369.29 199.09L370.41 199.64L371.54 200.15L372.7 200.62L373.88 201.04L375.09 201.41L376.31 201.74L377.55 202.02L378.81 202.25L380.08 202.43L381.38 202.56L382.68 202.64L384 202.67L385.32 202.64L386.62 202.56L387.92 202.43L389.19 202.25L390.45 202.02L391.69 201.74L392.91 201.41L394.12 201.04L395.3 200.62L396.46 200.15L397.59 199.64L398.71 199.09L399.79 198.5L400.86 197.87L401.89 197.2L402.9 196.49L403.88 195.75L404.83 194.96L405.74 194.15L406.63 193.29L407.48 192.41L408.3 191.49L409.08 190.54L409.83 189.57L410.54 188.56L411.21 187.52L411.84 186.46L412.43 185.37L412.98 184.26L413.49 183.12L413.95 181.96L414.37 180.78L414.74 179.58L415.07 178.36L415.35 177.12L415.58 175.86L415.76 174.58L415.89 173.29L415.97 171.99L416 170.67L415.97 169.35L415.89 168.04L415.76 166.75L415.58 165.48L415.35 164.22L415.07 162.98L414.74 161.75L414.37 160.55L413.95 159.37L413.49 158.21L412.98 157.07L412.43 155.96L411.84 154.87L411.21 153.81L410.54 152.77L409.83 151.77L409.08 150.79L408.3 149.84L407.48 148.92L406.63 148.04L405.74 147.19L404.83 146.37L403.88 145.59L402.9 144.84L401.89 144.13L400.86 143.46L399.79 142.83L398.71 142.24L397.59 141.69L396.46 141.18L395.3 140.72L394.12 140.3L392.91 139.92L391.69 139.6L390.45 139.32L389.19 139.09L387.92 138.9L386.62 138.77L385.32 138.69L384 138.67L382.68 138.69L381.38 138.77ZM253.38 138.77L252.08 138.9L250.81 139.09L249.55 139.32L248.31 139.6L247.09 139.92L245.88 140.3L244.7 140.72L243.54 141.18L242.41 141.69L241.29 142.24L240.21 142.83L239.14 143.46L238.11 144.13L237.1 144.84L236.12 145.59L235.17 146.37L234.26 147.19L233.37 148.04L232.52 148.92L231.7 149.84L230.92 150.79L230.17 151.77L229.46 152.77L228.79 153.81L228.16 154.87L227.57 155.96L227.02 157.07L226.51 158.21L226.05 159.37L225.63 160.55L225.26 161.75L224.93 162.98L224.65 164.22L224.42 165.48L224.24 166.75L224.11 168.04L224.03 169.35L224 170.67L224.03 171.99L224.11 173.29L224.24 174.58L224.42 175.86L224.65 177.12L224.93 178.36L225.26 179.58L225.63 180.78L226.05 181.96L226.51 183.12L227.02 184.26L227.57 185.37L228.16 186.46L228.79 187.52L229.46 188.56L230.17 189.57L230.92 190.54L231.7 191.49L232.52 192.41L233.37 193.29L234.26 194.15L235.17 194.96L236.12 195.75L237.1 196.49L238.11 197.2L239.14 197.87L240.21 198.5L241.29 199.09L242.41 199.64L243.54 200.15L244.7 200.62L245.88 201.04L247.09 201.41L248.31 201.74L249.55 202.02L250.81 202.25L252.08 202.43L253.38 202.56L254.68 202.64L256 202.67L257.32 202.64L258.62 202.56L259.92 202.43L261.19 202.25L262.45 202.02L263.69 201.74L264.91 201.41L266.12 201.04L267.3 200.62L268.46 200.15L269.59 199.64L270.71 199.09L271.79 198.5L272.86 197.87L273.89 197.2L274.9 196.49L275.88 195.75L276.83 194.96L277.74 194.15L278.63 193.29L279.48 192.41L280.3 191.49L281.08 190.54L281.83 189.57L282.54 188.56L283.21 187.52L283.84 186.46L284.43 185.37L284.98 184.26L285.49 183.12L285.95 181.96L286.37 180.78L286.74 179.58L287.07 178.36L287.35 177.12L287.58 175.86L287.76 174.58L287.89 173.29L287.97 171.99L288 170.67L287.97 169.35L287.89 168.04L287.76 166.75L287.58 165.48L287.35 164.22L287.07 162.98L286.74 161.75L286.37 160.55L285.95 159.37L285.49 158.21L284.98 157.07L284.43 155.96L283.84 154.87L283.21 153.81L282.54 152.77L281.83 151.77L281.08 150.79L280.3 149.84L279.48 148.92L278.63 148.04L277.74 147.19L276.83 146.37L275.88 145.59L274.9 144.84L273.89 144.13L272.86 143.46L271.79 142.83L270.71 142.24L269.59 141.69L268.46 141.18L267.3 140.72L266.12 140.3L264.91 139.92L263.69 139.6L262.45 139.32L261.19 139.09L259.92 138.9L258.62 138.77L257.32 138.69L256 138.67L254.68 138.69L253.38 138.77ZM353.11 79.86L349.87 81.1L346.62 82.32L343.35 83.51L340.08 84.66L336.8 85.79L333.51 86.89L330.22 87.96L326.91 89L323.59 90.01L320.27 90.99L316.94 91.94L313.6 92.87L310.25 93.76L306.9 94.62L303.54 95.46L300.17 96.26L296.79 97.03L293.41 97.78L290.02 98.49L286.63 99.18L283.23 99.83L279.82 100.46L276.41 101.05L272.99 101.62L269.57 102.15L266.14 102.66L262.71 103.13L259.27 103.57L255.83 103.99L252.38 104.37L248.93 104.73L245.48 105.05L242.02 105.34L238.56 105.6L235.09 105.84L231.63 106.04L228.16 106.21L224.68 106.35L224.65 106.62L224.62 106.89L224.59 107.17L224.56 107.44L224.53 107.72L224.5 107.99L224.47 108.26L224.45 108.54L224.42 108.81L224.4 109.09L224.37 109.36L224.35 109.64L224.32 109.91L224.3 110.18L224.28 110.46L224.26 110.73L224.24 111.01L224.22 111.28L224.2 111.56L224.19 111.83L224.17 112.11L224.15 112.38L224.14 112.66L224.12 112.93L224.11 113.21L224.1 113.48L224.09 113.76L224.08 114.03L224.06 114.31L224.06 114.58L224.05 114.86L224.04 115.13L224.03 115.41L224.02 115.68L224.02 115.96L224.01 116.23L224.01 116.51L224.01 116.78L224 117.06L224 117.33L224 128.28L224.69 127.75L225.39 127.24L226.1 126.74L226.81 126.26L227.54 125.78L228.26 125.32L229 124.87L229.74 124.43L230.49 124.01L231.24 123.59L232 123.19L232.77 122.81L233.54 122.43L234.32 122.07L235.11 121.72L235.9 121.39L236.69 121.06L237.49 120.75L238.29 120.46L239.1 120.17L239.91 119.9L240.73 119.65L241.55 119.4L242.38 119.17L243.21 118.95L244.04 118.75L244.88 118.56L245.72 118.38L246.56 118.22L247.41 118.07L248.26 117.93L249.11 117.81L249.96 117.7L250.82 117.61L251.68 117.53L252.54 117.46L253.4 117.41L254.27 117.37L255.13 117.34L256 117.33L257.89 117.37L259.77 117.47L261.64 117.64L263.48 117.87L265.31 118.16L267.12 118.51L268.91 118.93L270.68 119.4L272.42 119.93L274.14 120.52L275.83 121.17L277.5 121.87L279.14 122.63L280.75 123.44L282.33 124.31L283.87 125.22L285.39 126.19L286.87 127.2L288.31 128.26L289.72 129.37L291.09 130.53L292.42 131.73L293.71 132.98L294.96 134.27L296.17 135.6L297.33 136.98L298.45 138.39L299.52 139.85L300.54 141.34L301.51 142.87L302.43 144.44L303.31 146.04L304.12 147.67L304.89 149.34L305.6 151.04L306.25 152.78L306.84 154.54L307.38 156.33L307.85 158.15L308.27 160L331.73 160L332.15 158.15L332.62 156.33L333.16 154.54L333.75 152.78L334.4 151.04L335.11 149.34L335.88 147.67L336.7 146.04L337.57 144.44L338.49 142.87L339.46 141.34L340.48 139.85L341.55 138.39L342.67 136.98L343.83 135.61L345.04 134.27L346.29 132.98L347.58 131.74L348.91 130.53L350.28 129.38L351.69 128.26L353.13 127.2L354.61 126.19L356.13 125.22L357.67 124.31L359.25 123.44L360.86 122.63L362.5 121.87L364.17 121.17L365.86 120.53L367.58 119.93L369.33 119.4L371.09 118.93L372.88 118.51L374.69 118.16L376.52 117.87L378.36 117.64L380.23 117.47L382.11 117.37L384 117.33L384.87 117.34L385.73 117.37L386.6 117.41L387.46 117.46L388.32 117.53L389.18 117.61L390.04 117.7L390.89 117.81L391.74 117.93L392.59 118.07L393.44 118.22L394.28 118.38L395.12 118.56L395.96 118.75L396.79 118.95L397.62 119.17L398.45 119.4L399.27 119.65L400.09 119.9L400.9 120.17L401.71 120.46L402.51 120.75L403.31 121.06L404.11 121.39L404.9 121.72L405.68 122.07L406.46 122.43L407.23 122.81L408 123.19L408.76 123.59L409.51 124.01L410.26 124.43L411 124.87L411.74 125.32L412.47 125.78L413.19 126.26L413.9 126.74L414.61 127.24L415.31 127.75L416 128.28L416 117.33L416 117.26L416 117.19L416 117.12L416 117.05L415.99 116.98L415.99 116.91L415.99 116.84L415.99 116.77L415.98 116.7L415.98 116.62L415.98 116.55L415.97 116.48L415.97 116.41L415.97 116.34L415.96 116.27L415.96 116.2L415.95 116.13L415.95 116.06L415.94 115.99L415.94 115.92L415.93 115.85L415.92 115.71L415.92 115.64L415.91 115.57L415.91 115.5L415.91 115.43L415.9 115.36L415.9 115.29L415.89 115.22L415.89 115.15L415.88 115.07L415.88 115L415.88 114.93L415.87 114.86L415.87 114.79L415.87 114.72L415.87 114.65L415.86 114.58L415.86 114.51L414.24 113.96L412.62 113.39L411.01 112.8L409.41 112.18L407.82 111.55L406.24 110.9L404.67 110.22L403.11 109.53L401.56 108.82L400.02 108.08L398.49 107.33L396.97 106.55L395.47 105.76L393.97 104.94L392.48 104.11L391.01 103.25L389.55 102.38L388.1 101.49L386.66 100.58L385.23 99.65L383.82 98.7L382.42 97.74L381.03 96.75L379.65 95.75L378.29 94.72L376.94 93.68L375.61 92.62L374.29 91.55L372.98 90.45L371.68 89.34L370.4 88.21L369.14 87.07L367.89 85.9L366.65 84.72L365.43 83.52L364.23 82.31L363.04 81.08L361.86 79.83L360.71 78.56L359.56 77.28L356.34 78.58L353.11 79.86ZM313.98 21.53L311 21.77L308.04 22.1L305.1 22.52L302.19 23.03L299.31 23.62L296.45 24.3L293.62 25.07L290.82 25.92L288.06 26.86L285.33 27.87L282.64 28.97L279.99 30.14L277.37 31.4L274.8 32.73L272.27 34.13L269.79 35.61L267.35 37.17L264.96 38.79L262.62 40.49L260.33 42.26L258.09 44.09L255.91 45.99L253.79 47.96L251.72 50L249.72 52.09L247.77 54.26L245.89 56.48L244.08 58.76L242.33 61.1L240.65 63.5L239.04 65.96L237.5 68.47L236.03 71.04L234.64 73.66L233.33 76.33L232.09 79.06L230.94 81.83L229.87 84.65L231.97 84.51L234.17 84.36L236.48 84.18L238.88 83.99L241.37 83.77L243.96 83.53L246.63 83.27L249.38 82.99L252.21 82.68L255.11 82.34L258.08 81.97L261.12 81.58L264.23 81.16L267.39 80.7L270.61 80.21L273.87 79.7L277.19 79.14L280.55 78.55L283.95 77.93L287.39 77.26L290.85 76.56L294.35 75.82L297.87 75.04L301.42 74.22L304.98 73.35L308.55 72.44L312.13 71.49L315.72 70.48L319.31 69.44L322.9 68.34L326.49 67.19L330.06 65.99L333.62 64.74L337.17 63.44L340.69 62.09L344.19 60.68L347.66 59.21L351.1 57.69L354.5 56.1L357.87 54.46L358.23 54.29L358.6 54.13L358.96 53.99L359.34 53.86L359.71 53.74L360.09 53.64L360.47 53.56L360.85 53.49L361.23 53.43L361.61 53.38L361.99 53.35L362.37 53.34L362.75 53.33L363.13 53.35L363.51 53.37L363.89 53.41L364.26 53.46L364.63 53.52L365 53.6L365.37 53.69L365.74 53.8L366.09 53.91L366.45 54.04L366.8 54.18L367.15 54.34L367.49 54.5L367.82 54.68L368.15 54.87L368.48 55.08L368.79 55.29L369.1 55.52L369.4 55.76L369.7 56.01L369.99 56.27L370.26 56.54L370.53 56.83L370.79 57.12L371.04 57.43L371.28 57.75L371.51 58.08L372.31 59.12L373.13 60.14L373.96 61.16L374.8 62.17L375.65 63.16L376.52 64.14L377.39 65.11L378.28 66.07L379.18 67.02L380.09 67.96L381.01 68.89L381.94 69.8L382.88 70.7L383.84 71.59L384.8 72.47L385.78 73.34L386.76 74.19L387.76 75.03L388.76 75.86L389.78 76.68L390.81 77.48L391.84 78.27L392.89 79.05L393.94 79.82L395.01 80.57L396.08 81.31L397.17 82.04L398.26 82.75L399.36 83.45L400.47 84.14L401.59 84.81L402.72 85.47L403.85 86.12L405 86.75L406.15 87.37L407.31 87.97L408.48 88.56L409.66 89.14L410.85 89.7L412.04 90.25L411.09 87.21L410.05 84.23L408.91 81.29L407.69 78.41L406.38 75.58L404.98 72.8L403.49 70.08L401.93 67.42L400.29 64.82L398.56 62.27L396.77 59.8L394.89 57.38L392.95 55.03L390.93 52.74L388.85 50.53L386.7 48.38L384.48 46.3L382.2 44.3L379.86 42.37L377.46 40.51L375 38.73L372.49 37.03L369.93 35.41L367.31 33.87L364.65 32.41L361.93 31.03L359.17 29.74L356.37 28.53L353.52 27.42L350.64 26.39L347.71 25.45L344.76 24.61L341.76 23.86L338.73 23.2L335.68 22.64L332.59 22.18L329.48 21.81L326.34 21.55L323.18 21.39L320 21.33L316.98 21.39L313.98 21.53Z" id="aaPNuz9GB"></path></defs><g><g><use xlink:href="#b2SBC7ki7A" opacity="1" fill="#595959" fill-opacity="1"></use><g><use xlink:href="#b2SBC7ki7A" opacity="1" fill-opacity="0" stroke="#000000" stroke-width="1" stroke-opacity="0"></use></g></g><g><use xlink:href="#bMHBc2Ks" opacity="1" fill="#000000" fill-opacity="0.27"></use><g><use xlink:href="#bMHBc2Ks" opacity="1" fill-opacity="0" stroke="#000000" stroke-width="1" stroke-opacity="0"></use></g></g><g><use xlink:href="#a36vaYSfgv" opacity="1" fill="#fec9a3" fill-opacity="1"></use><g><use xlink:href="#a36vaYSfgv" opacity="1" fill-opacity="0" stroke="#000000" stroke-width="1" stroke-opacity="0"></use></g></g><g><use xlink:href="#c7nyhKumt" opacity="1" fill="#fabd91" fill-opacity="1"></use><g><use xlink:href="#c7nyhKumt" opacity="1" fill-opacity="0" stroke="#000000" stroke-width="1" stroke-opacity="0"></use></g></g><g><use xlink:href="#bgcAI6N29" opacity="1" fill="#a956bf" fill-opacity="1"></use><g><use xlink:href="#bgcAI6N29" opacity="1" fill-opacity="0" stroke="#000000" stroke-width="1" stroke-opacity="0"></use></g></g><g><use xlink:href="#b4ovpRmWWZ" opacity="1" fill="#a956bf" fill-opacity="1"></use><g><use xlink:href="#b4ovpRmWWZ" opacity="1" fill-opacity="0" stroke="#000000" stroke-width="1" stroke-opacity="0"></use></g></g><g><use xlink:href="#a1ZbgSOXEn" opacity="1" fill="#fec9a3" fill-opacity="1"></use><g><use xlink:href="#a1ZbgSOXEn" opacity="1" fill-opacity="0" stroke="#000000" stroke-width="1" stroke-opacity="0"></use></g></g><g><use xlink:href="#a4t2LpPHEM" opacity="1" fill="#ebab7c" fill-opacity="1"></use><g><use xlink:href="#a4t2LpPHEM" opacity="1" fill-opacity="0" stroke="#000000" stroke-width="1" stroke-opacity="0"></use></g></g><g><use xlink:href="#a1413HeheN" opacity="1" fill="#ebab7c" fill-opacity="1"></use><g><use xlink:href="#a1413HeheN" opacity="1" fill-opacity="0" stroke="#000000" stroke-width="1" stroke-opacity="0"></use></g></g><g><use xlink:href="#d3TQxL7dC" opacity="1" fill="#ebab7c" fill-opacity="1"></use><g><use xlink:href="#d3TQxL7dC" opacity="1" fill-opacity="0" stroke="#000000" stroke-width="1" stroke-opacity="0"></use></g></g><g><use xlink:href="#a3BM8Bc93t" opacity="1" fill="#ffffff" fill-opacity="1"></use><g><use xlink:href="#a3BM8Bc93t" opacity="1" fill-opacity="0" stroke="#000000" stroke-width="1" stroke-opacity="0"></use></g></g><g><use xlink:href="#bfyXYYJWG" opacity="1" fill="#fec9a3" fill-opacity="1"></use><g><use xlink:href="#bfyXYYJWG" opacity="1" fill-opacity="0" stroke="#000000" stroke-width="1" stroke-opacity="0"></use></g></g><g><use xlink:href="#b3gAvnX06" opacity="1" fill="#ebab7c" fill-opacity="1"></use><g><use xlink:href="#b3gAvnX06" opacity="1" fill-opacity="0" stroke="#000000" stroke-width="1" stroke-opacity="0"></use></g></g><g><use xlink:href="#b2OxUCPvlr" opacity="1" fill="#ebab7c" fill-opacity="1"></use><g><use xlink:href="#b2OxUCPvlr" opacity="1" fill-opacity="0" stroke="#000000" stroke-width="1" stroke-opacity="0"></use></g></g><g><use xlink:href="#a1DNrmRCV" opacity="1" fill="#ebab7c" fill-opacity="1"></use><g><use xlink:href="#a1DNrmRCV" opacity="1" fill-opacity="0" stroke="#000000" stroke-width="1" stroke-opacity="0"></use></g></g><g><use xlink:href="#e9hbF9ndR" opacity="1" fill="#f0e4d6" fill-opacity="1"></use><g><use xlink:href="#e9hbF9ndR" opacity="1" fill-opacity="0" stroke="#000000" stroke-width="1" stroke-opacity="0"></use></g></g><g><use xlink:href="#a37bqpbLMp" opacity="1" fill="#f0e4d6" fill-opacity="1"></use><g><use xlink:href="#a37bqpbLMp" opacity="1" fill-opacity="0" stroke="#000000" stroke-width="1" stroke-opacity="0"></use></g></g><g><use xlink:href="#csjws904I" opacity="1" fill="#f0e4d6" fill-opacity="1"></use><g><use xlink:href="#csjws904I" opacity="1" fill-opacity="0" stroke="#000000" stroke-width="1" stroke-opacity="0"></use></g></g><g><use xlink:href="#j2BIfSWPS4" opacity="1" fill="#91562f" fill-opacity="1"></use><g><use xlink:href="#j2BIfSWPS4" opacity="1" fill-opacity="0" stroke="#000000" stroke-width="1" stroke-opacity="0"></use></g></g><g><use xlink:href="#g3fAYPmTo" opacity="1" fill="#000000" fill-opacity="1"></use><g><use xlink:href="#g3fAYPmTo" opacity="1" fill-opacity="0" stroke="#000000" stroke-width="1" stroke-opacity="0"></use></g></g><g><use xlink:href="#aaPNuz9GB" opacity="1" fill="#000000" fill-opacity="1"></use><g><use xlink:href="#aaPNuz9GB" opacity="1" fill-opacity="0" stroke="#000000" stroke-width="1" stroke-opacity="0"></use></g></g></g></svg>