<?xml version="1.0" encoding="UTF-8" standalone="no"?>
<!DOCTYPE svg PUBLIC "-//W3C//DTD SVG 1.1//EN" "http://www.w3.org/Graphics/SVG/1.1/DTD/svg11.dtd">
<svg version="1.1" xmlns="http://www.w3.org/2000/svg" xmlns:xlink="http://www.w3.org/1999/xlink" preserveAspectRatio="xMidYMid meet" viewBox="0 0 640 640" width="640" height="640"><defs><path d="M127.35 169.01C124.15 172.36 121.8 176.43 120.48 180.87C120.45 180.84 120.29 180.68 120.01 180.4L92.17 294.49L64.45 408.24L31.59 542.92L10.79 628.22L133.95 581.62L290.6 522.35L415.58 475.06C415.49 474.97 415.44 474.92 415.43 474.91C419.61 473.57 423.44 471.31 426.62 468.29C455.77 439.14 412.41 348.51 329.76 265.87C247.12 183.24 156.5 139.87 127.35 169.01Z" id="af4wjQ6oH"></path><path d="M127.35 168.98C156.5 139.83 247.12 183.19 329.76 265.84C412.41 348.48 455.77 439.1 426.62 468.25C397.48 497.4 306.85 454.03 224.21 371.39C141.57 288.75 98.2 198.12 127.35 168.98Z" id="aiNywtsaU"></path><path d="M529.51 393.84C475.38 373.56 416.86 367.88 359.84 377.36C356.04 377.99 325.57 383.07 321.76 383.7C315.93 384.53 310.53 380.48 309.7 374.65C308.89 369.02 312.65 363.75 318.24 362.67C322.05 362.03 352.53 356.92 356.34 356.28C417.05 346.19 479.35 352.24 536.99 373.82C542.53 375.81 545.41 381.92 543.42 387.46C541.88 391.74 537.8 394.57 533.25 394.51C531.97 394.51 530.71 394.28 529.51 393.84Z" id="i1ed38cQFq"></path><path d="M330.72 319.81C330.75 315.75 333.08 312.05 336.74 310.28C359.13 299.62 538.26 214.32 560.65 203.65C565.97 201.12 572.33 203.38 574.86 208.7C577.4 214.02 575.14 220.38 569.82 222.91C569.82 222.91 569.82 222.91 569.82 222.91C435.47 286.89 360.84 322.43 345.91 329.54C344.47 330.21 342.91 330.55 341.32 330.54C335.43 330.5 330.69 325.7 330.72 319.81Z" id="b3h0SRCac"></path><path d="M212.54 308.39C207.11 306.12 204.54 299.88 206.8 294.45C206.8 294.45 206.8 294.45 206.8 294.45C208.36 290.73 220.76 260.96 222.31 257.24C246.16 200.25 251.72 137.25 238.23 76.95C236.84 71.23 240.36 65.47 246.09 64.08C251.81 62.7 257.57 66.22 258.96 71.94C258.99 72.07 259.01 72.2 259.04 72.32C273.5 136.91 267.54 204.4 241.98 265.45C240.43 269.17 228.02 298.94 226.47 302.66C224.81 306.62 220.94 309.21 216.64 309.21C216.64 309.21 216.64 309.21 216.64 309.21C214.77 309.03 213.4 308.76 212.54 308.39Z" id="ctiRTMBYg"></path><path d="M586.56 394.51C574.78 394.51 565.24 404.06 565.24 415.84C565.24 427.62 574.78 437.16 586.56 437.16C598.34 437.16 607.89 427.62 607.89 415.84C607.89 404.06 598.34 394.51 586.56 394.51Z" id="c6LCHV0lG"></path><path d="M330.66 95.96C318.88 95.96 309.34 105.51 309.34 117.29C309.34 129.07 318.88 138.61 330.66 138.61C342.44 138.61 351.99 129.07 351.99 117.29C351.99 105.51 342.44 95.96 330.66 95.96Z" id="b2rL7xfaMw"></path><path d="M213.37 21.33C213.37 9.55 222.92 0 234.7 0C246.48 0 256.02 9.55 256.02 21.33C256.02 33.1 246.48 42.65 234.7 42.65C222.92 42.65 213.37 33.1 213.37 21.33Z" id="aa2cvLmcG"></path><path d="M522.59 74.64C522.59 73.57 522.59 65.04 522.59 63.98C522.59 58.09 527.36 53.31 533.25 53.31C539.14 53.31 543.91 58.09 543.91 63.98C543.91 65.04 543.91 73.57 543.91 74.64C543.91 80.53 539.14 85.3 533.25 85.3C527.36 85.3 522.59 80.53 522.59 74.64Z" id="l2agub1KnC"></path><path d="M522.59 21.33C522.59 20.26 522.59 11.73 522.59 10.66C522.59 4.77 527.36 0 533.25 0C539.14 0 543.91 4.77 543.91 10.66C543.91 11.73 543.91 20.26 543.91 21.33C543.91 27.21 539.14 31.99 533.25 31.99C527.36 31.99 522.59 27.21 522.59 21.33Z" id="axsek0wE0"></path><path d="M554.57 53.31C548.68 53.31 543.91 48.54 543.91 42.65C543.91 36.76 548.68 31.99 554.57 31.99C555.64 31.99 564.17 31.99 565.24 31.99C571.12 31.99 575.9 36.76 575.9 42.65C575.9 48.54 571.12 53.31 565.24 53.31C563.1 53.31 555.64 53.31 554.57 53.31Z" id="b33L8ZiVpV"></path><path d="M501.26 53.31C495.37 53.31 490.6 48.54 490.6 42.65C490.6 36.76 495.37 31.99 501.26 31.99C502.33 31.99 510.86 31.99 511.92 31.99C517.81 31.99 522.59 36.76 522.59 42.65C522.59 48.54 517.81 53.31 511.92 53.31C509.79 53.31 502.33 53.31 501.26 53.31Z" id="fhfSC1Pth"></path><path d="M90.92 293.59C89.07 301.18 79.83 338.92 63.19 406.84C65.31 423.95 66.44 433.37 66.58 435.11C71.23 490.55 95.05 542.64 133.94 582.43C149.6 576.51 274.94 529.13 290.6 523.21C289.75 522.94 288.86 522.75 288.01 522.46C193.01 486.84 121.21 407.34 95.42 309.21C94.23 304.65 91.91 298.28 90.92 293.59Z" id="bneY4cxh2"></path><path d="M458.61 181.26L405.07 181.26L405.07 127.73L458.61 127.73L458.61 181.26Z" id="aEu05yoh0"></path><path d="M256.03 309.21C256.03 306.19 257.31 303.31 259.55 301.29C270.21 291.69 355.51 214.92 366.18 205.33C370.63 201.47 377.36 201.96 381.22 206.41C384.96 210.74 384.62 217.26 380.44 221.17C369.78 230.77 284.48 307.54 273.82 317.14C271.86 318.9 269.32 319.87 266.69 319.88C266.69 319.88 266.69 319.88 266.69 319.88C259.58 316.69 256.02 313.14 256.03 309.21Z" id="c3VSO3auPi"></path><path d="M565.24 266.56C565.24 265.5 565.24 256.97 565.24 255.9C565.24 250.01 570.01 245.24 575.9 245.24C581.79 245.24 586.56 250.01 586.56 255.9C586.56 256.97 586.56 265.5 586.56 266.56C586.56 272.45 581.79 277.23 575.9 277.23C570.01 277.23 565.24 272.45 565.24 266.56Z" id="b1mlSvj0o7"></path><path d="M606.06 258.48C605.31 257.73 599.28 251.7 598.52 250.94C594.43 246.71 594.55 239.96 598.79 235.87C602.92 231.87 609.47 231.87 613.6 235.87C614.35 236.62 620.39 242.65 621.14 243.4C625.3 247.57 625.3 254.32 621.14 258.48C619.14 260.48 616.43 261.6 613.6 261.6C613.6 261.6 613.6 261.6 613.6 261.6C609.9 260.86 607.39 259.82 606.06 258.48Z" id="e1GWnaaY4c"></path><path d="M360.81 469.27C354 471.84 319.96 484.73 258.67 507.92L101.96 567.14L17.93 598.93L10.79 628.22L133.95 581.62L290.6 522.35L405.3 478.95L404.23 477.88C384.41 476.1 369.94 473.23 360.81 469.27Z" id="cFZNUzj2W"></path><path d="M618.55 223.91C612.66 223.91 607.89 219.14 607.89 213.25C607.89 207.36 612.66 202.59 618.55 202.59C619.61 202.59 628.14 202.59 629.21 202.59C635.1 202.59 639.87 207.36 639.87 213.25C639.87 219.14 635.1 223.91 629.21 223.91C627.08 223.91 619.61 223.91 618.55 223.91Z" id="b5dmaNuJv"></path><path d="M595.4 183.09C595.4 180.27 596.53 177.56 598.52 175.56C599.28 174.8 605.31 168.77 606.06 168.02C610.3 163.93 617.05 164.05 621.14 168.28C625.13 172.41 625.13 178.96 621.14 183.1C620.39 183.85 614.35 189.88 613.6 190.64C611.6 192.63 608.89 193.76 606.06 193.76C606.06 193.76 606.06 193.76 606.06 193.76C598.96 190.58 595.4 187.02 595.4 183.09Z" id="ahIMYV2n5"></path><path d="M565.24 170.6C565.24 169.53 565.24 161 565.24 159.94C565.24 154.05 570.01 149.28 575.9 149.28C581.79 149.28 586.56 154.05 586.56 159.94C586.56 161 586.56 169.53 586.56 170.6C586.56 176.49 581.79 181.26 575.9 181.26C570.01 181.26 565.24 176.49 565.24 170.6Z" id="g8XTmtZDiM"></path><path d="M538.2 190.64C537.44 189.88 531.41 183.85 530.66 183.1C526.57 178.86 526.68 172.11 530.92 168.02C535.05 164.03 541.6 164.03 545.73 168.02C546.49 168.77 552.52 174.8 553.27 175.56C557.44 179.72 557.43 186.47 553.27 190.64C551.27 192.64 548.56 193.76 545.73 193.76C545.73 193.76 545.73 193.76 545.73 193.76C542.04 193.01 539.53 191.97 538.2 190.64Z" id="e3QxBGRYVz"></path><path d="M80.57 44.05L117.41 49.4L90.75 75.38L97.04 112.07L64.1 94.75L31.15 112.07L37.44 75.38L10.79 49.4L47.62 44.05L64.1 10.66L80.57 44.05Z" id="j3mXQ2tdGI"></path><path d="M491.49 458.55L491.92 458.58L492.36 458.64L495.63 459.22L498.87 459.87L502.1 460.59L505.31 461.37L508.49 462.21L511.66 463.12L514.79 464.09L517.91 465.12L521 466.22L524.06 467.38L527.09 468.59L530.1 469.87L533.08 471.21L536.02 472.61L538.94 474.06L541.83 475.57L544.68 477.14L547.5 478.77L550.29 480.46L553.04 482.2L555.75 483.99L558.43 485.84L561.07 487.75L563.68 489.7L566.24 491.71L568.77 493.78L571.25 495.89L573.69 498.06L576.09 500.28L578.44 502.55L580.76 504.86L583.02 507.23L585.24 509.65L587.41 512.11L589.54 514.62L591.62 517.18L593.64 519.78L595.62 522.43L597.55 525.13L599.42 527.87L603.81 534.46L604.61 534.96L605.41 535.49L606.21 536.05L607.01 536.64L607.81 537.26L608.61 537.91L609.42 538.59L610.22 539.29L611.03 540.03L611.83 540.8L612.64 541.59L613.45 542.42L614.26 543.28L615.07 544.16L615.88 545.08L616.7 546.02L617.51 546.99L618.32 548L619.14 549.03L619.96 550.09L620.77 551.18L621.59 552.31L622.41 553.46L623.23 554.64L624.06 555.85L624.88 557.09L625.7 558.36L626.53 559.66L627.35 560.98L628.18 562.34L629.01 563.73L629.84 565.15L630.67 566.59L631.5 568.07L632.33 569.57L633.16 571.11L634 572.67L634.83 574.27L635.67 575.89L636.5 577.55L636.9 578.98L637.26 580.41L637.6 581.85L637.91 583.29L638.19 584.74L638.44 586.19L638.65 587.64L638.85 589.1L639.01 590.55L639.14 592.01L639.24 593.47L639.32 594.93L639.36 596.39L639.38 597.85L639.37 599.31L639.33 600.76L639.26 602.22L639.17 603.67L639.04 605.13L638.89 606.57L638.7 608.02L638.49 609.46L638.25 610.9L637.99 612.33L637.69 613.76L637.37 615.18L637.01 616.6L636.63 618.01L636.23 619.41L635.79 620.81L635.33 622.19L634.83 623.58L634.32 624.95L633.77 626.31L633.19 627.66L632.59 629.01L631.96 630.34L631.3 631.67L630.62 632.98L629.9 634.28L629.89 634.31L629.88 634.33L629.86 634.36L629.84 634.39L629.84 634.41L629.83 634.42L629.82 634.44L629.8 634.47L629.78 634.51L629.78 634.52L629.77 634.53L629.76 634.55L629.74 634.58L629.72 634.62L629.71 634.63L629.69 634.67L629.67 634.7L629.66 634.71L629.64 634.75L629.63 634.78L629.4 635.15L629.15 635.51L628.89 635.86L628.63 636.19L628.35 636.51L628.05 636.82L627.75 637.12L627.44 637.4L627.12 637.66L626.79 637.92L626.45 638.16L626.1 638.38L625.75 638.59L625.39 638.79L625.02 638.97L624.65 639.14L624.27 639.3L623.88 639.43L623.49 639.56L623.1 639.67L622.7 639.76L622.3 639.84L621.89 639.9L621.48 639.95L621.07 639.98L620.66 640L620.25 640L619.84 639.98L619.43 639.95L619.01 639.9L618.6 639.84L618.19 639.76L617.79 639.66L617.38 639.55L616.98 639.42L616.58 639.27L616.18 639.1L615.79 638.92L615.4 638.72L615.02 638.51L614.64 638.27L614.28 638.03L613.94 637.77L613.6 637.5L613.28 637.22L612.97 636.93L612.68 636.63L612.4 636.32L612.13 636L611.88 635.67L611.64 635.33L611.41 634.98L611.2 634.63L611 634.27L610.82 633.9L610.65 633.52L610.5 633.14L610.36 632.76L610.24 632.37L610.13 631.97L610.03 631.58L609.95 631.17L609.89 630.77L609.84 630.36L609.81 629.95L609.8 629.54L609.8 629.13L609.81 628.72L609.84 628.3L609.89 627.89L609.95 627.48L610.04 627.07L610.13 626.66L610.25 626.26L610.38 625.85L610.52 625.45L610.69 625.06L610.87 624.67L611.07 624.28L611.29 623.9L612.01 622.58L612.69 621.26L613.34 619.92L613.94 618.57L614.5 617.2L615.02 615.83L615.5 614.44L615.94 613.05L616.34 611.64L616.7 610.23L617.02 608.81L617.3 607.39L617.54 605.96L617.74 604.52L617.9 603.09L618.02 601.64L618.1 600.2L618.13 598.76L618.13 597.32L618.09 595.87L618.01 594.43L617.89 593L617.73 591.56L617.53 590.13L617.29 588.7L617.01 587.29L616.69 585.87L616.33 584.47L615.94 583.07L615.5 581.68L615.02 580.31L614.5 578.94L613.95 577.59L613.35 576.25L612.72 574.92L612.04 573.61L611.33 572.31L610.58 571.03L609.78 569.77L608.95 568.53L608.94 569.24L608.91 569.95L608.88 570.67L608.84 571.38L608.79 572.09L608.73 572.8L608.66 573.51L608.59 574.22L608.51 574.93L608.42 575.63L608.32 576.34L608.21 577.04L608.1 577.74L607.98 578.44L607.85 579.14L607.71 579.84L607.56 580.54L607.41 581.23L607.25 581.92L607.07 582.61L606.9 583.3L606.71 583.98L606.52 584.67L606.32 585.35L606.11 586.03L605.89 586.71L605.66 587.38L605.43 588.05L605.19 588.72L604.94 589.39L604.68 590.05L604.42 590.71L604.15 591.37L603.87 592.03L603.58 592.68L603.29 593.33L602.98 593.98L602.67 594.62L602.36 595.26L602.03 595.9L601.14 597.41L600.2 598.88L599.21 600.3L598.17 601.66L597.09 602.98L595.95 604.24L594.78 605.45L593.56 606.61L592.31 607.71L591.01 608.76L589.68 609.75L588.32 610.69L586.93 611.57L585.5 612.4L584.05 613.17L582.57 613.88L581.06 614.53L579.54 615.13L577.99 615.66L576.42 616.14L574.84 616.55L573.24 616.91L571.63 617.2L570.01 617.44L568.37 617.61L566.73 617.72L565.09 617.76L563.44 617.74L561.78 617.66L560.13 617.51L558.48 617.3L556.83 617.02L555.19 616.67L553.55 616.26L551.93 615.78L550.31 615.23L548.71 614.61L547.12 613.92L545.55 613.17L544 612.34L542.48 611.45L541.02 610.51L539.6 609.52L538.23 608.48L536.92 607.4L535.66 606.26L534.45 605.09L533.29 603.87L532.19 602.62L531.14 601.32L530.15 599.99L529.21 598.63L528.33 597.24L527.5 595.81L526.73 594.36L526.02 592.88L525.37 591.37L524.77 589.85L524.24 588.3L523.76 586.73L523.34 585.15L522.99 583.55L522.69 581.94L522.46 580.32L522.29 578.68L522.18 577.04L522.14 575.4L522.16 573.75L522.24 572.09L522.39 570.44L522.6 568.79L522.88 567.14L523.23 565.5L523.64 563.87L524.12 562.24L524.67 560.62L525.29 559.02L525.97 557.44L526.73 555.86L527.55 554.31L528.27 553.16L529 552.03L529.76 550.92L530.54 549.83L531.35 548.75L532.17 547.7L533.01 546.66L533.88 545.65L534.76 544.65L535.67 543.68L536.59 542.72L537.54 541.79L538.5 540.87L539.48 539.98L540.48 539.11L541.5 538.26L542.53 537.43L543.58 536.62L544.65 535.84L545.73 535.08L546.83 534.34L547.94 533.63L549.07 532.94L550.21 532.27L551.37 531.63L552.54 531.01L553.73 530.41L554.93 529.84L556.14 529.3L557.36 528.78L558.6 528.28L559.85 527.81L561.11 527.37L562.38 526.95L563.66 526.57L564.95 526.2L566.25 525.87L567.56 525.56L568.88 525.28L570.2 525.02L568.61 523.24L566.98 521.48L565.33 519.76L563.64 518.07L561.94 516.4L560.2 514.77L558.44 513.17L556.66 511.6L554.85 510.07L553.01 508.56L551.15 507.09L549.27 505.65L547.37 504.25L545.44 502.88L543.49 501.54L541.52 500.23L539.52 498.96L537.51 497.72L535.47 496.52L533.42 495.35L531.35 494.22L529.25 493.12L527.14 492.06L525.01 491.03L522.86 490.04L520.7 489.08L518.52 488.17L516.32 487.29L514.11 486.44L511.88 485.63L509.63 484.86L507.38 484.13L505.1 483.44L502.82 482.78L500.52 482.16L498.21 481.59L495.88 481.05L493.55 480.55L491.2 480.08L488.84 479.66L488.42 479.58L488.01 479.47L487.61 479.35L487.22 479.22L486.83 479.07L486.46 478.91L486.09 478.74L485.73 478.55L485.38 478.35L485.03 478.13L484.7 477.91L484.38 477.67L484.06 477.42L483.76 477.16L483.47 476.89L483.19 476.61L482.92 476.32L482.66 476.01L482.41 475.7L482.17 475.39L481.95 475.06L481.73 474.72L481.53 474.38L481.35 474.03L481.17 473.67L481.01 473.3L480.86 472.93L480.73 472.56L480.61 472.17L480.51 471.78L480.41 471.39L480.34 470.99L480.28 470.59L480.23 470.18L480.2 469.77L480.19 469.36L480.19 468.95L480.21 468.53L480.24 468.11L480.3 467.69L480.37 467.25L480.45 466.83L480.56 466.41L480.68 465.99L480.81 465.59L480.96 465.19L481.13 464.81L481.31 464.43L481.5 464.06L481.71 463.7L481.93 463.35L482.17 463L482.41 462.67L482.67 462.35L482.94 462.04L483.22 461.74L483.51 461.46L483.82 461.18L484.13 460.92L484.45 460.66L484.78 460.42L485.13 460.2L485.47 459.98L485.83 459.78L486.2 459.6L486.57 459.43L486.95 459.27L487.34 459.12L487.73 458.99L488.13 458.88L488.53 458.78L488.94 458.7L489.36 458.63L489.78 458.58L490.2 458.55L490.63 458.53L491.05 458.53L491.49 458.55ZM575.07 545.92L573.83 546.1L572.61 546.32L571.4 546.58L570.2 546.87L569.01 547.2L567.84 547.57L566.68 547.97L565.53 548.4L564.4 548.87L563.29 549.37L562.19 549.91L561.12 550.48L560.06 551.08L559.01 551.71L557.99 552.38L556.99 553.07L556.01 553.8L555.06 554.56L554.12 555.34L553.21 556.15L552.32 557L551.46 557.87L550.63 558.77L549.82 559.69L549.04 560.64L548.28 561.62L547.56 562.63L546.86 563.65L546.19 564.71L546.18 564.73L546.16 564.77L546.14 564.8L546.12 564.84L546.11 564.86L546.1 564.88L545.54 565.96L545.05 567.05L544.63 568.16L544.27 569.27L543.98 570.4L543.75 571.53L543.58 572.67L543.48 573.81L543.44 574.95L543.46 576.09L543.54 577.22L543.68 578.34L543.87 579.46L544.13 580.56L544.44 581.64L544.81 582.71L545.24 583.75L545.72 584.78L546.26 585.78L546.85 586.75L547.49 587.69L548.18 588.6L548.93 589.48L549.73 590.31L550.58 591.11L551.48 591.87L552.42 592.58L553.42 593.24L554.46 593.86L555.54 594.41L556.63 594.9L557.74 595.32L558.85 595.68L559.98 595.97L561.12 596.2L562.25 596.37L563.39 596.47L564.53 596.51L565.67 596.49L566.8 596.42L567.92 596.28L569.04 596.08L570.14 595.82L571.22 595.51L572.29 595.14L573.34 594.71L574.36 594.23L575.36 593.7L576.33 593.11L577.27 592.46L578.18 591.77L579.06 591.02L579.89 590.22L580.69 589.37L581.45 588.48L582.16 587.53L582.82 586.53L583.44 585.49L584.08 584.26L584.67 582.97L585.21 581.61L585.7 580.2L586.14 578.75L586.53 577.25L586.87 575.73L587.15 574.17L587.39 572.6L587.56 571.01L587.69 569.42L587.76 567.82L587.78 566.23L587.75 564.66L587.65 563.11L587.51 561.58L587.31 560.08L587.05 558.63L586.73 557.22L586.36 555.87L585.93 554.57L585.45 553.34L584.9 552.19L584.3 551.11L583.64 550.12L582.92 549.22L582.14 548.43L581.3 547.74L580.4 547.16L580.23 547.07L580.06 546.99L579.88 546.9L579.71 546.83L579.53 546.75L579.36 546.68L579.18 546.61L579 546.55L578.82 546.48L578.64 546.42L578.46 546.37L578.27 546.31L578.09 546.27L577.9 546.22L577.72 546.18L577.53 546.14L577.35 546.1L577.16 546.07L576.97 546.04L576.78 546.01L576.59 545.99L576.4 545.97L576.21 545.95L576.02 545.94L575.83 545.93L575.64 545.92L575.45 545.92L575.26 545.92L575.07 545.92Z" id="a7TUerudi"></path><path d="M433.48 477.39C444.06 466.83 453.15 445.04 436.4 401.36C434.4 395.82 428.29 392.95 422.76 394.94C417.21 396.94 414.34 403.05 416.34 408.59C416.39 408.72 416.44 408.86 416.49 408.99C426.22 434.37 426.92 453.78 418.4 462.31C408.08 472.61 382.38 469.39 349.63 453.71C305.77 430.95 265.91 401.2 231.61 365.64C148.08 282.11 113.61 200.15 134.93 178.83C141.74 173.46 150.58 171.4 159.06 173.2C164.9 173.92 170.22 169.77 170.94 163.92C171.66 158.08 167.51 152.76 161.66 152.04C161.48 152.01 161.3 152 161.12 151.98C146.29 149.36 131.08 153.68 119.85 163.71C80.8 202.82 140.51 304.7 216.57 380.73C252.58 417.99 294.43 449.14 340.46 472.95C348.8 476.94 357.39 480.38 366.19 483.24C358.61 486.1 297.96 509.04 290.38 511.91C199.34 477.19 130.61 400.72 105.77 306.5C103.21 296.75 101.12 286.78 99.55 276.86C98.8 271.02 93.46 266.89 87.62 267.64C81.78 268.38 77.65 273.72 78.4 279.56C78.42 279.77 78.45 279.97 78.49 280.17C80.17 290.83 82.41 301.49 85.15 311.92C109.69 404.94 174.35 482.23 261.58 522.8C249.11 527.52 149.35 565.27 136.88 569.98C136.31 569.03 135.59 568.17 134.75 567.45C103.06 542.01 83.18 504.69 79.74 464.2C79.24 458.21 75.26 410.28 74.76 404.29C74.37 398.48 69.34 394.1 63.54 394.49C63.44 394.49 63.34 394.5 63.24 394.51C57.38 395 53.01 400.15 53.5 406.02C54 412.01 57.99 459.96 58.49 465.95C62.25 509.23 82.43 549.42 114.9 578.28C108.98 580.52 79.33 591.75 25.97 611.95C35.56 572.57 40.9 550.69 41.96 546.31C43.36 540.59 39.85 534.82 34.13 533.42C28.4 532.03 22.63 535.54 21.23 541.26C19.15 549.79 2.51 618.03 0.43 626.56C-0.96 632.28 2.54 638.05 8.26 639.45C9.09 639.65 9.94 639.75 10.79 639.75C12.07 639.75 13.35 639.52 14.56 639.07C54.01 624.14 369.62 504.72 409.07 489.79C409.7 489.49 410.3 489.12 410.85 488.68C419.39 487.38 427.3 483.43 433.48 477.39Z" id="cd53r6sr2"></path><path d="M318.27 362.72C312.44 363.53 308.37 368.91 309.18 374.75C309.99 380.58 315.37 384.65 321.21 383.84C321.4 383.81 321.59 383.78 321.78 383.74C325.59 383.11 356.06 378.03 359.87 377.4C416.89 367.92 475.4 373.61 529.54 393.88C530.73 394.31 531.98 394.52 533.25 394.51C539.14 394.52 543.92 389.76 543.93 383.87C543.94 379.41 541.17 375.42 536.99 373.86C479.36 352.29 417.07 346.24 356.36 356.32C356.36 356.32 356.36 356.32 356.36 356.32C333.51 360.16 320.81 362.29 318.27 362.72Z" id="cweJQInLo"></path><path d="M345.93 329.5C368.32 318.84 547.45 233.54 569.84 222.88C575.13 220.29 577.32 213.9 574.73 208.61C572.19 203.41 565.94 201.19 560.68 203.62C538.29 214.28 359.16 299.58 336.77 310.25C331.45 312.78 329.19 319.14 331.73 324.46C331.73 324.46 331.73 324.46 331.73 324.46C334.26 329.77 340.61 332.03 345.93 329.5Z" id="a2a3elIVg1"></path><path d="M216.67 309.21C220.97 309.21 224.85 306.63 226.51 302.66C228.06 298.94 240.46 269.21 242.01 265.5C267.57 204.44 273.54 136.96 259.07 72.37C257.9 66.6 252.27 62.87 246.5 64.04C240.73 65.21 237 70.84 238.17 76.61C238.2 76.74 238.23 76.87 238.26 76.99C251.76 137.29 246.21 200.29 222.35 257.29C220.8 261.01 208.39 290.77 206.84 294.49C204.6 299.91 207.16 306.12 212.57 308.39C212.57 308.39 212.57 308.39 212.57 308.39C214.37 308.94 215.73 309.21 216.67 309.21Z" id="ch6pCKvYU"></path><path d="M589.18 383.96L590.47 384.09L591.75 384.27L593.01 384.5L594.25 384.78L595.47 385.11L596.67 385.48L597.85 385.9L599.01 386.36L600.15 386.87L601.26 387.42L602.35 388.01L603.41 388.64L604.45 389.31L605.45 390.02L606.43 390.77L607.38 391.55L608.29 392.37L609.18 393.22L610.03 394.1L610.85 395.02L611.63 395.97L612.38 396.95L613.09 397.95L613.76 398.99L614.39 400.05L614.98 401.14L615.53 402.25L616.03 403.39L616.5 404.55L616.92 405.73L617.29 406.93L617.62 408.15L617.9 409.39L618.13 410.65L618.31 411.92L618.44 413.21L618.52 414.52L618.55 415.84L618.52 417.16L618.44 418.46L618.31 419.75L618.13 421.03L617.9 422.28L617.62 423.53L617.29 424.75L616.92 425.95L616.5 427.13L616.03 428.29L615.53 429.43L614.98 430.54L614.39 431.63L613.76 432.69L613.09 433.72L612.38 434.73L611.63 435.71L610.85 436.66L610.03 437.57L609.18 438.46L608.29 439.31L607.38 440.13L606.43 440.91L605.45 441.65L604.45 442.36L603.41 443.03L602.35 443.66L601.26 444.26L600.15 444.8L599.01 445.31L597.85 445.78L596.67 446.19L595.47 446.57L594.25 446.9L593.01 447.18L591.75 447.41L590.47 447.59L589.18 447.72L587.88 447.8L586.56 447.83L585.24 447.8L583.94 447.72L582.65 447.59L581.37 447.41L580.11 447.18L578.87 446.9L577.65 446.57L576.45 446.19L575.27 445.78L574.11 445.31L572.97 444.8L571.86 444.26L570.77 443.66L569.71 443.03L568.68 442.36L567.67 441.65L566.69 440.91L565.74 440.13L564.83 439.31L563.94 438.46L563.09 437.57L562.27 436.66L561.49 435.71L560.74 434.73L560.04 433.72L559.37 432.69L558.73 431.63L558.14 430.54L557.59 429.43L557.09 428.29L556.62 427.13L556.2 425.95L555.83 424.75L555.5 423.53L555.22 422.28L554.99 421.03L554.81 419.75L554.68 418.46L554.6 417.16L554.57 415.84L554.6 414.52L554.68 413.21L554.81 411.92L554.99 410.65L555.22 409.39L555.5 408.15L555.83 406.93L556.2 405.73L556.62 404.55L557.09 403.39L557.59 402.25L558.14 401.14L558.73 400.05L559.37 398.99L560.04 397.95L560.74 396.95L561.49 395.97L562.27 395.02L563.09 394.1L563.94 393.22L564.83 392.37L565.74 391.55L566.69 390.77L567.67 390.02L568.68 389.31L569.71 388.64L570.77 388.01L571.86 387.42L572.97 386.87L574.11 386.36L575.27 385.9L576.45 385.48L577.65 385.11L578.87 384.78L580.11 384.5L581.37 384.27L582.65 384.09L583.94 383.96L585.24 383.88L586.56 383.85L587.88 383.88L589.18 383.96ZM583.94 405.5L582.71 405.89L581.55 406.42L580.47 407.09L579.48 407.87L578.59 408.76L577.81 409.75L577.15 410.83L576.62 411.98L576.22 413.21L575.98 414.5L575.9 415.84L575.98 417.18L576.22 418.46L576.62 419.69L577.15 420.85L577.81 421.93L578.59 422.92L579.48 423.81L580.47 424.59L581.55 425.25L582.71 425.78L583.94 426.17L585.22 426.42L586.56 426.5L587.9 426.42L589.19 426.17L590.41 425.78L591.57 425.25L592.65 424.59L593.64 423.81L594.53 422.92L595.31 421.93L595.97 420.85L596.51 419.69L596.9 418.46L597.14 417.18L597.22 415.84L597.14 414.5L596.9 413.21L596.51 411.98L595.97 410.83L595.31 409.75L594.53 408.76L593.64 407.87L592.65 407.09L591.57 406.42L590.41 405.89L589.19 405.5L587.9 405.26L586.56 405.18L585.22 405.26L583.94 405.5Z" id="d2LerwBQV0"></path><path d="M333.28 85.41L334.57 85.54L335.85 85.72L337.11 85.95L338.35 86.23L339.57 86.56L340.77 86.93L341.95 87.35L343.11 87.81L344.25 88.32L345.36 88.87L346.45 89.46L347.51 90.09L348.55 90.76L349.55 91.47L350.53 92.22L351.48 93L352.39 93.82L353.28 94.67L354.13 95.55L354.95 96.47L355.73 97.42L356.48 98.4L357.19 99.4L357.86 100.44L358.49 101.5L359.08 102.59L359.63 103.7L360.13 104.84L360.6 106L361.02 107.18L361.39 108.38L361.72 109.6L362 110.84L362.23 112.1L362.41 113.37L362.54 114.66L362.62 115.97L362.65 117.29L362.62 118.61L362.54 119.91L362.41 121.2L362.23 122.48L362 123.73L361.72 124.97L361.39 126.2L361.02 127.4L360.6 128.58L360.13 129.74L359.63 130.88L359.08 131.99L358.49 133.08L357.86 134.14L357.19 135.17L356.48 136.18L355.73 137.16L354.95 138.1L354.13 139.02L353.28 139.91L352.39 140.76L351.48 141.58L350.53 142.36L349.55 143.1L348.55 143.81L347.51 144.48L346.45 145.11L345.36 145.7L344.25 146.25L343.11 146.76L341.95 147.23L340.77 147.64L339.57 148.02L338.35 148.35L337.11 148.63L335.85 148.86L334.57 149.04L333.28 149.17L331.98 149.25L330.66 149.28L329.34 149.25L328.04 149.17L326.75 149.04L325.47 148.86L324.21 148.63L322.97 148.35L321.75 148.02L320.55 147.64L319.37 147.23L318.21 146.76L317.07 146.25L315.96 145.7L314.87 145.11L313.81 144.48L312.78 143.81L311.77 143.1L310.79 142.36L309.84 141.58L308.93 140.76L308.04 139.91L307.19 139.02L306.37 138.1L305.59 137.16L304.84 136.18L304.14 135.17L303.47 134.14L302.83 133.08L302.24 131.99L301.69 130.88L301.19 129.74L300.72 128.58L300.3 127.4L299.93 126.2L299.6 124.97L299.32 123.73L299.09 122.48L298.91 121.2L298.78 119.91L298.7 118.61L298.67 117.29L298.7 115.97L298.78 114.66L298.91 113.37L299.09 112.1L299.32 110.84L299.6 109.6L299.93 108.38L300.3 107.18L300.72 106L301.19 104.84L301.69 103.7L302.24 102.59L302.83 101.5L303.47 100.44L304.14 99.4L304.84 98.4L305.59 97.42L306.37 96.47L307.19 95.55L308.04 94.67L308.93 93.82L309.84 93L310.79 92.22L311.77 91.47L312.78 90.76L313.81 90.09L314.87 89.46L315.96 88.87L317.07 88.32L318.21 87.81L319.37 87.35L320.55 86.93L321.75 86.56L322.97 86.23L324.21 85.95L325.47 85.72L326.75 85.54L328.04 85.41L329.34 85.33L330.66 85.3L331.98 85.33L333.28 85.41ZM328.04 106.95L326.81 107.34L325.65 107.87L324.57 108.54L323.58 109.32L322.69 110.21L321.91 111.2L321.25 112.28L320.72 113.43L320.32 114.66L320.08 115.95L320 117.29L320.08 118.63L320.32 119.91L320.72 121.14L321.25 122.3L321.91 123.38L322.69 124.37L323.58 125.26L324.57 126.04L325.65 126.7L326.81 127.23L328.04 127.62L329.32 127.87L330.66 127.95L332 127.87L333.29 127.62L334.51 127.23L335.67 126.7L336.75 126.04L337.74 125.26L338.63 124.37L339.41 123.38L340.07 122.3L340.61 121.14L341 119.91L341.24 118.63L341.32 117.29L341.24 115.95L341 114.66L340.61 113.43L340.07 112.28L339.41 111.2L338.63 110.21L337.74 109.32L336.75 108.54L335.67 107.87L334.51 107.34L333.29 106.95L332 106.71L330.66 106.63L329.32 106.71L328.04 106.95Z" id="c279vo36e"></path><path d="M234.7 0C222.92 0 213.37 9.55 213.37 21.33C213.37 33.1 222.92 42.65 234.7 42.65C246.48 42.65 256.02 33.1 256.02 21.33C256.02 9.55 246.48 0 234.7 0Z" id="fNjLLNX87"></path><path d="M533.25 85.3C539.14 85.3 543.91 80.53 543.91 74.64C543.91 73.57 543.91 65.04 543.91 63.98C543.91 58.09 539.14 53.31 533.25 53.31C527.36 53.31 522.59 58.09 522.59 63.98C522.59 64.69 522.59 68.24 522.59 74.64C525.77 81.75 529.32 85.3 533.25 85.3Z" id="jbkjhT0rA"></path><path d="M522.59 10.66C522.59 11.73 522.59 20.26 522.59 21.33C522.59 27.21 527.36 31.99 533.25 31.99C539.14 31.99 543.91 27.21 543.91 21.33C543.91 20.26 543.91 11.73 543.91 10.66C543.91 4.77 539.14 0 533.25 0C527.36 0 522.59 4.77 522.59 10.66Z" id="hkRvFUyNZ"></path><path d="M554.57 31.99C548.68 31.99 543.91 36.76 543.91 42.65C543.91 48.54 548.68 53.31 554.57 53.31C555.64 53.31 564.17 53.31 565.24 53.31C571.12 53.31 575.9 48.54 575.9 42.65C575.9 36.76 571.12 31.99 565.24 31.99C563.1 31.99 555.64 31.99 554.57 31.99Z" id="a28SdZ30hA"></path><path d="M501.26 31.99C495.37 31.99 490.6 36.76 490.6 42.65C490.6 48.54 495.37 53.31 501.26 53.31C502.33 53.31 510.86 53.31 511.92 53.31C517.81 53.31 522.59 48.54 522.59 42.65C522.59 36.76 517.81 31.99 511.92 31.99C509.79 31.99 502.33 31.99 501.26 31.99Z" id="c2TJ5wMlhW"></path><path d="M459.49 117.1L459.92 117.14L460.34 117.2L460.76 117.28L461.17 117.37L461.58 117.48L461.98 117.61L462.37 117.75L462.76 117.9L463.14 118.07L463.51 118.25L463.87 118.45L464.23 118.66L464.57 118.88L464.91 119.12L465.23 119.37L465.55 119.63L465.86 119.9L466.15 120.19L466.43 120.48L466.71 120.79L466.97 121.1L467.22 121.43L467.45 121.76L467.68 122.11L467.89 122.46L468.08 122.83L468.27 123.2L468.44 123.58L468.59 123.96L468.73 124.36L468.85 124.76L468.96 125.16L469.06 125.58L469.13 126L469.19 126.42L469.24 126.85L469.26 127.29L469.27 127.73L469.27 181.26L469.27 181.56L469.25 181.85L469.21 182.14L469.17 182.43L469.11 182.72L469.03 183L468.95 183.29L468.85 183.57L468.73 183.86L468.61 184.14L468.47 184.42L468.31 184.7L468.15 184.97L467.97 185.25L467.77 185.52L467.57 185.8L467.35 186.07L467.11 186.34L466.87 186.61L466.61 186.87L466.33 187.14L466.05 187.4L465.75 187.67L465.43 187.93L465.11 188.19L464.77 188.45L464.42 188.7L464.05 188.96L463.67 189.22L463.28 189.47L462.87 189.72L462.45 189.97L462.02 190.22L461.57 190.47L461.11 190.71L460.64 190.96L460.15 191.2L459.65 191.45L459.14 191.69L458.61 191.93L405.11 191.93L404.67 191.92L404.23 191.89L403.8 191.85L403.38 191.79L402.96 191.71L402.54 191.62L402.14 191.51L401.74 191.38L401.34 191.24L400.96 191.09L400.58 190.92L400.21 190.74L399.84 190.54L399.49 190.33L399.14 190.1L398.81 189.87L398.48 189.62L398.17 189.36L397.86 189.09L397.57 188.8L397.28 188.51L397.01 188.2L396.75 187.89L396.5 187.56L396.26 187.22L396.04 186.88L395.83 186.53L395.63 186.16L395.45 185.79L395.28 185.41L395.13 185.03L394.99 184.63L394.86 184.23L394.75 183.82L394.66 183.41L394.58 182.99L394.52 182.57L394.48 182.14L394.45 181.7L394.44 181.26L394.44 127.73L394.45 127.29L394.48 126.85L394.52 126.42L394.58 126L394.66 125.58L394.75 125.16L394.86 124.76L394.99 124.36L395.13 123.96L395.28 123.58L395.45 123.2L395.63 122.83L395.83 122.46L396.04 122.11L396.26 121.76L396.5 121.43L396.75 121.1L397.01 120.79L397.28 120.48L397.57 120.19L397.86 119.9L398.17 119.63L398.48 119.37L398.81 119.12L399.14 118.88L399.49 118.66L399.84 118.45L400.21 118.25L400.58 118.07L400.96 117.9L401.34 117.75L401.74 117.61L402.14 117.48L402.54 117.37L402.96 117.28L403.38 117.2L403.8 117.14L404.23 117.1L404.67 117.07L405.11 117.06L458.61 117.06L459.05 117.07L459.49 117.1ZM415.77 170.6L447.95 170.6L447.95 138.39L415.74 138.39L415.77 170.6Z" id="al0A0KYaf"></path><path d="M273.84 317.14C273.85 317.14 273.85 317.14 273.85 317.14C284.51 307.54 369.81 230.77 380.48 221.17C384.77 217.15 384.99 210.4 380.97 206.1C377.05 201.92 370.54 201.58 366.21 205.33C355.55 214.92 270.25 291.69 259.58 301.29C255.21 305.23 254.85 311.97 258.78 316.35C258.78 316.35 258.78 316.35 258.78 316.35C265.9 319.5 270.92 319.77 273.84 317.14Z" id="f2GyRPp6Ai"></path><path d="M586.56 255.9C586.56 250.01 581.79 245.24 575.9 245.24C570.01 245.24 565.24 250.01 565.24 255.9C565.24 256.97 565.24 265.5 565.24 266.56C565.24 272.45 570.01 277.23 575.9 277.23C581.79 277.23 586.56 272.45 586.56 266.56C586.56 264.43 586.56 256.97 586.56 255.9Z" id="a1joh8EFBc"></path><path d="M606.08 258.48C610.32 262.57 617.07 262.46 621.16 258.22C625.15 254.09 625.15 247.54 621.16 243.4C620.41 242.65 614.38 236.62 613.62 235.87C609.39 231.77 602.64 231.89 598.55 236.13C594.56 240.26 594.56 246.81 598.55 250.94C600.05 252.45 605.33 257.73 606.08 258.48Z" id="b3LRtEdtA"></path><path d="M618.55 202.59C612.66 202.59 607.89 207.36 607.89 213.25C607.89 219.14 612.66 223.91 618.55 223.91C619.61 223.91 628.14 223.91 629.21 223.91C635.1 223.91 639.87 219.14 639.87 213.25C639.87 207.36 635.1 202.59 629.21 202.59C627.08 202.59 619.61 202.59 618.55 202.59Z" id="e4HtEXsCS"></path><path d="M613.62 190.64C614.38 189.88 620.41 183.85 621.16 183.1C625.25 178.86 625.14 172.11 620.9 168.02C616.77 164.03 610.22 164.03 606.08 168.02C605.33 168.77 599.3 174.8 598.55 175.56C594.38 179.72 594.38 186.47 598.55 190.64C600.55 192.64 603.26 193.76 606.08 193.76C606.08 193.76 606.08 193.76 606.08 193.76C609.78 193.01 612.29 191.97 613.62 190.64Z" id="d3z6oKrv3"></path><path d="M565.24 159.94C565.24 161 565.24 169.53 565.24 170.6C565.24 176.49 570.01 181.26 575.9 181.26C581.79 181.26 586.56 176.49 586.56 170.6C586.56 169.53 586.56 161 586.56 159.94C586.56 154.05 581.79 149.28 575.9 149.28C570.01 149.28 565.24 154.05 565.24 159.94Z" id="di2mtqnqo"></path><path d="M530.69 168.28C526.7 172.41 526.7 178.96 530.69 183.1C531.44 183.85 537.47 189.88 538.23 190.64C542.46 194.73 549.21 194.61 553.3 190.37C557.29 186.24 557.29 179.69 553.3 175.56C552.8 175.06 550.29 172.54 545.77 168.02C538.44 165.37 533.42 165.46 530.69 168.28Z" id="cSEdW1Ge0"></path><path d="M64.81 0.5L65.23 0.54L65.66 0.59L66.08 0.65L66.5 0.74L66.91 0.84L67.32 0.95L67.73 1.08L68.13 1.23L68.52 1.39L68.91 1.56L69.29 1.76L69.67 1.96L70.04 2.18L70.4 2.42L70.75 2.67L71.09 2.93L71.43 3.21L71.75 3.51L72.06 3.82L72.36 4.14L72.66 4.47L72.93 4.82L73.2 5.18L73.45 5.56L73.69 5.95L87.68 34.3L118.97 38.85L119.27 38.9L119.56 38.96L119.86 39.02L120.15 39.09L120.44 39.17L120.72 39.26L121.01 39.36L121.29 39.46L121.56 39.57L121.83 39.69L122.1 39.81L122.36 39.95L122.62 40.09L122.88 40.23L123.13 40.39L123.37 40.55L123.62 40.71L123.85 40.88L124.08 41.06L124.31 41.25L124.53 41.44L124.75 41.64L124.96 41.84L125.16 42.05L125.36 42.27L125.56 42.49L125.74 42.71L125.93 42.95L126.1 43.18L126.27 43.42L126.43 43.67L126.59 43.92L126.74 44.18L126.88 44.44L127.02 44.71L127.14 44.98L127.26 45.25L127.38 45.53L127.48 45.82L127.58 46.1L127.67 46.39L127.75 46.69L127.83 46.98L127.89 47.27L127.94 47.57L127.99 47.86L128.03 48.16L128.06 48.45L128.08 48.75L128.1 49.04L128.1 49.34L128.1 49.63L128.09 49.93L128.07 50.22L128.04 50.51L128.01 50.8L127.96 51.09L127.91 51.38L127.86 51.67L127.79 51.96L127.71 52.24L127.63 52.52L127.54 52.8L127.44 53.08L127.34 53.35L127.23 53.62L127.11 53.89L126.98 54.15L126.84 54.42L126.7 54.67L126.55 54.93L126.39 55.18L126.23 55.43L126.06 55.67L125.88 55.91L125.69 56.14L125.5 56.37L125.3 56.6L125.09 56.82L124.87 57.03L102.23 79.11L107.56 110.27L107.59 110.45L107.61 110.62L107.63 110.79L107.65 110.97L107.67 111.14L107.68 111.31L107.7 111.49L107.7 111.66L107.71 111.84L107.71 112.01L107.71 112.19L107.71 112.36L107.7 112.53L107.69 112.71L107.68 112.88L107.67 113.05L107.65 113.23L107.63 113.4L107.61 113.57L107.58 113.74L107.55 113.91L107.52 114.08L107.49 114.25L107.45 114.42L107.41 114.59L107.37 114.76L107.32 114.93L107.27 115.1L107.22 115.26L107.17 115.43L107.11 115.59L107.06 115.76L106.99 115.92L106.93 116.08L106.86 116.24L106.79 116.4L106.72 116.56L106.64 116.72L106.57 116.88L106.49 117.03L106.27 117.42L106.05 117.79L105.81 118.15L105.56 118.5L105.29 118.84L105.02 119.16L104.73 119.47L104.44 119.76L104.13 120.05L103.81 120.32L103.49 120.57L103.15 120.82L102.81 121.05L102.46 121.26L102.1 121.46L101.74 121.65L101.36 121.82L100.99 121.98L100.6 122.13L100.21 122.25L99.82 122.37L99.42 122.47L99.02 122.55L98.62 122.62L98.21 122.67L97.8 122.71L97.39 122.73L96.98 122.74L96.56 122.73L96.15 122.7L95.74 122.66L95.32 122.6L94.91 122.52L94.5 122.43L94.09 122.32L93.68 122.19L93.28 122.05L92.88 121.89L92.48 121.71L92.09 121.51L64.1 106.8L36.14 121.55L35.98 121.63L35.83 121.71L35.67 121.79L35.51 121.86L35.34 121.93L35.18 122L35.02 122.06L34.85 122.12L34.69 122.18L34.52 122.24L34.36 122.29L34.19 122.34L34.02 122.39L33.85 122.44L33.68 122.48L33.51 122.52L33.34 122.55L33.17 122.59L33 122.62L32.83 122.65L32.66 122.67L32.48 122.7L32.31 122.72L32.14 122.73L31.96 122.75L31.79 122.76L31.61 122.77L31.44 122.77L31.26 122.77L31.09 122.77L30.91 122.77L30.74 122.77L30.56 122.76L30.39 122.75L30.21 122.73L30.04 122.71L29.86 122.69L29.69 122.67L29.51 122.64L29.34 122.61L28.91 122.53L28.49 122.43L28.07 122.31L27.66 122.18L27.26 122.03L26.87 121.87L26.49 121.69L26.11 121.5L25.75 121.29L25.4 121.07L25.05 120.84L24.72 120.6L24.4 120.34L24.08 120.07L23.78 119.79L23.49 119.5L23.22 119.2L22.95 118.89L22.7 118.57L22.45 118.24L22.23 117.9L22.01 117.55L21.81 117.19L21.62 116.83L21.44 116.46L21.28 116.08L21.14 115.69L21.01 115.3L20.89 114.91L20.79 114.5L20.7 114.1L20.63 113.69L20.58 113.27L20.54 112.85L20.52 112.43L20.52 112L20.53 111.57L20.56 111.14L20.61 110.71L20.68 110.27L26.01 79.11L3.37 57.03L3.25 56.91L3.13 56.78L3.01 56.66L2.89 56.53L2.77 56.4L2.66 56.27L2.55 56.13L2.44 56L2.34 55.86L2.23 55.72L2.13 55.58L2.03 55.44L1.93 55.29L1.84 55.15L1.75 55L1.66 54.85L1.57 54.7L1.49 54.55L1.4 54.4L1.32 54.25L1.25 54.09L1.17 53.93L1.1 53.78L1.03 53.62L0.96 53.46L0.9 53.3L0.84 53.14L0.78 52.97L0.72 52.81L0.67 52.64L0.61 52.48L0.57 52.31L0.52 52.14L0.48 51.98L0.44 51.81L0.4 51.64L0.36 51.46L0.33 51.29L0.3 51.12L0.27 50.95L0.22 50.51L0.18 50.08L0.16 49.64L0.16 49.22L0.18 48.79L0.21 48.37L0.26 47.95L0.32 47.53L0.41 47.12L0.5 46.72L0.61 46.32L0.74 45.93L0.88 45.54L1.04 45.16L1.21 44.78L1.4 44.42L1.6 44.06L1.81 43.71L2.03 43.37L2.27 43.03L2.52 42.71L2.79 42.4L3.06 42.09L3.35 41.8L3.65 41.52L3.96 41.25L4.27 40.99L4.61 40.74L4.95 40.51L5.3 40.28L5.66 40.07L6.03 39.88L6.4 39.7L6.79 39.53L7.19 39.38L7.59 39.24L8 39.12L8.42 39.02L8.85 38.93L9.28 38.85L40.58 34.3L54.57 5.95L54.64 5.83L54.71 5.71L54.79 5.59L54.86 5.47L54.94 5.35L55.02 5.24L55.1 5.12L55.19 5.01L55.27 4.9L55.35 4.78L55.44 4.67L55.53 4.57L55.62 4.46L55.71 4.35L55.8 4.24L55.89 4.14L55.99 4.04L56.09 3.93L56.18 3.83L56.28 3.73L56.38 3.63L56.48 3.54L56.58 3.44L56.69 3.35L56.79 3.25L56.9 3.16L57 3.07L57.11 2.98L57.22 2.89L57.33 2.81L57.44 2.72L57.56 2.64L57.67 2.56L57.79 2.47L57.9 2.39L58.02 2.32L58.14 2.24L58.26 2.16L58.38 2.09L58.5 2.02L58.9 1.79L59.3 1.59L59.71 1.4L60.12 1.23L60.54 1.08L60.96 0.94L61.38 0.83L61.81 0.73L62.23 0.64L62.66 0.58L63.09 0.53L63.52 0.5L63.95 0.48L64.38 0.48L64.81 0.5ZM57.09 48.99L56.97 49.22L56.84 49.45L56.7 49.67L56.56 49.89L56.42 50.11L56.27 50.32L56.11 50.53L55.95 50.73L55.79 50.93L55.62 51.12L55.44 51.31L55.27 51.5L55.09 51.68L54.9 51.86L54.71 52.03L54.52 52.2L54.32 52.36L54.12 52.52L53.91 52.67L53.7 52.82L53.49 52.96L53.27 53.1L53.05 53.23L52.83 53.36L52.61 53.48L52.38 53.6L52.15 53.71L51.91 53.81L51.67 53.91L51.43 54.01L51.19 54.1L50.95 54.18L50.7 54.26L50.45 54.33L50.2 54.39L49.94 54.45L49.69 54.5L49.43 54.55L49.17 54.59L33.73 56.84L44.91 67.75L45.09 67.94L45.27 68.12L45.44 68.32L45.61 68.52L45.78 68.72L45.94 68.92L46.09 69.13L46.24 69.34L46.38 69.55L46.52 69.77L46.65 69.99L46.78 70.21L46.9 70.44L47.01 70.66L47.12 70.9L47.23 71.13L47.33 71.36L47.42 71.6L47.51 71.84L47.59 72.08L47.66 72.33L47.73 72.57L47.8 72.82L47.86 73.07L47.91 73.32L47.95 73.57L47.99 73.82L48.03 74.07L48.06 74.33L48.08 74.58L48.09 74.84L48.1 75.1L48.11 75.35L48.1 75.61L48.1 75.87L48.08 76.13L48.06 76.39L48.03 76.65L48 76.91L47.95 77.16L45.3 92.57L59.16 85.3L59.4 85.18L59.63 85.07L59.87 84.96L60.11 84.86L60.35 84.76L60.6 84.68L60.84 84.59L61.09 84.52L61.34 84.45L61.59 84.38L61.84 84.32L62.09 84.27L62.34 84.22L62.59 84.18L62.85 84.15L63.1 84.12L63.36 84.1L63.61 84.09L63.87 84.08L64.12 84.07L64.38 84.08L64.64 84.09L64.89 84.1L65.15 84.12L65.4 84.15L65.65 84.18L65.91 84.22L66.16 84.27L66.41 84.32L66.66 84.38L66.91 84.45L67.16 84.52L67.41 84.59L67.65 84.68L67.9 84.76L68.14 84.86L68.38 84.96L68.62 85.07L68.85 85.18L69.09 85.3L82.92 92.58L80.27 77.18L80.25 77L80.22 76.82L80.21 76.64L80.2 76.46L80.19 76.27L80.19 76.08L80.2 75.89L80.21 75.69L80.22 75.49L80.24 75.29L80.27 75.08L80.3 74.88L80.34 74.66L80.38 74.45L80.43 74.23L80.48 74.01L80.54 73.78L80.6 73.56L80.67 73.32L80.75 73.09L80.83 72.85L80.91 72.61L81 72.37L81.1 72.12L81.2 71.87L81.3 71.62L81.41 71.36L81.53 71.11L81.65 70.84L81.78 70.58L81.91 70.31L82.05 70.04L82.19 69.76L82.34 69.48L82.5 69.2L82.65 68.92L82.82 68.63L82.99 68.34L83.16 68.05L83.34 67.75L94.48 56.84L79.03 54.59L78.77 54.55L78.51 54.5L78.25 54.45L78 54.39L77.75 54.32L77.5 54.25L77.25 54.18L77.01 54.09L76.77 54L76.53 53.91L76.29 53.81L76.06 53.7L75.83 53.59L75.6 53.47L75.37 53.35L75.15 53.23L74.93 53.09L74.72 52.95L74.51 52.81L74.3 52.66L74.09 52.51L73.89 52.35L73.69 52.19L73.5 52.02L73.31 51.85L73.13 51.68L72.94 51.5L72.77 51.31L72.59 51.12L72.43 50.93L72.26 50.73L72.1 50.52L71.95 50.32L71.8 50.11L71.65 49.89L71.51 49.67L71.38 49.45L71.25 49.22L71.13 48.99L71.01 48.76L64.1 34.76L57.21 48.76L57.09 48.99Z" id="b1n0nDLCRp"></path><path d="M491.08 458.47L491.51 458.5L491.95 458.56L492.38 458.64L495.65 459.22L498.9 459.87L502.12 460.59L505.33 461.37L508.51 462.21L511.68 463.12L514.82 464.09L517.93 465.13L521.02 466.22L524.08 467.38L527.11 468.6L530.12 469.88L533.1 471.21L536.05 472.61L538.96 474.07L541.85 475.58L544.7 477.15L547.52 478.78L550.31 480.46L553.06 482.2L555.78 484L558.46 485.85L561.1 487.75L563.7 489.71L566.27 491.72L568.79 493.78L571.27 495.9L573.72 498.06L576.11 500.28L578.47 502.55L580.78 504.87L583.05 507.23L585.27 509.65L587.44 512.11L589.57 514.62L591.65 517.18L593.67 519.78L595.65 522.43L597.58 525.13L599.45 527.87L603.84 534.46L603.86 534.45L606.37 536.06L608.79 537.75L611.13 539.53L613.39 541.38L615.55 543.31L617.63 545.31L619.62 547.37L621.52 549.51L623.32 551.7L625.04 553.96L626.66 556.27L628.19 558.63L629.62 561.05L630.96 563.51L632.21 566.02L633.36 568.57L634.41 571.16L635.36 573.78L636.21 576.43L636.97 579.12L637.62 581.83L638.17 584.56L638.62 587.31L638.97 590.09L639.21 592.87L639.35 595.67L639.39 598.47L639.32 601.28L639.14 604.09L638.85 606.9L638.46 609.7L637.95 612.5L637.34 615.29L636.62 618.07L635.78 620.83L634.83 623.56L633.77 626.28L632.6 628.97L631.31 631.64L629.9 634.27L629.89 634.3L629.88 634.32L629.86 634.35L629.84 634.38L629.84 634.4L629.83 634.41L629.82 634.43L629.8 634.46L629.78 634.49L629.78 634.51L629.77 634.52L629.76 634.54L629.74 634.57L629.72 634.61L629.71 634.62L629.69 634.65L629.67 634.69L629.66 634.7L629.64 634.74L629.63 634.76L629.4 635.14L629.15 635.5L628.89 635.85L628.63 636.18L628.35 636.5L628.05 636.81L627.75 637.1L627.44 637.39L627.12 637.65L626.79 637.91L626.45 638.15L626.1 638.37L625.75 638.58L625.39 638.78L625.02 638.96L624.65 639.13L624.27 639.28L623.88 639.42L623.49 639.55L623.1 639.66L622.7 639.75L622.3 639.83L621.89 639.89L621.48 639.94L621.07 639.97L620.66 639.99L620.25 639.99L619.84 639.97L619.43 639.94L619.01 639.89L618.6 639.83L618.19 639.75L617.79 639.65L617.38 639.54L616.98 639.41L616.58 639.26L616.18 639.09L615.79 638.91L615.4 638.71L615.02 638.5L614.64 638.26L614.28 638.02L613.94 637.76L613.6 637.49L613.28 637.21L612.97 636.92L612.68 636.62L612.4 636.31L612.13 635.99L611.88 635.66L611.64 635.32L611.41 634.97L611.2 634.62L611 634.26L610.82 633.89L610.65 633.51L610.5 633.13L610.36 632.75L610.24 632.36L610.13 631.96L610.03 631.56L609.95 631.16L609.89 630.76L609.84 630.35L609.81 629.94L609.8 629.53L609.8 629.12L609.81 628.71L609.84 628.29L609.89 627.88L609.95 627.47L610.04 627.06L610.13 626.65L610.25 626.25L610.38 625.84L610.52 625.44L610.69 625.05L610.87 624.66L611.07 624.27L611.29 623.88L611.8 622.96L612.29 622.02L612.76 621.07L613.21 620.12L613.64 619.16L614.05 618.19L614.44 617.22L614.81 616.24L615.16 615.25L615.49 614.26L615.8 613.27L616.1 612.26L616.37 611.26L616.62 610.25L616.85 609.23L617.06 608.21L617.25 607.19L617.42 606.16L617.58 605.13L617.71 604.1L617.82 603.07L617.91 602.03L617.98 600.99L618.03 599.95L618.06 598.91L618.06 597.87L618.05 596.83L618.02 595.78L617.97 594.74L617.89 593.7L617.8 592.66L617.69 591.62L617.55 590.58L617.39 589.54L617.22 588.51L617.02 587.47L616.8 586.44L616.56 585.41L616.3 584.39L616.02 583.37L615.9 582.97L615.78 582.58L615.65 582.18L615.52 581.79L615.39 581.4L615.26 581.01L615.12 580.62L614.98 580.23L614.83 579.85L614.69 579.46L614.54 579.08L614.38 578.69L614.23 578.31L614.07 577.93L613.91 577.55L613.75 577.17L613.58 576.8L613.41 576.42L613.23 576.05L613.06 575.67L612.88 575.3L612.7 574.93L612.51 574.56L612.33 574.2L612.14 573.83L611.94 573.47L611.75 573.1L611.55 572.74L611.35 572.38L611.14 572.02L610.94 571.67L610.73 571.31L610.52 570.96L610.3 570.6L610.08 570.25L609.86 569.9L609.64 569.56L609.41 569.21L609.18 568.87L608.95 568.53L608.94 569.24L608.91 569.95L608.88 570.67L608.84 571.38L608.79 572.09L608.73 572.8L608.66 573.51L608.59 574.22L608.51 574.93L608.42 575.63L608.32 576.34L608.22 577.04L608.1 577.74L607.98 578.44L607.85 579.14L607.71 579.84L607.57 580.53L607.41 581.23L607.25 581.92L607.08 582.61L606.91 583.29L606.72 583.98L606.53 584.66L606.33 585.35L606.12 586.02L605.9 586.7L605.68 587.38L605.45 588.05L605.21 588.72L604.96 589.38L604.7 590.05L604.44 590.71L604.17 591.37L603.89 592.02L603.61 592.68L603.31 593.33L603.01 593.97L602.7 594.62L602.39 595.26L602.06 595.9L601.18 597.41L600.24 598.88L599.24 600.3L598.2 601.66L597.12 602.98L595.99 604.24L594.81 605.45L593.59 606.61L592.34 607.71L591.04 608.76L589.71 609.75L588.35 610.69L586.96 611.57L585.53 612.4L584.08 613.17L582.6 613.88L581.09 614.53L579.57 615.13L578.02 615.67L576.45 616.14L574.87 616.56L573.27 616.91L571.66 617.21L570.04 617.44L568.4 617.61L566.76 617.72L565.12 617.77L563.46 617.75L561.81 617.66L560.16 617.51L558.51 617.3L556.86 617.02L555.22 616.68L553.58 616.26L551.96 615.78L550.34 615.23L548.74 614.62L547.15 613.93L545.58 613.17L544.03 612.35L542.51 611.46L541.04 610.52L539.63 609.53L538.26 608.49L536.94 607.4L535.68 606.27L534.47 605.09L533.32 603.88L532.21 602.62L531.16 601.33L530.17 600L529.23 598.64L528.35 597.24L527.52 595.82L526.76 594.36L526.04 592.88L525.39 591.38L524.79 589.85L524.26 588.3L523.78 586.74L523.37 585.15L523.01 583.55L522.72 581.94L522.48 580.32L522.31 578.69L522.2 577.05L522.16 575.4L522.18 573.75L522.26 572.1L522.41 570.44L522.62 568.79L522.9 567.14L523.25 565.5L523.66 563.87L524.14 562.24L524.69 560.63L525.31 559.02L525.99 557.44L526.75 555.86L527.58 554.31L528.29 553.16L529.03 552.03L529.79 550.92L530.57 549.83L531.37 548.76L532.19 547.7L533.04 546.67L533.9 545.65L534.79 544.66L535.69 543.68L536.62 542.73L537.56 541.79L538.53 540.88L539.51 539.98L540.5 539.11L541.52 538.26L542.55 537.44L543.6 536.63L544.67 535.85L545.75 535.09L546.85 534.35L547.97 533.63L549.1 532.94L550.24 532.28L551.4 531.63L552.57 531.01L553.75 530.42L554.95 529.85L556.16 529.3L557.39 528.78L558.62 528.29L559.87 527.82L561.13 527.38L562.4 526.96L563.68 526.57L564.97 526.2L566.27 525.87L567.58 525.56L568.9 525.28L570.23 525.02L568.63 523.24L567 521.48L565.35 519.76L563.67 518.07L561.96 516.4L560.23 514.77L558.47 513.17L556.68 511.6L554.87 510.07L553.04 508.56L551.18 507.09L549.3 505.65L547.39 504.25L545.46 502.87L543.51 501.54L541.54 500.23L539.55 498.96L537.54 497.72L535.5 496.52L533.45 495.35L531.37 494.22L529.28 493.12L527.17 492.06L525.04 491.03L522.89 490.04L520.73 489.08L518.55 488.17L516.35 487.28L514.14 486.44L511.91 485.63L509.66 484.86L507.41 484.13L505.13 483.44L502.85 482.78L500.55 482.16L498.24 481.59L495.91 481.05L493.58 480.55L491.23 480.08L488.87 479.66L488.86 479.66L488.84 479.66L488.81 479.66L488.78 479.65L488.76 479.65L488.73 479.64L488.7 479.64L488.68 479.64L488.66 479.63L488.63 479.63L488.6 479.62L488.58 479.62L488.56 479.61L488.53 479.61L488.5 479.61L488.48 479.6L488.46 479.6L488.43 479.59L488.4 479.59L488.38 479.58L488.35 479.58L488.33 479.57L488.3 479.57L487.87 479.48L487.45 479.37L487.03 479.24L486.63 479.1L486.23 478.94L485.84 478.77L485.46 478.59L485.09 478.39L484.73 478.18L484.38 477.95L484.04 477.71L483.72 477.46L483.4 477.2L483.09 476.93L482.79 476.64L482.51 476.34L482.24 476.04L481.98 475.72L481.73 475.4L481.49 475.06L481.27 474.72L481.06 474.36L480.87 474L480.69 473.64L480.52 473.26L480.37 472.88L480.23 472.49L480.1 472.1L479.99 471.7L479.9 471.3L479.82 470.89L479.76 470.47L479.72 470.06L479.69 469.64L479.67 469.21L479.68 468.79L479.7 468.36L479.74 467.93L479.8 467.5L479.87 467.06L479.97 466.63L480.07 466.21L480.2 465.8L480.34 465.39L480.5 464.99L480.67 464.61L480.85 464.23L481.05 463.86L481.26 463.5L481.49 463.15L481.73 462.81L481.98 462.48L482.24 462.16L482.52 461.85L482.8 461.56L483.1 461.27L483.4 461L483.72 460.74L484.05 460.49L484.38 460.26L484.72 460.04L485.08 459.83L485.44 459.63L485.8 459.45L486.18 459.28L486.56 459.13L486.95 458.99L487.34 458.87L487.74 458.76L488.14 458.67L488.55 458.59L488.97 458.53L489.38 458.48L489.8 458.45L490.23 458.44L490.65 458.44L491.08 458.47ZM575.1 545.92L573.87 546.1L572.64 546.32L571.43 546.58L570.23 546.87L569.04 547.2L567.87 547.57L566.71 547.97L565.56 548.4L564.43 548.87L563.32 549.37L562.22 549.91L561.15 550.48L560.09 551.08L559.04 551.71L558.02 552.38L557.02 553.07L556.04 553.8L555.09 554.55L554.15 555.34L553.24 556.15L552.35 557L551.49 557.87L550.66 558.77L549.85 559.69L549.07 560.64L548.31 561.62L547.59 562.62L546.89 563.65L546.22 564.71L545.94 565.22L545.68 565.74L545.43 566.27L545.2 566.8L544.98 567.33L544.77 567.87L544.58 568.42L544.41 568.97L544.25 569.52L544.11 570.08L543.98 570.64L543.86 571.2L543.77 571.77L543.68 572.34L543.62 572.91L543.57 573.48L543.53 574.05L543.51 574.62L543.51 575.2L543.52 575.77L543.54 576.35L543.59 576.92L543.64 577.5L543.72 578.07L543.81 578.64L543.91 579.22L544.04 579.78L544.17 580.35L544.33 580.92L544.49 581.48L544.68 582.03L544.87 582.58L545.08 583.12L545.31 583.65L545.55 584.18L545.8 584.7L546.07 585.21L546.35 585.71L546.64 586.21L546.95 586.7L547.26 587.17L547.6 587.64L547.94 588.1L548.3 588.55L548.66 588.99L549.04 589.43L549.44 589.85L549.84 590.26L550.25 590.66L550.68 591.04L551.12 591.42L551.56 591.79L552.02 592.14L552.49 592.48L552.97 592.81L553.45 593.13L553.95 593.44L554.46 593.73L555.53 594.29L556.62 594.78L557.73 595.21L558.84 595.57L559.97 595.87L561.1 596.1L562.24 596.27L563.38 596.38L564.52 596.43L565.65 596.42L566.79 596.34L567.91 596.21L569.02 596.01L570.12 595.76L571.21 595.46L572.28 595.09L573.33 594.67L574.35 594.19L575.36 593.66L576.33 593.08L577.27 592.44L578.19 591.75L579.07 591L579.91 590.21L580.71 589.36L581.47 588.47L582.18 587.52L582.85 586.53L583.47 585.49L584.11 584.26L584.7 582.97L585.24 581.61L585.73 580.2L586.17 578.75L586.56 577.25L586.89 575.73L587.18 574.17L587.41 572.6L587.59 571.01L587.72 569.42L587.79 567.82L587.81 566.23L587.77 564.66L587.68 563.11L587.53 561.58L587.33 560.08L587.07 558.63L586.76 557.22L586.39 555.87L585.96 554.57L585.47 553.34L584.93 552.19L584.33 551.11L583.67 550.12L582.95 549.22L582.17 548.43L581.33 547.74L580.43 547.16L580.26 547.07L580.09 546.99L579.91 546.9L579.74 546.83L579.56 546.75L579.39 546.68L579.21 546.61L579.03 546.55L578.85 546.48L578.67 546.42L578.49 546.37L578.3 546.32L578.12 546.27L577.94 546.22L577.75 546.18L577.56 546.14L577.38 546.1L577.19 546.07L577 546.04L576.81 546.01L576.62 545.99L576.44 545.97L576.25 545.95L576.05 545.94L575.86 545.93L575.67 545.92L575.48 545.92L575.29 545.92L575.1 545.92Z" id="a6sBShDnB"></path></defs><g><g><use xlink:href="#af4wjQ6oH" opacity="1" fill="#a956bf" fill-opacity="1"></use><g><use xlink:href="#af4wjQ6oH" opacity="1" fill-opacity="0" stroke="#000000" stroke-width="1" stroke-opacity="0"></use></g></g><g><use xlink:href="#aiNywtsaU" opacity="1" fill="#d1e3ee" fill-opacity="1"></use><g><use xlink:href="#aiNywtsaU" opacity="1" fill-opacity="0" stroke="#000000" stroke-width="1" stroke-opacity="0"></use></g></g><g><use xlink:href="#i1ed38cQFq" opacity="1" fill="#ffbf41" fill-opacity="1"></use><g><use xlink:href="#i1ed38cQFq" opacity="1" fill-opacity="0" stroke="#000000" stroke-width="1" stroke-opacity="0"></use></g></g><g><use xlink:href="#b3h0SRCac" opacity="1" fill="#ffbf41" fill-opacity="1"></use><g><use xlink:href="#b3h0SRCac" opacity="1" fill-opacity="0" stroke="#000000" stroke-width="1" stroke-opacity="0"></use></g></g><g><use xlink:href="#ctiRTMBYg" opacity="1" fill="#ffbf41" fill-opacity="1"></use><g><use xlink:href="#ctiRTMBYg" opacity="1" fill-opacity="0" stroke="#000000" stroke-width="1" stroke-opacity="0"></use></g></g><g><use xlink:href="#c6LCHV0lG" opacity="1" fill="#47ce6e" fill-opacity="1"></use><g><use xlink:href="#c6LCHV0lG" opacity="1" fill-opacity="0" stroke="#000000" stroke-width="1" stroke-opacity="0"></use></g></g><g><use xlink:href="#b2rL7xfaMw" opacity="1" fill="#47ce6e" fill-opacity="1"></use><g><use xlink:href="#b2rL7xfaMw" opacity="1" fill-opacity="0" stroke="#000000" stroke-width="1" stroke-opacity="0"></use></g></g><g><use xlink:href="#aa2cvLmcG" opacity="1" fill="#7fcccb" fill-opacity="1"></use><g><use xlink:href="#aa2cvLmcG" opacity="1" fill-opacity="0" stroke="#000000" stroke-width="1" stroke-opacity="0"></use></g></g><g><use xlink:href="#l2agub1KnC" opacity="1" fill="#2276bb" fill-opacity="1"></use><g><use xlink:href="#l2agub1KnC" opacity="1" fill-opacity="0" stroke="#000000" stroke-width="1" stroke-opacity="0"></use></g></g><g><use xlink:href="#axsek0wE0" opacity="1" fill="#2276bb" fill-opacity="1"></use><g><use xlink:href="#axsek0wE0" opacity="1" fill-opacity="0" stroke="#000000" stroke-width="1" stroke-opacity="0"></use></g></g><g><use xlink:href="#b33L8ZiVpV" opacity="1" fill="#2276bb" fill-opacity="1"></use><g><use xlink:href="#b33L8ZiVpV" opacity="1" fill-opacity="0" stroke="#000000" stroke-width="1" stroke-opacity="0"></use></g></g><g><use xlink:href="#fhfSC1Pth" opacity="1" fill="#2276bb" fill-opacity="1"></use><g><use xlink:href="#fhfSC1Pth" opacity="1" fill-opacity="0" stroke="#000000" stroke-width="1" stroke-opacity="0"></use></g></g><g><use xlink:href="#bneY4cxh2" opacity="1" fill="#ffffff" fill-opacity="1"></use><g><use xlink:href="#bneY4cxh2" opacity="1" fill-opacity="0" stroke="#000000" stroke-width="1" stroke-opacity="0"></use></g></g><g><use xlink:href="#aEu05yoh0" opacity="1" fill="#ecc20f" fill-opacity="1"></use><g><use xlink:href="#aEu05yoh0" opacity="1" fill-opacity="0" stroke="#000000" stroke-width="1" stroke-opacity="0"></use></g></g><g><use xlink:href="#c3VSO3auPi" opacity="1" fill="#ffbf41" fill-opacity="1"></use><g><use xlink:href="#c3VSO3auPi" opacity="1" fill-opacity="0" stroke="#000000" stroke-width="1" stroke-opacity="0"></use></g></g><g><use xlink:href="#b1mlSvj0o7" opacity="1" fill="#ffdb43" fill-opacity="1"></use><g><use xlink:href="#b1mlSvj0o7" opacity="1" fill-opacity="0" stroke="#000000" stroke-width="1" stroke-opacity="0"></use></g></g><g><use xlink:href="#e1GWnaaY4c" opacity="1" fill="#ffdb43" fill-opacity="1"></use><g><use xlink:href="#e1GWnaaY4c" opacity="1" fill-opacity="0" stroke="#000000" stroke-width="1" stroke-opacity="0"></use></g></g><g><use xlink:href="#cFZNUzj2W" opacity="1" fill="#000000" fill-opacity="0.19"></use><g><use xlink:href="#cFZNUzj2W" opacity="1" fill-opacity="0" stroke="#000000" stroke-width="1" stroke-opacity="0"></use></g></g><g><use xlink:href="#b5dmaNuJv" opacity="1" fill="#ffdb43" fill-opacity="1"></use><g><use xlink:href="#b5dmaNuJv" opacity="1" fill-opacity="0" stroke="#000000" stroke-width="1" stroke-opacity="0"></use></g></g><g><use xlink:href="#ahIMYV2n5" opacity="1" fill="#ffdb43" fill-opacity="1"></use><g><use xlink:href="#ahIMYV2n5" opacity="1" fill-opacity="0" stroke="#000000" stroke-width="1" stroke-opacity="0"></use></g></g><g><use xlink:href="#g8XTmtZDiM" opacity="1" fill="#ffdb43" fill-opacity="1"></use><g><use xlink:href="#g8XTmtZDiM" opacity="1" fill-opacity="0" stroke="#000000" stroke-width="1" stroke-opacity="0"></use></g></g><g><use xlink:href="#e3QxBGRYVz" opacity="1" fill="#ffdb43" fill-opacity="1"></use><g><use xlink:href="#e3QxBGRYVz" opacity="1" fill-opacity="0" stroke="#000000" stroke-width="1" stroke-opacity="0"></use></g></g><g><use xlink:href="#j3mXQ2tdGI" opacity="1" fill="#ecc20f" fill-opacity="1"></use><g><use xlink:href="#j3mXQ2tdGI" opacity="1" fill-opacity="0" stroke="#000000" stroke-width="1" stroke-opacity="0"></use></g></g><g><use xlink:href="#a7TUerudi" opacity="1" fill="#2bb3ce" fill-opacity="1"></use><g><use xlink:href="#a7TUerudi" opacity="1" fill-opacity="0" stroke="#000000" stroke-width="1" stroke-opacity="0"></use></g></g><g><use xlink:href="#cd53r6sr2" opacity="1" fill="#000000" fill-opacity="1"></use><g><use xlink:href="#cd53r6sr2" opacity="1" fill-opacity="0" stroke="#000000" stroke-width="1" stroke-opacity="0"></use></g></g><g><use xlink:href="#cweJQInLo" opacity="1" fill="#000000" fill-opacity="1"></use><g><use xlink:href="#cweJQInLo" opacity="1" fill-opacity="0" stroke="#000000" stroke-width="1" stroke-opacity="0"></use></g></g><g><use xlink:href="#a2a3elIVg1" opacity="1" fill="#000000" fill-opacity="1"></use><g><use xlink:href="#a2a3elIVg1" opacity="1" fill-opacity="0" stroke="#000000" stroke-width="1" stroke-opacity="0"></use></g></g><g><use xlink:href="#ch6pCKvYU" opacity="1" fill="#000000" fill-opacity="1"></use><g><use xlink:href="#ch6pCKvYU" opacity="1" fill-opacity="0" stroke="#000000" stroke-width="1" stroke-opacity="0"></use></g></g><g><use xlink:href="#d2LerwBQV0" opacity="1" fill="#000000" fill-opacity="1"></use><g><use xlink:href="#d2LerwBQV0" opacity="1" fill-opacity="0" stroke="#000000" stroke-width="1" stroke-opacity="0"></use></g></g><g><use xlink:href="#c279vo36e" opacity="1" fill="#000000" fill-opacity="1"></use><g><use xlink:href="#c279vo36e" opacity="1" fill-opacity="0" stroke="#000000" stroke-width="1" stroke-opacity="0"></use></g></g><g><use xlink:href="#fNjLLNX87" opacity="1" fill="#000000" fill-opacity="1"></use><g><use xlink:href="#fNjLLNX87" opacity="1" fill-opacity="0" stroke="#000000" stroke-width="1" stroke-opacity="0"></use></g></g><g><use xlink:href="#jbkjhT0rA" opacity="1" fill="#000000" fill-opacity="1"></use><g><use xlink:href="#jbkjhT0rA" opacity="1" fill-opacity="0" stroke="#000000" stroke-width="1" stroke-opacity="0"></use></g></g><g><use xlink:href="#hkRvFUyNZ" opacity="1" fill="#000000" fill-opacity="1"></use><g><use xlink:href="#hkRvFUyNZ" opacity="1" fill-opacity="0" stroke="#000000" stroke-width="1" stroke-opacity="0"></use></g></g><g><use xlink:href="#a28SdZ30hA" opacity="1" fill="#000000" fill-opacity="1"></use><g><use xlink:href="#a28SdZ30hA" opacity="1" fill-opacity="0" stroke="#000000" stroke-width="1" stroke-opacity="0"></use></g></g><g><use xlink:href="#c2TJ5wMlhW" opacity="1" fill="#000000" fill-opacity="1"></use><g><use xlink:href="#c2TJ5wMlhW" opacity="1" fill-opacity="0" stroke="#000000" stroke-width="1" stroke-opacity="0"></use></g></g><g><use xlink:href="#al0A0KYaf" opacity="1" fill="#000000" fill-opacity="1"></use><g><use xlink:href="#al0A0KYaf" opacity="1" fill-opacity="0" stroke="#000000" stroke-width="1" stroke-opacity="0"></use></g></g><g><use xlink:href="#f2GyRPp6Ai" opacity="1" fill="#000000" fill-opacity="1"></use><g><use xlink:href="#f2GyRPp6Ai" opacity="1" fill-opacity="0" stroke="#000000" stroke-width="1" stroke-opacity="0"></use></g></g><g><use xlink:href="#a1joh8EFBc" opacity="1" fill="#000000" fill-opacity="1"></use><g><use xlink:href="#a1joh8EFBc" opacity="1" fill-opacity="0" stroke="#000000" stroke-width="1" stroke-opacity="0"></use></g></g><g><use xlink:href="#b3LRtEdtA" opacity="1" fill="#000000" fill-opacity="1"></use><g><use xlink:href="#b3LRtEdtA" opacity="1" fill-opacity="0" stroke="#000000" stroke-width="1" stroke-opacity="0"></use></g></g><g><use xlink:href="#e4HtEXsCS" opacity="1" fill="#000000" fill-opacity="1"></use><g><use xlink:href="#e4HtEXsCS" opacity="1" fill-opacity="0" stroke="#000000" stroke-width="1" stroke-opacity="0"></use></g></g><g><use xlink:href="#d3z6oKrv3" opacity="1" fill="#000000" fill-opacity="1"></use><g><use xlink:href="#d3z6oKrv3" opacity="1" fill-opacity="0" stroke="#000000" stroke-width="1" stroke-opacity="0"></use></g></g><g><use xlink:href="#di2mtqnqo" opacity="1" fill="#000000" fill-opacity="1"></use><g><use xlink:href="#di2mtqnqo" opacity="1" fill-opacity="0" stroke="#000000" stroke-width="1" stroke-opacity="0"></use></g></g><g><use xlink:href="#cSEdW1Ge0" opacity="1" fill="#000000" fill-opacity="1"></use><g><use xlink:href="#cSEdW1Ge0" opacity="1" fill-opacity="0" stroke="#000000" stroke-width="1" stroke-opacity="0"></use></g></g><g><use xlink:href="#b1n0nDLCRp" opacity="1" fill="#000000" fill-opacity="1"></use><g><use xlink:href="#b1n0nDLCRp" opacity="1" fill-opacity="0" stroke="#000000" stroke-width="1" stroke-opacity="0"></use></g></g><g><use xlink:href="#a6sBShDnB" opacity="1" fill="#000000" fill-opacity="1"></use><g><use xlink:href="#a6sBShDnB" opacity="1" fill-opacity="0" stroke="#000000" stroke-width="1" stroke-opacity="0"></use></g></g></g></svg>