<svg height="512pt" viewBox="0 0 512 512" width="512pt" xmlns="http://www.w3.org/2000/svg"><path d="m88 480v16h-80v-216h80zm0 0" fill="#94c1ff"/><path d="m312 352 154.558594-23.511719c1.761718-.320312 3.601562-.488281 5.441406-.488281 17.679688 0 32 14.320312 32 32 0 11.839844-6.398438 22.167969-16 27.6875l-216 116.3125-184-24v-184h72l125.519531 24.488281c15.039063 2.558594 26.480469 15.679688 26.480469 31.511719zm0 0" fill="#d7e9ff"/><path d="m487.710938 332.28125c-1.335938 10.015625-7.285157 18.558594-15.710938 23.40625l-210.335938 109.167969-173.664062-23.496094v38.640625l184 24 216-116.3125c9.601562-5.519531 16-15.839844 16-27.6875 0-11.9375-6.601562-22.214844-16.289062-27.71875zm0 0" fill="#94c1ff"/><path d="m336 96c0 35.359375-28.640625 64-64 64s-64-28.640625-64-64v-24c0 35.359375 28.640625 64 64 64s64-28.640625 64-64zm0 0" fill="#94c1ff"/><path d="m336 72c0 35.347656-28.652344 64-64 64s-64-28.652344-64-64 28.652344-64 64-64 64 28.652344 64 64zm0 0" fill="#d7e9ff"/><path d="m360.960938 167.039062c9.359374 9.359376-14.640626 48.5625-24 57.921876-9.359376 9.359374-24.5625 9.359374-33.921876 0-9.359374-9.359376-9.359374-24.5625 0-33.921876 9.359376-9.359374 48.5625-33.359374 57.921876-24zm0 0" fill="#d7e9ff"/><path d="m384 341.039062-72 10.960938c0-15.761719-11.441406-28.960938-26.480469-31.519531l-78.320312-15.28125 64.800781-49.199219zm0 0" fill="#94c1ff"/><g fill="#116fff"><path d="m272 144c-39.703125 0-72-32.296875-72-72s32.296875-72 72-72 72 32.296875 72 72-32.296875 72-72 72zm0-128c-30.871094 0-56 25.128906-56 56s25.128906 56 56 56 56-25.128906 56-56-25.128906-56-56-56zm0 0"/><path d="m272 168c-39.703125 0-72-32.304688-72-72.007812 0-4.425782 3.574219-8 8-8s8 3.574218 8 8c0 30.878906 25.128906 56.007812 56 56.007812s56-25.128906 56-56.007812c0-4.425782 3.574219-8 8-8s8 3.574218 8 8c0 39.703124-32.296875 72.007812-72 72.007812zm0 0"/><path d="m336 103.992188c-4.425781 0-8-3.578126-8-8v-23.992188c0-4.425781 3.574219-8 8-8s8 3.574219 8 8v23.992188c0 4.421874-3.574219 8-8 8zm0 0"/><path d="m208 103.992188c-4.425781 0-8-3.578126-8-8v-23.992188c0-4.425781 3.574219-8 8-8s8 3.574219 8 8v23.992188c0 4.421874-3.574219 8-8 8zm0 0"/><path d="m48.238281 480c-4.421875 0-8.039062-3.574219-8.039062-8s3.535156-8 7.953125-8h.085937c4.417969 0 8 3.574219 8 8s-3.582031 8-8 8zm0 0"/><path d="m488.015625 395.71875c-2.769531 0-5.457031-1.429688-6.925781-3.992188-2.21875-3.832031-.90625-8.71875 2.910156-10.925781 7.40625-4.28125 12-12.25 12-20.800781 0-13.230469-10.769531-24-24-24-4.425781 0-8-3.574219-8-8s3.574219-8 8-8c22.054688 0 40 17.945312 40 40 0 14.230469-7.65625 27.511719-19.984375 34.640625-1.261719.734375-2.640625 1.078125-4 1.078125zm0 0"/><path d="m272.007812 512c-2.847656 0-5.609374-1.519531-7.054687-4.207031-2.097656-3.890625-.632813-8.746094 3.253906-10.832031l216-116.289063c3.871094-2.085937 8.738281-.632813 10.832031 3.257813 2.097657 3.886718.632813 8.742187-3.253906 10.832031l-216 116.285156c-1.199218.648437-2.496094.953125-3.777344.953125zm0 0"/><path d="m272.007812 512c-.34375 0-.6875-.023438-1.039062-.070312l-184-24c-4.382812-.570313-7.480469-4.585938-6.898438-8.960938.570313-4.382812 4.554688-7.503906 8.960938-6.898438l184 24c4.382812.570313 7.480469 4.585938 6.898438 8.960938-.523438 4.03125-3.960938 6.96875-7.921876 6.96875zm0 0"/><path d="m88 504h-80c-4.425781 0-8-3.574219-8-8v-216c0-4.425781 3.574219-8 8-8h80c4.425781 0 8 3.574219 8 8v216c0 4.425781-3.574219 8-8 8zm-72-16h64v-200h-64zm0 0"/><path d="m311.992188 360c-3.886719 0-7.296876-2.832031-7.894532-6.800781-.664062-4.367188 2.335938-8.445313 6.703125-9.109375l154.535157-23.523438c4.359374-.695312 8.457031 2.335938 9.113281 6.707032.664062 4.367187-2.335938 8.445312-6.707031 9.109374l-154.535157 23.519532c-.40625.066406-.816406.097656-1.214843.097656zm0 0"/><path d="m280 392c-4.425781 0-8-3.574219-8-8s3.574219-8 8-8c13.230469 0 24-10.769531 24-24 0-11.710938-8.351562-21.65625-19.863281-23.640625-4.351563-.75-7.273438-4.886719-6.519531-9.238281.75-4.351563 4.910156-7.25 9.238281-6.519532 19.207031 3.292969 33.144531 19.878907 33.144531 39.398438 0 22.054688-17.945312 40-40 40zm0 0"/><path d="m285.503906 328.480469c-.503906 0-1.023437-.046875-1.535156-.152344l-125.503906-24.480469c-4.335938-.839844-7.167969-5.046875-6.320313-9.382812.839844-4.34375 5.039063-7.183594 9.382813-6.320313l125.503906 24.480469c4.335938.839844 7.167969 5.046875 6.320312 9.382812-.742187 3.824219-4.09375 6.472657-7.847656 6.472657zm0 0"/><path d="m160 304h-72c-4.425781 0-8-3.574219-8-8s3.574219-8 8-8h72c4.425781 0 8 3.574219 8 8s-3.574219 8-8 8zm0 0"/><path d="m276.640625 391.824219c-.207031 0-.417969-.007813-.625-.023438l-100.632813-7.824219c-4.40625-.34375-7.703124-4.183593-7.359374-8.59375.34375-4.414062 4.183593-7.71875 8.59375-7.359374l100.628906 7.824218c4.410156.34375 7.707031 4.183594 7.363281 8.59375-.328125 4.191406-3.824219 7.382813-7.96875 7.382813zm0 0"/><path d="m466.519531 336.464844c-3.832031 0-7.207031-2.753906-7.871093-6.648438-.753907-4.351562 2.167968-8.488281 6.527343-9.230468 2.230469-.394532 4.519531-.585938 6.824219-.585938 4.425781 0 8 3.574219 8 8s-3.574219 8-8 8c-1.40625 0-2.785156.121094-4.121094.34375-.445312.082031-.910156.121094-1.359375.121094zm0 0"/><path d="m280 392c-1.425781 0-2.824219-.078125-4.191406-.222656-4.402344-.472656-7.578125-4.410156-7.113282-8.800782.472657-4.402343 4.382813-7.59375 8.800782-7.113281.824218.089844 1.664062.136719 2.503906.136719 4.425781 0 8 3.574219 8 8s-3.574219 8-8 8zm0 0"/><path d="m383.992188 349.039062c-1.6875 0-3.382813-.527343-4.832032-1.625l-112-85.039062c-3.519531-2.671875-4.207031-7.695312-1.535156-11.207031 2.679688-3.527344 7.695312-4.199219 11.207031-1.535157l112 85.039063c3.519531 2.671875 4.207031 7.695313 1.535157 11.207031-1.566407 2.074219-3.960938 3.160156-6.375 3.160156zm0 0"/><path d="m207.199219 313.199219c-2.421875 0-4.808594-1.085938-6.382813-3.167969-2.671875-3.511719-1.984375-8.535156 1.535156-11.207031l64.808594-49.199219c3.519532-2.664062 8.527344-1.984375 11.207032 1.535156 2.671874 3.511719 1.984374 8.535156-1.535157 11.207032l-64.808593 49.199218c-1.4375 1.105469-3.136719 1.632813-4.824219 1.632813zm0 0"/><path d="m272 264c-4.425781 0-8-3.574219-8-8v-96c0-4.425781 3.574219-8 8-8s8 3.574219 8 8v96c0 4.425781-3.574219 8-8 8zm0 0"/><path d="m320 240c-8.542969 0-16.574219-3.328125-22.625-9.375-6.046875-6.050781-9.375-14.082031-9.375-22.625s3.328125-16.574219 9.375-22.625c8.457031-8.453125 39.59375-28.480469 57.128906-28.480469 5.082032 0 9.160156 1.503907 12.128906 4.480469 6.933594 6.9375 5.816407 19.425781-3.457031 38.167969-5.863281 11.871093-14.703125 25.234375-20.542969 31.082031-6.058593 6.046875-14.089843 9.375-22.632812 9.375zm34.503906-67.105469c-11.375 0-38.382812 16.363281-45.816406 23.792969-3.023438 3.023438-4.6875 7.039062-4.6875 11.3125s1.664062 8.289062 4.6875 11.3125c6.046875 6.046875 16.578125 6.046875 22.625 0 9.527344-9.527344 25.070312-38.625 23.832031-46.390625-.167969-.019531-.382812-.027344-.640625-.027344zm0 0"/><path d="m272 96c-4.425781 0-8-3.574219-8-8v-32c0-4.425781 3.574219-8 8-8s8 3.574219 8 8v32c0 4.425781-3.574219 8-8 8zm0 0"/></g></svg>