<svg height="511pt" viewBox="0 -19 511.98627 511" width="511pt" xmlns="http://www.w3.org/2000/svg"><path d="m312.453125 291.613281-90.472656-90.480469-22.636719-22.640624-90.488281-90.480469s62.964843 24.160156 112.71875 68.320312c4 3.441407 7.917969 7.121094 11.6875 10.875 3.753906 3.765625 7.441406 7.679688 10.871093 11.679688 44.160157 49.773437 68.320313 112.726562 68.320313 112.726562zm0 0" fill="#d7e9ff"/><path d="m35.34375 387.773438c-6.328125 6.238281-16.410156 6.238281-22.640625 0-6.25-6.242188-6.328125-16.320313 0-22.640626l186.640625-186.640624 22.636719 22.640624zm0 0" fill="#94c1ff"/><path d="m261.574219 161.53125-17.359375 17.28125-.082032.082031c-3.4375-4-7.125-7.914062-10.871093-11.679687-3.769531-3.761719-7.6875-7.441406-11.6875-10.875l.078125-.085938 17.28125-17.359375zm0 0" fill="#94c1ff"/><path d="m463.980469 131.851562c-7.4375 2.960938-15.527344 4.640626-24 4.640626-8.488281 0-16.558594-1.679688-24-4.640626-23.4375-9.511718-40-32.476562-40-59.359374v32c0 26.882812 16.5625 49.839843 40 59.359374 7.441406 2.960938 15.511719 4.640626 24 4.640626 8.472656 0 16.5625-1.679688 24-4.640626 23.441406-9.511718 40-32.476562 40-59.359374v-32c0 26.882812-16.558594 49.839843-40 59.359374zm0 0" fill="#94c1ff"/><path d="m503.980469 72.492188c0 26.882812-16.558594 49.839843-40 59.359374-7.4375 2.960938-15.527344 4.640626-24 4.640626-8.488281 0-16.558594-1.679688-24-4.640626-23.4375-9.511718-40-32.476562-40-59.359374 0-35.359376 28.640625-64 64-64 35.363281 0 64 28.640624 64 64zm0 0" fill="#d7e9ff"/><path d="m423.980469 228.492188c0 11.046874-8.953125 20-20 20-11.042969 0-20-8.953126-20-20 0-11.042969 8.957031-20 20-20 11.046875 0 20 8.957031 20 20zm0 0" fill="#d7e9ff"/><path d="m503.980469 276.492188v24c0 15.441406-12.558594 28-28 28-15.4375 0-28-12.558594-28-28v-24c0 15.441406 12.5625 28 28 28 15.441406 0 28-12.558594 28-28zm0 0" fill="#94c1ff"/><path d="m503.980469 276.492188c0 15.441406-12.558594 28-28 28-15.4375 0-28-12.558594-28-28 0-15.4375 12.5625-28 28-28 15.441406 0 28 12.5625 28 28zm0 0" fill="#d7e9ff"/><path d="m487.574219 408.492188 16.40625 56h-320.40625l88-104 24 16 80-80zm0 0" fill="#d7e9ff"/><path d="m487.574219 408.492188-112-112-16 16 104 104 12.40625 48h28zm0 0" fill="#94c1ff"/><g fill="#116fff"><path d="m12.671875 373.179688c-2.050781 0-4.097656-.78125-5.65625-2.34375-3.128906-3.125-3.128906-8.183594 0-11.3125l186.679687-186.671876c3.125-3.125 8.183594-3.125 11.3125 0 3.125 3.128907 3.125 8.1875 0 11.3125l-186.683593 186.671876c-1.558594 1.5625-3.605469 2.34375-5.652344 2.34375zm0 0"/><path d="m35.300781 395.8125c-2.046875 0-4.09375-.785156-5.65625-2.34375-3.125-3.128906-3.125-8.183594 0-11.3125l186.671875-186.679688c3.128906-3.128906 8.1875-3.128906 11.3125 0 3.128906 3.128907 3.128906 8.183594 0 11.3125l-186.671875 186.679688c-1.558593 1.558594-3.605469 2.34375-5.65625 2.34375zm0 0"/><path d="m23.988281 400.484375c-6.148437 0-12.292969-2.335937-16.972656-7.007813-9.355469-9.375-9.355469-24.597656 0-33.953124 3.125-3.125 8.183594-3.125 11.308594 0 3.128906 3.128906 3.128906 8.1875 0 11.3125-3.117188 3.121093-3.117188 8.191406.011719 11.320312 3.117187 3.121094 8.191406 3.113281 11.308593-.007812 3.128907-3.109376 8.195313-3.121094 11.320313.007812 3.121094 3.136719 3.121094 8.191406-.007813 11.320312-4.679687 4.671876-10.824219 7.007813-16.96875 7.007813zm0 0"/><path d="m312.484375 299.644531c-2.046875 0-4.09375-.785156-5.65625-2.34375l-203.644531-203.648437c-3.128906-3.128906-3.128906-8.183594 0-11.3125 3.125-3.125 8.183594-3.125 11.308594 0l203.648437 203.648437c3.128906 3.128907 3.128906 8.183594 0 11.3125-1.566406 1.558594-3.613281 2.34375-5.65625 2.34375zm0 0"/><path d="m312.484375 299.644531c-3.207031 0-6.238281-1.945312-7.46875-5.128906-.273437-.71875-28.3125-72.589844-77.386719-121.664063-49.0625-49.070312-120.941406-77.117187-121.664062-77.390624-4.125-1.59375-6.175782-6.214844-4.582032-10.34375 1.574219-4.136719 6.222657-6.160157 10.335938-4.59375 3.0625 1.175781 75.710938 29.496093 127.222656 81.019531 51.519532 51.519531 79.832032 124.167969 81.007813 127.222656 1.585937 4.128906-.480469 8.75-4.589844 10.335937-.945313.367188-1.914063.542969-2.875.542969zm0 0"/><path d="m221.621094 164.238281c-2.046875 0-4.09375-.785156-5.65625-2.34375-3.125-3.128906-3.125-8.183593 0-11.3125l17.328125-17.328125c3.128906-3.128906 8.183593-3.128906 11.3125 0 3.128906 3.128906 3.128906 8.183594 0 11.3125l-17.328125 17.328125c-1.558594 1.558594-3.605469 2.34375-5.65625 2.34375zm0 0"/><path d="m261.574219 169.542969c-2.046875 0-4.097657-.785157-5.65625-2.347657l-22.625-22.628906c-3.128907-3.128906-3.128907-8.183594 0-11.3125 3.128906-3.128906 8.183593-3.128906 11.3125 0l22.625 22.632813c3.128906 3.125 3.128906 8.183593 0 11.308593-1.558594 1.5625-3.609375 2.347657-5.65625 2.347657zm0 0"/><path d="m244.246094 186.867188c-2.046875 0-4.097656-.78125-5.65625-2.34375-3.128906-3.125-3.128906-8.183594 0-11.308594l17.328125-17.328125c3.128906-3.128907 8.183593-3.128907 11.3125 0 3.128906 3.125 3.128906 8.183593 0 11.308593l-17.328125 17.328126c-1.558594 1.5625-3.609375 2.34375-5.65625 2.34375zm0 0"/><path d="m183.550781 472.492188c-1.824219 0-3.65625-.625-5.160156-1.886719-3.375-2.855469-3.800781-7.90625-.945313-11.273438l88-104c2.847657-3.367187 7.90625-3.789062 11.273438-.941406 3.375 2.855469 3.800781 7.902344.941406 11.269531l-88 104c-1.574218 1.871094-3.839844 2.832032-6.109375 2.832032zm0 0"/><path d="m295.550781 384.492188c-1.519531 0-3.066406-.4375-4.433593-1.34375l-24-16c-3.679688-2.457032-4.671876-7.414063-2.214844-11.09375 2.449218-3.679688 7.398437-4.664063 11.09375-2.21875l24 16c3.683594 2.457031 4.675781 7.417968 2.21875 11.097656-1.535156 2.3125-4.074219 3.558594-6.664063 3.558594zm0 0"/><path d="m295.558594 384.492188c-2.046875 0-4.097656-.78125-5.65625-2.34375-3.128906-3.128907-3.128906-8.183594 0-11.3125l80-80c3.128906-3.125 8.183594-3.125 11.3125 0 3.128906 3.128906 3.128906 8.183593 0 11.3125l-80 80c-1.5625 1.5625-3.609375 2.34375-5.65625 2.34375zm0 0"/><path d="m487.558594 416.492188c-2.046875 0-4.097656-.78125-5.65625-2.34375l-112-112c-3.128906-3.128907-3.128906-8.183594 0-11.3125 3.128906-3.125 8.183594-3.125 11.3125 0l112 112c3.128906 3.128906 3.128906 8.183593 0 11.3125-1.5625 1.5625-3.609375 2.34375-5.65625 2.34375zm0 0"/><path d="m503.980469 472.492188c-3.460938 0-6.65625-2.253907-7.679688-5.75l-16.421875-56c-1.242187-4.242188 1.183594-8.679688 5.429688-9.929688 4.25-1.222656 8.6875 1.183594 9.929687 5.433594l16.421875 56c1.242188 4.238281-1.183594 8.679687-5.429687 9.925781-.746094.21875-1.503907.320313-2.25.320313zm0 0"/><path d="m343.980469 296.492188c-4.421875 0-8-3.574219-8-8v-48c0-4.421876 3.578125-8 8-8 4.425781 0 8 3.578124 8 8v48c0 4.425781-3.574219 8-8 8zm0 0"/><path d="m303.980469 328.492188h-48c-4.421875 0-8-3.574219-8-8 0-4.421876 3.578125-8 8-8h48c4.425781 0 8 3.578124 8 8 0 4.425781-3.574219 8-8 8zm0 0"/><path d="m439.980469 144.492188c-39.703125 0-72-32.296876-72-72 0-39.703126 32.296875-72 72-72 39.707031 0 72 32.296874 72 72 0 39.703124-32.292969 72-72 72zm0-128c-30.871094 0-56 25.128906-56 56 0 30.871093 25.128906 56 56 56 30.875 0 56-25.128907 56-56 0-30.871094-25.125-56-56-56zm0 0"/><path d="m439.980469 176.492188c-39.703125 0-72-32.296876-72-72 0-4.421876 3.578125-8 8-8 4.425781 0 8 3.578124 8 8 0 30.871093 25.128906 56 56 56 30.875 0 56-25.128907 56-56 0-4.421876 3.578125-8 8-8 4.425781 0 8 3.578124 8 8 0 39.703124-32.292969 72-72 72zm0 0"/><path d="m475.980469 312.492188c-19.847657 0-36-16.152344-36-36 0-19.847657 16.152343-36 36-36 19.847656 0 36 16.152343 36 36 0 19.847656-16.152344 36-36 36zm0-56c-11.03125 0-20 8.96875-20 20s8.96875 20 20 20c11.035156 0 20-8.96875 20-20s-8.964844-20-20-20zm0 0"/><path d="m475.980469 336.492188c-19.847657 0-36-16.152344-36-36 0-4.421876 3.578125-8 8-8 4.425781 0 8 3.578124 8 8 0 11.03125 8.96875 20 20 20 11.035156 0 20-8.96875 20-20 0-4.421876 3.578125-8 8-8 4.425781 0 8 3.578124 8 8 0 19.847656-16.152344 36-36 36zm0 0"/><path d="m447.980469 308.492188c-4.421875 0-8-3.574219-8-8v-24c0-4.421876 3.578125-8 8-8 4.425781 0 8 3.578124 8 8v24c0 4.425781-3.574219 8-8 8zm0 0"/><path d="m503.980469 308.492188c-4.421875 0-8-3.574219-8-8v-24c0-4.421876 3.578125-8 8-8 4.425781 0 8 3.578124 8 8v24c0 4.425781-3.574219 8-8 8zm0 0"/><path d="m403.980469 256.492188c-15.4375 0-28-12.558594-28-28 0-15.4375 12.5625-28 28-28 15.441406 0 28 12.5625 28 28 0 15.441406-12.558594 28-28 28zm0-40c-6.613281 0-12 5.386718-12 12 0 6.617187 5.386719 12 12 12 6.617187 0 12-5.382813 12-12 0-6.613282-5.382813-12-12-12zm0 0"/><path d="m503.980469 472.492188h-320.421875c-4.425782 0-8-3.574219-8-8 0-4.421876 3.574218-8 8-8h320.421875c4.425781 0 8 3.578124 8 8 0 4.425781-3.574219 8-8 8zm0 0"/><path d="m375.980469 112.492188c-4.421875 0-8-3.574219-8-8v-32c0-4.421876 3.578125-8 8-8 4.425781 0 8 3.578124 8 8v32c0 4.425781-3.574219 8-8 8zm0 0"/><path d="m503.980469 112.492188c-4.421875 0-8-3.574219-8-8v-32c0-4.421876 3.578125-8 8-8 4.425781 0 8 3.578124 8 8v32c0 4.425781-3.574219 8-8 8zm0 0"/><path d="m415.980469 171.835938c-4.421875 0-8-3.574219-8-8v-32c0-4.421876 3.578125-8 8-8 4.425781 0 8 3.578124 8 8v32c0 4.425781-3.574219 8-8 8zm0 0"/><path d="m463.980469 171.835938c-4.421875 0-8-3.574219-8-8v-32c0-4.421876 3.578125-8 8-8 4.425781 0 8 3.578124 8 8v32c0 4.425781-3.574219 8-8 8zm0 0"/><path d="m439.980469 96.492188c-4.421875 0-8-3.574219-8-8v-32c0-4.421876 3.578125-8 8-8 4.425781 0 8 3.578124 8 8v32c0 4.425781-3.574219 8-8 8zm0 0"/></g></svg>