<svg height="512pt" viewBox="-44 0 512 512" width="512pt" xmlns="http://www.w3.org/2000/svg"><path d="m232.027344 114.558594c-7.28125 3.511718-15.441406 5.441406-24 5.441406-8.554688 0-16.722656-1.921875-24-5.441406-18.960938-8.957032-32-28.167969-32-50.558594v32c0 22.398438 13.039062 41.601562 32 50.558594 7.277344 3.511718 15.445312 5.441406 24 5.441406 8.558594 0 16.71875-1.921875 24-5.441406 18.957031-8.957032 32-28.167969 32-50.558594v-32c0 22.398438-13.042969 41.601562-32 50.558594zm0 0" fill="#94c1ff"/><path d="m264.027344 64c0 22.398438-13.042969 41.601562-32 50.558594-7.28125 3.511718-15.441406 5.441406-24 5.441406-8.554688 0-16.722656-1.921875-24-5.441406-18.960938-8.957032-32-28.167969-32-50.558594 0-30.960938 25.039062-56 56-56 30.957031 0 56 25.039062 56 56zm0 0" fill="#d7e9ff"/><path d="m183.945312 478.800781v25.199219h-80v-53.039062l.082032-.082032c22.167968 15.441406 49.679687 24.722656 79.917968 27.832032zm0 0" fill="#5c9eff"/><path d="m311.945312 450.960938v53.039062h-80v-25.28125c30.242188-3.117188 57.761719-12.398438 79.921876-27.832031zm0 0" fill="#5c9eff"/><path d="m343.945312 168-18.238281 64v.078125c-16.800781-15.4375-37.914062-26.398437-61.761719-32.871094v-.085937c.480469-17.273438 14.5625-31.121094 32-31.121094zm0 0" fill="#5c9eff"/><path d="m415.945312 296 .082032 80-65.121094 32h-.082031c10.960937-19.921875 17.121093-43.921875 17.121093-72s-6.160156-52.078125-17.121093-72h.082031zm0 0" fill="#5c9eff"/><path d="m207.945312 192c19.679688 0 38.5625 2.398438 56 7.199219 23.839844 6.480469 44.960938 17.441406 61.761719 32.871093 10 9.042969 18.488281 19.769532 25.128907 31.921876 10.957031 19.917968 17.117187 43.917968 17.117187 72 0 28.078124-6.160156 52.078124-17.117187 72-9.523438 17.519531-22.882813 31.839843-38.960938 42.878906-22.167969 15.441406-49.679688 24.722656-79.921875 27.832031-7.839844.882813-15.839844 1.28125-24 1.28125s-16.160156-.398437-24-1.28125c-30.238281-3.117187-57.757813-12.398437-79.917969-27.832031-34.320312-23.679688-56.082031-62-56.082031-114.878906 0-27.601563 5.921875-51.28125 16.480469-70.878907 26.082031-48.714843 80.550781-73.113281 143.511718-73.113281zm0 0" fill="#94c1ff"/><g fill="#116fff"><path d="m208.066406 128c-35.289062 0-64-28.710938-64-64s28.710938-64 64-64c35.289063 0 64 28.710938 64 64s-28.710937 64-64 64zm0-112c-26.472656 0-48 21.527344-48 48s21.527344 48 48 48 48-21.527344 48-48-21.535156-48-48-48zm0 0"/><path d="m208.066406 160c-35.289062 0-64-28.710938-64-64 0-4.414062 3.574219-8 8-8 4.421875 0 8 3.585938 8 8 0 26.472656 21.527344 48 48 48s48-21.527344 48-48c0-4.414062 3.574219-8 8-8 4.421875 0 8 3.585938 8 8 0 35.289062-28.710937 64-64 64zm0 0"/><path d="m207.984375 488c-102.054687 0-168-59.671875-168-152.015625 0-92.328125 65.945313-151.984375 168-151.984375 102.058594 0 168 59.65625 168 151.984375 0 92.34375-65.941406 152.015625-168 152.015625zm0-288c-73.488281 0-152 35.71875-152 135.984375 0 100.28125 78.511719 136.015625 152 136.015625s152-35.734375 152-136.015625c0-100.265625-78.511719-135.984375-152-135.984375zm0 0"/><path d="m143.976562 235.273438c-3.191406 0-6.214843-1.9375-7.453124-5.097657-1.609376-4.121093.429687-8.75 4.535156-10.359375 19.800781-7.726562 42.933594-11.816406 66.925781-11.816406 23.960937 0 47.097656 4.078125 66.882813 11.800781 4.117187 1.605469 6.152343 6.238281 4.542968 10.359375s-6.257812 6.144532-10.359375 4.542969c-17.953125-7-39.074219-10.703125-61.066406-10.703125-22.015625 0-43.148437 3.703125-61.09375 10.71875-.960937.371094-1.945313.554688-2.914063.554688zm0 0"/><path d="m231.984375 512c-4.421875 0-8-3.574219-8-8v-25.222656c0-4.425782 3.578125-8 8-8 4.425781 0 8 3.574218 8 8v25.222656c0 4.425781-3.574219 8-8 8zm0 0"/><path d="m311.984375 512h-80c-4.421875 0-8-3.574219-8-8s3.578125-8 8-8h80c4.425781 0 8 3.574219 8 8s-3.574219 8-8 8zm0 0"/><path d="m311.984375 512c-4.421875 0-8-3.574219-8-8v-53.078125c0-4.425781 3.578125-8 8-8 4.425781 0 8 3.574219 8 8v53.078125c0 4.425781-3.574219 8-8 8zm0 0"/><path d="m183.984375 512c-4.421875 0-8-3.574219-8-8v-25.222656c0-4.425782 3.578125-8 8-8 4.425781 0 8 3.574218 8 8v25.222656c0 4.425781-3.574219 8-8 8zm0 0"/><path d="m183.984375 512h-80c-4.421875 0-8-3.574219-8-8s3.578125-8 8-8h80c4.425781 0 8 3.574219 8 8s-3.574219 8-8 8zm0 0"/><path d="m103.984375 512c-4.421875 0-8-3.574219-8-8v-53.078125c0-4.425781 3.578125-8 8-8 4.425781 0 8 3.574219 8 8v53.078125c0 4.425781-3.574219 8-8 8zm0 0"/><path d="m350.929688 416c-2.953126 0-5.800782-1.640625-7.183594-4.472656-1.945313-3.96875-.3125-8.765625 3.648437-10.710938l65.144531-32c4.007813-1.929687 8.773438-.304687 10.710938 3.648438 1.945312 3.96875.3125 8.765625-3.648438 10.710937l-65.144531 32c-1.144531.558594-2.34375.824219-3.527343.824219zm0 0"/><path d="m416.058594 304c-1.175782 0-2.382813-.265625-3.519532-.824219l-65.128906-32c-3.960937-1.945312-5.59375-6.742187-3.648437-10.703125 1.945312-3.96875 6.710937-5.625 10.710937-3.65625l65.128906 32c3.960938 1.945313 5.59375 6.742188 3.648438 10.710938-1.390625 2.832031-4.238281 4.472656-7.191406 4.472656zm0 0"/><path d="m416.066406 384c-4.417968 0-7.992187-3.574219-8-7.992188l-.082031-80c-.007813-4.421874 3.570313-8 7.992187-8.007812h.007813c4.417969 0 7.992187 3.574219 8 7.992188l.082031 80c.007813 4.421874-3.570312 8-8 8.007812zm0 0"/><path d="m325.738281 240c-.734375 0-1.472656-.105469-2.199219-.3125-4.25-1.207031-6.714843-5.640625-5.503906-9.886719l18.253906-64c1.226563-4.257812 5.679688-6.695312 9.890626-5.496093 4.246093 1.207031 6.710937 5.640624 5.503906 9.886718l-18.257813 64c-1.007812 3.519532-4.214843 5.808594-7.6875 5.808594zm0 0"/><path d="m343.984375 176h-48c-4.421875 0-8-3.585938-8-8s3.578125-8 8-8h48c4.425781 0 8 3.585938 8 8s-3.574219 8-8 8zm0 0"/><path d="m264.003906 207.160156c-.082031 0-.152344 0-.21875 0-4.421875-.121094-7.902344-3.792968-7.792968-8.207031.585937-21.847656 18.152343-38.953125 39.992187-38.953125 4.425781 0 8 3.585938 8 8s-3.574219 8-8 8c-13.109375 0-23.644531 10.265625-23.992187 23.367188-.117188 4.34375-3.679688 7.792968-7.988282 7.792968zm0 0"/><path d="m44.546875 278.609375c-12.113281 0-24.089844-4.707031-33.128906-13.753906-15.222657-15.222657-15.222657-40.007813 0-55.230469 12.816406-12.816406 33.640625-12.816406 46.457031 0 10.863281 10.863281 10.863281 28.550781 0 39.421875-9.015625 9.042969-24.777344 9.042969-33.808594 0-3.128906-3.125-3.128906-8.183594 0-11.3125 3.128906-3.125 8.183594-3.125 11.3125 0 3 2.992187 8.183594 2.992187 11.167969 0 4.640625-4.636719 4.640625-12.167969.007813-16.796875-6.5625-6.570312-17.25-6.570312-23.832032 0-8.992187 8.992188-8.992187 23.613281 0 32.605469 10.007813 10.007812 25.480469 11.953125 37.597656 4.679687 3.792969-2.261718 8.714844-1.03125 10.976563 2.761719 2.265625 3.792969 1.03125 8.695313-2.757813 10.976563-7.449218 4.472656-15.753906 6.648437-23.992187 6.648437zm0 0"/><path d="m208.066406 88c-4.425781 0-8-3.585938-8-8v-32c0-4.414062 3.574219-8 8-8 4.421875 0 8 3.585938 8 8v32c0 4.414062-3.578125 8-8 8zm0 0"/><path d="m264.066406 104c-4.425781 0-8-3.585938-8-8v-32c0-4.414062 3.574219-8 8-8 4.421875 0 8 3.585938 8 8v32c0 4.414062-3.578125 8-8 8zm0 0"/><path d="m152.066406 104c-4.425781 0-8-3.585938-8-8v-32c0-4.414062 3.574219-8 8-8 4.421875 0 8 3.585938 8 8v32c0 4.414062-3.578125 8-8 8zm0 0"/><path d="m184.066406 154.609375c-4.425781 0-8-3.585937-8-8v-32c0-4.417969 3.574219-8 8-8 4.421875 0 8 3.582031 8 8v32c0 4.414063-3.578125 8-8 8zm0 0"/><path d="m232.074219 154.609375c-4.425781 0-8-3.585937-8-8v-32c0-4.417969 3.574219-8 8-8 4.421875 0 8 3.582031 8 8v32c0 4.414063-3.578125 8-8 8zm0 0"/></g></svg>