<?xml version="1.0" encoding="UTF-8" standalone="no"?>
<!DOCTYPE svg PUBLIC "-//W3C//DTD SVG 1.1//EN" "http://www.w3.org/Graphics/SVG/1.1/DTD/svg11.dtd">
<svg version="1.1" xmlns="http://www.w3.org/2000/svg" xmlns:xlink="http://www.w3.org/1999/xlink" preserveAspectRatio="xMidYMid meet" viewBox="0 0 640 640" width="640" height="640"><defs><path d="M438.62 248.64C342.82 248.64 265.17 326.29 265.17 422.09C265.17 517.88 342.82 595.53 438.62 595.53C534.41 595.53 612.06 517.88 612.06 422.09C612.06 326.29 534.41 248.64 438.62 248.64Z" id="aA1I6OgaD"></path><path d="M438.62 289.45C365.36 289.45 305.98 348.83 305.98 422.09C305.98 495.34 365.36 554.72 438.62 554.72C511.87 554.72 571.25 495.34 571.25 422.09C571.25 348.83 511.87 289.45 438.62 289.45Z" id="a4fSip7lq1"></path><path d="M183.55 401.68L142.74 401.68C142.74 413.92 142.74 420.73 142.74 422.09C142.74 433.36 151.87 442.49 163.14 442.49C174.41 442.49 183.55 433.36 183.55 422.09C183.55 419.37 183.55 412.56 183.55 401.68Z" id="cmLdPzjca"></path><path d="M193.75 401.68C205.02 401.68 214.16 392.54 214.16 381.28C214.16 380.6 214.16 377.19 214.16 371.07L112.13 371.07C112.13 377.19 112.13 380.6 112.13 381.28C112.13 392.54 121.26 401.68 132.53 401.68C144.78 401.68 181.51 401.68 193.75 401.68Z" id="bgJxnMt5q"></path><path d="M112.13 340.46L214.16 340.46L214.16 371.07L112.13 371.07L112.13 340.46Z" id="a6XMzK0j8"></path><path d="M214.16 300.31C201.07 305.32 187.32 308.36 173.35 309.34C173.35 309.37 173.35 309.54 173.35 309.86C173.35 309.54 173.35 309.37 173.35 309.34C169.95 309.58 166.56 309.86 163.14 309.86C159.72 309.86 156.3 309.58 152.94 309.34C152.94 309.37 152.94 309.54 152.94 309.86C152.94 309.54 152.94 309.37 152.94 309.34C138.96 308.36 125.21 305.32 112.13 300.31C112.13 302.98 112.13 316.37 112.13 340.46L214.16 340.46C214.16 319.05 214.16 305.66 214.16 300.31Z" id="b8AMA80mr"></path><path d="M356.98 564.92L346.79 513.91L275.37 585.33L285.58 615.94L356.98 564.92Z" id="ifZ6OffGy"></path><path d="M295.78 503.71L244.76 575.13L275.37 585.33L346.79 513.91L295.78 503.71Z" id="b4xcpwSOi"></path><path d="M163.14 24.18C84.26 24.18 20.3 88.13 20.3 167.02C20.3 245.91 84.26 309.86 163.14 309.86C242.03 309.86 305.98 245.91 305.98 167.02C305.98 88.13 242.03 24.18 163.14 24.18Z" id="a9BoK3Vn0"></path><path d="M438.62 340.46C393.54 340.46 356.99 377.01 356.99 422.09C356.99 467.16 393.54 503.71 438.62 503.71C483.69 503.71 520.24 467.16 520.24 422.09C520.24 377.01 483.69 340.46 438.62 340.46Z" id="colCuzzMy"></path><path d="M438.62 391.48C421.71 391.48 408.01 405.18 408.01 422.09C408.01 438.99 421.71 452.69 438.62 452.69C455.52 452.69 469.22 438.99 469.22 422.09C469.22 405.18 455.52 391.48 438.62 391.48Z" id="e1NYrGf6Je"></path><path d="M254.97 422.29C254.98 444.36 258.97 466.25 266.74 486.9C268.65 486.18 283.92 480.42 285.83 479.7C254.1 395.4 296.7 301.34 381 269.61C465.3 237.87 559.36 280.48 591.1 364.78C622.83 449.07 580.22 543.14 495.92 574.87C458.89 588.82 418.04 588.82 381 574.87C380.28 576.78 374.52 592.05 373.8 593.96C468.72 629.69 574.64 581.71 610.37 486.78C646.1 391.86 598.12 285.94 503.2 250.21C482.55 242.44 460.67 238.45 438.62 238.44C337.13 238.49 254.91 320.81 254.97 422.29Z" id="c2XTNJxYUx"></path><path d="M402.91 483.96C401.89 485.72 393.72 499.85 392.7 501.62C436.63 526.95 492.79 511.88 518.12 467.95C543.46 424.02 528.38 367.86 484.45 342.53C440.52 317.19 384.37 332.27 359.03 376.2C342.66 404.59 342.66 439.56 359.03 467.95C360.8 466.93 374.93 458.76 376.7 457.74C357 423.57 368.74 379.9 402.92 360.21C437.09 340.51 480.76 352.25 500.46 386.43C520.15 420.6 508.41 464.27 474.23 483.97C463.4 490.21 451.12 493.5 438.62 493.51C426.08 493.51 413.77 490.22 402.91 483.96Z" id="d6xga43B4y"></path><path d="M383.67 553.97C456.44 584.21 539.95 549.74 570.19 476.97C600.44 404.2 565.97 320.7 493.2 290.45C420.43 260.21 336.92 294.68 306.68 367.45C292.08 402.57 292.11 442.08 306.77 477.18C308.65 476.39 323.72 470.09 325.6 469.3C299.62 406.95 329.11 335.35 391.46 309.38C453.81 283.4 525.41 312.89 551.39 375.24C577.36 437.59 547.88 509.19 485.53 535.16C455.45 547.7 421.62 547.71 391.53 535.19C389.96 538.95 385.25 550.21 383.67 553.97Z" id="alvHaBosd"></path><path d="M173.22 14.19L179.12 14.7L184.98 15.43L190.8 16.39L196.58 17.57L202.29 18.97L207.94 20.59L213.53 22.42L219.04 24.46L224.46 26.71L229.8 29.17L235.05 31.83L240.19 34.69L245.23 37.74L250.15 41L254.95 44.45L259.62 48.09L264.16 51.91L268.56 55.93L272.81 60.12L276.91 64.5L280.85 69.05L284.62 73.78L288.22 78.69L291.64 83.76L294.88 89L297.92 94.41L300.77 99.98L303.41 105.71L305.81 111.55L307.96 117.42L309.86 123.33L311.5 129.27L312.89 135.22L314.04 141.2L314.94 147.18L315.61 153.17L316.03 159.15L316.21 165.12L316.16 171.07L315.88 177.01L315.37 182.91L314.64 188.77L313.68 194.59L312.5 200.36L311.1 206.08L309.48 211.73L307.65 217.32L305.61 222.82L303.36 228.25L300.91 233.59L298.25 238.83L295.39 243.98L292.33 249.01L289.07 253.93L285.62 258.73L281.99 263.4L278.16 267.94L274.15 272.34L269.95 276.59L265.57 280.69L261.02 284.63L256.29 288.41L251.38 292.01L246.31 295.43L241.07 298.66L235.66 301.71L230.09 304.55L224.36 307.19L224.36 381.28L224.33 382.54L224.26 383.79L224.13 385.02L223.96 386.24L223.74 387.44L223.47 388.63L223.16 389.8L222.8 390.95L222.4 392.08L221.95 393.19L221.47 394.28L220.94 395.34L220.38 396.38L219.77 397.4L219.13 398.39L218.45 399.35L217.74 400.29L216.99 401.19L216.21 402.07L215.39 402.92L214.55 403.73L213.67 404.52L212.76 405.26L211.83 405.98L210.86 406.66L209.87 407.3L208.86 407.9L207.82 408.47L206.75 408.99L205.66 409.48L204.56 409.92L203.43 410.32L202.28 410.68L201.11 410.99L199.92 411.26L198.72 411.48L197.5 411.66L196.26 411.78L195.01 411.86L193.75 411.88L193.75 422.09L193.73 423.07L193.68 424.05L193.6 425.02L193.49 425.99L193.35 426.95L193.18 427.9L192.98 428.83L192.75 429.76L192.49 430.68L192.2 431.59L191.89 432.49L191.55 433.38L191.18 434.25L190.79 435.11L190.37 435.96L189.93 436.79L189.46 437.61L188.96 438.41L188.44 439.19L187.9 439.96L187.33 440.72L186.75 441.45L186.13 442.17L185.5 442.87L184.84 443.55L184.17 444.2L183.47 444.84L182.75 445.46L182.01 446.06L181.26 446.63L180.48 447.18L179.68 447.71L178.87 448.21L178.03 448.69L177.18 449.15L176.32 449.57L175.43 449.98L174.53 450.35L173.61 450.7L172.68 451.02L172.32 453.27L171.89 455.49L171.37 457.68L170.78 459.83L170.11 461.95L169.37 464.04L168.56 466.08L167.68 468.09L166.73 470.06L165.72 471.99L164.64 473.87L163.49 475.71L162.29 477.5L161.02 479.25L159.69 480.95L158.31 482.6L156.88 484.2L155.38 485.74L153.84 487.24L152.25 488.67L150.6 490.05L148.91 491.38L147.17 492.64L145.39 493.84L143.57 494.98L141.7 496.06L139.79 497.07L137.85 498.02L135.87 498.9L133.86 499.71L131.81 500.45L129.73 501.11L127.62 501.71L125.48 502.23L123.31 502.67L121.12 503.04L118.9 503.33L116.67 503.54L114.41 503.66L112.13 503.71L40.71 503.71L40.29 503.72L39.87 503.74L39.46 503.78L39.06 503.84L38.65 503.92L38.26 504L37.87 504.11L37.49 504.23L37.11 504.36L36.74 504.51L36.38 504.67L36.02 504.85L35.67 505.04L35.34 505.24L35.01 505.45L34.68 505.68L34.37 505.91L34.07 506.16L33.78 506.42L33.5 506.7L33.22 506.98L32.96 507.27L32.71 507.57L32.48 507.89L32.25 508.21L32.04 508.54L31.83 508.87L31.65 509.22L31.47 509.58L31.31 509.94L31.16 510.31L31.03 510.69L30.91 511.07L30.8 511.46L30.71 511.85L30.64 512.26L30.58 512.66L30.54 513.07L30.52 513.49L30.51 513.91L30.52 514.33L30.54 514.75L30.58 515.16L30.64 515.57L30.71 515.97L30.8 516.36L30.91 516.75L31.03 517.14L31.16 517.51L31.31 517.88L31.47 518.24L31.65 518.6L31.83 518.95L32.04 519.28L32.25 519.62L32.48 519.94L32.71 520.25L32.96 520.55L33.22 520.84L33.5 521.13L33.78 521.4L34.07 521.66L34.37 521.91L34.68 522.14L35.01 522.37L35.34 522.58L35.67 522.79L36.02 522.97L36.38 523.15L36.74 523.31L37.11 523.46L37.49 523.59L37.87 523.71L38.26 523.82L38.65 523.91L39.06 523.98L39.46 524.04L39.87 524.08L40.29 524.1L40.71 524.11L183.55 524.11L184.81 524.14L186.06 524.21L187.29 524.34L188.51 524.51L189.72 524.74L190.9 525L192.07 525.32L193.22 525.67L194.35 526.07L195.46 526.52L196.55 527L197.61 527.53L198.66 528.1L199.67 528.7L200.66 529.34L201.62 530.02L202.56 530.73L203.47 531.48L204.34 532.26L205.19 533.08L206.01 533.92L206.79 534.8L207.54 535.71L208.25 536.64L208.93 537.61L209.57 538.6L210.17 539.61L210.74 540.66L211.27 541.72L211.75 542.81L212.19 543.92L212.6 545.05L212.95 546.2L213.27 547.37L213.53 548.55L213.76 549.76L213.93 550.98L214.05 552.21L214.13 553.46L214.16 554.72L214.13 555.98L214.05 557.23L213.93 558.47L213.76 559.69L213.53 560.89L213.27 562.08L212.95 563.25L212.6 564.4L212.19 565.53L211.75 566.64L211.27 567.72L210.74 568.79L210.17 569.83L209.57 570.84L208.93 571.83L208.25 572.8L207.54 573.73L206.79 574.64L206.01 575.52L205.19 576.36L204.34 577.18L203.47 577.96L202.56 578.71L201.62 579.42L200.66 580.1L199.67 580.74L198.66 581.35L197.61 581.91L196.55 582.44L195.46 582.92L194.35 583.37L193.22 583.77L192.07 584.13L190.9 584.44L189.72 584.71L188.51 584.93L187.29 585.1L186.06 585.23L184.81 585.3L183.55 585.33L40.71 585.33L40.29 585.34L39.87 585.36L39.46 585.41L39.06 585.46L38.65 585.54L38.26 585.63L37.87 585.73L37.49 585.85L37.11 585.98L36.74 586.13L36.38 586.29L36.02 586.47L35.67 586.66L35.34 586.86L35.01 587.07L34.68 587.3L34.37 587.54L34.07 587.79L33.78 588.05L33.5 588.32L33.22 588.6L32.96 588.89L32.71 589.19L32.48 589.51L32.25 589.83L32.04 590.16L31.83 590.5L31.65 590.84L31.47 591.2L31.31 591.56L31.16 591.93L31.03 592.31L30.91 592.69L30.8 593.08L30.71 593.48L30.64 593.88L30.58 594.28L30.54 594.7L30.52 595.11L30.51 595.53L30.52 595.95L30.54 596.37L30.58 596.78L30.64 597.19L30.71 597.59L30.8 597.98L30.91 598.37L31.03 598.76L31.16 599.13L31.31 599.5L31.47 599.87L31.65 600.22L31.83 600.57L32.04 600.91L32.25 601.24L32.48 601.56L32.71 601.87L32.96 602.17L33.22 602.46L33.5 602.75L33.78 603.02L34.07 603.28L34.37 603.53L34.68 603.77L35.01 603.99L35.34 604.21L35.67 604.41L36.02 604.6L36.38 604.77L36.74 604.93L37.11 605.08L37.49 605.21L37.87 605.33L38.26 605.44L38.65 605.53L39.06 605.6L39.46 605.66L39.87 605.7L40.29 605.73L40.71 605.74L164.87 605.74L167.05 605.72L169.24 605.68L171.42 605.62L173.6 605.54L175.78 605.44L177.95 605.31L180.13 605.15L182.3 604.98L184.47 604.78L186.63 604.56L188.8 604.31L190.96 604.04L193.11 603.75L195.26 603.44L197.41 603.1L199.56 602.74L201.7 602.36L203.83 601.96L205.96 601.53L208.09 601.08L210.21 600.61L212.33 600.11L214.44 599.6L216.55 599.06L218.65 598.5L220.74 597.91L222.83 597.3L224.91 596.67L226.99 596.02L229.06 595.35L231.12 594.65L233.18 593.94L235.23 593.2L237.27 592.43L239.3 591.65L241.33 590.84L243.35 590.02L245.36 589.17L247.36 588.29L249.36 587.4L241.6 584.82L241.53 584.8L241.46 584.77L241.38 584.74L241.31 584.72L241.24 584.69L241.17 584.67L241.1 584.64L241.03 584.61L240.96 584.58L240.88 584.55L240.81 584.52L240.74 584.49L240.67 584.46L240.6 584.43L240.53 584.4L240.46 584.37L240.4 584.33L240.33 584.3L240.26 584.27L240.19 584.23L240.12 584.2L240.05 584.16L239.99 584.13L239.92 584.09L239.85 584.05L239.79 584.02L239.72 583.98L239.65 583.94L239.59 583.9L239.52 583.86L239.46 583.82L239.39 583.78L239.33 583.74L239.26 583.7L239.2 583.66L239.13 583.61L239.07 583.57L239.01 583.53L238.95 583.48L238.88 583.44L238.55 583.19L238.22 582.93L237.91 582.65L237.61 582.37L237.33 582.08L237.06 581.78L236.8 581.46L236.56 581.14L236.33 580.82L236.11 580.48L235.91 580.14L235.73 579.79L235.55 579.44L235.39 579.08L235.25 578.71L235.12 578.34L235 577.96L234.9 577.59L234.82 577.2L234.74 576.82L234.69 576.43L234.64 576.04L234.62 575.65L234.6 575.26L234.61 574.87L234.62 574.47L234.66 574.08L234.7 573.69L234.77 573.3L234.85 572.91L234.94 572.52L235.05 572.14L235.18 571.76L235.32 571.38L235.47 571L235.65 570.63L235.84 570.27L236.04 569.91L236.26 569.56L236.5 569.21L287.51 497.79L287.69 497.55L287.88 497.31L288.07 497.08L288.26 496.86L288.46 496.64L288.67 496.43L288.88 496.23L289.1 496.03L289.33 495.85L289.55 495.66L289.79 495.49L290.02 495.32L290.27 495.16L290.51 495L290.76 494.85L291.01 494.71L291.27 494.58L291.53 494.46L291.8 494.34L292.06 494.23L292.33 494.13L292.61 494.03L292.88 493.94L293.16 493.86L293.44 493.79L293.72 493.73L294.01 493.67L294.3 493.63L294.58 493.59L294.87 493.56L295.17 493.53L295.46 493.52L295.75 493.51L296.05 493.51L296.34 493.52L296.64 493.54L296.93 493.57L297.23 493.61L297.52 493.65L297.82 493.71L343.39 502.88L403.59 442.69L403.31 442.22L403.04 441.75L402.78 441.27L402.52 440.79L402.27 440.31L402.02 439.83L401.78 439.34L401.55 438.85L401.33 438.36L401.11 437.86L400.9 437.37L400.69 436.87L400.5 436.36L400.3 435.86L400.12 435.35L399.94 434.84L399.77 434.33L399.61 433.81L399.45 433.3L399.3 432.78L399.16 432.26L399.03 431.73L398.9 431.21L398.78 430.68L398.66 430.16L398.55 429.63L398.45 429.1L398.36 428.56L398.28 428.03L398.2 427.49L398.12 426.96L398.06 426.42L398 425.88L397.95 425.34L397.91 424.8L397.87 424.26L397.85 423.72L397.83 423.17L397.81 422.63L397.81 422.09L397.84 420.4L397.94 418.74L398.11 417.09L398.34 415.47L398.63 413.86L398.99 412.28L399.41 410.72L399.89 409.19L400.42 407.68L401.01 406.2L401.66 404.75L402.36 403.33L403.11 401.94L403.92 400.59L404.77 399.27L405.68 397.98L406.63 396.74L407.63 395.53L408.67 394.36L409.76 393.23L410.89 392.14L412.06 391.1L413.27 390.1L414.51 389.15L415.8 388.25L417.12 387.39L418.47 386.58L419.86 385.83L421.28 385.13L422.73 384.48L424.21 383.89L425.72 383.36L427.25 382.88L428.81 382.46L430.39 382.1L432 381.81L433.62 381.58L435.27 381.41L436.93 381.31L438.62 381.28L440.3 381.31L441.96 381.41L443.61 381.58L445.24 381.81L446.84 382.1L448.42 382.46L449.98 382.88L451.52 383.36L453.02 383.89L454.5 384.48L455.95 385.13L457.37 385.83L458.76 386.58L460.11 387.39L461.43 388.25L462.72 389.15L463.97 390.1L465.18 391.1L466.34 392.14L467.47 393.23L468.56 394.36L469.6 395.53L470.6 396.74L471.55 397.98L472.46 399.27L473.31 400.59L474.12 401.94L474.87 403.33L475.57 404.75L476.22 406.2L476.81 407.68L477.35 409.19L477.82 410.72L478.24 412.28L478.6 413.86L478.89 415.47L479.12 417.09L479.29 418.74L479.39 420.4L479.43 422.09L479.39 423.77L479.29 425.43L479.12 427.08L478.89 428.71L478.6 430.31L478.24 431.89L477.82 433.45L477.35 434.99L476.81 436.49L476.22 437.97L475.57 439.42L474.87 440.84L474.12 442.23L473.31 443.58L472.46 444.9L471.55 446.19L470.6 447.44L469.6 448.65L468.56 449.82L467.47 450.94L466.34 452.03L465.18 453.07L463.97 454.07L462.72 455.02L461.43 455.93L460.11 456.78L458.76 457.59L457.37 458.34L455.95 459.04L454.5 459.69L453.02 460.28L451.52 460.82L449.98 461.29L448.42 461.71L446.84 462.07L445.24 462.36L443.61 462.59L441.96 462.76L440.3 462.86L438.62 462.9L438.07 462.89L437.53 462.87L436.99 462.85L436.45 462.82L435.91 462.78L435.37 462.74L434.83 462.69L434.29 462.63L433.75 462.56L433.22 462.49L432.69 462.41L432.15 462.32L431.62 462.23L431.09 462.13L430.56 462.02L430.04 461.9L429.51 461.78L428.99 461.65L428.47 461.51L427.95 461.37L427.43 461.22L426.92 461.06L426.4 460.9L425.89 460.73L425.38 460.55L424.88 460.37L424.37 460.17L423.87 459.98L423.37 459.77L422.87 459.56L422.38 459.34L421.89 459.11L421.4 458.88L420.92 458.64L420.43 458.4L419.95 458.15L419.48 457.89L419 457.62L418.53 457.35L418.07 457.07L357.87 517.27L367 562.92L367.06 563.22L367.1 563.52L367.14 563.81L367.17 564.11L367.19 564.4L367.2 564.7L367.2 564.99L367.19 565.28L367.18 565.57L367.15 565.87L367.12 566.16L367.08 566.44L367.04 566.73L366.98 567.01L366.92 567.3L366.85 567.58L366.77 567.86L366.68 568.13L366.58 568.4L366.48 568.67L366.37 568.94L366.25 569.2L366.13 569.46L365.99 569.72L365.85 569.98L365.71 570.22L365.55 570.47L365.39 570.71L365.22 570.95L365.05 571.18L364.87 571.41L364.68 571.63L364.48 571.85L364.28 572.06L364.07 572.27L363.85 572.47L363.63 572.67L363.4 572.86L363.16 573.04L362.92 573.22L291.5 624.23L291.37 624.32L291.24 624.42L291.11 624.5L290.98 624.59L290.84 624.67L290.7 624.75L290.57 624.83L290.43 624.91L290.29 624.98L290.15 625.06L290.01 625.13L289.86 625.19L289.72 625.26L289.58 625.32L289.43 625.38L289.28 625.44L289.14 625.5L288.99 625.55L288.84 625.61L288.69 625.66L288.54 625.7L288.39 625.75L288.24 625.79L288.08 625.83L287.93 625.87L287.78 625.9L287.62 625.94L287.47 625.97L287.31 625.99L287.16 626.02L287 626.04L286.84 626.06L286.69 626.08L286.53 626.1L286.37 626.11L286.21 626.12L286.05 626.13L285.89 626.14L285.73 626.14L285.58 626.14L285.25 626.14L284.92 626.12L284.6 626.09L284.27 626.06L283.95 626.01L283.64 625.96L283.32 625.89L283.01 625.82L282.71 625.73L282.4 625.64L282.1 625.53L281.81 625.42L281.52 625.3L281.23 625.17L280.95 625.03L280.67 624.88L280.4 624.73L280.13 624.57L279.86 624.39L279.61 624.21L279.36 624.03L279.11 623.83L278.87 623.63L278.64 623.42L278.41 623.2L278.19 622.98L277.97 622.75L277.77 622.51L277.57 622.26L277.37 622.01L277.19 621.75L277.01 621.49L276.84 621.22L276.68 620.94L276.53 620.66L276.38 620.37L276.25 620.08L276.12 619.78L276 619.47L275.89 619.16L269.58 600.21L267.15 601.47L264.71 602.7L262.25 603.89L259.79 605.06L257.31 606.2L254.81 607.31L252.31 608.39L249.79 609.43L247.27 610.45L244.73 611.43L242.18 612.38L239.62 613.3L237.05 614.19L234.47 615.05L231.88 615.88L229.28 616.67L226.67 617.44L224.06 618.17L221.43 618.87L218.8 619.54L216.16 620.18L213.51 620.78L210.85 621.36L208.19 621.9L205.52 622.41L202.85 622.88L200.16 623.33L197.47 623.74L194.78 624.12L192.08 624.47L189.38 624.78L186.67 625.07L183.96 625.32L181.24 625.53L178.52 625.72L175.79 625.87L173.07 625.99L170.34 626.07L167.6 626.12L164.87 626.14L40.71 626.14L39.45 626.11L38.2 626.04L36.96 625.91L35.75 625.74L34.54 625.52L33.35 625.25L32.19 624.94L31.04 624.58L29.91 624.18L28.8 623.74L27.71 623.25L26.64 622.72L25.6 622.16L24.59 621.55L23.6 620.91L22.63 620.23L21.7 619.52L20.79 618.77L19.91 617.99L19.07 617.18L18.25 616.33L17.47 615.45L16.72 614.54L16.01 613.61L15.33 612.65L14.69 611.66L14.08 610.64L13.52 609.6L12.99 608.53L12.51 607.45L12.06 606.34L11.66 605.21L11.3 604.06L10.99 602.89L10.72 601.7L10.5 600.5L10.33 599.28L10.2 598.04L10.13 596.79L10.1 595.53L10.13 594.27L10.2 593.02L10.33 591.79L10.5 590.57L10.72 589.36L10.99 588.18L11.3 587.01L11.66 585.86L12.06 584.73L12.51 583.62L12.99 582.53L13.52 581.47L14.08 580.43L14.69 579.41L15.33 578.42L16.01 577.46L16.72 576.52L17.47 575.61L18.25 574.74L19.07 573.89L19.91 573.07L20.79 572.29L21.7 571.54L22.63 570.83L23.6 570.15L24.59 569.51L25.6 568.91L26.64 568.34L27.71 567.81L28.8 567.33L29.91 566.89L31.04 566.48L32.19 566.13L33.35 565.81L34.54 565.55L35.75 565.32L36.96 565.15L38.2 565.03L39.45 564.95L40.71 564.92L183.55 564.92L183.97 564.92L184.38 564.89L184.8 564.85L185.2 564.79L185.6 564.72L186 564.63L186.39 564.52L186.77 564.4L187.15 564.27L187.52 564.12L187.88 563.96L188.24 563.79L188.58 563.6L188.92 563.4L189.25 563.18L189.57 562.96L189.89 562.72L190.19 562.47L190.48 562.21L190.76 561.94L191.03 561.65L191.29 561.36L191.54 561.06L191.78 560.75L192.01 560.43L192.22 560.1L192.42 559.76L192.61 559.41L192.79 559.06L192.95 558.69L193.1 558.32L193.23 557.95L193.35 557.56L193.45 557.17L193.54 556.78L193.62 556.38L193.68 555.97L193.72 555.56L193.74 555.14L193.75 554.72L193.74 554.3L193.72 553.88L193.68 553.47L193.62 553.07L193.54 552.67L193.45 552.27L193.35 551.88L193.23 551.5L193.1 551.12L192.95 550.75L192.79 550.39L192.61 550.03L192.42 549.69L192.22 549.35L192.01 549.02L191.78 548.7L191.54 548.38L191.29 548.08L191.03 547.79L190.76 547.51L190.48 547.24L190.19 546.97L189.89 546.73L189.57 546.49L189.25 546.26L188.92 546.05L188.58 545.85L188.24 545.66L187.88 545.48L187.52 545.32L187.15 545.17L186.77 545.04L186.39 544.92L186 544.82L185.6 544.73L185.2 544.65L184.8 544.59L184.38 544.55L183.97 544.53L183.55 544.52L40.71 544.52L39.45 544.49L38.2 544.42L36.96 544.29L35.75 544.12L34.54 543.9L33.35 543.63L32.19 543.32L31.04 542.96L29.91 542.56L28.8 542.11L27.71 541.63L26.64 541.1L25.6 540.54L24.59 539.93L23.6 539.29L22.63 538.61L21.7 537.9L20.79 537.15L19.91 536.37L19.07 535.55L18.25 534.71L17.47 533.83L16.72 532.92L16.01 531.99L15.33 531.02L14.69 530.03L14.08 529.02L13.52 527.98L12.99 526.91L12.51 525.82L12.06 524.72L11.66 523.59L11.3 522.44L10.99 521.27L10.72 520.08L10.5 518.88L10.33 517.66L10.2 516.42L10.13 515.17L10.1 513.91L10.13 512.65L10.2 511.4L10.33 510.17L10.5 508.95L10.72 507.74L10.99 506.56L11.3 505.39L11.66 504.24L12.06 503.11L12.51 502L12.99 500.91L13.52 499.84L14.08 498.8L14.69 497.79L15.33 496.8L16.01 495.83L16.72 494.9L17.47 493.99L18.25 493.11L19.07 492.27L19.91 491.45L20.79 490.67L21.7 489.92L22.63 489.21L23.6 488.53L24.59 487.89L25.6 487.28L26.64 486.72L27.71 486.19L28.8 485.71L29.91 485.26L31.04 484.86L32.19 484.51L33.35 484.19L34.54 483.92L35.75 483.7L36.96 483.53L38.2 483.4L39.45 483.33L40.71 483.3L112.13 483.3L113.58 483.28L115.02 483.2L116.45 483.07L117.86 482.89L119.26 482.67L120.65 482.4L122.02 482.08L123.37 481.71L124.71 481.31L126.03 480.85L127.32 480.36L128.6 479.82L129.86 479.23L131.09 478.61L132.3 477.95L133.48 477.25L134.64 476.51L135.78 475.73L136.88 474.91L137.96 474.06L139.01 473.17L140.03 472.25L141.02 471.29L141.97 470.3L142.89 469.28L143.78 468.22L144.63 467.14L145.45 466.02L146.23 464.88L146.98 463.7L147.68 462.5L148.35 461.27L148.97 460.02L149.55 458.74L150.09 457.43L150.59 456.1L151.04 454.75L151.45 453.38L151.81 451.98L152.12 450.56L151.25 450.21L150.39 449.83L149.54 449.43L148.71 449L147.9 448.55L147.11 448.08L146.33 447.58L145.57 447.07L144.82 446.53L144.1 445.97L143.39 445.39L142.7 444.79L142.04 444.17L141.39 443.54L140.76 442.88L140.15 442.21L139.56 441.52L138.99 440.81L138.45 440.09L137.93 439.35L137.42 438.6L136.94 437.83L136.49 437.05L136.05 436.25L135.64 435.45L135.26 434.62L134.89 433.79L134.55 432.94L134.24 432.09L133.95 431.22L133.69 430.35L133.45 429.46L133.24 428.56L133.06 427.66L132.9 426.75L132.77 425.83L132.67 424.9L132.6 423.97L132.55 423.03L132.53 422.09L132.53 411.88L131.27 411.86L130.02 411.78L128.79 411.66L127.57 411.48L126.37 411.26L125.18 410.99L124.01 410.68L122.86 410.32L121.73 409.92L120.62 409.48L119.53 408.99L118.47 408.47L117.43 407.9L116.41 407.3L115.42 406.66L114.46 405.98L113.52 405.26L112.61 404.52L111.74 403.73L110.89 402.92L110.08 402.07L109.29 401.19L108.55 400.29L107.83 399.35L107.15 398.39L106.51 397.4L105.91 396.38L105.34 395.34L104.82 394.28L104.33 393.19L103.89 392.08L103.49 390.95L103.13 389.8L102.82 388.63L102.55 387.44L102.33 386.24L102.15 385.02L102.03 383.79L101.95 382.54L101.93 381.28L101.93 307.19L99.29 306.01L96.67 304.78L94.09 303.51L91.53 302.18L89.01 300.82L86.51 299.4L84.04 297.94L81.6 296.44L79.2 294.89L76.82 293.3L74.48 291.67L72.17 290L69.89 288.28L67.65 286.52L65.44 284.72L63.27 282.89L61.13 281.01L59.02 279.09L56.96 277.14L54.93 275.15L52.93 273.12L50.98 271.05L49.06 268.94L47.18 266.81L45.35 264.63L43.55 262.42L41.79 260.18L40.08 257.9L38.4 255.59L36.77 253.25L35.18 250.87L33.63 248.47L32.13 246.03L30.67 243.56L29.26 241.07L27.89 238.54L26.57 235.98L25.29 233.4L24.06 230.79L22.88 228.15L20.47 222.31L18.32 216.44L16.43 210.53L14.78 204.59L13.39 198.63L12.24 192.66L11.34 186.68L10.68 180.69L10.26 174.71L10.07 168.74L10.12 162.78L10.4 156.85L10.91 150.95L11.65 145.09L12.61 139.27L13.79 133.5L15.19 127.78L16.8 122.13L18.63 116.54L20.67 111.03L22.92 105.61L25.38 100.27L28.04 95.02L30.9 89.88L33.96 84.85L37.21 79.93L40.66 75.13L44.3 70.45L48.13 65.91L52.14 61.52L56.34 57.26L60.71 53.16L65.27 49.23L70 45.45L74.9 41.85L79.98 38.43L85.22 35.19L90.63 32.15L96.2 29.31L101.93 26.66L107.76 24.26L113.63 22.11L119.54 20.21L125.48 18.57L131.44 17.18L137.41 16.03L143.4 15.13L149.38 14.47L155.36 14.04L161.33 13.86L167.29 13.91L173.22 14.19ZM290.89 599.61L345.69 560.46L340.53 534.62L287.04 588.09L290.89 599.61ZM272.62 573.66L326.1 520.18L300.25 515L261.09 569.81L272.62 573.66ZM436.53 401.79L435.51 401.92L434.5 402.1L433.52 402.32L432.55 402.6L431.6 402.92L430.67 403.28L429.77 403.69L428.89 404.14L428.03 404.63L427.21 405.17L426.41 405.73L425.64 406.34L424.9 406.98L424.19 407.66L423.51 408.37L422.87 409.11L422.26 409.88L421.7 410.68L421.16 411.51L420.67 412.36L420.22 413.24L419.81 414.14L419.45 415.07L419.13 416.02L418.85 416.99L418.63 417.97L418.45 418.98L418.32 420L418.24 421.04L418.21 422.09L418.21 422.25L418.22 422.42L418.22 422.58L418.23 422.75L418.24 422.91L418.25 423.08L418.26 423.24L418.27 423.41L418.29 423.57L418.3 423.74L418.32 423.9L418.34 424.06L418.35 424.23L418.38 424.39L418.4 424.55L418.42 424.72L418.45 424.88L418.47 425.04L418.5 425.21L418.53 425.37L418.56 425.53L418.59 425.69L418.62 425.86L418.66 426.02L418.69 426.18L418.73 426.34L418.77 426.5L418.8 426.66L418.85 426.82L418.89 426.98L418.93 427.14L418.98 427.3L431.4 414.87L445.83 429.3L433.4 441.73L433.56 441.77L433.72 441.81L433.88 441.86L434.04 441.9L434.2 441.94L434.36 441.97L434.52 442.01L434.68 442.05L434.85 442.08L435.01 442.11L435.17 442.14L435.33 442.17L435.49 442.2L435.66 442.23L435.82 442.26L435.98 442.28L436.15 442.3L436.31 442.33L436.47 442.35L436.64 442.37L436.8 442.38L436.97 442.4L437.13 442.42L437.3 442.43L437.46 442.44L437.63 442.45L437.79 442.46L437.96 442.47L438.12 442.48L438.29 442.48L438.45 442.49L438.62 442.49L439.67 442.47L440.7 442.39L441.72 442.26L442.73 442.08L443.72 441.85L444.68 441.57L445.63 441.25L446.56 440.89L447.46 440.48L448.34 440.03L449.2 439.54L450.02 439.01L450.82 438.44L451.6 437.83L452.34 437.19L453.04 436.51L453.72 435.81L454.36 435.07L454.97 434.3L455.54 433.5L456.07 432.67L456.56 431.81L457.01 430.93L457.42 430.03L457.78 429.1L458.1 428.15L458.38 427.19L458.61 426.2L458.79 425.19L458.92 424.17L458.99 423.14L459.02 422.09L458.99 421.04L458.92 420L458.79 418.98L458.61 417.97L458.38 416.99L458.1 416.02L457.78 415.07L457.42 414.14L457.01 413.24L456.56 412.36L456.07 411.51L455.54 410.68L454.97 409.88L454.36 409.11L453.72 408.37L453.04 407.66L452.34 406.98L451.6 406.34L450.82 405.73L450.02 405.17L449.2 404.63L448.34 404.14L447.46 403.69L446.56 403.28L445.63 402.92L444.68 402.6L443.72 402.32L442.73 402.1L441.72 401.92L440.7 401.79L439.67 401.71L438.62 401.68L437.57 401.71L436.53 401.79ZM152.94 422.09L153.01 423.28L153.21 424.43L153.53 425.53L153.98 426.57L154.53 427.56L155.18 428.47L155.93 429.3L156.76 430.05L157.67 430.7L158.66 431.25L159.7 431.69L160.8 432.02L161.95 432.22L163.14 432.29L164.33 432.22L165.48 432.02L166.58 431.69L167.63 431.25L168.61 430.7L169.52 430.05L170.36 429.3L171.1 428.47L171.76 427.56L172.31 426.57L172.75 425.53L173.08 424.43L173.28 423.28L173.35 422.09L173.35 411.88L152.94 411.88L152.94 422.09ZM122.34 381.77L122.38 382.26L122.44 382.74L122.52 383.21L122.62 383.68L122.74 384.14L122.88 384.59L123.04 385.03L123.23 385.46L123.43 385.88L123.65 386.29L123.88 386.69L124.14 387.08L124.41 387.45L124.7 387.81L125 388.16L125.32 388.49L125.65 388.81L126 389.11L126.36 389.4L126.73 389.67L127.12 389.92L127.52 390.16L127.93 390.38L128.35 390.58L128.78 390.76L129.22 390.93L129.67 391.07L130.13 391.19L130.6 391.29L131.07 391.37L131.55 391.43L132.04 391.47L132.53 391.48L193.75 391.48L194.25 391.47L194.73 391.43L195.21 391.37L195.69 391.29L196.16 391.19L196.61 391.07L197.06 390.93L197.51 390.76L197.94 390.58L198.36 390.38L198.77 390.16L199.16 389.92L199.55 389.67L199.92 389.4L200.28 389.11L200.63 388.81L200.97 388.49L201.28 388.16L201.59 387.81L201.87 387.45L202.15 387.08L202.4 386.69L202.64 386.29L202.86 385.88L203.06 385.46L203.24 385.03L203.4 384.59L203.55 384.14L203.67 383.68L203.77 383.21L203.85 382.74L203.91 382.26L203.94 381.77L203.95 381.28L122.33 381.28L122.34 381.77ZM122.33 360.87L203.95 360.87L203.95 350.67L122.33 350.67L122.33 360.87ZM201.91 314.93L200.88 315.2L199.85 315.46L198.82 315.71L197.79 315.96L196.76 316.2L195.73 316.44L194.69 316.66L193.65 316.88L192.62 317.09L191.58 317.3L190.54 317.49L189.49 317.68L188.45 317.87L187.41 318.04L186.36 318.21L185.31 318.37L184.27 318.53L183.22 318.67L182.17 318.81L181.12 318.94L180.06 319.07L179.01 319.18L177.96 319.29L176.9 319.4L175.85 319.49L174.79 319.58L173.74 319.66L172.68 319.73L171.62 319.8L170.56 319.86L169.5 319.91L168.45 319.95L167.39 319.99L166.33 320.02L165.26 320.04L164.2 320.05L163.14 320.06L162.08 320.05L161.02 320.04L159.96 320.02L158.9 319.99L157.84 319.95L156.78 319.91L155.72 319.86L154.66 319.8L153.61 319.73L152.55 319.66L151.49 319.58L150.44 319.49L149.38 319.4L148.33 319.29L147.27 319.18L146.22 319.07L145.17 318.94L144.12 318.81L143.07 318.67L142.02 318.53L140.97 318.37L139.92 318.21L138.88 318.04L137.83 317.87L136.79 317.68L135.75 317.49L134.71 317.3L133.67 317.09L132.63 316.88L131.59 316.66L130.56 316.44L129.52 316.2L128.49 315.96L127.46 315.71L126.43 315.46L125.4 315.2L124.38 314.93L123.35 314.65L122.33 314.37L122.33 330.26L203.95 330.26L203.95 314.37L202.93 314.65L201.91 314.93ZM162.33 299.65L163.96 299.65L169.91 228.23L156.35 228.23L162.33 299.65ZM152.11 34.68L146.76 35.23L141.47 35.99L136.26 36.95L131.12 38.12L126.05 39.48L121.07 41.04L116.18 42.78L111.37 44.71L106.66 46.82L102.05 49.1L97.54 51.56L93.14 54.18L88.86 56.97L84.68 59.91L80.63 63.01L76.71 66.26L72.91 69.65L69.25 73.19L65.72 76.86L62.33 80.66L59.09 84.6L56.01 88.66L53.07 92.83L50.3 97.13L47.68 101.53L45.24 106.05L42.97 110.66L40.87 115.38L38.95 120.19L37.22 125.09L35.68 130.07L34.32 135.14L33.17 140.28L32.22 145.5L31.47 150.79L30.93 156.14L30.61 161.55L30.51 167.02L30.6 171.87L30.87 176.68L31.31 181.44L31.92 186.17L32.69 190.84L33.62 195.46L34.72 200.02L35.97 204.53L37.37 208.97L38.92 213.35L40.62 217.65L42.47 221.89L44.46 226.05L46.59 230.13L48.85 234.13L51.25 238.04L53.78 241.87L56.44 245.6L59.22 249.24L62.13 252.78L65.15 256.21L68.3 259.54L71.55 262.77L74.92 265.88L78.4 268.87L81.98 271.75L85.67 274.51L89.46 277.14L93.34 279.64L97.32 282.01L101.39 284.25L105.55 286.35L109.8 288.3L114.13 290.11L118.54 291.78L123.02 293.29L127.59 294.65L132.22 295.84L136.93 296.88L141.7 297.76L135.9 228.23L112.13 228.23L110.45 228.2L108.78 228.1L107.14 227.93L105.51 227.7L103.9 227.41L102.32 227.05L100.76 226.63L99.23 226.15L97.72 225.62L96.24 225.03L94.79 224.38L93.37 223.68L91.99 222.93L90.63 222.12L89.31 221.26L88.03 220.36L86.78 219.41L85.57 218.41L84.4 217.37L83.27 216.28L82.18 215.15L81.14 213.98L80.14 212.77L79.19 211.53L78.29 210.24L77.43 208.92L76.63 207.57L75.87 206.18L75.17 204.76L74.53 203.31L73.93 201.83L73.4 200.32L72.92 198.79L72.5 197.23L72.15 195.65L71.85 194.04L71.62 192.42L71.45 190.77L71.35 189.11L71.32 187.42L71.35 185.74L71.45 184.08L71.62 182.43L71.85 180.8L72.15 179.2L72.5 177.62L72.92 176.06L73.4 174.52L73.93 173.02L74.53 171.54L75.17 170.09L75.87 168.67L76.63 167.28L77.43 165.93L78.29 164.61L79.19 163.32L80.14 162.07L81.14 160.86L82.18 159.69L83.27 158.57L84.4 157.48L85.57 156.44L86.78 155.44L88.03 154.49L89.31 153.58L90.63 152.73L91.99 151.92L93.37 151.17L94.79 150.47L96.24 149.82L97.72 149.23L99.23 148.69L100.76 148.22L102.32 147.8L103.9 147.44L105.51 147.15L107.14 146.92L108.78 146.75L110.45 146.65L112.13 146.61L113.81 146.65L115.48 146.75L117.12 146.92L118.75 147.15L120.35 147.44L121.94 147.8L123.49 148.22L125.03 148.69L126.54 149.23L128.01 149.82L129.46 150.47L130.88 151.17L132.27 151.92L133.63 152.73L134.95 153.58L136.23 154.49L137.48 155.44L138.69 156.44L139.86 157.48L140.99 158.57L142.07 159.69L143.12 160.86L144.11 162.07L145.07 163.32L145.97 164.61L146.83 165.93L147.63 167.28L148.38 168.67L149.09 170.09L149.73 171.54L150.32 173.02L150.86 174.52L151.34 176.06L151.75 177.62L152.11 179.2L152.41 180.8L152.64 182.43L152.8 184.08L152.91 185.74L152.94 187.42L154.64 207.83L171.61 207.83L173.35 186.58L173.41 184.92L173.55 183.28L173.74 181.66L174 180.06L174.32 178.49L174.7 176.93L175.14 175.4L175.63 173.9L176.18 172.42L176.79 170.97L177.45 169.55L178.16 168.15L178.93 166.8L179.74 165.47L180.6 164.18L181.51 162.92L182.46 161.7L183.46 160.52L184.5 159.37L185.59 158.27L186.71 157.21L187.88 156.19L189.08 155.22L190.32 154.29L191.59 153.41L192.9 152.57L194.25 151.79L195.62 151.05L197.03 150.37L198.46 149.74L199.92 149.16L201.41 148.64L202.93 148.18L204.47 147.77L206.03 147.42L207.61 147.13L209.22 146.91L210.84 146.74L212.48 146.65L214.14 146.61L215.82 146.65L217.49 146.75L219.13 146.91L220.76 147.15L222.36 147.44L223.95 147.8L225.5 148.21L227.04 148.69L228.55 149.23L230.02 149.82L231.47 150.46L232.89 151.16L234.28 151.92L235.64 152.72L236.96 153.58L238.24 154.48L239.49 155.43L240.7 156.43L241.87 157.47L243 158.56L244.09 159.69L245.13 160.86L246.13 162.07L247.08 163.31L247.98 164.6L248.84 165.92L249.64 167.27L250.4 168.66L251.1 170.08L251.75 171.53L252.34 173.01L252.87 174.52L253.35 176.05L253.77 177.61L254.13 179.19L254.42 180.8L254.65 182.42L254.82 184.07L254.92 185.73L254.96 187.41L254.92 189.1L254.82 190.76L254.66 192.41L254.43 194.03L254.13 195.64L253.77 197.22L253.36 198.78L252.88 200.31L252.35 201.82L251.75 203.3L251.11 204.75L250.41 206.17L249.65 207.56L248.85 208.91L247.99 210.23L247.09 211.52L246.14 212.77L245.14 213.98L244.1 215.15L243.01 216.28L241.88 217.36L240.71 218.4L239.5 219.4L238.26 220.36L236.97 221.26L235.65 222.12L234.3 222.92L232.91 223.68L231.49 224.38L230.04 225.02L228.56 225.62L227.06 226.15L225.52 226.63L223.96 227.05L222.38 227.4L220.78 227.7L219.15 227.93L217.5 228.1L215.84 228.2L214.16 228.23L190.36 228.23L184.57 297.76L189.35 296.88L194.06 295.85L198.71 294.65L203.28 293.29L207.78 291.78L212.2 290.11L216.54 288.3L220.79 286.34L224.96 284.23L229.03 281.99L233.02 279.62L236.91 277.11L240.7 274.47L244.39 271.71L247.98 268.82L251.46 265.82L254.84 262.7L258.1 259.47L261.24 256.13L264.27 252.68L267.18 249.13L269.96 245.49L272.62 241.74L275.15 237.91L277.55 233.98L279.81 229.97L281.94 225.88L283.92 221.71L285.76 217.46L287.46 213.15L289.01 208.76L290.4 204.3L291.64 199.79L292.73 195.21L293.65 190.58L294.42 185.9L295.01 181.17L295.44 176.39L295.7 171.57L295.78 166.71L295.66 161.24L295.33 155.83L294.78 150.48L294.02 145.19L293.05 139.98L291.89 134.84L290.52 129.77L288.97 124.79L287.22 119.9L285.29 115.09L283.19 110.38L280.9 105.77L278.45 101.26L275.82 96.86L273.04 92.58L270.09 88.4L267 84.35L263.75 80.43L260.35 76.63L256.82 72.97L253.15 69.44L249.34 66.05L245.41 62.81L241.35 59.73L237.17 56.79L232.88 54.02L228.47 51.4L223.96 48.96L219.34 46.69L214.63 44.59L209.82 42.67L204.92 40.94L199.93 39.4L194.87 38.04L189.72 36.89L184.5 35.94L179.22 35.19L173.87 34.65L168.45 34.33L162.99 34.23L157.52 34.34L152.11 34.68ZM211.69 167.17L210.49 167.35L209.31 167.6L208.16 167.91L207.04 168.29L205.94 168.74L204.88 169.24L203.86 169.8L202.87 170.42L201.92 171.09L201.01 171.82L200.14 172.59L199.32 173.41L198.55 174.28L197.83 175.19L197.15 176.14L196.54 177.12L195.97 178.15L195.47 179.21L195.03 180.3L194.65 181.43L194.33 182.58L194.08 183.76L193.9 184.96L193.79 186.18L193.75 187.42L192.06 207.83L214.16 207.83L215.4 207.79L216.62 207.68L217.82 207.5L219 207.25L220.15 206.93L221.28 206.55L222.37 206.11L223.43 205.61L224.46 205.04L225.44 204.43L226.39 203.75L227.3 203.03L228.17 202.26L228.99 201.44L229.76 200.57L230.49 199.66L231.16 198.71L231.78 197.72L232.34 196.7L232.84 195.64L233.28 194.54L233.67 193.42L233.98 192.27L234.23 191.09L234.41 189.89L234.52 188.67L234.56 187.42L234.52 186.18L234.41 184.96L234.23 183.76L233.98 182.58L233.67 181.43L233.28 180.3L232.84 179.21L232.34 178.15L231.78 177.12L231.16 176.14L230.49 175.19L229.76 174.28L228.99 173.41L228.17 172.59L227.3 171.82L226.39 171.09L225.44 170.42L224.46 169.8L223.43 169.24L222.37 168.74L221.28 168.29L220.15 167.91L219 167.6L217.82 167.35L216.62 167.17L215.4 167.06L214.16 167.02L212.91 167.06L211.69 167.17ZM109.66 167.17L108.46 167.35L107.28 167.6L106.13 167.91L105.01 168.29L103.92 168.74L102.86 169.24L101.83 169.8L100.84 170.42L99.89 171.09L98.98 171.82L98.12 172.59L97.3 173.41L96.52 174.28L95.8 175.19L95.13 176.14L94.51 177.12L93.95 178.15L93.44 179.21L93 180.3L92.62 181.43L92.3 182.58L92.05 183.76L91.87 184.96L91.76 186.18L91.72 187.42L91.76 188.67L91.87 189.89L92.05 191.09L92.3 192.27L92.62 193.42L93 194.54L93.44 195.64L93.95 196.7L94.51 197.72L95.13 198.71L95.8 199.66L96.52 200.57L97.3 201.44L98.12 202.26L98.98 203.03L99.89 203.75L100.84 204.43L101.83 205.04L102.86 205.61L103.92 206.11L105.01 206.55L106.13 206.93L107.28 207.25L108.46 207.5L109.66 207.68L110.89 207.79L112.13 207.83L134.2 207.83L132.53 188.27L132.53 188.26L132.54 188.22L132.54 188.19L132.54 188.16L132.54 188.11L132.54 188.08L132.54 188.04L132.54 188.02L132.54 187.97L132.54 187.94L132.52 186.68L132.42 185.44L132.25 184.22L132.02 183.03L131.71 181.86L131.34 180.72L130.9 179.6L130.41 178.52L129.85 177.48L129.24 176.47L128.57 175.5L127.85 174.57L127.07 173.68L126.25 172.84L125.39 172.04L124.47 171.3L123.52 170.61L122.53 169.97L121.49 169.39L120.43 168.86L119.33 168.4L118.19 168L117.03 167.67L115.84 167.4L114.63 167.2L113.39 167.07L112.13 167.02L110.89 167.06L109.66 167.17Z" id="a72PqAySuy"></path><path d="M377.89 195.4C438.02 179.54 501.98 187.97 555.95 218.87C556.97 217.1 565.13 202.96 566.15 201.2C511.92 170.11 448.21 159.85 386.96 172.35C387.39 166.87 387.6 161.78 387.6 156.82C387.7 110.94 373.64 66.15 347.36 28.55C345.69 29.71 332.3 39.05 330.63 40.22C360.13 82.03 372.48 133.55 365.16 184.19C364.7 187.56 365.96 190.94 368.51 193.2C371.07 195.45 374.59 196.28 377.89 195.4Z" id="a9POugIcb"></path><path d="M593.83 246.09C601.19 252.58 608.13 259.52 614.62 266.88C616.15 265.53 628.4 254.72 629.93 253.36C622.87 245.38 615.32 237.84 607.33 230.79C604.63 233.85 595.18 244.56 593.83 246.09Z" id="d4bvTAe1cg"></path></defs><g><g><g><use xlink:href="#aA1I6OgaD" opacity="1" fill="#7d7d7d" fill-opacity="1"></use><g><use xlink:href="#aA1I6OgaD" opacity="1" fill-opacity="0" stroke="#000000" stroke-width="1" stroke-opacity="0"></use></g></g><g><use xlink:href="#a4fSip7lq1" opacity="1" fill="#d9d9d9" fill-opacity="1"></use><g><use xlink:href="#a4fSip7lq1" opacity="1" fill-opacity="0" stroke="#000000" stroke-width="1" stroke-opacity="0"></use></g></g><g><use xlink:href="#cmLdPzjca" opacity="1" fill="#d9d9d9" fill-opacity="1"></use><g><use xlink:href="#cmLdPzjca" opacity="1" fill-opacity="0" stroke="#000000" stroke-width="1" stroke-opacity="0"></use></g></g><g><use xlink:href="#bgJxnMt5q" opacity="1" fill="#7d7d7d" fill-opacity="1"></use><g><use xlink:href="#bgJxnMt5q" opacity="1" fill-opacity="0" stroke="#000000" stroke-width="1" stroke-opacity="0"></use></g></g><g><use xlink:href="#a6XMzK0j8" opacity="1" fill="#d9d9d9" fill-opacity="1"></use><g><use xlink:href="#a6XMzK0j8" opacity="1" fill-opacity="0" stroke="#000000" stroke-width="1" stroke-opacity="0"></use></g></g><g><use xlink:href="#b8AMA80mr" opacity="1" fill="#7d7d7d" fill-opacity="1"></use><g><use xlink:href="#b8AMA80mr" opacity="1" fill-opacity="0" stroke="#000000" stroke-width="1" stroke-opacity="0"></use></g></g><g><use xlink:href="#ifZ6OffGy" opacity="1" fill="#e39d10" fill-opacity="1"></use><g><use xlink:href="#ifZ6OffGy" opacity="1" fill-opacity="0" stroke="#000000" stroke-width="1" stroke-opacity="0"></use></g></g><g><use xlink:href="#b4xcpwSOi" opacity="1" fill="#e39d10" fill-opacity="1"></use><g><use xlink:href="#b4xcpwSOi" opacity="1" fill-opacity="0" stroke="#000000" stroke-width="1" stroke-opacity="0"></use></g></g><g><use xlink:href="#a9BoK3Vn0" opacity="1" fill="#e39d10" fill-opacity="1"></use><g><use xlink:href="#a9BoK3Vn0" opacity="1" fill-opacity="0" stroke="#000000" stroke-width="1" stroke-opacity="0"></use></g></g><g><use xlink:href="#colCuzzMy" opacity="1" fill="#a534d1" fill-opacity="1"></use><g><use xlink:href="#colCuzzMy" opacity="1" fill-opacity="0" stroke="#000000" stroke-width="1" stroke-opacity="0"></use></g></g><g><use xlink:href="#e1NYrGf6Je" opacity="1" fill="#7b0da5" fill-opacity="1"></use><g><use xlink:href="#e1NYrGf6Je" opacity="1" fill-opacity="0" stroke="#000000" stroke-width="1" stroke-opacity="0"></use></g></g><g><use xlink:href="#c2XTNJxYUx" opacity="1" fill="#000000" fill-opacity="1"></use><g><use xlink:href="#c2XTNJxYUx" opacity="1" fill-opacity="0" stroke="#000000" stroke-width="1" stroke-opacity="0"></use></g></g><g><use xlink:href="#d6xga43B4y" opacity="1" fill="#000000" fill-opacity="1"></use><g><use xlink:href="#d6xga43B4y" opacity="1" fill-opacity="0" stroke="#000000" stroke-width="1" stroke-opacity="0"></use></g></g><g><use xlink:href="#alvHaBosd" opacity="1" fill="#000000" fill-opacity="1"></use><g><use xlink:href="#alvHaBosd" opacity="1" fill-opacity="0" stroke="#000000" stroke-width="1" stroke-opacity="0"></use></g></g><g><use xlink:href="#a72PqAySuy" opacity="1" fill="#000000" fill-opacity="1"></use><g><use xlink:href="#a72PqAySuy" opacity="1" fill-opacity="0" stroke="#000000" stroke-width="1" stroke-opacity="0"></use></g></g><g><use xlink:href="#a9POugIcb" opacity="1" fill="#000000" fill-opacity="1"></use><g><use xlink:href="#a9POugIcb" opacity="1" fill-opacity="0" stroke="#000000" stroke-width="1" stroke-opacity="0"></use></g></g><g><use xlink:href="#d4bvTAe1cg" opacity="1" fill="#000000" fill-opacity="1"></use><g><use xlink:href="#d4bvTAe1cg" opacity="1" fill-opacity="0" stroke="#000000" stroke-width="1" stroke-opacity="0"></use></g></g></g></g></svg>