<svg xmlns="http://www.w3.org/2000/svg" viewBox="0 0 32 40" enable-background="new 0 0 32 32" x="0px" y="0px"><g><path fill="white" d="M15 6c-.26 0-.52-.11-.71-.29-.18-.19-.29-.45-.29-.71 0-.26.11-.52.29-.71.38-.37 1.05-.37 1.42 0 .18.19.29.45.29.71 0 .26-.11.52-.29.71-.19.18-.45.29-.71.29zM25 24c-.26 0-.521-.11-.71-.29-.181-.19-.29-.45-.29-.71 0-.271.109-.521.29-.71.38-.37 1.04-.37 1.42 0 .18.189.29.45.29.71s-.11.52-.29.71c-.19.18-.45.29-.71.29zM26.753 28h-12.753c-.552 0-1-.447-1-1s.448-1 1-1h12.753c.136 0 .247-.111.247-.247v-23.506c0-.136-.111-.247-.247-.247h-13.506c-.136 0-.247.111-.247.247v18.753c0 .553-.448 1-1 1s-1-.447-1-1v-18.753c0-1.239 1.008-2.247 2.247-2.247h13.506c1.239 0 2.247 1.008 2.247 2.247v23.506c0 1.239-1.008 2.247-2.247 2.247zM25 15h-10c-.552 0-1-.448-1-1s.448-1 1-1h10c.553 0 1 .448 1 1s-.447 1-1 1zM12.999 29c-.207 0-.415-.063-.594-.196-.444-.328-.538-.955-.209-1.398.031-.042 3.122-4.227 4.666-7.08.205-.379.217-.844.034-1.243-.097-.212-.334-.583-.831-.69-.291-.061-.504.005-1.036.529l-4.062 5.05c-.347.43-.975.499-1.406.152-.43-.347-.499-.976-.152-1.406l4.098-5.094.073-.081c.459-.457 1.416-1.407 2.862-1.116 1.032.225 1.843.884 2.272 1.822.444.968.409 2.101-.094 3.029-1.611 2.979-4.686 7.142-4.816 7.317-.197.265-.499.405-.805.405zM20.895 31.447l-1.789-.895 1.998-3.995c.244-.494.844-.698 1.337-.454.495.243.7.84.458 1.335l-2.004 4.009zM18 19c-1.654 0-3-1.383-3-3.083v-4.917c0-.552.448-1 1-1s1 .448 1 1v4.917c0 .597.448 1.083 1 1.083s1-.486 1-1.083v-3.917l.006-.107c.096-1.612 1.402-2.893 2.994-2.893 1.654 0 3 1.383 3 3.083v4.917c0 .553-.447 1-1 1s-1-.447-1-1v-4.917c0-.597-.448-1.083-1-1.083s-1 .486-1 1.083v3.833c0 1.701-1.346 3.084-3 3.084zM6.999 32c-.448 0-.855-.303-.969-.758l-1.88-7.521c-.1-.395-.15-.804-.15-1.214 0-1.215.44-2.387 1.24-3.3l6.008-6.866c.364-.415.996-.457 1.411-.094.416.364.458.995.094 1.411l-6.008 6.866c-.48.549-.745 1.253-.745 1.983 0 .246.03.491.09.729l1.88 7.522c.134.535-.192 1.078-.728 1.212l-.243.03z"/></g></svg>