<svg xmlns="http://www.w3.org/2000/svg" data-name="Layer 1" viewBox="0 0 100 125" x="0px" y="0px"><title>business-finance-piggy bank-money-saving</title><path stroke='white' fill="white" d="M93.66,47.2a2,2,0,0,0-4,.37c.27,3-.2,5.13-1.35,6.29a3.29,3.29,0,0,1-1.17.77c-.71-9.72-6-17.38-15.38-22.23A2,2,0,1,0,69.94,36c8.71,4.5,13.31,11.76,13.31,21,0,18.68-9.46,30-11.81,32.54H65.71l-.49-6.61a2,2,0,0,0-2.58-1.76c-.9.28-1.77.58-2.65.89a24.37,24.37,0,0,1-8.59,1.85,29.81,29.81,0,0,1-9.19-1.67,2,2,0,0,0-2.42,1l-3.15,6.29h-5.3l-.65-11.84a2,2,0,0,0-.82-1.52,27.7,27.7,0,0,1-6-5.84,2,2,0,0,0-1.6-.8H15.22a2.41,2.41,0,0,1-2.36-1.88l-2.31-9.87,8.22-4.16a2,2,0,0,0,1-1.34,24,24,0,0,1,6.8-11.75,2,2,0,0,0,.57-1.79,33.22,33.22,0,0,0-1.62-5.88l5.52,2.93a2,2,0,0,0,2.2-.21,13.35,13.35,0,0,1,3.16-1.91,2,2,0,0,0-1.36-3.76,15.36,15.36,0,0,0-3.23,1.75L21.27,26a2,2,0,0,0-2.43,3.09c2.33,2.63,3.56,6.35,4.2,9.31a28.06,28.06,0,0,0-6.9,12l-8.8,4.46a2,2,0,0,0-1,2.24L9,68.51a6.4,6.4,0,0,0,6.26,5H21.3a31.91,31.91,0,0,0,5.45,5.31l.7,12.8a2,2,0,0,0,2,1.89h8.43a2,2,0,0,0,1.79-1.1l3-5.89a33.41,33.41,0,0,0,8.79,1.36,28,28,0,0,0,9.92-2.08l.1,0,.44,5.89a2,2,0,0,0,2,1.85h8.44a2,2,0,0,0,1.36-.54c.54-.5,12.9-12.3,13.57-34.16a7.52,7.52,0,0,0,3.89-2C93.2,54.68,94.05,51.47,93.66,47.2Z"/><path stroke='white' fill="white" d="M53.33,25l.14,0c1.74.63,1.83.86,1.84,1.42,0,.23,0,1-1.22,1a1,1,0,0,1-1.18-.81A2,2,0,1,0,49.1,27.9a5,5,0,0,0,3.38,3.38v1.2a2,2,0,0,0,4,0V31a4.81,4.81,0,0,0,2.83-4.52c-.05-3.51-2.93-4.56-4.47-5.12l-.15-.05c-1.69-.61-1.69-.76-1.69-1s0-.89,1.15-.95c.81,0,1.24.29,1.29.42a2,2,0,1,0,3.74-1.42,4.45,4.45,0,0,0-2.7-2.56V14.48a2,2,0,1,0-4,0v1.09A4.69,4.69,0,0,0,49,20.24C49,23.46,51.71,24.44,53.33,25Z"/><path stroke='white' fill="white" d="M43.63,36.77c-4.42,1.28-6.15,3.14-6.41,3.45a2,2,0,0,0,1.54,3.26,2,2,0,0,0,1.5-.65s3.14-3.28,13.16-3.28,13,3.11,13,3.11a2,2,0,1,0,3.06-2.58c-.23-.27-1.66-1.8-5.25-3a16.95,16.95,0,1,0-20.64-.3ZM54.15,10.52a13,13,0,0,1,4.39,25.15l-.29.14a43.44,43.44,0,0,0-4.83-.26c-1.38,0-2.64.07-3.81.16a2,2,0,0,0-.45-.27,13,13,0,0,1,5-24.92Z"/><ellipse fill='white' cx="27.98" cy="49.48" rx="2.5" ry="4"/></svg>