<svg xmlns="http://www.w3.org/2000/svg" xmlns:xlink="http://www.w3.org/1999/xlink" version="1.1" x="0px" y="0px" viewBox="0 0 24 30" enable-background="new 0 0 24 24" xml:space="preserve"><g><path fill="white" d="M9.445,10.987H6.44c-0.198,0-0.379-0.117-0.458-0.3L4.755,7.881C4.577,7.895,4.395,7.903,4.214,7.903   c-1.229,0-2.091-0.377-2.565-1.118C0.628,5.187,1.083,3.536,1.415,2.332l0.102-0.375c0.04-0.155,0.153-0.281,0.303-0.339   L2.421,1.39c0.26-0.096,0.545,0.031,0.644,0.289l0.964,2.523C4.78,4.189,5.372,3.966,5.949,3.468L4.986,0.946   C4.887,0.689,5.015,0.4,5.272,0.302l0.6-0.229c0.149-0.058,0.319-0.04,0.455,0.051L6.66,0.339c1.051,0.677,2.488,1.604,2.785,3.475   c0.143,0.904-0.471,1.65-0.918,2.196L8.191,6.355l1.712,3.934c0.067,0.154,0.053,0.332-0.04,0.474   C9.771,10.902,9.614,10.987,9.445,10.987z M6.767,9.987h1.915L7.14,6.445c-0.082-0.187-0.042-0.404,0.102-0.55l0.534-0.544   C8.118,4.932,8.53,4.43,8.457,3.97C8.233,2.558,7.135,1.835,6.154,1.203l0.849,2.222c0.071,0.185,0.026,0.395-0.114,0.534   C5.951,4.894,4.964,5.267,3.652,5.193c-0.196-0.011-0.368-0.137-0.438-0.32l-0.85-2.224c-0.31,1.124-0.643,2.393,0.127,3.597   c0.278,0.437,0.858,0.657,1.723,0.657c0.271,0,0.541-0.021,0.794-0.052c0.218-0.033,0.43,0.094,0.518,0.296L6.767,9.987z"/><path fill="none" stroke="#FFFFFF" stroke-linecap="round" stroke-linejoin="round" stroke-miterlimit="10" d="M21.812,20.629"/><path fill="white"  d="M22.479,21.129h-0.668c-0.276,0-0.5-0.224-0.5-0.5s0.224-0.5,0.5-0.5h0.168v-8.385h-0.168c-0.276,0-0.5-0.224-0.5-0.5   s0.224-0.5,0.5-0.5h0.668c0.276,0,0.5,0.224,0.5,0.5v9.385C22.979,20.905,22.755,21.129,22.479,21.129z"/><path fill="white" d="M20.836,21.129h-1.818c-0.276,0-0.5-0.224-0.5-0.5v-1.054h-1.906l-0.91,1.21c-0.095,0.125-0.242,0.199-0.399,0.199H8.839   c-0.946,0-1.717-0.771-1.717-1.717c0-0.179,0.027-0.354,0.08-0.521c-0.59-0.277-0.988-0.867-0.988-1.548   c0-0.196,0.033-0.39,0.098-0.571c-0.444-0.314-0.724-0.831-0.724-1.4c0-0.374,0.124-0.732,0.342-1.024   c-0.274-0.31-0.435-0.714-0.435-1.14c0-0.946,0.771-1.716,1.717-1.716h4.35c-0.374-0.223-0.756-0.453-1.063-0.698   c-0.063-0.051-0.114-0.116-0.146-0.19L9.548,8.612c-0.04-0.091-0.052-0.191-0.034-0.288c0.205-1.146,1.409-2.044,2.743-2.044   c0.006,0,0.095,0.001,0.1,0.001c0.238,0.009,0.438,0.183,0.477,0.418c0.219,1.308,1.35,1.898,2.658,2.581   c1.166,0.608,2.475,1.292,3.025,2.631v-0.667c0-0.276,0.224-0.5,0.5-0.5h1.818c0.276,0,0.5,0.224,0.5,0.5v9.385   C21.336,20.905,21.112,21.129,20.836,21.129z M19.517,20.129h0.818v-8.385h-0.818v0.684c0,0.133-0.053,0.261-0.147,0.354   c-0.094,0.093-0.221,0.146-0.353,0.146c-0.001,0-0.001,0-0.002,0l-0.852-0.003c-0.224-0.001-0.42-0.15-0.479-0.366   c-0.328-1.177-1.458-1.767-2.654-2.392c-1.233-0.644-2.617-1.365-3.077-2.856c-0.691,0.113-1.256,0.536-1.421,1.056l0.687,1.575   c0.261,0.193,0.597,0.394,0.922,0.587c0.542,0.322,1.054,0.626,1.384,0.976c0.138,0.146,0.175,0.358,0.096,0.542   c-0.079,0.183-0.26,0.302-0.459,0.302H7.213c-0.396,0-0.717,0.321-0.717,0.716c0,0.278,0.165,0.535,0.419,0.653   c0.17,0.078,0.281,0.245,0.29,0.432c0.008,0.187-0.089,0.362-0.251,0.455c-0.226,0.13-0.365,0.368-0.365,0.624   c0,0.323,0.229,0.616,0.543,0.696c0.168,0.042,0.303,0.17,0.354,0.335c0.052,0.166,0.014,0.347-0.101,0.478   c-0.111,0.129-0.171,0.289-0.171,0.463c0,0.396,0.321,0.717,0.716,0.717c0.201,0,0.401,0.12,0.479,0.305   c0.079,0.186,0.059,0.399-0.081,0.543c-0.133,0.138-0.206,0.316-0.206,0.504c0,0.396,0.321,0.717,0.717,0.717h6.213l0.91-1.21   c0.095-0.125,0.242-0.199,0.399-0.199h2.655c0.276,0,0.5,0.224,0.5,0.5V20.129z"/><path fill="white" d="M13.924,23.961L13.924,23.961c-0.745,0-1.37-0.301-1.672-0.805l-0.526-1.193c-0.067-0.154-0.053-0.332,0.039-0.474   c0.093-0.142,0.25-0.227,0.419-0.227h2.993c0.198,0,0.378,0.117,0.458,0.3l0.311,0.709c0.04,0.092,0.052,0.193,0.033,0.292   C15.8,23.523,14.789,23.961,13.924,23.961z M12.949,22.263l0.191,0.437c0.087,0.137,0.406,0.262,0.784,0.262l0,0   c0.414,0,0.882-0.16,1.031-0.459l-0.105-0.239H12.949z"/><path fill="white" d="M22.479,11.744h-1.644c-0.276,0-0.5-0.224-0.5-0.5s0.224-0.5,0.5-0.5h1.644c0.276,0,0.5,0.224,0.5,0.5   S22.755,11.744,22.479,11.744z"/><path fill="white" d="M22.479,21.129h-1.492c-0.276,0-0.5-0.224-0.5-0.5s0.224-0.5,0.5-0.5h1.492c0.276,0,0.5,0.224,0.5,0.5   S22.755,21.129,22.479,21.129z"/></g></svg>