<svg xmlns="http://www.w3.org/2000/svg" viewBox="0 0 24 30" enable-background="new 0 0 24 24" x="0px" y="0px"><g><path fill='#FFFFFF' d="M21.536 21h-19.072c-1.359 0-2.464-1.088-2.464-2.426v-12.148c0-1.338 1.105-2.426 2.464-2.426h10.27c.553 0 1 .448 1 1s-.447 1-1 1h-10.27c-.256 0-.464.191-.464.426v12.148c0 .235.208.426.464.426h19.072c.256 0 .464-.191.464-.426v-10.717c0-.552.447-1 1-1s1 .448 1 1v10.717c0 1.338-1.105 2.426-2.464 2.426zM12 23.267c-.552 0-1-.447-1-1v-1.467c0-.553.448-1 1-1s1 .447 1 1v1.467c0 .552-.448 1-1 1zM16 24h-8c-.552 0-1-.447-1-1s.448-1 1-1h8c.553 0 1 .447 1 1s-.447 1-1 1zM8.698 17h-3.698c-.552 0-1-.447-1-1s.448-1 1-1h.765c.218 0 .355-.287.666-1.396.469-1.672 1.254-4.471 5.201-4.471.265 0 .52.105.707.293l2.2 2.2c.162.162.264.374.287.602.019.168.14 1.68-1.047 3-1.059 1.175-2.768 1.772-5.081 1.772zm-.602-2h.602c1.678 0 2.913-.375 3.571-1.086.387-.417.512-.88.552-1.177l-1.591-1.591c-1.964.129-2.381 1.245-2.873 2.999-.077.27-.159.563-.261.855zM14 13.2c-.254 0-.507-.096-.702-.288-.393-.388-.398-1.021-.01-1.415l8.572-8.697c.184-.184.184-.486.005-.665-.18-.179-.48-.179-.66 0l-8.703 8.578c-.393.388-1.026.382-1.415-.01-.388-.394-.383-1.027.01-1.415l8.698-8.572c.956-.957 2.521-.957 3.483.005s.962 2.526 0 3.488l-8.567 8.693c-.194.199-.452.298-.711.298z"/></g></svg>