<svg xmlns:dc="http://purl.org/dc/elements/1.1/" xmlns:cc="http://creativecommons.org/ns#" xmlns:rdf="http://www.w3.org/1999/02/22-rdf-syntax-ns#" xmlns:svg="http://www.w3.org/2000/svg" xmlns="http://www.w3.org/2000/svg" xmlns:sodipodi="http://sodipodi.sourceforge.net/DTD/sodipodi-0.dtd" xmlns:inkscape="http://www.inkscape.org/namespaces/inkscape" version="1.1" x="0px" y="0px" viewBox="0 0 100 125"><g transform="translate(0,-952.36218)"><path style="text-indent:0;text-transform:none;direction:ltr;block-progression:tb;baseline-shift:baseline;color:#000000;enable-background:accumulate;" d="m 74.407935,958.38621 c -0.4074,0.0119 -0.8101,0.15116 -1.1372,0.39322 l -42.8,31.70657 c -0.2697,0.19981 -0.4875,0.46833 -0.627,0.77282 -0.1395,0.30448 -0.2004,0.64429 -0.1751,0.97801 0.0252,0.33371 0.1365,0.66062 0.3203,0.94087 0.1837,0.28025 0.4395,0.51325 0.7362,0.67059 l 18.3963,9.75401 -27.7388,39.6372 c -1.3539,2.345 0.876,3.8653 2.8991,2.6972 l 54,-43.1348 c 0.2573,-0.2057 0.4624,-0.4756 0.591,-0.7781 0.1287,-0.3025 0.1808,-0.637 0.15,-0.964 -0.0307,-0.3271 -0.1441,-0.6461 -0.3269,-0.9196 -0.1828,-0.27354 -0.4345,-0.50096 -0.7257,-0.65554 l -17.5725,-9.32501 15.8285,-28.82211 c 0.1681,-0.30651 0.2534,-0.65755 0.2446,-1.00668 -0.009,-0.34912 -0.1117,-0.69546 -0.2951,-0.99316 -0.1834,-0.29771 -0.4469,-0.54605 -0.7555,-0.71216 -0.3086,-0.1661 -0.6615,-0.24956 -1.0122,-0.23933 z m -6.0947,9.04034 -12.4046,22.58814 c -0.1267,0.23073 -0.2069,0.48662 -0.2345,0.74811 -0.0277,0.2615 -0.003,0.5284 0.0729,0.78033 0.0756,0.25194 0.2019,0.4887 0.3691,0.69222 0.1672,0.20352 0.3753,0.37363 0.6084,0.49735 l 16.6775,8.85 -40.775,32.5711 21.075,-30.115 c 0.1614,-0.2306 0.273,-0.4955 0.3252,-0.7717 0.0522,-0.2762 0.045,-0.5634 -0.0212,-0.8366 -0.0661,-0.2732 -0.191,-0.5322 -0.3639,-0.7544 -0.1728,-0.2222 -0.3934,-0.4074 -0.6426,-0.5395 l -17.5963,-9.33002 z" fill="#FFFFFF" fill-opacity="1" fill-rule="evenodd" stroke="none" marker="none" visibility="visible" display="inline" overflow="visible"/></g></svg>